<?xml version="1.0" encoding="utf-8" standalone="no"?>
<!DOCTYPE svg PUBLIC "-//W3C//DTD SVG 1.1//EN"
  "http://www.w3.org/Graphics/SVG/1.1/DTD/svg11.dtd">
<svg xmlns:xlink="http://www.w3.org/1999/xlink" width="110.931122pt" height="100.257712pt" viewBox="0 0 110.931122 100.257712" xmlns="http://www.w3.org/2000/svg" version="1.1">
 <metadata>
  <rdf:RDF xmlns:dc="http://purl.org/dc/elements/1.1/" xmlns:cc="http://creativecommons.org/ns#" xmlns:rdf="http://www.w3.org/1999/02/22-rdf-syntax-ns#">
   <cc:Work>
    <dc:type rdf:resource="http://purl.org/dc/dcmitype/StillImage"/>
    <dc:date>2025-03-04T13:34:36.353350</dc:date>
    <dc:format>image/svg+xml</dc:format>
    <dc:creator>
     <cc:Agent>
      <dc:title>Matplotlib v3.6.0, https://matplotlib.org/</dc:title>
     </cc:Agent>
    </dc:creator>
   </cc:Work>
  </rdf:RDF>
 </metadata>
 <defs>
  <style type="text/css">*{stroke-linejoin: round; stroke-linecap: butt}</style>
 </defs>
 <g id="figure_1">
  <g id="patch_1">
   <path d="M 0 100.257712 
L 110.931122 100.257712 
L 110.931122 0 
L 0 0 
z
" style="fill: #ffffff"/>
  </g>
  <g id="axes_1">
   <g id="patch_2">
    <path d="M 44.960938 59.239219 
L 100.760938 59.239219 
L 100.760938 3.799219 
L 44.960938 3.799219 
z
" style="fill: #ffffff"/>
   </g>
   <g id="PolyCollection_1">
    <defs>
     <path id="m5e2575eb6d" d="M 44.960938 -68.833675 
L 44.960938 -53.434582 
L 50.540938 -63.869029 
L 56.120938 -77.188526 
L 61.700938 -80.720263 
L 67.280938 -71.521036 
L 72.860938 -61.304472 
L 78.440938 -59.414778 
L 84.020938 -63.578518 
L 89.600938 -67.696388 
L 95.180938 -59.097957 
L 100.760938 -62.179542 
L 100.760938 -75.551124 
L 100.760938 -75.551124 
L 95.180938 -71.347845 
L 89.600938 -77.680287 
L 84.020938 -78.65976 
L 78.440938 -78.022664 
L 72.860938 -77.042494 
L 67.280938 -82.167077 
L 61.700938 -92.618903 
L 56.120938 -93.84 
L 50.540938 -82.484943 
L 44.960938 -68.833675 
z
" style="stroke: #73c476; stroke-opacity: 0.2"/>
    </defs>
    <g clip-path="url(#pc344941aca)">
     <use xlink:href="#m5e2575eb6d" x="0" y="100.257712" style="fill: #73c476; fill-opacity: 0.2; stroke: #73c476; stroke-opacity: 0.2"/>
    </g>
   </g>
   <g id="PolyCollection_2">
    <defs>
     <path id="m9de6f720a3" d="M 44.960938 -61.771685 
L 44.960938 -46.78914 
L 50.540938 -57.485155 
L 56.120938 -55.700798 
L 61.700938 -61.925211 
L 67.280938 -58.165242 
L 72.860938 -64.815396 
L 78.440938 -78.148901 
L 84.020938 -70.775989 
L 89.600938 -70.727158 
L 95.180938 -69.610376 
L 100.760938 -60.711773 
L 100.760938 -75.556096 
L 100.760938 -75.556096 
L 95.180938 -78.669969 
L 89.600938 -74.587908 
L 84.020938 -96.461341 
L 78.440938 -93.036185 
L 72.860938 -81.424759 
L 67.280938 -85.857864 
L 61.700938 -68.593874 
L 56.120938 -74.592967 
L 50.540938 -65.770562 
L 44.960938 -61.771685 
z
" style="stroke: #319a50; stroke-opacity: 0.2"/>
    </defs>
    <g clip-path="url(#pc344941aca)">
     <use xlink:href="#m9de6f720a3" x="0" y="100.257712" style="fill: #319a50; fill-opacity: 0.2; stroke: #319a50; stroke-opacity: 0.2"/>
    </g>
   </g>
   <g id="matplotlib.axis_1">
    <g id="xtick_1">
     <g id="line2d_1">
      <defs>
       <path id="m6407d80136" d="M 0 0 
L 0 3.5 
" style="stroke: #000000; stroke-width: 0.8"/>
      </defs>
      <g>
       <use xlink:href="#m6407d80136" x="44.960938" y="59.239219" style="stroke: #000000; stroke-width: 0.8"/>
      </g>
     </g>
     <g id="text_1">
      <text style="font: 10px 'sans-serif'" transform="translate(44.662627 76.111092) rotate(-45)">0</text>
     </g>
    </g>
    <g id="xtick_2">
     <g id="line2d_2">
      <g>
       <use xlink:href="#m6407d80136" x="56.120938" y="59.239219" style="stroke: #000000; stroke-width: 0.8"/>
      </g>
     </g>
     <g id="text_2">
      <text style="font: 10px 'sans-serif'" transform="translate(53.573143 80.610059) rotate(-45)">20</text>
     </g>
    </g>
    <g id="xtick_3">
     <g id="line2d_3">
      <g>
       <use xlink:href="#m6407d80136" x="67.280938" y="59.239219" style="stroke: #000000; stroke-width: 0.8"/>
      </g>
     </g>
     <g id="text_3">
      <text style="font: 10px 'sans-serif'" transform="translate(64.733143 80.610059) rotate(-45)">40</text>
     </g>
    </g>
    <g id="xtick_4">
     <g id="line2d_4">
      <g>
       <use xlink:href="#m6407d80136" x="78.440938" y="59.239219" style="stroke: #000000; stroke-width: 0.8"/>
      </g>
     </g>
     <g id="text_4">
      <text style="font: 10px 'sans-serif'" transform="translate(75.893143 80.610059) rotate(-45)">60</text>
     </g>
    </g>
    <g id="xtick_5">
     <g id="line2d_5">
      <g>
       <use xlink:href="#m6407d80136" x="89.600938" y="59.239219" style="stroke: #000000; stroke-width: 0.8"/>
      </g>
     </g>
     <g id="text_5">
      <text style="font: 10px 'sans-serif'" transform="translate(87.053143 80.610059) rotate(-45)">80</text>
     </g>
    </g>
    <g id="xtick_6">
     <g id="line2d_6">
      <g>
       <use xlink:href="#m6407d80136" x="100.760938" y="59.239219" style="stroke: #000000; stroke-width: 0.8"/>
      </g>
     </g>
     <g id="text_6">
      <text style="font: 10px 'sans-serif'" transform="translate(95.96366 85.109026) rotate(-45)">100</text>
     </g>
    </g>
    <g id="text_7">
     <text style="font: 10px 'sans-serif'; text-anchor: middle" x="72.860938" y="98.178025" transform="rotate(-0 72.860938 98.178025)">Delay (ms)</text>
    </g>
   </g>
   <g id="matplotlib.axis_2">
    <g id="ytick_1">
     <g id="line2d_7">
      <defs>
       <path id="mcaa999cb69" d="M 0 0 
L -3.5 0 
" style="stroke: #000000; stroke-width: 0.8"/>
      </defs>
      <g>
       <use xlink:href="#mcaa999cb69" x="44.960938" y="59.239219" style="stroke: #000000; stroke-width: 0.8"/>
      </g>
     </g>
     <g id="text_8">
      <text style="font: 10px 'sans-serif'; text-anchor: end" x="37.960938" y="63.038437" transform="rotate(-0 37.960938 63.038437)">−1.5</text>
     </g>
    </g>
    <g id="ytick_2">
     <g id="line2d_8">
      <g>
       <use xlink:href="#mcaa999cb69" x="44.960938" y="31.519219" style="stroke: #000000; stroke-width: 0.8"/>
      </g>
     </g>
     <g id="text_9">
      <text style="font: 10px 'sans-serif'; text-anchor: end" x="37.960938" y="35.318437" transform="rotate(-0 37.960938 35.318437)">0.0</text>
     </g>
    </g>
    <g id="ytick_3">
     <g id="line2d_9">
      <g>
       <use xlink:href="#mcaa999cb69" x="44.960938" y="3.799219" style="stroke: #000000; stroke-width: 0.8"/>
      </g>
     </g>
     <g id="text_10">
      <text style="font: 10px 'sans-serif'; text-anchor: end" x="37.960938" y="7.598437" transform="rotate(-0 37.960938 7.598437)">1.5</text>
     </g>
    </g>
    <g id="text_11">
     <text style="font: 10px 'sans-serif'; text-anchor: middle" x="7.598438" y="31.519219" transform="rotate(-90 7.598438 31.519219)">Normalized FR</text>
    </g>
   </g>
   <g id="line2d_10">
    <path d="M 44.960938 39.123584 
L 50.540938 27.080726 
L 56.120938 14.74345 
L 61.700938 13.588129 
L 67.280938 23.413656 
L 72.860938 31.084229 
L 78.440938 31.538991 
L 84.020938 29.138573 
L 89.600938 27.569375 
L 95.180938 35.034811 
L 100.760938 31.392379 
" clip-path="url(#pc344941aca)" style="fill: none; stroke: #73c476; stroke-width: 1.5; stroke-linecap: square"/>
   </g>
   <g id="line2d_11">
    <path d="M 44.960938 45.9773 
L 50.540938 38.629853 
L 56.120938 35.11083 
L 61.700938 34.99817 
L 67.280938 28.246159 
L 72.860938 27.137635 
L 78.440938 14.665169 
L 84.020938 16.639048 
L 89.600938 27.60018 
L 95.180938 26.11754 
L 100.760938 32.123778 
" clip-path="url(#pc344941aca)" style="fill: none; stroke: #319a50; stroke-width: 1.5; stroke-linecap: square"/>
   </g>
   <g id="patch_3">
    <path d="M 44.960938 59.239219 
L 44.960938 3.799219 
" style="fill: none; stroke: #000000; stroke-width: 0.8; stroke-linejoin: miter; stroke-linecap: square"/>
   </g>
   <g id="patch_4">
    <path d="M 44.960938 59.239219 
L 100.760938 59.239219 
" style="fill: none; stroke: #000000; stroke-width: 0.8; stroke-linejoin: miter; stroke-linecap: square"/>
   </g>
  </g>
 </g>
 <defs>
  <clipPath id="pc344941aca">
   <rect x="44.960938" y="3.799219" width="55.8" height="55.44"/>
  </clipPath>
 </defs>
</svg>
