<?xml version="1.0" encoding="utf-8" standalone="no"?>
<!DOCTYPE svg PUBLIC "-//W3C//DTD SVG 1.1//EN"
  "http://www.w3.org/Graphics/SVG/1.1/DTD/svg11.dtd">
<svg xmlns:xlink="http://www.w3.org/1999/xlink" width="106.603125pt" height="88.750125pt" viewBox="0 0 106.603125 88.750125" xmlns="http://www.w3.org/2000/svg" version="1.1">
 <metadata>
  <rdf:RDF xmlns:dc="http://purl.org/dc/elements/1.1/" xmlns:cc="http://creativecommons.org/ns#" xmlns:rdf="http://www.w3.org/1999/02/22-rdf-syntax-ns#">
   <cc:Work>
    <dc:type rdf:resource="http://purl.org/dc/dcmitype/StillImage"/>
    <dc:date>2025-06-05T15:43:02.482162</dc:date>
    <dc:format>image/svg+xml</dc:format>
    <dc:creator>
     <cc:Agent>
      <dc:title>Matplotlib v3.6.0, https://matplotlib.org/</dc:title>
     </cc:Agent>
    </dc:creator>
   </cc:Work>
  </rdf:RDF>
 </metadata>
 <defs>
  <style type="text/css">*{stroke-linejoin: round; stroke-linecap: butt}</style>
 </defs>
 <g id="figure_1">
  <g id="patch_1">
   <path d="M 0 88.750125 
L 106.603125 88.750125 
L 106.603125 0 
L 0 0 
z
" style="fill: #ffffff"/>
  </g>
  <g id="axes_1">
   <g id="PolyCollection_1">
    <defs>
     <path id="ma365120374" d="M 23.679563 -72.434365 
L 23.679563 -70.054065 
L 24.215037 -70.437575 
L 24.750512 -69.817572 
L 25.285986 -71.505003 
L 25.82146 -69.829589 
L 26.356935 -70.512063 
L 26.892409 -70.331225 
L 27.427883 -70.510834 
L 27.963358 -70.395004 
L 28.498832 -70.789656 
L 29.034307 -69.82828 
L 29.569781 -71.286553 
L 30.105255 -70.113048 
L 30.64073 -70.148523 
L 31.176204 -70.143408 
L 31.711679 -70.048631 
L 32.247153 -70.993296 
L 32.782627 -69.641931 
L 33.318102 -70.203301 
L 33.853576 -70.208735 
L 34.38905 -69.71642 
L 34.924525 -71.399244 
L 35.459999 -69.780892 
L 35.995474 -70.169726 
L 36.530948 -71.563827 
L 37.066422 -69.889164 
L 37.601897 -70.095725 
L 38.137371 -69.626426 
L 38.672845 -70.91833 
L 39.20832 -69.637567 
L 39.20832 -72.017867 
L 39.20832 -72.017867 
L 38.672845 -70.91833 
L 38.137371 -72.958152 
L 37.601897 -72.476025 
L 37.066422 -72.269464 
L 36.530948 -71.563827 
L 35.995474 -74.782292 
L 35.459999 -74.541492 
L 34.924525 -71.399244 
L 34.38905 -73.048146 
L 33.853576 -72.589035 
L 33.318102 -72.583601 
L 32.782627 -72.973657 
L 32.247153 -70.993296 
L 31.711679 -72.428931 
L 31.176204 -73.475134 
L 30.64073 -73.480249 
L 30.105255 -72.493348 
L 29.569781 -71.286553 
L 29.034307 -73.866066 
L 28.498832 -73.169956 
L 27.963358 -73.72673 
L 27.427883 -73.84256 
L 26.892409 -73.662951 
L 26.356935 -72.892363 
L 25.82146 -73.161315 
L 25.285986 -71.505003 
L 24.750512 -73.855357 
L 24.215037 -72.817875 
L 23.679563 -72.434365 
z
" style="stroke: #000000; stroke-opacity: 0.2"/>
    </defs>
    <g clip-path="url(#p15f3d61759)">
     <use xlink:href="#ma365120374" x="0" y="88.750125" style="fill-opacity: 0.2; stroke: #000000; stroke-opacity: 0.2"/>
    </g>
   </g>
   <g id="line2d_1">
    <path d="M 23.679563 17.50591 
L 24.215037 17.1224 
L 24.750512 16.91366 
L 25.285986 17.245122 
L 25.82146 17.254673 
L 26.356935 17.047912 
L 26.892409 16.753037 
L 27.427883 16.573428 
L 27.963358 16.689258 
L 28.498832 16.770319 
L 29.034307 16.902952 
L 29.569781 17.463572 
L 30.105255 17.446927 
L 30.64073 16.935739 
L 31.176204 16.940854 
L 31.711679 17.511344 
L 32.247153 17.756829 
L 32.782627 17.442331 
L 33.318102 17.356674 
L 33.853576 17.35124 
L 34.38905 17.367842 
L 34.924525 17.350881 
L 35.459999 16.588933 
L 35.995474 16.274116 
L 36.530948 17.186298 
L 37.066422 17.670811 
L 37.601897 17.46425 
L 38.137371 17.457836 
L 38.672845 17.831795 
L 39.20832 17.922408 
" clip-path="url(#p15f3d61759)" style="fill: none; stroke: #000000; stroke-width: 1.5; stroke-linecap: square"/>
   </g>
  </g>
  <g id="axes_2">
   <g id="PolyCollection_2">
    <defs>
     <path id="m436278cd3d" d="M 45.885685 -73.149712 
L 45.885685 -70.769412 
L 46.42116 -70.077112 
L 46.956634 -70.975094 
L 47.492108 -70.981359 
L 48.027583 -70.69881 
L 48.563057 -69.86177 
L 49.098532 -70.358872 
L 49.634006 -70.813839 
L 50.16948 -71.575653 
L 50.704955 -73.83849 
L 51.240429 -77.975832 
L 51.775903 -78.465556 
L 52.311378 -76.297331 
L 52.846852 -72.22324 
L 53.382327 -72.035677 
L 53.917801 -71.635904 
L 54.453275 -72.523829 
L 54.98875 -72.145968 
L 55.524224 -72.529594 
L 56.059698 -72.165837 
L 56.595173 -71.18385 
L 57.130647 -70.780121 
L 57.666122 -70.417491 
L 58.201596 -70.218374 
L 58.73707 -70.207665 
L 59.272545 -70.273152 
L 59.808019 -70.011543 
L 60.343493 -70.203837 
L 60.878968 -71.329394 
L 61.414442 -71.611243 
L 61.414442 -76.711886 
L 61.414442 -76.711886 
L 60.878968 -73.709694 
L 60.343493 -72.584137 
L 59.808019 -72.391843 
L 59.272545 -72.653452 
L 58.73707 -73.539392 
L 58.201596 -73.5501 
L 57.666122 -72.797791 
L 57.130647 -73.160421 
L 56.595173 -75.221635 
L 56.059698 -76.778402 
L 55.524224 -77.630237 
L 54.98875 -77.876472 
L 54.453275 -77.136395 
L 53.917801 -76.736547 
L 53.382327 -74.415977 
L 52.846852 -76.98384 
L 52.311378 -82.196854 
L 51.775903 -87.740689 
L 51.240429 -85.018907 
L 50.704955 -79.568994 
L 50.16948 -74.907379 
L 49.634006 -73.194139 
L 49.098532 -73.690598 
L 48.563057 -74.62237 
L 48.027583 -74.030536 
L 47.492108 -74.313085 
L 46.956634 -75.01288 
L 46.42116 -75.355996 
L 45.885685 -73.149712 
z
" style="stroke: #000000; stroke-opacity: 0.2"/>
    </defs>
    <g clip-path="url(#p532c3d1962)">
     <use xlink:href="#m436278cd3d" x="0" y="88.750125" style="fill-opacity: 0.2; stroke: #000000; stroke-opacity: 0.2"/>
    </g>
   </g>
   <g id="line2d_2">
    <path d="M 45.885685 16.790563 
L 46.42116 16.033571 
L 46.956634 15.756138 
L 47.492108 16.102903 
L 48.027583 16.385452 
L 48.563057 16.508055 
L 49.098532 16.72539 
L 49.634006 16.746136 
L 50.16948 15.508609 
L 50.704955 12.046383 
L 51.240429 7.252756 
L 51.775903 5.647002 
L 52.311378 9.503033 
L 52.846852 14.146585 
L 53.382327 15.524298 
L 53.917801 14.5639 
L 54.453275 13.920013 
L 54.98875 13.738905 
L 55.524224 13.67021 
L 56.059698 14.278006 
L 56.595173 15.547382 
L 57.130647 16.779854 
L 57.666122 17.142484 
L 58.201596 16.865888 
L 58.73707 16.876596 
L 59.272545 17.286823 
L 59.808019 17.548432 
L 60.343493 17.356138 
L 60.878968 16.230581 
L 61.414442 14.58856 
" clip-path="url(#p532c3d1962)" style="fill: none; stroke: #000000; stroke-width: 1.5; stroke-linecap: square"/>
   </g>
  </g>
  <g id="axes_3">
   <g id="PolyCollection_3">
    <defs>
     <path id="m752a3b2023" d="M 68.091808 -73.816665 
L 68.091808 -70.484939 
L 68.627282 -69.93487 
L 69.162757 -70.828395 
L 69.698231 -70.923605 
L 70.233705 -69.336976 
L 70.76918 -70.795568 
L 71.304654 -70.259457 
L 71.840128 -70.775954 
L 72.375603 -70.988661 
L 72.911077 -74.690584 
L 73.446552 -78.194358 
L 73.982026 -77.048728 
L 74.5175 -77.068931 
L 75.052975 -73.097237 
L 75.588449 -72.598629 
L 76.123923 -71.961241 
L 76.659398 -71.552232 
L 77.194872 -71.547031 
L 77.730347 -71.589798 
L 78.265821 -71.92059 
L 78.801295 -71.254902 
L 79.33677 -71.568669 
L 79.872244 -71.120901 
L 80.407718 -70.836726 
L 80.943193 -71.216588 
L 81.478667 -70.890115 
L 82.014142 -71.274775 
L 82.549616 -71.039511 
L 83.08509 -70.702936 
L 83.620565 -70.769571 
L 83.620565 -73.149871 
L 83.620565 -73.149871 
L 83.08509 -74.740721 
L 82.549616 -75.077297 
L 82.014142 -74.606501 
L 81.478667 -74.927901 
L 80.943193 -74.548314 
L 80.407718 -74.874511 
L 79.872244 -74.452627 
L 79.33677 -74.900395 
L 78.801295 -76.355545 
L 78.265821 -75.252316 
L 77.730347 -75.627584 
L 77.194872 -76.159597 
L 76.659398 -75.590018 
L 76.123923 -75.292967 
L 75.588449 -77.211194 
L 75.052975 -79.90659 
L 74.5175 -81.106716 
L 73.982026 -88.550022 
L 73.446552 -85.652081 
L 72.911077 -78.72837 
L 72.375603 -74.320387 
L 71.840128 -70.775954 
L 71.304654 -70.259457 
L 70.76918 -70.795568 
L 70.233705 -73.374762 
L 69.698231 -70.923605 
L 69.162757 -70.828395 
L 68.627282 -73.266596 
L 68.091808 -73.816665 
z
" style="stroke: #000000; stroke-opacity: 0.2"/>
    </defs>
    <g clip-path="url(#pbb2abc67c6)">
     <use xlink:href="#m752a3b2023" x="0" y="88.750125" style="fill-opacity: 0.2; stroke: #000000; stroke-opacity: 0.2"/>
    </g>
   </g>
   <g id="line2d_3">
    <path d="M 68.091808 16.599323 
L 68.627282 17.149392 
L 69.162757 17.92173 
L 69.698231 17.82652 
L 70.233705 17.394256 
L 70.76918 17.954557 
L 71.304654 18.490668 
L 71.840128 17.974171 
L 72.375603 16.095601 
L 72.911077 12.040648 
L 73.446552 6.826905 
L 73.982026 5.95075 
L 74.5175 9.662301 
L 75.052975 12.248212 
L 75.588449 13.845213 
L 76.123923 15.123021 
L 76.659398 15.179 
L 77.194872 14.896811 
L 77.730347 15.141434 
L 78.265821 15.163672 
L 78.801295 14.944902 
L 79.33677 15.515593 
L 79.872244 15.963361 
L 80.407718 15.894507 
L 80.943193 15.867674 
L 81.478667 15.841117 
L 82.014142 15.809487 
L 82.549616 15.691721 
L 83.08509 16.028296 
L 83.620565 16.790404 
" clip-path="url(#pbb2abc67c6)" style="fill: none; stroke: #000000; stroke-width: 1.5; stroke-linecap: square"/>
   </g>
  </g>
  <g id="axes_4">
   <g id="PolyCollection_4">
    <defs>
     <path id="me841420a4e" d="M 90.29793 -70.903202 
L 90.29793 -66.142602 
L 90.833405 -66.262975 
L 91.368879 -66.766193 
L 91.904353 -67.09105 
L 92.439828 -66.234392 
L 92.975302 -66.580515 
L 93.510776 -66.39609 
L 94.046251 -66.816918 
L 94.581725 -67.67665 
L 95.1172 -70.82641 
L 95.652674 -74.49901 
L 96.188148 -74.734402 
L 96.723623 -72.128943 
L 97.259097 -68.336623 
L 97.794571 -67.67133 
L 98.330046 -67.818972 
L 98.86552 -68.197675 
L 99.400995 -67.851583 
L 99.936469 -68.867332 
L 100.471943 -68.013867 
L 101.007418 -67.221257 
L 101.542892 -66.669747 
L 102.078367 -65.485268 
L 102.613841 -66.295987 
L 103.149315 -66.37618 
L 103.68479 -65.48144 
L 104.220264 -65.426393 
L 104.755738 -65.322509 
L 105.291213 -66.117556 
L 105.826687 -67.383248 
L 105.826687 -73.233566 
L 105.826687 -73.233566 
L 105.291213 -71.396441 
L 104.755738 -70.688294 
L 104.220264 -70.186993 
L 103.68479 -70.242041 
L 103.149315 -71.13678 
L 102.613841 -73.062755 
L 102.078367 -72.690648 
L 101.542892 -70.707533 
L 101.007418 -72.587043 
L 100.471943 -74.366392 
L 99.936469 -74.717651 
L 99.400995 -75.424697 
L 98.86552 -74.08739 
L 98.330046 -73.66929 
L 97.794571 -73.037116 
L 97.259097 -75.13748 
L 96.723623 -79.609886 
L 96.188148 -84.683199 
L 95.652674 -82.828325 
L 95.1172 -77.178935 
L 94.581725 -73.566366 
L 94.046251 -72.182704 
L 93.510776 -72.285805 
L 92.975302 -71.946301 
L 92.439828 -72.124108 
L 91.904353 -71.85165 
L 91.368879 -73.53296 
L 90.833405 -73.063833 
L 90.29793 -70.903202 
z
" style="stroke: #ff0000; stroke-opacity: 0.2"/>
    </defs>
    <g clip-path="url(#p21d3e000c3)">
     <use xlink:href="#me841420a4e" x="0" y="88.750125" style="fill: #ff0000; fill-opacity: 0.2; stroke: #ff0000; stroke-opacity: 0.2"/>
    </g>
   </g>
   <g id="line2d_4">
    <path d="M 90.29793 20.227223 
L 90.833405 19.086721 
L 91.368879 18.600548 
L 91.904353 19.278775 
L 92.439828 19.570875 
L 92.975302 19.486717 
L 93.510776 19.409178 
L 94.046251 19.250314 
L 94.581725 18.128617 
L 95.1172 14.747452 
L 95.652674 10.086458 
L 96.188148 9.041324 
L 96.723623 12.88071 
L 97.259097 17.013074 
L 97.794571 18.395902 
L 98.330046 18.005994 
L 98.86552 17.607592 
L 99.400995 17.111985 
L 99.936469 16.957633 
L 100.471943 17.559995 
L 101.007418 18.845975 
L 101.542892 20.061485 
L 102.078367 19.662167 
L 102.613841 19.070754 
L 103.149315 19.993645 
L 103.68479 20.888384 
L 104.220264 20.943432 
L 104.755738 20.744723 
L 105.291213 19.993126 
L 105.826687 18.441718 
" clip-path="url(#p21d3e000c3)" style="fill: none; stroke: #ff0000; stroke-width: 1.5; stroke-linecap: square"/>
   </g>
  </g>
  <g id="axes_5">
   <g id="PolyCollection_5">
    <defs>
     <path id="mf0c0b426f2" d="M 23.679563 -46.742262 
L 23.679563 -44.097001 
L 24.215037 -43.648209 
L 24.750512 -44.221204 
L 25.285986 -43.810741 
L 25.82146 -43.88646 
L 26.356935 -43.085541 
L 26.892409 -43.929102 
L 27.427883 -43.941539 
L 27.963358 -43.24697 
L 28.498832 -44.674437 
L 29.034307 -43.796416 
L 29.569781 -44.351154 
L 30.105255 -43.849069 
L 30.64073 -44.966448 
L 31.176204 -44.596778 
L 31.711679 -45.333461 
L 32.247153 -46.16176 
L 32.782627 -46.270764 
L 33.318102 -46.860562 
L 33.853576 -45.302505 
L 34.38905 -44.516038 
L 34.924525 -44.861535 
L 35.459999 -44.873364 
L 35.995474 -45.897685 
L 36.530948 -45.970834 
L 37.066422 -45.638591 
L 37.601897 -45.987962 
L 38.137371 -46.131451 
L 38.672845 -46.157391 
L 39.20832 -46.844308 
L 39.20832 -51.995216 
L 39.20832 -51.995216 
L 38.672845 -51.563754 
L 38.137371 -49.337297 
L 37.601897 -49.193808 
L 37.066422 -51.454158 
L 36.530948 -51.377198 
L 35.995474 -49.103531 
L 35.459999 -48.07921 
L 34.924525 -47.506797 
L 34.38905 -48.707268 
L 33.853576 -49.852304 
L 33.318102 -50.910276 
L 32.782627 -52.710813 
L 32.247153 -50.711559 
L 31.711679 -49.524692 
L 31.176204 -49.463928 
L 30.64073 -47.61171 
L 30.105255 -47.628802 
L 29.569781 -46.996416 
L 29.034307 -47.002262 
L 28.498832 -44.674437 
L 27.963358 -45.136837 
L 27.427883 -43.941539 
L 26.892409 -43.929102 
L 26.356935 -44.975407 
L 25.82146 -43.88646 
L 25.285986 -43.810741 
L 24.750512 -44.221204 
L 24.215037 -46.293471 
L 23.679563 -46.742262 
z
" style="stroke: #000000; stroke-opacity: 0.2"/>
    </defs>
    <g clip-path="url(#p89ea4c95d9)">
     <use xlink:href="#mf0c0b426f2" x="0" y="88.750125" style="fill-opacity: 0.2; stroke: #000000; stroke-opacity: 0.2"/>
    </g>
   </g>
   <g id="line2d_5">
    <path d="M 23.679563 43.330494 
L 24.215037 43.779285 
L 24.750512 44.528921 
L 25.285986 44.939384 
L 25.82146 44.863665 
L 26.356935 44.719651 
L 26.892409 44.821023 
L 27.427883 44.808586 
L 27.963358 44.558221 
L 28.498832 44.075688 
L 29.034307 43.350786 
L 29.569781 43.07634 
L 30.105255 43.01119 
L 30.64073 42.461046 
L 31.176204 41.719772 
L 31.711679 41.321049 
L 32.247153 40.313466 
L 32.782627 39.259336 
L 33.318102 39.864706 
L 33.853576 41.172721 
L 34.38905 42.138472 
L 34.924525 42.565959 
L 35.459999 42.273838 
L 35.995474 41.249517 
L 36.530948 40.076109 
L 37.066422 40.203751 
L 37.601897 41.15924 
L 38.137371 41.015751 
L 38.672845 39.889552 
L 39.20832 39.330363 
" clip-path="url(#p89ea4c95d9)" style="fill: none; stroke: #000000; stroke-width: 1.5; stroke-linecap: square"/>
   </g>
  </g>
  <g id="axes_6">
   <g id="PolyCollection_6">
    <defs>
     <path id="ma9ff6ee1b9" d="M 45.885685 -50.44881 
L 45.885685 -44.26277 
L 46.42116 -44.487926 
L 46.956634 -44.377723 
L 47.492108 -44.177966 
L 48.027583 -43.979524 
L 48.563057 -44.110666 
L 49.098532 -43.475021 
L 49.634006 -44.450104 
L 50.16948 -43.475617 
L 50.704955 -43.649185 
L 51.240429 -43.826687 
L 51.775903 -43.466392 
L 52.311378 -44.623292 
L 52.846852 -43.241933 
L 53.382327 -44.394519 
L 53.917801 -43.412036 
L 54.453275 -43.318122 
L 54.98875 -43.929102 
L 55.524224 -43.708452 
L 56.059698 -43.704643 
L 56.595173 -43.88646 
L 57.130647 -43.191512 
L 57.666122 -44.437035 
L 58.201596 -43.588815 
L 58.73707 -43.546426 
L 59.272545 -44.272981 
L 59.808019 -44.171371 
L 60.343493 -44.162489 
L 60.878968 -44.883611 
L 61.414442 -46.079429 
L 61.414442 -51.485793 
L 61.414442 -51.485793 
L 60.878968 -49.074842 
L 60.343493 -46.052356 
L 59.808019 -44.171371 
L 59.272545 -44.272981 
L 58.73707 -46.191688 
L 58.201596 -46.234077 
L 57.666122 -44.437035 
L 57.130647 -45.081378 
L 56.595173 -43.88646 
L 56.059698 -43.704643 
L 55.524224 -43.708452 
L 54.98875 -43.929102 
L 54.453275 -45.207989 
L 53.917801 -45.301902 
L 53.382327 -44.394519 
L 52.846852 -45.887195 
L 52.311378 -44.623292 
L 51.775903 -46.111654 
L 51.240429 -45.716553 
L 50.704955 -45.539051 
L 50.16948 -45.365484 
L 49.634006 -44.450104 
L 49.098532 -46.120283 
L 48.563057 -46.000533 
L 48.027583 -46.624786 
L 47.492108 -46.823227 
L 46.956634 -47.022985 
L 46.42116 -48.267659 
L 45.885685 -50.44881 
z
" style="stroke: #000000; stroke-opacity: 0.2"/>
    </defs>
    <g clip-path="url(#p6ed995705b)">
     <use xlink:href="#ma9ff6ee1b9" x="0" y="88.750125" style="fill-opacity: 0.2; stroke: #000000; stroke-opacity: 0.2"/>
    </g>
   </g>
   <g id="line2d_6">
    <path d="M 45.885685 41.394335 
L 46.42116 42.372332 
L 46.956634 43.049771 
L 47.492108 43.249529 
L 48.027583 43.44797 
L 48.563057 43.694526 
L 49.098532 43.952473 
L 49.634006 44.300021 
L 50.16948 44.329575 
L 50.704955 44.156007 
L 51.240429 43.978505 
L 51.775903 43.961102 
L 52.311378 44.126833 
L 52.846852 44.185561 
L 53.382327 44.355606 
L 53.917801 44.393156 
L 54.453275 44.487069 
L 54.98875 44.821023 
L 55.524224 45.041673 
L 56.059698 45.045482 
L 56.595173 44.863665 
L 57.130647 44.61368 
L 57.666122 44.31309 
L 58.201596 43.838679 
L 58.73707 43.881068 
L 59.272545 44.477144 
L 59.808019 44.578754 
L 60.343493 43.642703 
L 60.878968 41.770898 
L 61.414442 39.967514 
" clip-path="url(#p6ed995705b)" style="fill: none; stroke: #000000; stroke-width: 1.5; stroke-linecap: square"/>
   </g>
  </g>
  <g id="axes_7">
   <g id="PolyCollection_7">
    <defs>
     <path id="mcd445d41d6" d="M 68.091808 -47.187887 
L 68.091808 -43.982041 
L 68.627282 -45.048015 
L 69.162757 -43.716231 
L 69.698231 -43.71661 
L 70.233705 -45.060578 
L 70.76918 -42.902965 
L 71.304654 -44.167166 
L 71.840128 -44.482103 
L 72.375603 -44.038412 
L 72.911077 -44.789289 
L 73.446552 -43.534667 
L 73.982026 -44.11498 
L 74.5175 -43.408733 
L 75.052975 -44.145722 
L 75.588449 -44.42205 
L 76.123923 -46.850336 
L 76.659398 -50.16076 
L 77.194872 -52.93237 
L 77.730347 -53.235196 
L 78.265821 -50.147535 
L 78.801295 -46.691028 
L 79.33677 -45.476975 
L 79.872244 -45.150334 
L 80.407718 -44.967462 
L 80.943193 -45.308156 
L 81.478667 -45.063188 
L 82.014142 -45.874651 
L 82.549616 -46.734791 
L 83.08509 -46.711835 
L 83.620565 -48.124941 
L 83.620565 -52.511612 
L 83.620565 -52.511612 
L 83.08509 -53.854858 
L 82.549616 -51.28459 
L 82.014142 -50.42445 
L 81.478667 -50.878755 
L 80.943193 -49.499387 
L 80.407718 -48.629662 
L 79.872244 -47.795596 
L 79.33677 -48.682821 
L 78.801295 -51.558178 
L 78.265821 -55.784902 
L 77.730347 -61.604604 
L 77.194872 -63.066548 
L 76.659398 -56.007577 
L 76.123923 -48.740203 
L 75.588449 -47.067312 
L 75.052975 -46.790984 
L 74.5175 -47.188466 
L 73.982026 -46.004847 
L 73.446552 -46.179929 
L 72.911077 -44.789289 
L 72.375603 -46.683674 
L 71.840128 -47.687949 
L 71.304654 -48.358397 
L 70.76918 -48.572564 
L 70.233705 -45.060578 
L 69.698231 -46.361872 
L 69.162757 -46.361493 
L 68.627282 -45.048015 
L 68.091808 -47.187887 
z
" style="stroke: #000000; stroke-opacity: 0.2"/>
    </defs>
    <g clip-path="url(#p4d7f0aef6e)">
     <use xlink:href="#mcd445d41d6" x="0" y="88.750125" style="fill-opacity: 0.2; stroke: #000000; stroke-opacity: 0.2"/>
    </g>
   </g>
   <g id="line2d_7">
    <path d="M 68.091808 43.165161 
L 68.627282 43.70211 
L 69.162757 43.711263 
L 69.698231 43.710884 
L 70.233705 43.689547 
L 70.76918 43.01236 
L 71.304654 42.487343 
L 71.840128 42.665099 
L 72.375603 43.389082 
L 72.911077 43.960836 
L 73.446552 43.892827 
L 73.982026 43.690211 
L 74.5175 43.451525 
L 75.052975 43.281772 
L 75.588449 43.005444 
L 76.123923 40.954856 
L 76.659398 35.665956 
L 77.194872 30.750666 
L 77.730347 31.330225 
L 78.265821 35.783906 
L 78.801295 39.625522 
L 79.33677 41.670227 
L 79.872244 42.27716 
L 80.407718 41.951563 
L 80.943193 41.346354 
L 81.478667 40.779153 
L 82.014142 40.600575 
L 82.549616 39.740434 
L 83.08509 38.466779 
L 83.620565 38.431848 
" clip-path="url(#p4d7f0aef6e)" style="fill: none; stroke: #000000; stroke-width: 1.5; stroke-linecap: square"/>
   </g>
  </g>
  <g id="axes_8">
   <g id="PolyCollection_8">
    <defs>
     <path id="m93b3f8508c" d="M 90.29793 -50.871226 
L 90.29793 -43.601768 
L 90.833405 -43.123432 
L 91.368879 -42.473581 
L 91.904353 -41.863359 
L 92.439828 -42.299786 
L 92.975302 -41.638095 
L 93.510776 -41.278776 
L 94.046251 -41.530088 
L 94.581725 -41.164476 
L 95.1172 -42.081861 
L 95.652674 -42.309571 
L 96.188148 -43.034017 
L 96.723623 -42.4852 
L 97.259097 -42.992255 
L 97.794571 -43.051147 
L 98.330046 -43.560844 
L 98.86552 -44.020992 
L 99.400995 -44.306905 
L 99.936469 -44.959331 
L 100.471943 -43.420659 
L 101.007418 -42.829075 
L 101.542892 -42.651573 
L 102.078367 -43.244284 
L 102.613841 -44.380371 
L 103.149315 -44.694817 
L 103.68479 -44.018239 
L 104.220264 -44.093218 
L 104.755738 -44.980408 
L 105.291213 -46.638675 
L 105.826687 -48.333221 
L 105.826687 -56.993676 
L 105.826687 -56.993676 
L 105.291213 -53.963074 
L 104.755738 -49.625335 
L 104.220264 -48.353445 
L 103.68479 -50.542622 
L 103.149315 -51.31348 
L 102.613841 -49.365888 
L 102.078367 -47.504511 
L 101.542892 -46.9118 
L 101.007418 -47.089302 
L 100.471943 -48.065587 
L 99.936469 -49.150561 
L 99.400995 -51.455028 
L 98.86552 -50.300588 
L 98.330046 -48.933397 
L 97.794571 -48.720747 
L 97.259097 -47.637182 
L 96.723623 -47.161406 
L 96.188148 -46.81375 
L 95.652674 -46.954498 
L 95.1172 -45.377398 
L 94.581725 -44.982583 
L 94.046251 -44.17535 
L 93.510776 -45.096883 
L 92.975302 -45.456202 
L 92.439828 -44.999595 
L 91.904353 -45.681466 
L 91.368879 -46.291687 
L 90.833405 -48.495984 
L 90.29793 -50.871226 
z
" style="stroke: #ff0000; stroke-opacity: 0.2"/>
    </defs>
    <g clip-path="url(#p423979c655)">
     <use xlink:href="#m93b3f8508c" x="0" y="88.750125" style="fill: #ff0000; fill-opacity: 0.2; stroke: #ff0000; stroke-opacity: 0.2"/>
    </g>
   </g>
   <g id="line2d_8">
    <path d="M 90.29793 41.513628 
L 90.833405 42.940417 
L 91.368879 44.367491 
L 91.904353 44.977712 
L 92.439828 45.100434 
L 92.975302 45.202976 
L 93.510776 45.562295 
L 94.046251 45.897406 
L 94.581725 45.676596 
L 95.1172 45.020495 
L 95.652674 44.118091 
L 96.188148 43.826242 
L 96.723623 43.926822 
L 97.259097 43.435407 
L 97.794571 42.864178 
L 98.330046 42.503004 
L 98.86552 41.589335 
L 99.400995 40.869158 
L 99.936469 41.695179 
L 100.471943 43.007002 
L 101.007418 43.790937 
L 101.542892 43.968439 
L 102.078367 43.375728 
L 102.613841 41.876996 
L 103.149315 40.745977 
L 103.68479 41.469694 
L 104.220264 42.526794 
L 104.755738 41.447253 
L 105.291213 38.44925 
L 105.826687 36.086677 
" clip-path="url(#p423979c655)" style="fill: none; stroke: #ff0000; stroke-width: 1.5; stroke-linecap: square"/>
   </g>
  </g>
  <g id="axes_9">
   <g id="patch_2">
    <path d="M 22.903125 72.072 
L 39.984758 72.072 
L 39.984758 52.052 
L 22.903125 52.052 
z
" style="fill: #ffffff"/>
   </g>
   <g id="PolyCollection_9">
    <defs>
     <path id="mf6627a0a71" d="M 23.679563 -22.790414 
L 23.679563 -18.261682 
L 24.215037 -20.160874 
L 24.750512 -17.714073 
L 25.285986 -19.510777 
L 25.82146 -19.187609 
L 26.356935 -19.510474 
L 26.892409 -17.704038 
L 27.427883 -20.038315 
L 27.963358 -17.703735 
L 28.498832 -19.500438 
L 29.034307 -19.06505 
L 29.569781 -18.952526 
L 30.105255 -18.943097 
L 30.64073 -18.952526 
L 31.176204 -19.06505 
L 31.711679 -19.500438 
L 32.247153 -17.703735 
L 32.782627 -20.038315 
L 33.318102 -17.704038 
L 33.853576 -19.510777 
L 34.38905 -19.197644 
L 34.924525 -19.632729 
L 35.459999 -18.252253 
L 35.995474 -18.687338 
L 36.530948 -18.374205 
L 37.066422 -20.181247 
L 37.601897 -17.857006 
L 38.137371 -20.313539 
L 38.672845 -19.054408 
L 39.20832 -19.356077 
L 39.20832 -25.694982 
L 39.20832 -25.694982 
L 38.672845 -23.583141 
L 38.137371 -20.313539 
L 37.601897 -22.385738 
L 37.066422 -20.181247 
L 36.530948 -22.902938 
L 35.995474 -23.216071 
L 35.459999 -22.780985 
L 34.924525 -19.632729 
L 34.38905 -19.197644 
L 33.853576 -19.510777 
L 33.318102 -22.23277 
L 32.782627 -20.038315 
L 32.247153 -22.232467 
L 31.711679 -19.500438 
L 31.176204 -19.06505 
L 30.64073 -18.952526 
L 30.105255 -18.943097 
L 29.569781 -18.952526 
L 29.034307 -19.06505 
L 28.498832 -19.500438 
L 27.963358 -22.232467 
L 27.427883 -20.038315 
L 26.892409 -22.23277 
L 26.356935 -19.510474 
L 25.82146 -19.187609 
L 25.285986 -19.510777 
L 24.750512 -22.242805 
L 24.215037 -20.160874 
L 23.679563 -22.790414 
z
" style="stroke: #000000; stroke-opacity: 0.2"/>
    </defs>
    <g clip-path="url(#p79c90260fd)">
     <use xlink:href="#mf6627a0a71" x="0" y="88.750125" style="fill-opacity: 0.2; stroke: #000000; stroke-opacity: 0.2"/>
    </g>
   </g>
   <g id="matplotlib.axis_1">
    <g id="xtick_1">
     <g id="line2d_9">
      <defs>
       <path id="m79eaaa919e" d="M 0 0 
L 0 3.5 
" style="stroke: #000000; stroke-width: 0.8"/>
      </defs>
      <g>
       <use xlink:href="#m79eaaa919e" x="27.963358" y="72.072" style="stroke: #000000; stroke-width: 0.8"/>
      </g>
     </g>
     <g id="text_1">
      <text style="font: 10px 'sans-serif'; text-anchor: middle" x="27.963358" y="86.670438" transform="rotate(-0 27.963358 86.670438)">0</text>
     </g>
    </g>
    <g id="xtick_2">
     <g id="line2d_10">
      <g>
       <use xlink:href="#m79eaaa919e" x="33.318102" y="72.072" style="stroke: #000000; stroke-width: 0.8"/>
      </g>
     </g>
     <g id="text_2">
      <text style="font: 10px 'sans-serif'; text-anchor: middle" x="33.318102" y="86.670438" transform="rotate(-0 33.318102 86.670438)">100</text>
     </g>
    </g>
   </g>
   <g id="matplotlib.axis_2">
    <g id="ytick_1">
     <g id="line2d_11">
      <defs>
       <path id="m392ebd17b8" d="M 0 0 
L -3.5 0 
" style="stroke: #000000; stroke-width: 0.8"/>
      </defs>
      <g>
       <use xlink:href="#m392ebd17b8" x="22.903125" y="69.807634" style="stroke: #000000; stroke-width: 0.8"/>
      </g>
     </g>
     <g id="text_3">
      <text style="font: 10px 'sans-serif'; text-anchor: end" x="15.903125" y="73.606853" transform="rotate(-0 15.903125 73.606853)">0.0</text>
     </g>
    </g>
    <g id="ytick_2">
     <g id="line2d_12">
      <g>
       <use xlink:href="#m392ebd17b8" x="22.903125" y="58.485803" style="stroke: #000000; stroke-width: 0.8"/>
      </g>
     </g>
     <g id="text_4">
      <text style="font: 10px 'sans-serif'; text-anchor: end" x="15.903125" y="62.285022" transform="rotate(-0 15.903125 62.285022)">0.1</text>
     </g>
    </g>
   </g>
   <g id="line2d_13">
    <path d="M 23.679563 68.224077 
L 24.215037 68.589251 
L 24.750512 68.771686 
L 25.285986 69.239348 
L 25.82146 69.562516 
L 26.356935 69.239651 
L 26.892409 68.781721 
L 27.427883 68.71181 
L 27.963358 68.782024 
L 28.498832 69.249687 
L 29.034307 69.685075 
L 29.569781 69.797599 
L 30.105255 69.807028 
L 30.64073 69.797599 
L 31.176204 69.685075 
L 31.711679 69.249687 
L 32.247153 68.782024 
L 32.782627 68.71181 
L 33.318102 68.781721 
L 33.853576 69.239348 
L 34.38905 69.552481 
L 34.924525 69.117396 
L 35.459999 68.233506 
L 35.995474 67.798421 
L 36.530948 68.111553 
L 37.066422 68.568878 
L 37.601897 68.628753 
L 38.137371 68.436586 
L 38.672845 67.43135 
L 39.20832 66.224596 
" clip-path="url(#p79c90260fd)" style="fill: none; stroke: #000000; stroke-width: 1.5; stroke-linecap: square"/>
   </g>
   <g id="patch_3">
    <path d="M 22.903125 72.072 
L 22.903125 52.052 
" style="fill: none; stroke: #000000; stroke-width: 0.8; stroke-linejoin: miter; stroke-linecap: square"/>
   </g>
   <g id="patch_4">
    <path d="M 22.903125 72.072 
L 39.984758 72.072 
" style="fill: none; stroke: #000000; stroke-width: 0.8; stroke-linejoin: miter; stroke-linecap: square"/>
   </g>
  </g>
  <g id="axes_10">
   <g id="PolyCollection_10">
    <defs>
     <path id="mb621ed7918" d="M 45.885685 -18.95283 
L 45.885685 -18.95283 
L 46.42116 -19.064747 
L 46.956634 -19.490706 
L 47.492108 -17.591514 
L 48.027583 -19.612962 
L 48.563057 -19.622694 
L 49.098532 -17.71377 
L 49.634006 -20.041345 
L 50.16948 -17.794356 
L 50.704955 -20.610775 
L 51.240429 -24.118513 
L 51.775903 -21.41676 
L 52.311378 -22.51299 
L 52.846852 -20.590704 
L 53.382327 -19.155368 
L 53.917801 -18.965289 
L 54.453275 -19.06505 
L 54.98875 -19.490403 
L 55.524224 -17.581479 
L 56.059698 -19.490403 
L 56.595173 -19.064747 
L 57.130647 -18.952526 
L 57.666122 -18.942794 
L 58.201596 -18.942491 
L 58.73707 -18.942794 
L 59.272545 -18.952526 
L 59.808019 -19.064747 
L 60.343493 -19.490706 
L 60.878968 -17.591514 
L 61.414442 -19.612659 
L 61.414442 -19.612659 
L 61.414442 -19.612659 
L 60.878968 -22.120247 
L 60.343493 -19.490706 
L 59.808019 -19.064747 
L 59.272545 -18.952526 
L 58.73707 -18.942794 
L 58.201596 -18.942491 
L 57.666122 -18.942794 
L 57.130647 -18.952526 
L 56.595173 -19.064747 
L 56.059698 -19.490403 
L 55.524224 -22.110211 
L 54.98875 -19.490403 
L 54.453275 -19.06505 
L 53.917801 -18.965289 
L 53.382327 -19.155368 
L 52.846852 -20.590704 
L 52.311378 -27.041722 
L 51.775903 -33.84449 
L 51.240429 -24.118513 
L 50.704955 -20.610775 
L 50.16948 -22.323088 
L 49.634006 -20.041345 
L 49.098532 -22.242502 
L 48.563057 -19.622694 
L 48.027583 -19.612962 
L 47.492108 -22.120247 
L 46.956634 -19.490706 
L 46.42116 -19.064747 
L 45.885685 -18.95283 
z
" style="stroke: #000000; stroke-opacity: 0.2"/>
    </defs>
    <g clip-path="url(#p6406ea1249)">
     <use xlink:href="#mb621ed7918" x="0" y="88.750125" style="fill-opacity: 0.2; stroke: #000000; stroke-opacity: 0.2"/>
    </g>
   </g>
   <g id="line2d_14">
    <path d="M 45.885685 69.797295 
L 46.42116 69.685378 
L 46.956634 69.259419 
L 47.492108 68.894244 
L 48.027583 69.137163 
L 48.563057 69.127431 
L 49.098532 68.771989 
L 49.634006 68.70878 
L 50.16948 68.691403 
L 50.704955 68.13935 
L 51.240429 64.631612 
L 51.775903 61.1195 
L 52.311378 63.972769 
L 52.846852 68.159421 
L 53.382327 69.594757 
L 53.917801 69.784836 
L 54.453275 69.685075 
L 54.98875 69.259722 
L 55.524224 68.90428 
L 56.059698 69.259722 
L 56.595173 69.685378 
L 57.130647 69.797599 
L 57.666122 69.807331 
L 58.201596 69.807634 
L 58.73707 69.807331 
L 59.272545 69.797599 
L 59.808019 69.685378 
L 60.343493 69.259419 
L 60.878968 68.894244 
L 61.414442 69.137466 
" clip-path="url(#p6406ea1249)" style="fill: none; stroke: #000000; stroke-width: 1.5; stroke-linecap: square"/>
   </g>
  </g>
  <g id="axes_11">
   <g id="PolyCollection_11">
    <defs>
     <path id="mc622057763" d="M 68.091808 -25.024814 
L 68.091808 -18.685909 
L 68.627282 -20.405385 
L 69.162757 -19.765021 
L 69.698231 -17.724715 
L 70.233705 -20.048956 
L 70.76918 -17.82599 
L 71.304654 -20.04835 
L 71.840128 -17.70525 
L 72.375603 -19.54058 
L 72.911077 -19.554073 
L 73.446552 -21.144174 
L 73.982026 -18.168908 
L 74.5175 -21.154513 
L 75.052975 -19.686061 
L 75.588449 -20.200712 
L 76.123923 -18.128871 
L 76.659398 -18.677606 
L 77.194872 -19.74495 
L 77.730347 -19.207073 
L 78.265821 -19.501045 
L 78.801295 -17.582085 
L 79.33677 -19.500438 
L 79.872244 -19.187306 
L 80.407718 -19.510777 
L 80.943193 -17.714073 
L 81.478667 -20.160874 
L 82.014142 -18.261985 
L 82.549616 -18.271717 
L 83.08509 -20.283432 
L 83.620565 -18.27202 
L 83.620565 -22.800753 
L 83.620565 -22.800753 
L 83.08509 -20.283432 
L 82.549616 -22.80045 
L 82.014142 -22.790717 
L 81.478667 -20.160874 
L 80.943193 -22.242805 
L 80.407718 -19.510777 
L 79.872244 -19.187306 
L 79.33677 -19.500438 
L 78.801295 -22.110817 
L 78.265821 -19.501045 
L 77.730347 -19.207073 
L 77.194872 -19.74495 
L 76.659398 -23.206338 
L 76.123923 -24.467776 
L 75.588449 -20.200712 
L 75.052975 -19.686061 
L 74.5175 -21.154513 
L 73.982026 -26.944725 
L 73.446552 -21.144174 
L 72.911077 -19.554073 
L 72.375603 -19.54058 
L 71.840128 -22.233982 
L 71.304654 -20.04835 
L 70.76918 -22.354723 
L 70.233705 -20.048956 
L 69.698231 -22.253447 
L 69.162757 -19.765021 
L 68.627282 -20.405385 
L 68.091808 -25.024814 
z
" style="stroke: #000000; stroke-opacity: 0.2"/>
    </defs>
    <g clip-path="url(#p1961ef5def)">
     <use xlink:href="#mc622057763" x="0" y="88.750125" style="fill-opacity: 0.2; stroke: #000000; stroke-opacity: 0.2"/>
    </g>
   </g>
   <g id="line2d_15">
    <path d="M 68.091808 66.894763 
L 68.627282 68.34474 
L 69.162757 68.985104 
L 69.698231 68.761044 
L 70.233705 68.701169 
L 70.76918 68.659768 
L 71.304654 68.701775 
L 71.840128 68.780509 
L 72.375603 69.209545 
L 72.911077 69.196052 
L 73.446552 67.605951 
L 73.982026 66.193308 
L 74.5175 67.595612 
L 75.052975 69.064064 
L 75.588449 68.549413 
L 76.123923 67.451802 
L 76.659398 67.808153 
L 77.194872 69.005175 
L 77.730347 69.543052 
L 78.265821 69.24908 
L 78.801295 68.903674 
L 79.33677 69.249687 
L 79.872244 69.562819 
L 80.407718 69.239348 
L 80.943193 68.771686 
L 81.478667 68.589251 
L 82.014142 68.223774 
L 82.549616 68.214041 
L 83.08509 68.466693 
L 83.620565 68.213738 
" clip-path="url(#p1961ef5def)" style="fill: none; stroke: #000000; stroke-width: 1.5; stroke-linecap: square"/>
   </g>
  </g>
  <g id="axes_12">
   <g id="PolyCollection_12">
    <defs>
     <path id="me2e6a2244b" d="M 90.29793 -21.506829 
L 90.29793 -15.037212 
L 90.833405 -15.754397 
L 91.368879 -18.262288 
L 91.904353 -14.924991 
L 92.439828 -15.329347 
L 92.975302 -15.661945 
L 93.510776 -16.475317 
L 94.046251 -16.608437 
L 94.581725 -14.871378 
L 95.1172 -16.63999 
L 95.652674 -19.71234 
L 96.188148 -19.446792 
L 96.723623 -19.278787 
L 97.259097 -16.072007 
L 97.794571 -14.749195 
L 98.330046 -14.994504 
L 98.86552 -14.591485 
L 99.400995 -16.057495 
L 99.936469 -14.658805 
L 100.471943 -15.529957 
L 101.007418 -14.791167 
L 101.542892 -15.114033 
L 102.078367 -15.017747 
L 102.613841 -15.45253 
L 103.149315 -15.1397 
L 103.68479 -15.662551 
L 104.220264 -14.744453 
L 104.755738 -16.333021 
L 105.291213 -16.019211 
L 105.826687 -16.982743 
L 105.826687 -24.879918 
L 105.826687 -24.879918 
L 105.291213 -23.916385 
L 104.755738 -20.861754 
L 104.220264 -21.21407 
L 103.68479 -20.191283 
L 103.149315 -21.609317 
L 102.613841 -21.922147 
L 102.078367 -21.487365 
L 101.542892 -19.642765 
L 101.007418 -19.3199 
L 100.471943 -20.058689 
L 99.936469 -22.555979 
L 99.400995 -20.586227 
L 98.86552 -21.061102 
L 98.330046 -19.523237 
L 97.794571 -19.277927 
L 97.259097 -20.60074 
L 96.723623 -25.748404 
L 96.188148 -31.305797 
L 95.652674 -24.241072 
L 95.1172 -21.168722 
L 94.581725 -22.768553 
L 94.046251 -21.137169 
L 93.510776 -21.004049 
L 92.975302 -20.190677 
L 92.439828 -19.858079 
L 91.904353 -21.394609 
L 91.368879 -18.262288 
L 90.833405 -20.283129 
L 90.29793 -21.506829 
z
" style="stroke: #ff0000; stroke-opacity: 0.2"/>
    </defs>
    <g clip-path="url(#p8f9bfb3d09)">
     <use xlink:href="#me2e6a2244b" x="0" y="88.750125" style="fill: #ff0000; fill-opacity: 0.2; stroke: #ff0000; stroke-opacity: 0.2"/>
    </g>
   </g>
   <g id="line2d_16">
    <path d="M 90.29793 70.478105 
L 90.833405 70.731362 
L 91.368879 70.487837 
L 91.904353 70.590325 
L 92.439828 71.156412 
L 92.975302 70.823814 
L 93.510776 70.010442 
L 94.046251 69.877322 
L 94.581725 69.930159 
L 95.1172 69.845769 
L 95.652674 66.773419 
L 96.188148 63.373831 
L 96.723623 66.236529 
L 97.259097 70.413752 
L 97.794571 71.736564 
L 98.330046 71.491255 
L 98.86552 70.923832 
L 99.400995 70.428264 
L 99.936469 70.142733 
L 100.471943 70.955802 
L 101.007418 71.694592 
L 101.542892 71.371726 
L 102.078367 70.497569 
L 102.613841 70.062787 
L 103.149315 70.375617 
L 103.68479 70.823208 
L 104.220264 70.770864 
L 104.755738 70.152738 
L 105.291213 68.782327 
L 105.826687 67.818794 
" clip-path="url(#p8f9bfb3d09)" style="fill: none; stroke: #ff0000; stroke-width: 1.5; stroke-linecap: square"/>
   </g>
  </g>
 </g>
 <defs>
  <clipPath id="p15f3d61759">
   <rect x="22.903125" y="0" width="17.081633" height="20.02"/>
  </clipPath>
  <clipPath id="p532c3d1962">
   <rect x="45.109247" y="0" width="17.081633" height="20.02"/>
  </clipPath>
  <clipPath id="pbb2abc67c6">
   <rect x="67.31537" y="0" width="17.081633" height="20.02"/>
  </clipPath>
  <clipPath id="p21d3e000c3">
   <rect x="89.521492" y="0" width="17.081633" height="20.02"/>
  </clipPath>
  <clipPath id="p89ea4c95d9">
   <rect x="22.903125" y="26.026" width="17.081633" height="20.02"/>
  </clipPath>
  <clipPath id="p6ed995705b">
   <rect x="45.109247" y="26.026" width="17.081633" height="20.02"/>
  </clipPath>
  <clipPath id="p4d7f0aef6e">
   <rect x="67.31537" y="26.026" width="17.081633" height="20.02"/>
  </clipPath>
  <clipPath id="p423979c655">
   <rect x="89.521492" y="26.026" width="17.081633" height="20.02"/>
  </clipPath>
  <clipPath id="p79c90260fd">
   <rect x="22.903125" y="52.052" width="17.081633" height="20.02"/>
  </clipPath>
  <clipPath id="p6406ea1249">
   <rect x="45.109247" y="52.052" width="17.081633" height="20.02"/>
  </clipPath>
  <clipPath id="p1961ef5def">
   <rect x="67.31537" y="52.052" width="17.081633" height="20.02"/>
  </clipPath>
  <clipPath id="p8f9bfb3d09">
   <rect x="89.521492" y="52.052" width="17.081633" height="20.02"/>
  </clipPath>
 </defs>
</svg>
