<?xml version="1.0" encoding="utf-8" standalone="no"?>
<!DOCTYPE svg PUBLIC "-//W3C//DTD SVG 1.1//EN"
  "http://www.w3.org/Graphics/SVG/1.1/DTD/svg11.dtd">
<svg xmlns:xlink="http://www.w3.org/1999/xlink" width="381.765625pt" height="106.433594pt" viewBox="0 0 381.765625 106.433594" xmlns="http://www.w3.org/2000/svg" version="1.1">
 <metadata>
  <rdf:RDF xmlns:dc="http://purl.org/dc/elements/1.1/" xmlns:cc="http://creativecommons.org/ns#" xmlns:rdf="http://www.w3.org/1999/02/22-rdf-syntax-ns#">
   <cc:Work>
    <dc:type rdf:resource="http://purl.org/dc/dcmitype/StillImage"/>
    <dc:date>2025-06-10T10:57:50.302404</dc:date>
    <dc:format>image/svg+xml</dc:format>
    <dc:creator>
     <cc:Agent>
      <dc:title>Matplotlib v3.6.0, https://matplotlib.org/</dc:title>
     </cc:Agent>
    </dc:creator>
   </cc:Work>
  </rdf:RDF>
 </metadata>
 <defs>
  <style type="text/css">*{stroke-linejoin: round; stroke-linecap: butt}</style>
 </defs>
 <g id="figure_1">
  <g id="patch_1">
   <path d="M 0 106.433594 
L 381.765625 106.433594 
L 381.765625 0 
L 0 0 
z
" style="fill: #ffffff"/>
  </g>
  <g id="axes_1">
   <g id="patch_2">
    <path d="M 33.403125 75.799219 
L 105.403125 75.799219 
L 105.403125 3.799219 
L 33.403125 3.799219 
z
" style="fill: #ffffff"/>
   </g>
   <g id="PathCollection_1">
    <defs>
     <path id="mb287470b22" d="M 0 1.118034 
C 0.296506 1.118034 0.580908 1.000231 0.790569 0.790569 
C 1.000231 0.580908 1.118034 0.296506 1.118034 0 
C 1.118034 -0.296506 1.000231 -0.580908 0.790569 -0.790569 
C 0.580908 -1.000231 0.296506 -1.118034 0 -1.118034 
C -0.296506 -1.118034 -0.580908 -1.000231 -0.790569 -0.790569 
C -1.000231 -0.580908 -1.118034 -0.296506 -1.118034 0 
C -1.118034 0.296506 -1.000231 0.580908 -0.790569 0.790569 
C -0.580908 1.000231 -0.296506 1.118034 0 1.118034 
z
" style="stroke: #a0a0a0; stroke-opacity: 0.8"/>
    </defs>
    <g clip-path="url(#p3fa7a88459)">
     <use xlink:href="#mb287470b22" x="55.280048" y="63.323751" style="fill: #a0a0a0; fill-opacity: 0.8; stroke: #a0a0a0; stroke-opacity: 0.8"/>
     <use xlink:href="#mb287470b22" x="33.403125" y="66.629761" style="fill: #a0a0a0; fill-opacity: 0.8; stroke: #a0a0a0; stroke-opacity: 0.8"/>
     <use xlink:href="#mb287470b22" x="62.480048" y="55.893584" style="fill: #a0a0a0; fill-opacity: 0.8; stroke: #a0a0a0; stroke-opacity: 0.8"/>
     <use xlink:href="#mb287470b22" x="61.649279" y="64.566687" style="fill: #a0a0a0; fill-opacity: 0.8; stroke: #a0a0a0; stroke-opacity: 0.8"/>
     <use xlink:href="#mb287470b22" x="50.01851" y="68.523162" style="fill: #a0a0a0; fill-opacity: 0.8; stroke: #a0a0a0; stroke-opacity: 0.8"/>
     <use xlink:href="#mb287470b22" x="54.172356" y="55.404243" style="fill: #a0a0a0; fill-opacity: 0.8; stroke: #a0a0a0; stroke-opacity: 0.8"/>
     <use xlink:href="#mb287470b22" x="68.849279" y="62.018664" style="fill: #a0a0a0; fill-opacity: 0.8; stroke: #a0a0a0; stroke-opacity: 0.8"/>
     <use xlink:href="#mb287470b22" x="38.941587" y="65.979352" style="fill: #a0a0a0; fill-opacity: 0.8; stroke: #a0a0a0; stroke-opacity: 0.8"/>
     <use xlink:href="#mb287470b22" x="56.941587" y="66.184085" style="fill: #a0a0a0; fill-opacity: 0.8; stroke: #a0a0a0; stroke-opacity: 0.8"/>
     <use xlink:href="#mb287470b22" x="66.633894" y="52.678478" style="fill: #a0a0a0; fill-opacity: 0.8; stroke: #a0a0a0; stroke-opacity: 0.8"/>
     <use xlink:href="#mb287470b22" x="42.264663" y="62.408033" style="fill: #a0a0a0; fill-opacity: 0.8; stroke: #a0a0a0; stroke-opacity: 0.8"/>
     <use xlink:href="#mb287470b22" x="42.264663" y="61.048233" style="fill: #a0a0a0; fill-opacity: 0.8; stroke: #a0a0a0; stroke-opacity: 0.8"/>
     <use xlink:href="#mb287470b22" x="53.341587" y="65.056931" style="fill: #a0a0a0; fill-opacity: 0.8; stroke: #a0a0a0; stroke-opacity: 0.8"/>
     <use xlink:href="#mb287470b22" x="64.972356" y="25.09335" style="fill: #a0a0a0; fill-opacity: 0.8; stroke: #a0a0a0; stroke-opacity: 0.8"/>
     <use xlink:href="#mb287470b22" x="46.141587" y="64.521823" style="fill: #a0a0a0; fill-opacity: 0.8; stroke: #a0a0a0; stroke-opacity: 0.8"/>
     <use xlink:href="#mb287470b22" x="71.895433" y="64.55792" style="fill: #a0a0a0; fill-opacity: 0.8; stroke: #a0a0a0; stroke-opacity: 0.8"/>
     <use xlink:href="#mb287470b22" x="46.41851" y="66.971909" style="fill: #a0a0a0; fill-opacity: 0.8; stroke: #a0a0a0; stroke-opacity: 0.8"/>
     <use xlink:href="#mb287470b22" x="62.203125" y="58.686002" style="fill: #a0a0a0; fill-opacity: 0.8; stroke: #a0a0a0; stroke-opacity: 0.8"/>
     <use xlink:href="#mb287470b22" x="56.38774" y="56.987743" style="fill: #a0a0a0; fill-opacity: 0.8; stroke: #a0a0a0; stroke-opacity: 0.8"/>
     <use xlink:href="#mb287470b22" x="70.510817" y="45.609362" style="fill: #a0a0a0; fill-opacity: 0.8; stroke: #a0a0a0; stroke-opacity: 0.8"/>
     <use xlink:href="#mb287470b22" x="45.864663" y="68.438476" style="fill: #a0a0a0; fill-opacity: 0.8; stroke: #a0a0a0; stroke-opacity: 0.8"/>
     <use xlink:href="#mb287470b22" x="76.049279" y="64.324244" style="fill: #a0a0a0; fill-opacity: 0.8; stroke: #a0a0a0; stroke-opacity: 0.8"/>
     <use xlink:href="#mb287470b22" x="50.01851" y="59.933185" style="fill: #a0a0a0; fill-opacity: 0.8; stroke: #a0a0a0; stroke-opacity: 0.8"/>
     <use xlink:href="#mb287470b22" x="64.41851" y="39.697802" style="fill: #a0a0a0; fill-opacity: 0.8; stroke: #a0a0a0; stroke-opacity: 0.8"/>
     <use xlink:href="#mb287470b22" x="60.81851" y="62.791712" style="fill: #a0a0a0; fill-opacity: 0.8; stroke: #a0a0a0; stroke-opacity: 0.8"/>
     <use xlink:href="#mb287470b22" x="69.956971" y="59.52794" style="fill: #a0a0a0; fill-opacity: 0.8; stroke: #a0a0a0; stroke-opacity: 0.8"/>
     <use xlink:href="#mb287470b22" x="59.98774" y="62.924349" style="fill: #a0a0a0; fill-opacity: 0.8; stroke: #a0a0a0; stroke-opacity: 0.8"/>
     <use xlink:href="#mb287470b22" x="33.403125" y="62.592647" style="fill: #a0a0a0; fill-opacity: 0.8; stroke: #a0a0a0; stroke-opacity: 0.8"/>
     <use xlink:href="#mb287470b22" x="57.21851" y="39.498193" style="fill: #a0a0a0; fill-opacity: 0.8; stroke: #a0a0a0; stroke-opacity: 0.8"/>
     <use xlink:href="#mb287470b22" x="70.510817" y="61.617247" style="fill: #a0a0a0; fill-opacity: 0.8; stroke: #a0a0a0; stroke-opacity: 0.8"/>
     <use xlink:href="#mb287470b22" x="60.81851" y="29.014171" style="fill: #a0a0a0; fill-opacity: 0.8; stroke: #a0a0a0; stroke-opacity: 0.8"/>
     <use xlink:href="#mb287470b22" x="55.280048" y="63.343777" style="fill: #a0a0a0; fill-opacity: 0.8; stroke: #a0a0a0; stroke-opacity: 0.8"/>
     <use xlink:href="#mb287470b22" x="43.095433" y="59.160775" style="fill: #a0a0a0; fill-opacity: 0.8; stroke: #a0a0a0; stroke-opacity: 0.8"/>
     <use xlink:href="#mb287470b22" x="51.956971" y="66.506848" style="fill: #a0a0a0; fill-opacity: 0.8; stroke: #a0a0a0; stroke-opacity: 0.8"/>
     <use xlink:href="#mb287470b22" x="60.264663" y="65.644212" style="fill: #a0a0a0; fill-opacity: 0.8; stroke: #a0a0a0; stroke-opacity: 0.8"/>
     <use xlink:href="#mb287470b22" x="73.556971" y="43.937664" style="fill: #a0a0a0; fill-opacity: 0.8; stroke: #a0a0a0; stroke-opacity: 0.8"/>
     <use xlink:href="#mb287470b22" x="43.649279" y="21.699809" style="fill: #a0a0a0; fill-opacity: 0.8; stroke: #a0a0a0; stroke-opacity: 0.8"/>
     <use xlink:href="#mb287470b22" x="58.049279" y="63.896018" style="fill: #a0a0a0; fill-opacity: 0.8; stroke: #a0a0a0; stroke-opacity: 0.8"/>
     <use xlink:href="#mb287470b22" x="47.803125" y="64.84486" style="fill: #a0a0a0; fill-opacity: 0.8; stroke: #a0a0a0; stroke-opacity: 0.8"/>
     <use xlink:href="#mb287470b22" x="51.956971" y="59.653938" style="fill: #a0a0a0; fill-opacity: 0.8; stroke: #a0a0a0; stroke-opacity: 0.8"/>
     <use xlink:href="#mb287470b22" x="49.18774" y="39.412153" style="fill: #a0a0a0; fill-opacity: 0.8; stroke: #a0a0a0; stroke-opacity: 0.8"/>
     <use xlink:href="#mb287470b22" x="45.033894" y="62.757436" style="fill: #a0a0a0; fill-opacity: 0.8; stroke: #a0a0a0; stroke-opacity: 0.8"/>
     <use xlink:href="#mb287470b22" x="53.341587" y="61.436248" style="fill: #a0a0a0; fill-opacity: 0.8; stroke: #a0a0a0; stroke-opacity: 0.8"/>
     <use xlink:href="#mb287470b22" x="51.403125" y="34.528834" style="fill: #a0a0a0; fill-opacity: 0.8; stroke: #a0a0a0; stroke-opacity: 0.8"/>
     <use xlink:href="#mb287470b22" x="53.341587" y="59.702932" style="fill: #a0a0a0; fill-opacity: 0.8; stroke: #a0a0a0; stroke-opacity: 0.8"/>
     <use xlink:href="#mb287470b22" x="53.61851" y="51.145325" style="fill: #a0a0a0; fill-opacity: 0.8; stroke: #a0a0a0; stroke-opacity: 0.8"/>
     <use xlink:href="#mb287470b22" x="61.926202" y="56.084775" style="fill: #a0a0a0; fill-opacity: 0.8; stroke: #a0a0a0; stroke-opacity: 0.8"/>
     <use xlink:href="#mb287470b22" x="39.21851" y="54.371525" style="fill: #a0a0a0; fill-opacity: 0.8; stroke: #a0a0a0; stroke-opacity: 0.8"/>
     <use xlink:href="#mb287470b22" x="55.280048" y="18.809588" style="fill: #a0a0a0; fill-opacity: 0.8; stroke: #a0a0a0; stroke-opacity: 0.8"/>
     <use xlink:href="#mb287470b22" x="38.664663" y="19.515091" style="fill: #a0a0a0; fill-opacity: 0.8; stroke: #a0a0a0; stroke-opacity: 0.8"/>
     <use xlink:href="#mb287470b22" x="63.58774" y="17.372962" style="fill: #a0a0a0; fill-opacity: 0.8; stroke: #a0a0a0; stroke-opacity: 0.8"/>
     <use xlink:href="#mb287470b22" x="38.941587" y="65.93483" style="fill: #a0a0a0; fill-opacity: 0.8; stroke: #a0a0a0; stroke-opacity: 0.8"/>
     <use xlink:href="#mb287470b22" x="40.326202" y="54.947203" style="fill: #a0a0a0; fill-opacity: 0.8; stroke: #a0a0a0; stroke-opacity: 0.8"/>
     <use xlink:href="#mb287470b22" x="38.941587" y="23.975306" style="fill: #a0a0a0; fill-opacity: 0.8; stroke: #a0a0a0; stroke-opacity: 0.8"/>
     <use xlink:href="#mb287470b22" x="36.726202" y="46.86552" style="fill: #a0a0a0; fill-opacity: 0.8; stroke: #a0a0a0; stroke-opacity: 0.8"/>
     <use xlink:href="#mb287470b22" x="34.510817" y="58.627158" style="fill: #a0a0a0; fill-opacity: 0.8; stroke: #a0a0a0; stroke-opacity: 0.8"/>
     <use xlink:href="#mb287470b22" x="33.403125" y="69.670566" style="fill: #a0a0a0; fill-opacity: 0.8; stroke: #a0a0a0; stroke-opacity: 0.8"/>
     <use xlink:href="#mb287470b22" x="43.095433" y="42.127051" style="fill: #a0a0a0; fill-opacity: 0.8; stroke: #a0a0a0; stroke-opacity: 0.8"/>
     <use xlink:href="#mb287470b22" x="62.480048" y="50.206962" style="fill: #a0a0a0; fill-opacity: 0.8; stroke: #a0a0a0; stroke-opacity: 0.8"/>
     <use xlink:href="#mb287470b22" x="46.41851" y="65.464092" style="fill: #a0a0a0; fill-opacity: 0.8; stroke: #a0a0a0; stroke-opacity: 0.8"/>
     <use xlink:href="#mb287470b22" x="43.649279" y="46.25474" style="fill: #a0a0a0; fill-opacity: 0.8; stroke: #a0a0a0; stroke-opacity: 0.8"/>
     <use xlink:href="#mb287470b22" x="90.449279" y="62.736637" style="fill: #a0a0a0; fill-opacity: 0.8; stroke: #a0a0a0; stroke-opacity: 0.8"/>
     <use xlink:href="#mb287470b22" x="56.110817" y="44.692235" style="fill: #a0a0a0; fill-opacity: 0.8; stroke: #a0a0a0; stroke-opacity: 0.8"/>
     <use xlink:href="#mb287470b22" x="53.895433" y="67.555015" style="fill: #a0a0a0; fill-opacity: 0.8; stroke: #a0a0a0; stroke-opacity: 0.8"/>
     <use xlink:href="#mb287470b22" x="52.510817" y="59.859148" style="fill: #a0a0a0; fill-opacity: 0.8; stroke: #a0a0a0; stroke-opacity: 0.8"/>
     <use xlink:href="#mb287470b22" x="47.249279" y="41.783443" style="fill: #a0a0a0; fill-opacity: 0.8; stroke: #a0a0a0; stroke-opacity: 0.8"/>
     <use xlink:href="#mb287470b22" x="50.01851" y="58.676663" style="fill: #a0a0a0; fill-opacity: 0.8; stroke: #a0a0a0; stroke-opacity: 0.8"/>
     <use xlink:href="#mb287470b22" x="39.21851" y="53.263808" style="fill: #a0a0a0; fill-opacity: 0.8; stroke: #a0a0a0; stroke-opacity: 0.8"/>
     <use xlink:href="#mb287470b22" x="97.649279" y="58.766006" style="fill: #a0a0a0; fill-opacity: 0.8; stroke: #a0a0a0; stroke-opacity: 0.8"/>
     <use xlink:href="#mb287470b22" x="64.141587" y="60.438089" style="fill: #a0a0a0; fill-opacity: 0.8; stroke: #a0a0a0; stroke-opacity: 0.8"/>
    </g>
   </g>
   <g id="PolyCollection_1">
    <path d="M 33.403125 53.181236 
L 33.403125 62.5213 
L 34.095489 62.277271 
L 34.787852 62.034651 
L 35.480216 61.793542 
L 36.17258 61.554051 
L 36.864943 61.316295 
L 37.557307 61.080399 
L 38.24967 60.846499 
L 38.942034 60.614739 
L 39.634398 60.385278 
L 40.326761 60.158281 
L 41.019125 59.933928 
L 41.711489 59.712408 
L 42.403852 59.493924 
L 43.096216 59.278687 
L 43.78858 59.066921 
L 44.480943 58.858858 
L 45.173307 58.654736 
L 45.86567 58.454802 
L 46.558034 58.259302 
L 47.250398 58.068485 
L 47.942761 57.882594 
L 48.635125 57.701862 
L 49.327489 57.52651 
L 50.019852 57.356742 
L 50.712216 57.192735 
L 51.40458 57.03464 
L 52.096943 56.882574 
L 52.789307 56.736618 
L 53.48167 56.596814 
L 54.174034 56.463164 
L 54.866398 56.335629 
L 55.558761 56.214131 
L 56.251125 56.098554 
L 56.943489 55.988752 
L 57.635852 55.884547 
L 58.328216 55.785739 
L 59.02058 55.692109 
L 59.712943 55.603422 
L 60.405307 55.519437 
L 61.09767 55.439905 
L 61.790034 55.36458 
L 62.482398 55.293215 
L 63.174761 55.225571 
L 63.867125 55.161415 
L 64.559489 55.100524 
L 65.251852 55.042684 
L 65.944216 54.987693 
L 66.63658 54.93536 
L 67.328943 54.885504 
L 68.021307 54.837959 
L 68.71367 54.792566 
L 69.406034 54.74918 
L 70.098398 54.707665 
L 70.790761 54.667893 
L 71.483125 54.629748 
L 72.175489 54.593122 
L 72.867852 54.557913 
L 73.560216 54.524028 
L 74.25258 54.491382 
L 74.944943 54.459895 
L 75.637307 54.429492 
L 76.32967 54.400106 
L 77.022034 54.371674 
L 77.714398 54.344136 
L 78.406761 54.317439 
L 79.099125 54.291531 
L 79.791489 54.266367 
L 80.483852 54.241903 
L 81.176216 54.218099 
L 81.86858 54.194917 
L 82.560943 54.172322 
L 83.253307 54.150282 
L 83.94567 54.128767 
L 84.638034 54.107748 
L 85.330398 54.0872 
L 86.022761 54.067096 
L 86.715125 54.047415 
L 87.407489 54.028136 
L 88.099852 54.009237 
L 88.792216 53.990699 
L 89.48458 53.972507 
L 90.176943 53.954641 
L 90.869307 53.937088 
L 91.56167 53.919832 
L 92.254034 53.90286 
L 92.946398 53.886159 
L 93.638761 53.869715 
L 94.331125 53.853519 
L 95.023489 53.837559 
L 95.715852 53.821824 
L 96.408216 53.806306 
L 97.10058 53.790994 
L 97.792943 53.775881 
L 98.485307 53.760958 
L 99.17767 53.746217 
L 99.870034 53.731651 
L 100.562398 53.717252 
L 101.254761 53.703016 
L 101.947125 53.688934 
L 101.947125 34.379404 
L 101.947125 34.379404 
L 101.254761 34.644456 
L 100.562398 34.909352 
L 99.870034 35.174087 
L 99.17767 35.438655 
L 98.485307 35.703047 
L 97.792943 35.967257 
L 97.10058 36.231277 
L 96.408216 36.495099 
L 95.715852 36.758713 
L 95.023489 37.022112 
L 94.331125 37.285285 
L 93.638761 37.548222 
L 92.946398 37.810912 
L 92.254034 38.073344 
L 91.56167 38.335505 
L 90.869307 38.597383 
L 90.176943 38.858963 
L 89.48458 39.120231 
L 88.792216 39.381171 
L 88.099852 39.641768 
L 87.407489 39.902002 
L 86.715125 40.161855 
L 86.022761 40.421308 
L 85.330398 40.680338 
L 84.638034 40.938922 
L 83.94567 41.197037 
L 83.253307 41.454655 
L 82.560943 41.711748 
L 81.86858 41.968287 
L 81.176216 42.224238 
L 80.483852 42.479567 
L 79.791489 42.734237 
L 79.099125 42.988206 
L 78.406761 43.241432 
L 77.714398 43.493868 
L 77.022034 43.745463 
L 76.32967 43.996164 
L 75.637307 44.245911 
L 74.944943 44.494642 
L 74.25258 44.742288 
L 73.560216 44.988775 
L 72.867852 45.234024 
L 72.175489 45.477949 
L 71.483125 45.720455 
L 70.790761 45.961444 
L 70.098398 46.200805 
L 69.406034 46.438423 
L 68.71367 46.674171 
L 68.021307 46.907911 
L 67.328943 47.139499 
L 66.63658 47.368777 
L 65.944216 47.595577 
L 65.251852 47.819719 
L 64.559489 48.041013 
L 63.867125 48.259255 
L 63.174761 48.474232 
L 62.482398 48.685722 
L 61.790034 48.89349 
L 61.09767 49.097298 
L 60.405307 49.2969 
L 59.712943 49.492048 
L 59.02058 49.682495 
L 58.328216 49.867997 
L 57.635852 50.048323 
L 56.943489 50.223251 
L 56.251125 50.392583 
L 55.558761 50.556139 
L 54.866398 50.713774 
L 54.174034 50.865372 
L 53.48167 51.010856 
L 52.789307 51.150185 
L 52.096943 51.283363 
L 51.40458 51.41043 
L 50.712216 51.531468 
L 50.019852 51.646595 
L 49.327489 51.75596 
L 48.635125 51.859741 
L 47.942761 51.958143 
L 47.250398 52.051384 
L 46.558034 52.139701 
L 45.86567 52.223335 
L 45.173307 52.302534 
L 44.480943 52.377545 
L 43.78858 52.448615 
L 43.096216 52.515982 
L 42.403852 52.579879 
L 41.711489 52.640528 
L 41.019125 52.698142 
L 40.326761 52.752922 
L 39.634398 52.805058 
L 38.942034 52.85473 
L 38.24967 52.902104 
L 37.557307 52.947337 
L 36.864943 52.990575 
L 36.17258 53.031952 
L 35.480216 53.071594 
L 34.787852 53.109618 
L 34.095489 53.146132 
L 33.403125 53.181236 
z
" clip-path="url(#p3fa7a88459)" style="fill: #4d98ce; fill-opacity: 0.2"/>
   </g>
   <g id="matplotlib.axis_1">
    <g id="xtick_1">
     <g id="line2d_1">
      <defs>
       <path id="m73647ebbbf" d="M 0 0 
L 0 3.5 
" style="stroke: #000000; stroke-width: 0.8"/>
      </defs>
      <g>
       <use xlink:href="#m73647ebbbf" x="33.403125" y="75.799219" style="stroke: #000000; stroke-width: 0.8"/>
      </g>
     </g>
     <g id="text_1">
      <text style="font: 10px 'sans-serif'; text-anchor: middle" x="33.403125" y="90.397656" transform="rotate(-0 33.403125 90.397656)">0</text>
     </g>
    </g>
    <g id="xtick_2">
     <g id="line2d_2">
      <g>
       <use xlink:href="#m73647ebbbf" x="69.403125" y="75.799219" style="stroke: #000000; stroke-width: 0.8"/>
      </g>
     </g>
     <g id="text_2">
      <text style="font: 10px 'sans-serif'; text-anchor: middle" x="69.403125" y="90.397656" transform="rotate(-0 69.403125 90.397656)">25</text>
     </g>
    </g>
    <g id="xtick_3">
     <g id="line2d_3">
      <g>
       <use xlink:href="#m73647ebbbf" x="105.403125" y="75.799219" style="stroke: #000000; stroke-width: 0.8"/>
      </g>
     </g>
     <g id="text_3">
      <text style="font: 10px 'sans-serif'; text-anchor: middle" x="105.403125" y="90.397656" transform="rotate(-0 105.403125 90.397656)">50</text>
     </g>
    </g>
    <g id="text_4">
     <text style="font: 10px 'sans-serif'; text-anchor: middle" x="69.403125" y="104.075781" transform="rotate(-0 69.403125 104.075781)">n_vis</text>
    </g>
   </g>
   <g id="matplotlib.axis_2">
    <g id="ytick_1">
     <g id="line2d_4">
      <defs>
       <path id="m69b289c64c" d="M 0 0 
L -3.5 0 
" style="stroke: #000000; stroke-width: 0.8"/>
      </defs>
      <g>
       <use xlink:href="#m69b289c64c" x="33.403125" y="75.799219" style="stroke: #000000; stroke-width: 0.8"/>
      </g>
     </g>
     <g id="text_5">
      <text style="font: 10px 'sans-serif'; text-anchor: end" x="26.403125" y="79.598438" transform="rotate(-0 26.403125 79.598438)">0</text>
     </g>
    </g>
    <g id="ytick_2">
     <g id="line2d_5">
      <g>
       <use xlink:href="#m69b289c64c" x="33.403125" y="39.799219" style="stroke: #000000; stroke-width: 0.8"/>
      </g>
     </g>
     <g id="text_6">
      <text style="font: 10px 'sans-serif'; text-anchor: end" x="26.403125" y="43.598437" transform="rotate(-0 26.403125 43.598437)">25</text>
     </g>
    </g>
    <g id="ytick_3">
     <g id="line2d_6">
      <g>
       <use xlink:href="#m69b289c64c" x="33.403125" y="3.799219" style="stroke: #000000; stroke-width: 0.8"/>
      </g>
     </g>
     <g id="text_7">
      <text style="font: 10px 'sans-serif'; text-anchor: end" x="26.403125" y="7.598437" transform="rotate(-0 26.403125 7.598437)">50</text>
     </g>
    </g>
    <g id="text_8">
     <text style="font: 10px 'sans-serif'; text-anchor: middle" x="7.598438" y="39.799219" transform="rotate(-90 7.598438 39.799219)">Decoding accuracy (%)</text>
    </g>
   </g>
   <g id="line2d_7">
    <path d="M 33.403125 57.851268 
L 34.095489 57.711701 
L 34.787852 57.572135 
L 35.480216 57.432568 
L 36.17258 57.293001 
L 36.864943 57.153435 
L 37.557307 57.013868 
L 38.24967 56.874301 
L 38.942034 56.734735 
L 39.634398 56.595168 
L 40.326761 56.455601 
L 41.019125 56.316035 
L 41.711489 56.176468 
L 42.403852 56.036901 
L 43.096216 55.897335 
L 43.78858 55.757768 
L 44.480943 55.618201 
L 45.173307 55.478635 
L 45.86567 55.339068 
L 46.558034 55.199502 
L 47.250398 55.059935 
L 47.942761 54.920368 
L 48.635125 54.780802 
L 49.327489 54.641235 
L 50.019852 54.501668 
L 50.712216 54.362102 
L 51.40458 54.222535 
L 52.096943 54.082968 
L 52.789307 53.943402 
L 53.48167 53.803835 
L 54.174034 53.664268 
L 54.866398 53.524702 
L 55.558761 53.385135 
L 56.251125 53.245568 
L 56.943489 53.106002 
L 57.635852 52.966435 
L 58.328216 52.826868 
L 59.02058 52.687302 
L 59.712943 52.547735 
L 60.405307 52.408168 
L 61.09767 52.268602 
L 61.790034 52.129035 
L 62.482398 51.989468 
L 63.174761 51.849902 
L 63.867125 51.710335 
L 64.559489 51.570768 
L 65.251852 51.431202 
L 65.944216 51.291635 
L 66.63658 51.152068 
L 67.328943 51.012502 
L 68.021307 50.872935 
L 68.71367 50.733368 
L 69.406034 50.593802 
L 70.098398 50.454235 
L 70.790761 50.314669 
L 71.483125 50.175102 
L 72.175489 50.035535 
L 72.867852 49.895969 
L 73.560216 49.756402 
L 74.25258 49.616835 
L 74.944943 49.477269 
L 75.637307 49.337702 
L 76.32967 49.198135 
L 77.022034 49.058569 
L 77.714398 48.919002 
L 78.406761 48.779435 
L 79.099125 48.639869 
L 79.791489 48.500302 
L 80.483852 48.360735 
L 81.176216 48.221169 
L 81.86858 48.081602 
L 82.560943 47.942035 
L 83.253307 47.802469 
L 83.94567 47.662902 
L 84.638034 47.523335 
L 85.330398 47.383769 
L 86.022761 47.244202 
L 86.715125 47.104635 
L 87.407489 46.965069 
L 88.099852 46.825502 
L 88.792216 46.685935 
L 89.48458 46.546369 
L 90.176943 46.406802 
L 90.869307 46.267235 
L 91.56167 46.127669 
L 92.254034 45.988102 
L 92.946398 45.848535 
L 93.638761 45.708969 
L 94.331125 45.569402 
L 95.023489 45.429836 
L 95.715852 45.290269 
L 96.408216 45.150702 
L 97.10058 45.011136 
L 97.792943 44.871569 
L 98.485307 44.732002 
L 99.17767 44.592436 
L 99.870034 44.452869 
L 100.562398 44.313302 
L 101.254761 44.173736 
L 101.947125 44.034169 
" clip-path="url(#p3fa7a88459)" style="fill: none; stroke: #4d98ce; stroke-width: 1.5; stroke-linecap: square"/>
   </g>
   <g id="patch_3">
    <path d="M 33.403125 75.799219 
L 33.403125 3.799219 
" style="fill: none; stroke: #000000; stroke-width: 0.8; stroke-linejoin: miter; stroke-linecap: square"/>
   </g>
   <g id="patch_4">
    <path d="M 33.403125 75.799219 
L 105.403125 75.799219 
" style="fill: none; stroke: #000000; stroke-width: 0.8; stroke-linejoin: miter; stroke-linecap: square"/>
   </g>
  </g>
  <g id="axes_2">
   <g id="patch_5">
    <path d="M 123.403125 75.799219 
L 195.403125 75.799219 
L 195.403125 3.799219 
L 123.403125 3.799219 
z
" style="fill: #ffffff"/>
   </g>
   <g id="PathCollection_2">
    <g clip-path="url(#p097601f1e3)">
     <use xlink:href="#mb287470b22" x="133.372356" y="63.323751" style="fill: #a0a0a0; fill-opacity: 0.8; stroke: #a0a0a0; stroke-opacity: 0.8"/>
     <use xlink:href="#mb287470b22" x="130.326202" y="66.629761" style="fill: #a0a0a0; fill-opacity: 0.8; stroke: #a0a0a0; stroke-opacity: 0.8"/>
     <use xlink:href="#mb287470b22" x="147.772356" y="55.893584" style="fill: #a0a0a0; fill-opacity: 0.8; stroke: #a0a0a0; stroke-opacity: 0.8"/>
     <use xlink:href="#mb287470b22" x="128.110817" y="64.566687" style="fill: #a0a0a0; fill-opacity: 0.8; stroke: #a0a0a0; stroke-opacity: 0.8"/>
     <use xlink:href="#mb287470b22" x="128.664663" y="68.523162" style="fill: #a0a0a0; fill-opacity: 0.8; stroke: #a0a0a0; stroke-opacity: 0.8"/>
     <use xlink:href="#mb287470b22" x="135.58774" y="55.404243" style="fill: #a0a0a0; fill-opacity: 0.8; stroke: #a0a0a0; stroke-opacity: 0.8"/>
     <use xlink:href="#mb287470b22" x="123.403125" y="62.018664" style="fill: #a0a0a0; fill-opacity: 0.8; stroke: #a0a0a0; stroke-opacity: 0.8"/>
     <use xlink:href="#mb287470b22" x="149.98774" y="65.979352" style="fill: #a0a0a0; fill-opacity: 0.8; stroke: #a0a0a0; stroke-opacity: 0.8"/>
     <use xlink:href="#mb287470b22" x="127.003125" y="66.184085" style="fill: #a0a0a0; fill-opacity: 0.8; stroke: #a0a0a0; stroke-opacity: 0.8"/>
     <use xlink:href="#mb287470b22" x="123.403125" y="52.678478" style="fill: #a0a0a0; fill-opacity: 0.8; stroke: #a0a0a0; stroke-opacity: 0.8"/>
     <use xlink:href="#mb287470b22" x="134.480048" y="62.408033" style="fill: #a0a0a0; fill-opacity: 0.8; stroke: #a0a0a0; stroke-opacity: 0.8"/>
     <use xlink:href="#mb287470b22" x="162.172356" y="61.048233" style="fill: #a0a0a0; fill-opacity: 0.8; stroke: #a0a0a0; stroke-opacity: 0.8"/>
     <use xlink:href="#mb287470b22" x="134.203125" y="65.056931" style="fill: #a0a0a0; fill-opacity: 0.8; stroke: #a0a0a0; stroke-opacity: 0.8"/>
     <use xlink:href="#mb287470b22" x="150.264663" y="25.09335" style="fill: #a0a0a0; fill-opacity: 0.8; stroke: #a0a0a0; stroke-opacity: 0.8"/>
     <use xlink:href="#mb287470b22" x="132.264663" y="64.521823" style="fill: #a0a0a0; fill-opacity: 0.8; stroke: #a0a0a0; stroke-opacity: 0.8"/>
     <use xlink:href="#mb287470b22" x="123.403125" y="64.55792" style="fill: #a0a0a0; fill-opacity: 0.8; stroke: #a0a0a0; stroke-opacity: 0.8"/>
     <use xlink:href="#mb287470b22" x="126.172356" y="66.971909" style="fill: #a0a0a0; fill-opacity: 0.8; stroke: #a0a0a0; stroke-opacity: 0.8"/>
     <use xlink:href="#mb287470b22" x="138.356971" y="58.686002" style="fill: #a0a0a0; fill-opacity: 0.8; stroke: #a0a0a0; stroke-opacity: 0.8"/>
     <use xlink:href="#mb287470b22" x="160.510817" y="56.987743" style="fill: #a0a0a0; fill-opacity: 0.8; stroke: #a0a0a0; stroke-opacity: 0.8"/>
     <use xlink:href="#mb287470b22" x="157.464663" y="45.609362" style="fill: #a0a0a0; fill-opacity: 0.8; stroke: #a0a0a0; stroke-opacity: 0.8"/>
     <use xlink:href="#mb287470b22" x="123.403125" y="68.438476" style="fill: #a0a0a0; fill-opacity: 0.8; stroke: #a0a0a0; stroke-opacity: 0.8"/>
     <use xlink:href="#mb287470b22" x="126.172356" y="64.324244" style="fill: #a0a0a0; fill-opacity: 0.8; stroke: #a0a0a0; stroke-opacity: 0.8"/>
     <use xlink:href="#mb287470b22" x="123.403125" y="59.933185" style="fill: #a0a0a0; fill-opacity: 0.8; stroke: #a0a0a0; stroke-opacity: 0.8"/>
     <use xlink:href="#mb287470b22" x="150.541587" y="39.697802" style="fill: #a0a0a0; fill-opacity: 0.8; stroke: #a0a0a0; stroke-opacity: 0.8"/>
     <use xlink:href="#mb287470b22" x="136.695433" y="62.791712" style="fill: #a0a0a0; fill-opacity: 0.8; stroke: #a0a0a0; stroke-opacity: 0.8"/>
     <use xlink:href="#mb287470b22" x="128.941587" y="59.52794" style="fill: #a0a0a0; fill-opacity: 0.8; stroke: #a0a0a0; stroke-opacity: 0.8"/>
     <use xlink:href="#mb287470b22" x="127.556971" y="62.924349" style="fill: #a0a0a0; fill-opacity: 0.8; stroke: #a0a0a0; stroke-opacity: 0.8"/>
     <use xlink:href="#mb287470b22" x="135.864663" y="62.592647" style="fill: #a0a0a0; fill-opacity: 0.8; stroke: #a0a0a0; stroke-opacity: 0.8"/>
     <use xlink:href="#mb287470b22" x="129.21851" y="39.498193" style="fill: #a0a0a0; fill-opacity: 0.8; stroke: #a0a0a0; stroke-opacity: 0.8"/>
     <use xlink:href="#mb287470b22" x="128.38774" y="61.617247" style="fill: #a0a0a0; fill-opacity: 0.8; stroke: #a0a0a0; stroke-opacity: 0.8"/>
     <use xlink:href="#mb287470b22" x="145.833894" y="29.014171" style="fill: #a0a0a0; fill-opacity: 0.8; stroke: #a0a0a0; stroke-opacity: 0.8"/>
     <use xlink:href="#mb287470b22" x="147.21851" y="63.343777" style="fill: #a0a0a0; fill-opacity: 0.8; stroke: #a0a0a0; stroke-opacity: 0.8"/>
     <use xlink:href="#mb287470b22" x="137.526202" y="59.160775" style="fill: #a0a0a0; fill-opacity: 0.8; stroke: #a0a0a0; stroke-opacity: 0.8"/>
     <use xlink:href="#mb287470b22" x="123.403125" y="66.506848" style="fill: #a0a0a0; fill-opacity: 0.8; stroke: #a0a0a0; stroke-opacity: 0.8"/>
     <use xlink:href="#mb287470b22" x="123.403125" y="65.644212" style="fill: #a0a0a0; fill-opacity: 0.8; stroke: #a0a0a0; stroke-opacity: 0.8"/>
     <use xlink:href="#mb287470b22" x="125.61851" y="43.937664" style="fill: #a0a0a0; fill-opacity: 0.8; stroke: #a0a0a0; stroke-opacity: 0.8"/>
     <use xlink:href="#mb287470b22" x="148.603125" y="21.699809" style="fill: #a0a0a0; fill-opacity: 0.8; stroke: #a0a0a0; stroke-opacity: 0.8"/>
     <use xlink:href="#mb287470b22" x="123.403125" y="63.896018" style="fill: #a0a0a0; fill-opacity: 0.8; stroke: #a0a0a0; stroke-opacity: 0.8"/>
     <use xlink:href="#mb287470b22" x="139.18774" y="64.84486" style="fill: #a0a0a0; fill-opacity: 0.8; stroke: #a0a0a0; stroke-opacity: 0.8"/>
     <use xlink:href="#mb287470b22" x="129.772356" y="59.653938" style="fill: #a0a0a0; fill-opacity: 0.8; stroke: #a0a0a0; stroke-opacity: 0.8"/>
     <use xlink:href="#mb287470b22" x="143.341587" y="39.412153" style="fill: #a0a0a0; fill-opacity: 0.8; stroke: #a0a0a0; stroke-opacity: 0.8"/>
     <use xlink:href="#mb287470b22" x="132.541587" y="62.757436" style="fill: #a0a0a0; fill-opacity: 0.8; stroke: #a0a0a0; stroke-opacity: 0.8"/>
     <use xlink:href="#mb287470b22" x="127.003125" y="61.436248" style="fill: #a0a0a0; fill-opacity: 0.8; stroke: #a0a0a0; stroke-opacity: 0.8"/>
     <use xlink:href="#mb287470b22" x="140.572356" y="34.528834" style="fill: #a0a0a0; fill-opacity: 0.8; stroke: #a0a0a0; stroke-opacity: 0.8"/>
     <use xlink:href="#mb287470b22" x="127.556971" y="59.702932" style="fill: #a0a0a0; fill-opacity: 0.8; stroke: #a0a0a0; stroke-opacity: 0.8"/>
     <use xlink:href="#mb287470b22" x="137.526202" y="51.145325" style="fill: #a0a0a0; fill-opacity: 0.8; stroke: #a0a0a0; stroke-opacity: 0.8"/>
     <use xlink:href="#mb287470b22" x="133.372356" y="56.084775" style="fill: #a0a0a0; fill-opacity: 0.8; stroke: #a0a0a0; stroke-opacity: 0.8"/>
     <use xlink:href="#mb287470b22" x="140.849279" y="54.371525" style="fill: #a0a0a0; fill-opacity: 0.8; stroke: #a0a0a0; stroke-opacity: 0.8"/>
     <use xlink:href="#mb287470b22" x="148.880048" y="18.809588" style="fill: #a0a0a0; fill-opacity: 0.8; stroke: #a0a0a0; stroke-opacity: 0.8"/>
     <use xlink:href="#mb287470b22" x="179.895433" y="19.515091" style="fill: #a0a0a0; fill-opacity: 0.8; stroke: #a0a0a0; stroke-opacity: 0.8"/>
     <use xlink:href="#mb287470b22" x="146.941587" y="17.372962" style="fill: #a0a0a0; fill-opacity: 0.8; stroke: #a0a0a0; stroke-opacity: 0.8"/>
     <use xlink:href="#mb287470b22" x="123.403125" y="65.93483" style="fill: #a0a0a0; fill-opacity: 0.8; stroke: #a0a0a0; stroke-opacity: 0.8"/>
     <use xlink:href="#mb287470b22" x="154.972356" y="54.947203" style="fill: #a0a0a0; fill-opacity: 0.8; stroke: #a0a0a0; stroke-opacity: 0.8"/>
     <use xlink:href="#mb287470b22" x="157.18774" y="23.975306" style="fill: #a0a0a0; fill-opacity: 0.8; stroke: #a0a0a0; stroke-opacity: 0.8"/>
     <use xlink:href="#mb287470b22" x="146.110817" y="46.86552" style="fill: #a0a0a0; fill-opacity: 0.8; stroke: #a0a0a0; stroke-opacity: 0.8"/>
     <use xlink:href="#mb287470b22" x="157.741587" y="58.627158" style="fill: #a0a0a0; fill-opacity: 0.8; stroke: #a0a0a0; stroke-opacity: 0.8"/>
     <use xlink:href="#mb287470b22" x="123.403125" y="69.670566" style="fill: #a0a0a0; fill-opacity: 0.8; stroke: #a0a0a0; stroke-opacity: 0.8"/>
     <use xlink:href="#mb287470b22" x="147.772356" y="42.127051" style="fill: #a0a0a0; fill-opacity: 0.8; stroke: #a0a0a0; stroke-opacity: 0.8"/>
     <use xlink:href="#mb287470b22" x="148.603125" y="50.206962" style="fill: #a0a0a0; fill-opacity: 0.8; stroke: #a0a0a0; stroke-opacity: 0.8"/>
     <use xlink:href="#mb287470b22" x="128.110817" y="65.464092" style="fill: #a0a0a0; fill-opacity: 0.8; stroke: #a0a0a0; stroke-opacity: 0.8"/>
     <use xlink:href="#mb287470b22" x="145.003125" y="46.25474" style="fill: #a0a0a0; fill-opacity: 0.8; stroke: #a0a0a0; stroke-opacity: 0.8"/>
     <use xlink:href="#mb287470b22" x="132.81851" y="62.736637" style="fill: #a0a0a0; fill-opacity: 0.8; stroke: #a0a0a0; stroke-opacity: 0.8"/>
     <use xlink:href="#mb287470b22" x="137.526202" y="44.692235" style="fill: #a0a0a0; fill-opacity: 0.8; stroke: #a0a0a0; stroke-opacity: 0.8"/>
     <use xlink:href="#mb287470b22" x="127.556971" y="67.555015" style="fill: #a0a0a0; fill-opacity: 0.8; stroke: #a0a0a0; stroke-opacity: 0.8"/>
     <use xlink:href="#mb287470b22" x="133.649279" y="59.859148" style="fill: #a0a0a0; fill-opacity: 0.8; stroke: #a0a0a0; stroke-opacity: 0.8"/>
     <use xlink:href="#mb287470b22" x="149.433894" y="41.783443" style="fill: #a0a0a0; fill-opacity: 0.8; stroke: #a0a0a0; stroke-opacity: 0.8"/>
     <use xlink:href="#mb287470b22" x="155.249279" y="58.676663" style="fill: #a0a0a0; fill-opacity: 0.8; stroke: #a0a0a0; stroke-opacity: 0.8"/>
     <use xlink:href="#mb287470b22" x="166.603125" y="53.263808" style="fill: #a0a0a0; fill-opacity: 0.8; stroke: #a0a0a0; stroke-opacity: 0.8"/>
     <use xlink:href="#mb287470b22" x="125.61851" y="58.766006" style="fill: #a0a0a0; fill-opacity: 0.8; stroke: #a0a0a0; stroke-opacity: 0.8"/>
     <use xlink:href="#mb287470b22" x="125.61851" y="60.438089" style="fill: #a0a0a0; fill-opacity: 0.8; stroke: #a0a0a0; stroke-opacity: 0.8"/>
    </g>
   </g>
   <g id="PolyCollection_2">
    <path d="M 123.403125 57.80822 
L 123.403125 66.113754 
L 123.830761 65.752442 
L 124.258398 65.392375 
L 124.686034 65.033625 
L 125.11367 64.676267 
L 125.541307 64.320381 
L 125.968943 63.966052 
L 126.39658 63.613369 
L 126.824216 63.262426 
L 127.251852 62.913321 
L 127.679489 62.566156 
L 128.107125 62.221039 
L 128.534761 61.87808 
L 128.962398 61.537395 
L 129.390034 61.199101 
L 129.81767 60.86332 
L 130.245307 60.530174 
L 130.672943 60.199788 
L 131.10058 59.872286 
L 131.528216 59.547791 
L 131.955852 59.226423 
L 132.383489 58.908301 
L 132.811125 58.593535 
L 133.238761 58.282232 
L 133.666398 57.974487 
L 134.094034 57.670387 
L 134.52167 57.370008 
L 134.949307 57.073411 
L 135.376943 56.780644 
L 135.80458 56.49174 
L 136.232216 56.206716 
L 136.659852 55.925572 
L 137.087489 55.648295 
L 137.515125 55.374852 
L 137.942761 55.105198 
L 138.370398 54.839271 
L 138.798034 54.576999 
L 139.22567 54.318296 
L 139.653307 54.063066 
L 140.080943 53.811205 
L 140.50858 53.562603 
L 140.936216 53.317142 
L 141.363852 53.074702 
L 141.791489 52.835159 
L 142.219125 52.598391 
L 142.646761 52.364271 
L 143.074398 52.132678 
L 143.502034 51.903491 
L 143.92967 51.67659 
L 144.357307 51.451861 
L 144.784943 51.229191 
L 145.21258 51.008474 
L 145.640216 50.789606 
L 146.067852 50.572489 
L 146.495489 50.357028 
L 146.923125 50.143134 
L 147.350761 49.930722 
L 147.778398 49.71971 
L 148.206034 49.510024 
L 148.63367 49.301591 
L 149.061307 49.094343 
L 149.488943 48.888215 
L 149.91658 48.683148 
L 150.344216 48.479084 
L 150.771852 48.27597 
L 151.199489 48.073756 
L 151.627125 47.872394 
L 152.054761 47.67184 
L 152.482398 47.472052 
L 152.910034 47.27299 
L 153.33767 47.074618 
L 153.765307 46.876901 
L 154.192943 46.679806 
L 154.62058 46.483302 
L 155.048216 46.287361 
L 155.475852 46.091954 
L 155.903489 45.897056 
L 156.331125 45.702644 
L 156.758761 45.508694 
L 157.186398 45.315184 
L 157.614034 45.122095 
L 158.04167 44.929407 
L 158.469307 44.737102 
L 158.896943 44.545163 
L 159.32458 44.353574 
L 159.752216 44.162319 
L 160.179852 43.971385 
L 160.607489 43.780757 
L 161.035125 43.590423 
L 161.462761 43.400371 
L 161.890398 43.210587 
L 162.318034 43.021063 
L 162.74567 42.831787 
L 163.173307 42.642749 
L 163.600943 42.45394 
L 164.02858 42.265351 
L 164.456216 42.076973 
L 164.883852 41.888799 
L 165.311489 41.70082 
L 165.739125 41.51303 
L 165.739125 26.017811 
L 165.739125 26.017811 
L 165.311489 26.399628 
L 164.883852 26.781256 
L 164.456216 27.162689 
L 164.02858 27.543919 
L 163.600943 27.924938 
L 163.173307 28.305736 
L 162.74567 28.686306 
L 162.318034 29.066637 
L 161.890398 29.44672 
L 161.462761 29.826544 
L 161.035125 30.206099 
L 160.607489 30.585372 
L 160.179852 30.964352 
L 159.752216 31.343025 
L 159.32458 31.721378 
L 158.896943 32.099396 
L 158.469307 32.477065 
L 158.04167 32.854367 
L 157.614034 33.231287 
L 157.186398 33.607805 
L 156.758761 33.983903 
L 156.331125 34.35956 
L 155.903489 34.734755 
L 155.475852 35.109465 
L 155.048216 35.483665 
L 154.62058 35.857331 
L 154.192943 36.230434 
L 153.765307 36.602947 
L 153.33767 36.974837 
L 152.910034 37.346072 
L 152.482398 37.716618 
L 152.054761 38.086438 
L 151.627125 38.455491 
L 151.199489 38.823737 
L 150.771852 39.19113 
L 150.344216 39.557624 
L 149.91658 39.923167 
L 149.488943 40.287707 
L 149.061307 40.651187 
L 148.63367 41.013546 
L 148.206034 41.37472 
L 147.778398 41.734641 
L 147.350761 42.093238 
L 146.923125 42.450433 
L 146.495489 42.806146 
L 146.067852 43.160293 
L 145.640216 43.512783 
L 145.21258 43.863522 
L 144.784943 44.212413 
L 144.357307 44.559351 
L 143.92967 44.904228 
L 143.502034 45.246935 
L 143.074398 45.587355 
L 142.646761 45.925369 
L 142.219125 46.260857 
L 141.791489 46.593696 
L 141.363852 46.923761 
L 140.936216 47.250928 
L 140.50858 47.575075 
L 140.080943 47.89608 
L 139.653307 48.213827 
L 139.22567 48.528204 
L 138.798034 48.839109 
L 138.370398 49.146444 
L 137.942761 49.450125 
L 137.515125 49.750078 
L 137.087489 50.046242 
L 136.659852 50.338572 
L 136.232216 50.627036 
L 135.80458 50.911619 
L 135.376943 51.192323 
L 134.949307 51.469163 
L 134.52167 51.742174 
L 134.094034 52.011402 
L 133.666398 52.276909 
L 133.238761 52.538772 
L 132.811125 52.797076 
L 132.383489 53.051918 
L 131.955852 53.303403 
L 131.528216 53.551643 
L 131.10058 53.796755 
L 130.672943 54.03886 
L 130.245307 54.278081 
L 129.81767 54.514543 
L 129.390034 54.748369 
L 128.962398 54.979683 
L 128.534761 55.208605 
L 128.107125 55.435254 
L 127.679489 55.659744 
L 127.251852 55.882187 
L 126.824216 56.102689 
L 126.39658 56.321353 
L 125.968943 56.538278 
L 125.541307 56.753556 
L 125.11367 56.967278 
L 124.686034 57.179527 
L 124.258398 57.390384 
L 123.830761 57.599925 
L 123.403125 57.80822 
z
" clip-path="url(#p097601f1e3)" style="fill: #ee8222; fill-opacity: 0.2"/>
   </g>
   <g id="matplotlib.axis_3">
    <g id="xtick_4">
     <g id="line2d_8">
      <g>
       <use xlink:href="#m73647ebbbf" x="123.403125" y="75.799219" style="stroke: #000000; stroke-width: 0.8"/>
      </g>
     </g>
     <g id="text_9">
      <text style="font: 10px 'sans-serif'; text-anchor: middle" x="123.403125" y="90.397656" transform="rotate(-0 123.403125 90.397656)">0</text>
     </g>
    </g>
    <g id="xtick_5">
     <g id="line2d_9">
      <g>
       <use xlink:href="#m73647ebbbf" x="159.403125" y="75.799219" style="stroke: #000000; stroke-width: 0.8"/>
      </g>
     </g>
     <g id="text_10">
      <text style="font: 10px 'sans-serif'; text-anchor: middle" x="159.403125" y="90.397656" transform="rotate(-0 159.403125 90.397656)">25</text>
     </g>
    </g>
    <g id="xtick_6">
     <g id="line2d_10">
      <g>
       <use xlink:href="#m73647ebbbf" x="195.403125" y="75.799219" style="stroke: #000000; stroke-width: 0.8"/>
      </g>
     </g>
     <g id="text_11">
      <text style="font: 10px 'sans-serif'; text-anchor: middle" x="195.403125" y="90.397656" transform="rotate(-0 195.403125 90.397656)">50</text>
     </g>
    </g>
    <g id="text_12">
     <text style="font: 10px 'sans-serif'; text-anchor: middle" x="159.403125" y="104.075781" transform="rotate(-0 159.403125 104.075781)">n_aud</text>
    </g>
   </g>
   <g id="matplotlib.axis_4">
    <g id="ytick_4">
     <g id="line2d_11">
      <g>
       <use xlink:href="#m69b289c64c" x="123.403125" y="75.799219" style="stroke: #000000; stroke-width: 0.8"/>
      </g>
     </g>
     <g id="text_13">
      <text style="font: 10px 'sans-serif'; text-anchor: end" x="116.403125" y="79.598438" transform="rotate(-0 116.403125 79.598438)">0</text>
     </g>
    </g>
    <g id="ytick_5">
     <g id="line2d_12">
      <g>
       <use xlink:href="#m69b289c64c" x="123.403125" y="39.799219" style="stroke: #000000; stroke-width: 0.8"/>
      </g>
     </g>
     <g id="text_14">
      <text style="font: 10px 'sans-serif'; text-anchor: end" x="116.403125" y="43.598437" transform="rotate(-0 116.403125 43.598437)">25</text>
     </g>
    </g>
    <g id="ytick_6">
     <g id="line2d_13">
      <g>
       <use xlink:href="#m69b289c64c" x="123.403125" y="3.799219" style="stroke: #000000; stroke-width: 0.8"/>
      </g>
     </g>
     <g id="text_15">
      <text style="font: 10px 'sans-serif'; text-anchor: end" x="116.403125" y="7.598437" transform="rotate(-0 116.403125 7.598437)">50</text>
     </g>
    </g>
   </g>
   <g id="line2d_14">
    <path d="M 123.403125 61.960987 
L 123.830761 61.676183 
L 124.258398 61.39138 
L 124.686034 61.106576 
L 125.11367 60.821772 
L 125.541307 60.536969 
L 125.968943 60.252165 
L 126.39658 59.967361 
L 126.824216 59.682557 
L 127.251852 59.397754 
L 127.679489 59.11295 
L 128.107125 58.828146 
L 128.534761 58.543343 
L 128.962398 58.258539 
L 129.390034 57.973735 
L 129.81767 57.688931 
L 130.245307 57.404128 
L 130.672943 57.119324 
L 131.10058 56.83452 
L 131.528216 56.549717 
L 131.955852 56.264913 
L 132.383489 55.980109 
L 132.811125 55.695306 
L 133.238761 55.410502 
L 133.666398 55.125698 
L 134.094034 54.840894 
L 134.52167 54.556091 
L 134.949307 54.271287 
L 135.376943 53.986483 
L 135.80458 53.70168 
L 136.232216 53.416876 
L 136.659852 53.132072 
L 137.087489 52.847269 
L 137.515125 52.562465 
L 137.942761 52.277661 
L 138.370398 51.992857 
L 138.798034 51.708054 
L 139.22567 51.42325 
L 139.653307 51.138446 
L 140.080943 50.853643 
L 140.50858 50.568839 
L 140.936216 50.284035 
L 141.363852 49.999231 
L 141.791489 49.714428 
L 142.219125 49.429624 
L 142.646761 49.14482 
L 143.074398 48.860017 
L 143.502034 48.575213 
L 143.92967 48.290409 
L 144.357307 48.005606 
L 144.784943 47.720802 
L 145.21258 47.435998 
L 145.640216 47.151194 
L 146.067852 46.866391 
L 146.495489 46.581587 
L 146.923125 46.296783 
L 147.350761 46.01198 
L 147.778398 45.727176 
L 148.206034 45.442372 
L 148.63367 45.157568 
L 149.061307 44.872765 
L 149.488943 44.587961 
L 149.91658 44.303157 
L 150.344216 44.018354 
L 150.771852 43.73355 
L 151.199489 43.448746 
L 151.627125 43.163943 
L 152.054761 42.879139 
L 152.482398 42.594335 
L 152.910034 42.309531 
L 153.33767 42.024728 
L 153.765307 41.739924 
L 154.192943 41.45512 
L 154.62058 41.170317 
L 155.048216 40.885513 
L 155.475852 40.600709 
L 155.903489 40.315905 
L 156.331125 40.031102 
L 156.758761 39.746298 
L 157.186398 39.461494 
L 157.614034 39.176691 
L 158.04167 38.891887 
L 158.469307 38.607083 
L 158.896943 38.32228 
L 159.32458 38.037476 
L 159.752216 37.752672 
L 160.179852 37.467868 
L 160.607489 37.183065 
L 161.035125 36.898261 
L 161.462761 36.613457 
L 161.890398 36.328654 
L 162.318034 36.04385 
L 162.74567 35.759046 
L 163.173307 35.474243 
L 163.600943 35.189439 
L 164.02858 34.904635 
L 164.456216 34.619831 
L 164.883852 34.335028 
L 165.311489 34.050224 
L 165.739125 33.76542 
" clip-path="url(#p097601f1e3)" style="fill: none; stroke: #ee8222; stroke-width: 1.5; stroke-linecap: square"/>
   </g>
   <g id="patch_6">
    <path d="M 123.403125 75.799219 
L 123.403125 3.799219 
" style="fill: none; stroke: #000000; stroke-width: 0.8; stroke-linejoin: miter; stroke-linecap: square"/>
   </g>
   <g id="patch_7">
    <path d="M 123.403125 75.799219 
L 195.403125 75.799219 
" style="fill: none; stroke: #000000; stroke-width: 0.8; stroke-linejoin: miter; stroke-linecap: square"/>
   </g>
  </g>
  <g id="axes_3">
   <g id="patch_8">
    <path d="M 213.403125 75.799219 
L 285.403125 75.799219 
L 285.403125 3.799219 
L 213.403125 3.799219 
z
" style="fill: #ffffff"/>
   </g>
   <g id="PathCollection_3">
    <g clip-path="url(#p9cb452622b)">
     <use xlink:href="#mb287470b22" x="246.910817" y="63.323751" style="fill: #a0a0a0; fill-opacity: 0.8; stroke: #a0a0a0; stroke-opacity: 0.8"/>
     <use xlink:href="#mb287470b22" x="235.556971" y="66.629761" style="fill: #a0a0a0; fill-opacity: 0.8; stroke: #a0a0a0; stroke-opacity: 0.8"/>
     <use xlink:href="#mb287470b22" x="259.926202" y="55.893584" style="fill: #a0a0a0; fill-opacity: 0.8; stroke: #a0a0a0; stroke-opacity: 0.8"/>
     <use xlink:href="#mb287470b22" x="244.972356" y="64.566687" style="fill: #a0a0a0; fill-opacity: 0.8; stroke: #a0a0a0; stroke-opacity: 0.8"/>
     <use xlink:href="#mb287470b22" x="225.864663" y="68.523162" style="fill: #a0a0a0; fill-opacity: 0.8; stroke: #a0a0a0; stroke-opacity: 0.8"/>
     <use xlink:href="#mb287470b22" x="240.541587" y="55.404243" style="fill: #a0a0a0; fill-opacity: 0.8; stroke: #a0a0a0; stroke-opacity: 0.8"/>
     <use xlink:href="#mb287470b22" x="257.710817" y="62.018664" style="fill: #a0a0a0; fill-opacity: 0.8; stroke: #a0a0a0; stroke-opacity: 0.8"/>
     <use xlink:href="#mb287470b22" x="245.249279" y="65.979352" style="fill: #a0a0a0; fill-opacity: 0.8; stroke: #a0a0a0; stroke-opacity: 0.8"/>
     <use xlink:href="#mb287470b22" x="228.080048" y="66.184085" style="fill: #a0a0a0; fill-opacity: 0.8; stroke: #a0a0a0; stroke-opacity: 0.8"/>
     <use xlink:href="#mb287470b22" x="246.633894" y="52.678478" style="fill: #a0a0a0; fill-opacity: 0.8; stroke: #a0a0a0; stroke-opacity: 0.8"/>
     <use xlink:href="#mb287470b22" x="243.864663" y="62.408033" style="fill: #a0a0a0; fill-opacity: 0.8; stroke: #a0a0a0; stroke-opacity: 0.8"/>
     <use xlink:href="#mb287470b22" x="229.741587" y="61.048233" style="fill: #a0a0a0; fill-opacity: 0.8; stroke: #a0a0a0; stroke-opacity: 0.8"/>
     <use xlink:href="#mb287470b22" x="232.233894" y="65.056931" style="fill: #a0a0a0; fill-opacity: 0.8; stroke: #a0a0a0; stroke-opacity: 0.8"/>
     <use xlink:href="#mb287470b22" x="243.033894" y="25.09335" style="fill: #a0a0a0; fill-opacity: 0.8; stroke: #a0a0a0; stroke-opacity: 0.8"/>
     <use xlink:href="#mb287470b22" x="237.772356" y="64.521823" style="fill: #a0a0a0; fill-opacity: 0.8; stroke: #a0a0a0; stroke-opacity: 0.8"/>
     <use xlink:href="#mb287470b22" x="246.910817" y="64.55792" style="fill: #a0a0a0; fill-opacity: 0.8; stroke: #a0a0a0; stroke-opacity: 0.8"/>
     <use xlink:href="#mb287470b22" x="227.249279" y="66.971909" style="fill: #a0a0a0; fill-opacity: 0.8; stroke: #a0a0a0; stroke-opacity: 0.8"/>
     <use xlink:href="#mb287470b22" x="246.080048" y="58.686002" style="fill: #a0a0a0; fill-opacity: 0.8; stroke: #a0a0a0; stroke-opacity: 0.8"/>
     <use xlink:href="#mb287470b22" x="236.664663" y="56.987743" style="fill: #a0a0a0; fill-opacity: 0.8; stroke: #a0a0a0; stroke-opacity: 0.8"/>
     <use xlink:href="#mb287470b22" x="241.095433" y="45.609362" style="fill: #a0a0a0; fill-opacity: 0.8; stroke: #a0a0a0; stroke-opacity: 0.8"/>
     <use xlink:href="#mb287470b22" x="217.280048" y="68.438476" style="fill: #a0a0a0; fill-opacity: 0.8; stroke: #a0a0a0; stroke-opacity: 0.8"/>
     <use xlink:href="#mb287470b22" x="244.41851" y="64.324244" style="fill: #a0a0a0; fill-opacity: 0.8; stroke: #a0a0a0; stroke-opacity: 0.8"/>
     <use xlink:href="#mb287470b22" x="220.603125" y="59.933185" style="fill: #a0a0a0; fill-opacity: 0.8; stroke: #a0a0a0; stroke-opacity: 0.8"/>
     <use xlink:href="#mb287470b22" x="242.480048" y="39.697802" style="fill: #a0a0a0; fill-opacity: 0.8; stroke: #a0a0a0; stroke-opacity: 0.8"/>
     <use xlink:href="#mb287470b22" x="231.126202" y="62.791712" style="fill: #a0a0a0; fill-opacity: 0.8; stroke: #a0a0a0; stroke-opacity: 0.8"/>
     <use xlink:href="#mb287470b22" x="244.41851" y="59.52794" style="fill: #a0a0a0; fill-opacity: 0.8; stroke: #a0a0a0; stroke-opacity: 0.8"/>
     <use xlink:href="#mb287470b22" x="230.295433" y="62.924349" style="fill: #a0a0a0; fill-opacity: 0.8; stroke: #a0a0a0; stroke-opacity: 0.8"/>
     <use xlink:href="#mb287470b22" x="222.264663" y="62.592647" style="fill: #a0a0a0; fill-opacity: 0.8; stroke: #a0a0a0; stroke-opacity: 0.8"/>
     <use xlink:href="#mb287470b22" x="242.756971" y="39.498193" style="fill: #a0a0a0; fill-opacity: 0.8; stroke: #a0a0a0; stroke-opacity: 0.8"/>
     <use xlink:href="#mb287470b22" x="227.803125" y="61.617247" style="fill: #a0a0a0; fill-opacity: 0.8; stroke: #a0a0a0; stroke-opacity: 0.8"/>
     <use xlink:href="#mb287470b22" x="228.356971" y="29.014171" style="fill: #a0a0a0; fill-opacity: 0.8; stroke: #a0a0a0; stroke-opacity: 0.8"/>
     <use xlink:href="#mb287470b22" x="234.449279" y="63.343777" style="fill: #a0a0a0; fill-opacity: 0.8; stroke: #a0a0a0; stroke-opacity: 0.8"/>
     <use xlink:href="#mb287470b22" x="236.38774" y="59.160775" style="fill: #a0a0a0; fill-opacity: 0.8; stroke: #a0a0a0; stroke-opacity: 0.8"/>
     <use xlink:href="#mb287470b22" x="231.956971" y="66.506848" style="fill: #a0a0a0; fill-opacity: 0.8; stroke: #a0a0a0; stroke-opacity: 0.8"/>
     <use xlink:href="#mb287470b22" x="227.249279" y="65.644212" style="fill: #a0a0a0; fill-opacity: 0.8; stroke: #a0a0a0; stroke-opacity: 0.8"/>
     <use xlink:href="#mb287470b22" x="238.326202" y="43.937664" style="fill: #a0a0a0; fill-opacity: 0.8; stroke: #a0a0a0; stroke-opacity: 0.8"/>
     <use xlink:href="#mb287470b22" x="253.556971" y="21.699809" style="fill: #a0a0a0; fill-opacity: 0.8; stroke: #a0a0a0; stroke-opacity: 0.8"/>
     <use xlink:href="#mb287470b22" x="235.556971" y="63.896018" style="fill: #a0a0a0; fill-opacity: 0.8; stroke: #a0a0a0; stroke-opacity: 0.8"/>
     <use xlink:href="#mb287470b22" x="229.18774" y="64.84486" style="fill: #a0a0a0; fill-opacity: 0.8; stroke: #a0a0a0; stroke-opacity: 0.8"/>
     <use xlink:href="#mb287470b22" x="238.049279" y="59.653938" style="fill: #a0a0a0; fill-opacity: 0.8; stroke: #a0a0a0; stroke-opacity: 0.8"/>
     <use xlink:href="#mb287470b22" x="246.633894" y="39.412153" style="fill: #a0a0a0; fill-opacity: 0.8; stroke: #a0a0a0; stroke-opacity: 0.8"/>
     <use xlink:href="#mb287470b22" x="264.910817" y="62.757436" style="fill: #a0a0a0; fill-opacity: 0.8; stroke: #a0a0a0; stroke-opacity: 0.8"/>
     <use xlink:href="#mb287470b22" x="236.38774" y="61.436248" style="fill: #a0a0a0; fill-opacity: 0.8; stroke: #a0a0a0; stroke-opacity: 0.8"/>
     <use xlink:href="#mb287470b22" x="242.203125" y="34.528834" style="fill: #a0a0a0; fill-opacity: 0.8; stroke: #a0a0a0; stroke-opacity: 0.8"/>
     <use xlink:href="#mb287470b22" x="251.341587" y="59.702932" style="fill: #a0a0a0; fill-opacity: 0.8; stroke: #a0a0a0; stroke-opacity: 0.8"/>
     <use xlink:href="#mb287470b22" x="260.480048" y="51.145325" style="fill: #a0a0a0; fill-opacity: 0.8; stroke: #a0a0a0; stroke-opacity: 0.8"/>
     <use xlink:href="#mb287470b22" x="242.756971" y="56.084775" style="fill: #a0a0a0; fill-opacity: 0.8; stroke: #a0a0a0; stroke-opacity: 0.8"/>
     <use xlink:href="#mb287470b22" x="238.326202" y="54.371525" style="fill: #a0a0a0; fill-opacity: 0.8; stroke: #a0a0a0; stroke-opacity: 0.8"/>
     <use xlink:href="#mb287470b22" x="245.803125" y="18.809588" style="fill: #a0a0a0; fill-opacity: 0.8; stroke: #a0a0a0; stroke-opacity: 0.8"/>
     <use xlink:href="#mb287470b22" x="253.003125" y="19.515091" style="fill: #a0a0a0; fill-opacity: 0.8; stroke: #a0a0a0; stroke-opacity: 0.8"/>
     <use xlink:href="#mb287470b22" x="256.603125" y="17.372962" style="fill: #a0a0a0; fill-opacity: 0.8; stroke: #a0a0a0; stroke-opacity: 0.8"/>
     <use xlink:href="#mb287470b22" x="309.772356" y="65.93483" style="fill: #a0a0a0; fill-opacity: 0.8; stroke: #a0a0a0; stroke-opacity: 0.8"/>
     <use xlink:href="#mb287470b22" x="233.341587" y="54.947203" style="fill: #a0a0a0; fill-opacity: 0.8; stroke: #a0a0a0; stroke-opacity: 0.8"/>
     <use xlink:href="#mb287470b22" x="233.61851" y="23.975306" style="fill: #a0a0a0; fill-opacity: 0.8; stroke: #a0a0a0; stroke-opacity: 0.8"/>
     <use xlink:href="#mb287470b22" x="239.710817" y="46.86552" style="fill: #a0a0a0; fill-opacity: 0.8; stroke: #a0a0a0; stroke-opacity: 0.8"/>
     <use xlink:href="#mb287470b22" x="239.156971" y="58.627158" style="fill: #a0a0a0; fill-opacity: 0.8; stroke: #a0a0a0; stroke-opacity: 0.8"/>
     <use xlink:href="#mb287470b22" x="215.895433" y="69.670566" style="fill: #a0a0a0; fill-opacity: 0.8; stroke: #a0a0a0; stroke-opacity: 0.8"/>
     <use xlink:href="#mb287470b22" x="249.126202" y="42.127051" style="fill: #a0a0a0; fill-opacity: 0.8; stroke: #a0a0a0; stroke-opacity: 0.8"/>
     <use xlink:href="#mb287470b22" x="241.926202" y="50.206962" style="fill: #a0a0a0; fill-opacity: 0.8; stroke: #a0a0a0; stroke-opacity: 0.8"/>
     <use xlink:href="#mb287470b22" x="257.156971" y="65.464092" style="fill: #a0a0a0; fill-opacity: 0.8; stroke: #a0a0a0; stroke-opacity: 0.8"/>
     <use xlink:href="#mb287470b22" x="242.756971" y="46.25474" style="fill: #a0a0a0; fill-opacity: 0.8; stroke: #a0a0a0; stroke-opacity: 0.8"/>
     <use xlink:href="#mb287470b22" x="236.110817" y="62.736637" style="fill: #a0a0a0; fill-opacity: 0.8; stroke: #a0a0a0; stroke-opacity: 0.8"/>
     <use xlink:href="#mb287470b22" x="251.064663" y="44.692235" style="fill: #a0a0a0; fill-opacity: 0.8; stroke: #a0a0a0; stroke-opacity: 0.8"/>
     <use xlink:href="#mb287470b22" x="284.849279" y="67.555015" style="fill: #a0a0a0; fill-opacity: 0.8; stroke: #a0a0a0; stroke-opacity: 0.8"/>
     <use xlink:href="#mb287470b22" x="247.464663" y="59.859148" style="fill: #a0a0a0; fill-opacity: 0.8; stroke: #a0a0a0; stroke-opacity: 0.8"/>
     <use xlink:href="#mb287470b22" x="231.126202" y="41.783443" style="fill: #a0a0a0; fill-opacity: 0.8; stroke: #a0a0a0; stroke-opacity: 0.8"/>
     <use xlink:href="#mb287470b22" x="233.341587" y="58.676663" style="fill: #a0a0a0; fill-opacity: 0.8; stroke: #a0a0a0; stroke-opacity: 0.8"/>
     <use xlink:href="#mb287470b22" x="233.064663" y="53.263808" style="fill: #a0a0a0; fill-opacity: 0.8; stroke: #a0a0a0; stroke-opacity: 0.8"/>
     <use xlink:href="#mb287470b22" x="239.710817" y="58.766006" style="fill: #a0a0a0; fill-opacity: 0.8; stroke: #a0a0a0; stroke-opacity: 0.8"/>
     <use xlink:href="#mb287470b22" x="238.603125" y="60.438089" style="fill: #a0a0a0; fill-opacity: 0.8; stroke: #a0a0a0; stroke-opacity: 0.8"/>
    </g>
   </g>
   <g id="PolyCollection_3">
    <path d="M 215.895433 50.279643 
L 215.895433 60.635142 
L 216.899628 60.447207 
L 217.903824 60.260552 
L 218.90802 60.075271 
L 219.912216 59.891468 
L 220.916412 59.709254 
L 221.920608 59.528753 
L 222.924803 59.350098 
L 223.928999 59.173432 
L 224.933195 58.998913 
L 225.937391 58.826712 
L 226.941587 58.657012 
L 227.945782 58.490015 
L 228.949978 58.325935 
L 229.954174 58.165004 
L 230.95837 58.007469 
L 231.962566 57.853595 
L 232.966761 57.703661 
L 233.970957 57.557961 
L 234.975153 57.416802 
L 235.979349 57.2805 
L 236.983545 57.149378 
L 237.98774 57.023759 
L 238.991936 56.903964 
L 239.996132 56.790303 
L 241.000328 56.683068 
L 242.004524 56.582524 
L 243.008719 56.488904 
L 244.012915 56.402399 
L 245.017111 56.323154 
L 246.021307 56.25126 
L 247.025503 56.186751 
L 248.029698 56.129604 
L 249.033894 56.079738 
L 250.03809 56.03702 
L 251.042286 56.001267 
L 252.046482 55.972254 
L 253.050677 55.949721 
L 254.054873 55.93338 
L 255.059069 55.922925 
L 256.063265 55.918037 
L 257.067461 55.918392 
L 258.071656 55.923667 
L 259.075852 55.933544 
L 260.080048 55.947714 
L 261.084244 55.965881 
L 262.08844 55.987762 
L 263.092635 56.013089 
L 264.096831 56.041613 
L 265.101027 56.073098 
L 266.105223 56.107326 
L 267.109419 56.144095 
L 268.113615 56.183215 
L 269.11781 56.224515 
L 270.122006 56.267834 
L 271.126202 56.313027 
L 272.130398 56.359956 
L 273.134594 56.408499 
L 274.138789 56.45854 
L 275.142985 56.509976 
L 276.147181 56.562709 
L 277.151377 56.616651 
L 278.155573 56.67172 
L 279.159768 56.727841 
L 280.163964 56.784945 
L 281.16816 56.842968 
L 282.172356 56.901852 
L 283.176552 56.961543 
L 284.180747 57.02199 
L 285.184943 57.083148 
L 286.189139 57.144973 
L 287.193335 57.207426 
L 288.197531 57.27047 
L 289.201726 57.334071 
L 290.205922 57.398199 
L 291.210118 57.462822 
L 292.214314 57.527914 
L 293.21851 57.59345 
L 294.222705 57.659406 
L 295.226901 57.725759 
L 296.231097 57.79249 
L 297.235293 57.859578 
L 298.239489 57.927006 
L 299.243684 57.994757 
L 300.24788 58.062815 
L 301.252076 58.131164 
L 302.256272 58.199792 
L 303.260468 58.268686 
L 304.264663 58.337832 
L 305.268859 58.407219 
L 306.273055 58.476836 
L 307.277251 58.546674 
L 308.281447 58.616722 
L 309.285642 58.686972 
L 310.289838 58.757414 
L 311.294034 58.82804 
L 312.29823 58.898844 
L 313.302426 58.969817 
L 314.306622 59.040952 
L 315.310817 59.112244 
L 315.310817 38.441665 
L 315.310817 38.441665 
L 314.306622 38.647915 
L 313.302426 38.854008 
L 312.29823 39.05994 
L 311.294034 39.265701 
L 310.289838 39.471286 
L 309.285642 39.676687 
L 308.281447 39.881894 
L 307.277251 40.086901 
L 306.273055 40.291697 
L 305.268859 40.496273 
L 304.264663 40.700619 
L 303.260468 40.904723 
L 302.256272 41.108574 
L 301.252076 41.312161 
L 300.24788 41.515469 
L 299.243684 41.718485 
L 298.239489 41.921194 
L 297.235293 42.12358 
L 296.231097 42.325627 
L 295.226901 42.527316 
L 294.222705 42.728628 
L 293.21851 42.929542 
L 292.214314 43.130036 
L 291.210118 43.330087 
L 290.205922 43.529668 
L 289.201726 43.728754 
L 288.197531 43.927314 
L 287.193335 44.125317 
L 286.189139 44.322728 
L 285.184943 44.519511 
L 284.180747 44.715627 
L 283.176552 44.911033 
L 282.172356 45.105682 
L 281.16816 45.299524 
L 280.163964 45.492506 
L 279.159768 45.684568 
L 278.155573 45.875648 
L 277.151377 46.065675 
L 276.147181 46.254575 
L 275.142985 46.442266 
L 274.138789 46.62866 
L 273.134594 46.81366 
L 272.130398 46.997161 
L 271.126202 47.179049 
L 270.122006 47.3592 
L 269.11781 47.537478 
L 268.113615 47.713736 
L 267.109419 47.887815 
L 266.105223 48.059541 
L 265.101027 48.228727 
L 264.096831 48.395171 
L 263.092635 48.558653 
L 262.08844 48.718939 
L 261.084244 48.875779 
L 260.080048 49.028904 
L 259.075852 49.178032 
L 258.071656 49.322868 
L 257.067461 49.463101 
L 256.063265 49.598414 
L 255.059069 49.728484 
L 254.054873 49.852988 
L 253.050677 49.971605 
L 252.046482 50.08403 
L 251.042286 50.189976 
L 250.03809 50.289181 
L 249.033894 50.381422 
L 248.029698 50.466514 
L 247.025503 50.544325 
L 246.021307 50.614774 
L 245.017111 50.677838 
L 244.012915 50.733552 
L 243.008719 50.782006 
L 242.004524 50.823344 
L 241.000328 50.857759 
L 239.996132 50.885481 
L 238.991936 50.906779 
L 237.98774 50.921942 
L 236.983545 50.931282 
L 235.979349 50.935118 
L 234.975153 50.933774 
L 233.970957 50.927574 
L 232.966761 50.916832 
L 231.962566 50.901857 
L 230.95837 50.882941 
L 229.954174 50.860364 
L 228.949978 50.834391 
L 227.945782 50.80527 
L 226.941587 50.773231 
L 225.937391 50.73849 
L 224.933195 50.701247 
L 223.928999 50.661687 
L 222.924803 50.619979 
L 221.920608 50.576282 
L 220.916412 50.530739 
L 219.912216 50.483484 
L 218.90802 50.434639 
L 217.903824 50.384317 
L 216.899628 50.33262 
L 215.895433 50.279643 
z
" clip-path="url(#p9cb452622b)" style="fill: #007500; fill-opacity: 0.2"/>
   </g>
   <g id="matplotlib.axis_5">
    <g id="xtick_7">
     <g id="line2d_15">
      <g>
       <use xlink:href="#m73647ebbbf" x="213.403125" y="75.799219" style="stroke: #000000; stroke-width: 0.8"/>
      </g>
     </g>
     <g id="text_16">
      <text style="font: 10px 'sans-serif'; text-anchor: middle" x="213.403125" y="90.397656" transform="rotate(-0 213.403125 90.397656)">0</text>
     </g>
    </g>
    <g id="xtick_8">
     <g id="line2d_16">
      <g>
       <use xlink:href="#m73647ebbbf" x="249.403125" y="75.799219" style="stroke: #000000; stroke-width: 0.8"/>
      </g>
     </g>
     <g id="text_17">
      <text style="font: 10px 'sans-serif'; text-anchor: middle" x="249.403125" y="90.397656" transform="rotate(-0 249.403125 90.397656)">25</text>
     </g>
    </g>
    <g id="xtick_9">
     <g id="line2d_17">
      <g>
       <use xlink:href="#m73647ebbbf" x="285.403125" y="75.799219" style="stroke: #000000; stroke-width: 0.8"/>
      </g>
     </g>
     <g id="text_18">
      <text style="font: 10px 'sans-serif'; text-anchor: middle" x="285.403125" y="90.397656" transform="rotate(-0 285.403125 90.397656)">50</text>
     </g>
    </g>
    <g id="text_19">
     <text style="font: 10px 'sans-serif'; text-anchor: middle" x="249.403125" y="104.075781" transform="rotate(-0 249.403125 104.075781)">n_multi</text>
    </g>
   </g>
   <g id="matplotlib.axis_6">
    <g id="ytick_7">
     <g id="line2d_18">
      <g>
       <use xlink:href="#m69b289c64c" x="213.403125" y="75.799219" style="stroke: #000000; stroke-width: 0.8"/>
      </g>
     </g>
     <g id="text_20">
      <text style="font: 10px 'sans-serif'; text-anchor: end" x="206.403125" y="79.598438" transform="rotate(-0 206.403125 79.598438)">0</text>
     </g>
    </g>
    <g id="ytick_8">
     <g id="line2d_19">
      <g>
       <use xlink:href="#m69b289c64c" x="213.403125" y="39.799219" style="stroke: #000000; stroke-width: 0.8"/>
      </g>
     </g>
     <g id="text_21">
      <text style="font: 10px 'sans-serif'; text-anchor: end" x="206.403125" y="43.598437" transform="rotate(-0 206.403125 43.598437)">25</text>
     </g>
    </g>
    <g id="ytick_9">
     <g id="line2d_20">
      <g>
       <use xlink:href="#m69b289c64c" x="213.403125" y="3.799219" style="stroke: #000000; stroke-width: 0.8"/>
      </g>
     </g>
     <g id="text_22">
      <text style="font: 10px 'sans-serif'; text-anchor: end" x="206.403125" y="7.598437" transform="rotate(-0 206.403125 7.598437)">50</text>
     </g>
    </g>
   </g>
   <g id="line2d_21">
    <path d="M 215.895433 55.457393 
L 216.899628 55.389913 
L 217.903824 55.322434 
L 218.90802 55.254955 
L 219.912216 55.187476 
L 220.916412 55.119997 
L 221.920608 55.052518 
L 222.924803 54.985038 
L 223.928999 54.917559 
L 224.933195 54.85008 
L 225.937391 54.782601 
L 226.941587 54.715122 
L 227.945782 54.647642 
L 228.949978 54.580163 
L 229.954174 54.512684 
L 230.95837 54.445205 
L 231.962566 54.377726 
L 232.966761 54.310247 
L 233.970957 54.242767 
L 234.975153 54.175288 
L 235.979349 54.107809 
L 236.983545 54.04033 
L 237.98774 53.972851 
L 238.991936 53.905372 
L 239.996132 53.837892 
L 241.000328 53.770413 
L 242.004524 53.702934 
L 243.008719 53.635455 
L 244.012915 53.567976 
L 245.017111 53.500496 
L 246.021307 53.433017 
L 247.025503 53.365538 
L 248.029698 53.298059 
L 249.033894 53.23058 
L 250.03809 53.163101 
L 251.042286 53.095621 
L 252.046482 53.028142 
L 253.050677 52.960663 
L 254.054873 52.893184 
L 255.059069 52.825705 
L 256.063265 52.758226 
L 257.067461 52.690746 
L 258.071656 52.623267 
L 259.075852 52.555788 
L 260.080048 52.488309 
L 261.084244 52.42083 
L 262.08844 52.35335 
L 263.092635 52.285871 
L 264.096831 52.218392 
L 265.101027 52.150913 
L 266.105223 52.083434 
L 267.109419 52.015955 
L 268.113615 51.948475 
L 269.11781 51.880996 
L 270.122006 51.813517 
L 271.126202 51.746038 
L 272.130398 51.678559 
L 273.134594 51.61108 
L 274.138789 51.5436 
L 275.142985 51.476121 
L 276.147181 51.408642 
L 277.151377 51.341163 
L 278.155573 51.273684 
L 279.159768 51.206204 
L 280.163964 51.138725 
L 281.16816 51.071246 
L 282.172356 51.003767 
L 283.176552 50.936288 
L 284.180747 50.868809 
L 285.184943 50.801329 
L 286.189139 50.73385 
L 287.193335 50.666371 
L 288.197531 50.598892 
L 289.201726 50.531413 
L 290.205922 50.463934 
L 291.210118 50.396454 
L 292.214314 50.328975 
L 293.21851 50.261496 
L 294.222705 50.194017 
L 295.226901 50.126538 
L 296.231097 50.059058 
L 297.235293 49.991579 
L 298.239489 49.9241 
L 299.243684 49.856621 
L 300.24788 49.789142 
L 301.252076 49.721663 
L 302.256272 49.654183 
L 303.260468 49.586704 
L 304.264663 49.519225 
L 305.268859 49.451746 
L 306.273055 49.384267 
L 307.277251 49.316788 
L 308.281447 49.249308 
L 309.285642 49.181829 
L 310.289838 49.11435 
L 311.294034 49.046871 
L 312.29823 48.979392 
L 313.302426 48.911912 
L 314.306622 48.844433 
L 315.310817 48.776954 
" clip-path="url(#p9cb452622b)" style="fill: none; stroke: #007500; stroke-width: 1.5; stroke-linecap: square"/>
   </g>
   <g id="patch_9">
    <path d="M 213.403125 75.799219 
L 213.403125 3.799219 
" style="fill: none; stroke: #000000; stroke-width: 0.8; stroke-linejoin: miter; stroke-linecap: square"/>
   </g>
   <g id="patch_10">
    <path d="M 213.403125 75.799219 
L 285.403125 75.799219 
" style="fill: none; stroke: #000000; stroke-width: 0.8; stroke-linejoin: miter; stroke-linecap: square"/>
   </g>
  </g>
  <g id="axes_4">
   <g id="patch_11">
    <path d="M 303.403125 75.799219 
L 375.403125 75.799219 
L 375.403125 3.799219 
L 303.403125 3.799219 
z
" style="fill: #ffffff"/>
   </g>
   <g id="PathCollection_4">
    <g clip-path="url(#pf78cc3210f)">
     <use xlink:href="#mb287470b22" x="324.427125" y="63.323751" style="fill: #a0a0a0; fill-opacity: 0.8; stroke: #a0a0a0; stroke-opacity: 0.8"/>
     <use xlink:href="#mb287470b22" x="310.603125" y="66.629761" style="fill: #a0a0a0; fill-opacity: 0.8; stroke: #a0a0a0; stroke-opacity: 0.8"/>
     <use xlink:href="#mb287470b22" x="313.771125" y="55.893584" style="fill: #a0a0a0; fill-opacity: 0.8; stroke: #a0a0a0; stroke-opacity: 0.8"/>
     <use xlink:href="#mb287470b22" x="310.027125" y="64.566687" style="fill: #a0a0a0; fill-opacity: 0.8; stroke: #a0a0a0; stroke-opacity: 0.8"/>
     <use xlink:href="#mb287470b22" x="306.283125" y="68.523162" style="fill: #a0a0a0; fill-opacity: 0.8; stroke: #a0a0a0; stroke-opacity: 0.8"/>
     <use xlink:href="#mb287470b22" x="331.051125" y="55.404243" style="fill: #a0a0a0; fill-opacity: 0.8; stroke: #a0a0a0; stroke-opacity: 0.8"/>
     <use xlink:href="#mb287470b22" x="334.507125" y="62.018664" style="fill: #a0a0a0; fill-opacity: 0.8; stroke: #a0a0a0; stroke-opacity: 0.8"/>
     <use xlink:href="#mb287470b22" x="303.403125" y="65.979352" style="fill: #a0a0a0; fill-opacity: 0.8; stroke: #a0a0a0; stroke-opacity: 0.8"/>
     <use xlink:href="#mb287470b22" x="309.451125" y="66.184085" style="fill: #a0a0a0; fill-opacity: 0.8; stroke: #a0a0a0; stroke-opacity: 0.8"/>
     <use xlink:href="#mb287470b22" x="337.963125" y="52.678478" style="fill: #a0a0a0; fill-opacity: 0.8; stroke: #a0a0a0; stroke-opacity: 0.8"/>
     <use xlink:href="#mb287470b22" x="336.235125" y="62.408033" style="fill: #a0a0a0; fill-opacity: 0.8; stroke: #a0a0a0; stroke-opacity: 0.8"/>
     <use xlink:href="#mb287470b22" x="320.683125" y="61.048233" style="fill: #a0a0a0; fill-opacity: 0.8; stroke: #a0a0a0; stroke-opacity: 0.8"/>
     <use xlink:href="#mb287470b22" x="315.787125" y="65.056931" style="fill: #a0a0a0; fill-opacity: 0.8; stroke: #a0a0a0; stroke-opacity: 0.8"/>
     <use xlink:href="#mb287470b22" x="341.419125" y="25.09335" style="fill: #a0a0a0; fill-opacity: 0.8; stroke: #a0a0a0; stroke-opacity: 0.8"/>
     <use xlink:href="#mb287470b22" x="308.299125" y="64.521823" style="fill: #a0a0a0; fill-opacity: 0.8; stroke: #a0a0a0; stroke-opacity: 0.8"/>
     <use xlink:href="#mb287470b22" x="325.291125" y="64.55792" style="fill: #a0a0a0; fill-opacity: 0.8; stroke: #a0a0a0; stroke-opacity: 0.8"/>
     <use xlink:href="#mb287470b22" x="303.403125" y="66.971909" style="fill: #a0a0a0; fill-opacity: 0.8; stroke: #a0a0a0; stroke-opacity: 0.8"/>
     <use xlink:href="#mb287470b22" x="322.699125" y="58.686002" style="fill: #a0a0a0; fill-opacity: 0.8; stroke: #a0a0a0; stroke-opacity: 0.8"/>
     <use xlink:href="#mb287470b22" x="315.499125" y="56.987743" style="fill: #a0a0a0; fill-opacity: 0.8; stroke: #a0a0a0; stroke-opacity: 0.8"/>
     <use xlink:href="#mb287470b22" x="322.987125" y="45.609362" style="fill: #a0a0a0; fill-opacity: 0.8; stroke: #a0a0a0; stroke-opacity: 0.8"/>
     <use xlink:href="#mb287470b22" x="303.403125" y="68.438476" style="fill: #a0a0a0; fill-opacity: 0.8; stroke: #a0a0a0; stroke-opacity: 0.8"/>
     <use xlink:href="#mb287470b22" x="317.227125" y="64.324244" style="fill: #a0a0a0; fill-opacity: 0.8; stroke: #a0a0a0; stroke-opacity: 0.8"/>
     <use xlink:href="#mb287470b22" x="323.563125" y="59.933185" style="fill: #a0a0a0; fill-opacity: 0.8; stroke: #a0a0a0; stroke-opacity: 0.8"/>
     <use xlink:href="#mb287470b22" x="331.915125" y="39.697802" style="fill: #a0a0a0; fill-opacity: 0.8; stroke: #a0a0a0; stroke-opacity: 0.8"/>
     <use xlink:href="#mb287470b22" x="314.059125" y="62.791712" style="fill: #a0a0a0; fill-opacity: 0.8; stroke: #a0a0a0; stroke-opacity: 0.8"/>
     <use xlink:href="#mb287470b22" x="313.483125" y="59.52794" style="fill: #a0a0a0; fill-opacity: 0.8; stroke: #a0a0a0; stroke-opacity: 0.8"/>
     <use xlink:href="#mb287470b22" x="319.819125" y="62.924349" style="fill: #a0a0a0; fill-opacity: 0.8; stroke: #a0a0a0; stroke-opacity: 0.8"/>
     <use xlink:href="#mb287470b22" x="316.363125" y="62.592647" style="fill: #a0a0a0; fill-opacity: 0.8; stroke: #a0a0a0; stroke-opacity: 0.8"/>
     <use xlink:href="#mb287470b22" x="337.963125" y="39.498193" style="fill: #a0a0a0; fill-opacity: 0.8; stroke: #a0a0a0; stroke-opacity: 0.8"/>
     <use xlink:href="#mb287470b22" x="319.819125" y="61.617247" style="fill: #a0a0a0; fill-opacity: 0.8; stroke: #a0a0a0; stroke-opacity: 0.8"/>
     <use xlink:href="#mb287470b22" x="308.875125" y="29.014171" style="fill: #a0a0a0; fill-opacity: 0.8; stroke: #a0a0a0; stroke-opacity: 0.8"/>
     <use xlink:href="#mb287470b22" x="303.403125" y="63.343777" style="fill: #a0a0a0; fill-opacity: 0.8; stroke: #a0a0a0; stroke-opacity: 0.8"/>
     <use xlink:href="#mb287470b22" x="327.307125" y="59.160775" style="fill: #a0a0a0; fill-opacity: 0.8; stroke: #a0a0a0; stroke-opacity: 0.8"/>
     <use xlink:href="#mb287470b22" x="312.619125" y="66.506848" style="fill: #a0a0a0; fill-opacity: 0.8; stroke: #a0a0a0; stroke-opacity: 0.8"/>
     <use xlink:href="#mb287470b22" x="309.163125" y="65.644212" style="fill: #a0a0a0; fill-opacity: 0.8; stroke: #a0a0a0; stroke-opacity: 0.8"/>
     <use xlink:href="#mb287470b22" x="351.211125" y="43.937664" style="fill: #a0a0a0; fill-opacity: 0.8; stroke: #a0a0a0; stroke-opacity: 0.8"/>
     <use xlink:href="#mb287470b22" x="363.307125" y="21.699809" style="fill: #a0a0a0; fill-opacity: 0.8; stroke: #a0a0a0; stroke-opacity: 0.8"/>
     <use xlink:href="#mb287470b22" x="319.243125" y="63.896018" style="fill: #a0a0a0; fill-opacity: 0.8; stroke: #a0a0a0; stroke-opacity: 0.8"/>
     <use xlink:href="#mb287470b22" x="322.699125" y="64.84486" style="fill: #a0a0a0; fill-opacity: 0.8; stroke: #a0a0a0; stroke-opacity: 0.8"/>
     <use xlink:href="#mb287470b22" x="322.987125" y="59.653938" style="fill: #a0a0a0; fill-opacity: 0.8; stroke: #a0a0a0; stroke-opacity: 0.8"/>
     <use xlink:href="#mb287470b22" x="345.451125" y="39.412153" style="fill: #a0a0a0; fill-opacity: 0.8; stroke: #a0a0a0; stroke-opacity: 0.8"/>
     <use xlink:href="#mb287470b22" x="321.259125" y="62.757436" style="fill: #a0a0a0; fill-opacity: 0.8; stroke: #a0a0a0; stroke-opacity: 0.8"/>
     <use xlink:href="#mb287470b22" x="314.059125" y="61.436248" style="fill: #a0a0a0; fill-opacity: 0.8; stroke: #a0a0a0; stroke-opacity: 0.8"/>
     <use xlink:href="#mb287470b22" x="349.195125" y="34.528834" style="fill: #a0a0a0; fill-opacity: 0.8; stroke: #a0a0a0; stroke-opacity: 0.8"/>
     <use xlink:href="#mb287470b22" x="312.619125" y="59.702932" style="fill: #a0a0a0; fill-opacity: 0.8; stroke: #a0a0a0; stroke-opacity: 0.8"/>
     <use xlink:href="#mb287470b22" x="325.579125" y="51.145325" style="fill: #a0a0a0; fill-opacity: 0.8; stroke: #a0a0a0; stroke-opacity: 0.8"/>
     <use xlink:href="#mb287470b22" x="329.035125" y="56.084775" style="fill: #a0a0a0; fill-opacity: 0.8; stroke: #a0a0a0; stroke-opacity: 0.8"/>
     <use xlink:href="#mb287470b22" x="330.763125" y="54.371525" style="fill: #a0a0a0; fill-opacity: 0.8; stroke: #a0a0a0; stroke-opacity: 0.8"/>
     <use xlink:href="#mb287470b22" x="335.659125" y="18.809588" style="fill: #a0a0a0; fill-opacity: 0.8; stroke: #a0a0a0; stroke-opacity: 0.8"/>
     <use xlink:href="#mb287470b22" x="333.643125" y="19.515091" style="fill: #a0a0a0; fill-opacity: 0.8; stroke: #a0a0a0; stroke-opacity: 0.8"/>
     <use xlink:href="#mb287470b22" x="315.499125" y="17.372962" style="fill: #a0a0a0; fill-opacity: 0.8; stroke: #a0a0a0; stroke-opacity: 0.8"/>
     <use xlink:href="#mb287470b22" x="308.011125" y="65.93483" style="fill: #a0a0a0; fill-opacity: 0.8; stroke: #a0a0a0; stroke-opacity: 0.8"/>
     <use xlink:href="#mb287470b22" x="321.259125" y="54.947203" style="fill: #a0a0a0; fill-opacity: 0.8; stroke: #a0a0a0; stroke-opacity: 0.8"/>
     <use xlink:href="#mb287470b22" x="339.691125" y="23.975306" style="fill: #a0a0a0; fill-opacity: 0.8; stroke: #a0a0a0; stroke-opacity: 0.8"/>
     <use xlink:href="#mb287470b22" x="322.411125" y="46.86552" style="fill: #a0a0a0; fill-opacity: 0.8; stroke: #a0a0a0; stroke-opacity: 0.8"/>
     <use xlink:href="#mb287470b22" x="308.587125" y="58.627158" style="fill: #a0a0a0; fill-opacity: 0.8; stroke: #a0a0a0; stroke-opacity: 0.8"/>
     <use xlink:href="#mb287470b22" x="303.403125" y="69.670566" style="fill: #a0a0a0; fill-opacity: 0.8; stroke: #a0a0a0; stroke-opacity: 0.8"/>
     <use xlink:href="#mb287470b22" x="335.083125" y="42.127051" style="fill: #a0a0a0; fill-opacity: 0.8; stroke: #a0a0a0; stroke-opacity: 0.8"/>
     <use xlink:href="#mb287470b22" x="314.923125" y="50.206962" style="fill: #a0a0a0; fill-opacity: 0.8; stroke: #a0a0a0; stroke-opacity: 0.8"/>
     <use xlink:href="#mb287470b22" x="304.267125" y="65.464092" style="fill: #a0a0a0; fill-opacity: 0.8; stroke: #a0a0a0; stroke-opacity: 0.8"/>
     <use xlink:href="#mb287470b22" x="322.123125" y="46.25474" style="fill: #a0a0a0; fill-opacity: 0.8; stroke: #a0a0a0; stroke-opacity: 0.8"/>
     <use xlink:href="#mb287470b22" x="310.891125" y="62.736637" style="fill: #a0a0a0; fill-opacity: 0.8; stroke: #a0a0a0; stroke-opacity: 0.8"/>
     <use xlink:href="#mb287470b22" x="330.187125" y="44.692235" style="fill: #a0a0a0; fill-opacity: 0.8; stroke: #a0a0a0; stroke-opacity: 0.8"/>
     <use xlink:href="#mb287470b22" x="317.803125" y="67.555015" style="fill: #a0a0a0; fill-opacity: 0.8; stroke: #a0a0a0; stroke-opacity: 0.8"/>
     <use xlink:href="#mb287470b22" x="331.339125" y="59.859148" style="fill: #a0a0a0; fill-opacity: 0.8; stroke: #a0a0a0; stroke-opacity: 0.8"/>
     <use xlink:href="#mb287470b22" x="350.059125" y="41.783443" style="fill: #a0a0a0; fill-opacity: 0.8; stroke: #a0a0a0; stroke-opacity: 0.8"/>
     <use xlink:href="#mb287470b22" x="314.059125" y="58.676663" style="fill: #a0a0a0; fill-opacity: 0.8; stroke: #a0a0a0; stroke-opacity: 0.8"/>
     <use xlink:href="#mb287470b22" x="317.515125" y="53.263808" style="fill: #a0a0a0; fill-opacity: 0.8; stroke: #a0a0a0; stroke-opacity: 0.8"/>
     <use xlink:href="#mb287470b22" x="314.347125" y="58.766006" style="fill: #a0a0a0; fill-opacity: 0.8; stroke: #a0a0a0; stroke-opacity: 0.8"/>
     <use xlink:href="#mb287470b22" x="308.299125" y="60.438089" style="fill: #a0a0a0; fill-opacity: 0.8; stroke: #a0a0a0; stroke-opacity: 0.8"/>
    </g>
   </g>
   <g id="PolyCollection_4">
    <path d="M 303.403125 60.487636 
L 303.403125 69.124797 
L 303.984943 68.666485 
L 304.566761 68.209461 
L 305.14858 67.753805 
L 305.730398 67.2996 
L 306.312216 66.846933 
L 306.894034 66.395899 
L 307.475852 65.946596 
L 308.05767 65.49913 
L 308.639489 65.05361 
L 309.221307 64.610154 
L 309.803125 64.168882 
L 310.384943 63.729923 
L 310.966761 63.293409 
L 311.54858 62.859476 
L 312.130398 62.428267 
L 312.712216 61.999924 
L 313.294034 61.574596 
L 313.875852 61.15243 
L 314.45767 60.733572 
L 315.039489 60.318169 
L 315.621307 59.906362 
L 316.203125 59.498287 
L 316.784943 59.094071 
L 317.366761 58.693833 
L 317.94858 58.297678 
L 318.530398 57.9057 
L 319.112216 57.517973 
L 319.694034 57.134556 
L 320.275852 56.755488 
L 320.85767 56.38079 
L 321.439489 56.010459 
L 322.021307 55.644477 
L 322.603125 55.282802 
L 323.184943 54.925375 
L 323.766761 54.572119 
L 324.34858 54.222941 
L 324.930398 53.877735 
L 325.512216 53.536382 
L 326.094034 53.198754 
L 326.675852 52.864713 
L 327.25767 52.53412 
L 327.839489 52.206827 
L 328.421307 51.882689 
L 329.003125 51.561556 
L 329.584943 51.243283 
L 330.166761 50.927725 
L 330.74858 50.614741 
L 331.330398 50.304195 
L 331.912216 49.995954 
L 332.494034 49.689892 
L 333.075852 49.385886 
L 333.65767 49.083821 
L 334.239489 48.783586 
L 334.821307 48.485078 
L 335.403125 48.188197 
L 335.984943 47.892849 
L 336.566761 47.598947 
L 337.14858 47.306409 
L 337.730398 47.015155 
L 338.312216 46.725114 
L 338.894034 46.436217 
L 339.475852 46.148398 
L 340.05767 45.861599 
L 340.639489 45.575762 
L 341.221307 45.290834 
L 341.803125 45.006766 
L 342.384943 44.723511 
L 342.966761 44.441025 
L 343.54858 44.159269 
L 344.130398 43.878202 
L 344.712216 43.59779 
L 345.294034 43.317999 
L 345.875852 43.038797 
L 346.45767 42.760154 
L 347.039489 42.482043 
L 347.621307 42.204437 
L 348.203125 41.927312 
L 348.784943 41.650644 
L 349.366761 41.374412 
L 349.94858 41.098596 
L 350.530398 40.823175 
L 351.112216 40.548131 
L 351.694034 40.273448 
L 352.275852 39.99911 
L 352.85767 39.7251 
L 353.439489 39.451404 
L 354.021307 39.17801 
L 354.603125 38.904903 
L 355.184943 38.632072 
L 355.766761 38.359505 
L 356.34858 38.087191 
L 356.930398 37.81512 
L 357.512216 37.543281 
L 358.094034 37.271666 
L 358.675852 37.000266 
L 359.25767 36.729072 
L 359.839489 36.458076 
L 360.421307 36.187271 
L 361.003125 35.91665 
L 361.003125 19.482062 
L 361.003125 19.482062 
L 360.421307 19.961074 
L 359.839489 20.439902 
L 359.25767 20.91854 
L 358.675852 21.39698 
L 358.094034 21.875213 
L 357.512216 22.353232 
L 356.930398 22.831027 
L 356.34858 23.308589 
L 355.766761 23.785909 
L 355.184943 24.262975 
L 354.603125 24.739778 
L 354.021307 25.216305 
L 353.439489 25.692544 
L 352.85767 26.168482 
L 352.275852 26.644105 
L 351.694034 27.1194 
L 351.112216 27.594351 
L 350.530398 28.068941 
L 349.94858 28.543154 
L 349.366761 29.01697 
L 348.784943 29.490372 
L 348.203125 29.963338 
L 347.621307 30.435846 
L 347.039489 30.907874 
L 346.45767 31.379396 
L 345.875852 31.850387 
L 345.294034 32.320818 
L 344.712216 32.790661 
L 344.130398 33.259882 
L 343.54858 33.72845 
L 342.966761 34.196326 
L 342.384943 34.663475 
L 341.803125 35.129853 
L 341.221307 35.595419 
L 340.639489 36.060124 
L 340.05767 36.523921 
L 339.475852 36.986755 
L 338.894034 37.44857 
L 338.312216 37.909306 
L 337.730398 38.368898 
L 337.14858 38.827279 
L 336.566761 39.284373 
L 335.984943 39.740105 
L 335.403125 40.194391 
L 334.821307 40.647144 
L 334.239489 41.098269 
L 333.65767 41.547668 
L 333.075852 41.995236 
L 332.494034 42.440864 
L 331.912216 42.884435 
L 331.330398 43.325828 
L 330.74858 43.764915 
L 330.166761 44.201565 
L 329.584943 44.635641 
L 329.003125 45.067001 
L 328.421307 45.495502 
L 327.839489 45.920997 
L 327.25767 46.343338 
L 326.675852 46.762378 
L 326.094034 47.177971 
L 325.512216 47.589976 
L 324.930398 47.998257 
L 324.34858 48.402684 
L 323.766761 48.80314 
L 323.184943 49.199518 
L 322.603125 49.591724 
L 322.021307 49.979682 
L 321.439489 50.363334 
L 320.85767 50.742637 
L 320.275852 51.117572 
L 319.694034 51.488138 
L 319.112216 51.854354 
L 318.530398 52.216261 
L 317.94858 52.573916 
L 317.366761 52.927395 
L 316.784943 53.276791 
L 316.203125 53.622208 
L 315.621307 53.963766 
L 315.039489 54.301593 
L 314.45767 54.635823 
L 313.875852 54.966599 
L 313.294034 55.294066 
L 312.712216 55.618372 
L 312.130398 55.939663 
L 311.54858 56.258087 
L 310.966761 56.573788 
L 310.384943 56.886908 
L 309.803125 57.197582 
L 309.221307 57.505944 
L 308.639489 57.812121 
L 308.05767 58.116235 
L 307.475852 58.418402 
L 306.894034 58.718733 
L 306.312216 59.017332 
L 305.730398 59.314299 
L 305.14858 59.609727 
L 304.566761 59.903705 
L 303.984943 60.196315 
L 303.403125 60.487636 
z
" clip-path="url(#pf78cc3210f)" style="fill: #af4e9d; fill-opacity: 0.2"/>
   </g>
   <g id="matplotlib.axis_7">
    <g id="xtick_10">
     <g id="line2d_22">
      <g>
       <use xlink:href="#m73647ebbbf" x="303.403125" y="75.799219" style="stroke: #000000; stroke-width: 0.8"/>
      </g>
     </g>
     <g id="text_23">
      <text style="font: 10px 'sans-serif'; text-anchor: middle" x="303.403125" y="90.397656" transform="rotate(-0 303.403125 90.397656)">0</text>
     </g>
    </g>
    <g id="xtick_11">
     <g id="line2d_23">
      <g>
       <use xlink:href="#m73647ebbbf" x="339.403125" y="75.799219" style="stroke: #000000; stroke-width: 0.8"/>
      </g>
     </g>
     <g id="text_24">
      <text style="font: 10px 'sans-serif'; text-anchor: middle" x="339.403125" y="90.397656" transform="rotate(-0 339.403125 90.397656)">25</text>
     </g>
    </g>
    <g id="xtick_12">
     <g id="line2d_24">
      <g>
       <use xlink:href="#m73647ebbbf" x="375.403125" y="75.799219" style="stroke: #000000; stroke-width: 0.8"/>
      </g>
     </g>
     <g id="text_25">
      <text style="font: 10px 'sans-serif'; text-anchor: middle" x="375.403125" y="90.397656" transform="rotate(-0 375.403125 90.397656)">50</text>
     </g>
    </g>
    <g id="text_26">
     <text style="font: 10px 'sans-serif'; text-anchor: middle" x="339.403125" y="104.075781" transform="rotate(-0 339.403125 104.075781)">n_delay</text>
    </g>
   </g>
   <g id="matplotlib.axis_8">
    <g id="ytick_10">
     <g id="line2d_25">
      <g>
       <use xlink:href="#m69b289c64c" x="303.403125" y="75.799219" style="stroke: #000000; stroke-width: 0.8"/>
      </g>
     </g>
     <g id="text_27">
      <text style="font: 10px 'sans-serif'; text-anchor: end" x="296.403125" y="79.598438" transform="rotate(-0 296.403125 79.598438)">0</text>
     </g>
    </g>
    <g id="ytick_11">
     <g id="line2d_26">
      <g>
       <use xlink:href="#m69b289c64c" x="303.403125" y="39.799219" style="stroke: #000000; stroke-width: 0.8"/>
      </g>
     </g>
     <g id="text_28">
      <text style="font: 10px 'sans-serif'; text-anchor: end" x="296.403125" y="43.598437" transform="rotate(-0 296.403125 43.598437)">25</text>
     </g>
    </g>
    <g id="ytick_12">
     <g id="line2d_27">
      <g>
       <use xlink:href="#m69b289c64c" x="303.403125" y="3.799219" style="stroke: #000000; stroke-width: 0.8"/>
      </g>
     </g>
     <g id="text_29">
      <text style="font: 10px 'sans-serif'; text-anchor: end" x="296.403125" y="7.598437" transform="rotate(-0 296.403125 7.598437)">50</text>
     </g>
    </g>
   </g>
   <g id="line2d_28">
    <path d="M 303.403125 64.806217 
L 303.984943 64.4314 
L 304.566761 64.056583 
L 305.14858 63.681766 
L 305.730398 63.306949 
L 306.312216 62.932133 
L 306.894034 62.557316 
L 307.475852 62.182499 
L 308.05767 61.807682 
L 308.639489 61.432866 
L 309.221307 61.058049 
L 309.803125 60.683232 
L 310.384943 60.308415 
L 310.966761 59.933598 
L 311.54858 59.558782 
L 312.130398 59.183965 
L 312.712216 58.809148 
L 313.294034 58.434331 
L 313.875852 58.059515 
L 314.45767 57.684698 
L 315.039489 57.309881 
L 315.621307 56.935064 
L 316.203125 56.560248 
L 316.784943 56.185431 
L 317.366761 55.810614 
L 317.94858 55.435797 
L 318.530398 55.06098 
L 319.112216 54.686164 
L 319.694034 54.311347 
L 320.275852 53.93653 
L 320.85767 53.561713 
L 321.439489 53.186897 
L 322.021307 52.81208 
L 322.603125 52.437263 
L 323.184943 52.062446 
L 323.766761 51.687629 
L 324.34858 51.312813 
L 324.930398 50.937996 
L 325.512216 50.563179 
L 326.094034 50.188362 
L 326.675852 49.813546 
L 327.25767 49.438729 
L 327.839489 49.063912 
L 328.421307 48.689095 
L 329.003125 48.314278 
L 329.584943 47.939462 
L 330.166761 47.564645 
L 330.74858 47.189828 
L 331.330398 46.815011 
L 331.912216 46.440195 
L 332.494034 46.065378 
L 333.075852 45.690561 
L 333.65767 45.315744 
L 334.239489 44.940928 
L 334.821307 44.566111 
L 335.403125 44.191294 
L 335.984943 43.816477 
L 336.566761 43.44166 
L 337.14858 43.066844 
L 337.730398 42.692027 
L 338.312216 42.31721 
L 338.894034 41.942393 
L 339.475852 41.567577 
L 340.05767 41.19276 
L 340.639489 40.817943 
L 341.221307 40.443126 
L 341.803125 40.068309 
L 342.384943 39.693493 
L 342.966761 39.318676 
L 343.54858 38.943859 
L 344.130398 38.569042 
L 344.712216 38.194226 
L 345.294034 37.819409 
L 345.875852 37.444592 
L 346.45767 37.069775 
L 347.039489 36.694958 
L 347.621307 36.320142 
L 348.203125 35.945325 
L 348.784943 35.570508 
L 349.366761 35.195691 
L 349.94858 34.820875 
L 350.530398 34.446058 
L 351.112216 34.071241 
L 351.694034 33.696424 
L 352.275852 33.321608 
L 352.85767 32.946791 
L 353.439489 32.571974 
L 354.021307 32.197157 
L 354.603125 31.82234 
L 355.184943 31.447524 
L 355.766761 31.072707 
L 356.34858 30.69789 
L 356.930398 30.323073 
L 357.512216 29.948257 
L 358.094034 29.57344 
L 358.675852 29.198623 
L 359.25767 28.823806 
L 359.839489 28.448989 
L 360.421307 28.074173 
L 361.003125 27.699356 
" clip-path="url(#pf78cc3210f)" style="fill: none; stroke: #af4e9d; stroke-width: 1.5; stroke-linecap: square"/>
   </g>
   <g id="patch_12">
    <path d="M 303.403125 75.799219 
L 303.403125 3.799219 
" style="fill: none; stroke: #000000; stroke-width: 0.8; stroke-linejoin: miter; stroke-linecap: square"/>
   </g>
   <g id="patch_13">
    <path d="M 303.403125 75.799219 
L 375.403125 75.799219 
" style="fill: none; stroke: #000000; stroke-width: 0.8; stroke-linejoin: miter; stroke-linecap: square"/>
   </g>
  </g>
 </g>
 <defs>
  <clipPath id="p3fa7a88459">
   <rect x="33.403125" y="3.799219" width="72" height="72"/>
  </clipPath>
  <clipPath id="p097601f1e3">
   <rect x="123.403125" y="3.799219" width="72" height="72"/>
  </clipPath>
  <clipPath id="p9cb452622b">
   <rect x="213.403125" y="3.799219" width="72" height="72"/>
  </clipPath>
  <clipPath id="pf78cc3210f">
   <rect x="303.403125" y="3.799219" width="72" height="72"/>
  </clipPath>
 </defs>
</svg>
