<?xml version="1.0" encoding="utf-8" standalone="no"?>
<!DOCTYPE svg PUBLIC "-//W3C//DTD SVG 1.1//EN"
  "http://www.w3.org/Graphics/SVG/1.1/DTD/svg11.dtd">
<svg xmlns:xlink="http://www.w3.org/1999/xlink" width="157.30625pt" height="106.155469pt" viewBox="0 0 157.30625 106.155469" xmlns="http://www.w3.org/2000/svg" version="1.1">
 <metadata>
  <rdf:RDF xmlns:dc="http://purl.org/dc/elements/1.1/" xmlns:cc="http://creativecommons.org/ns#" xmlns:rdf="http://www.w3.org/1999/02/22-rdf-syntax-ns#">
   <cc:Work>
    <dc:type rdf:resource="http://purl.org/dc/dcmitype/StillImage"/>
    <dc:date>2025-06-09T15:52:30.735743</dc:date>
    <dc:format>image/svg+xml</dc:format>
    <dc:creator>
     <cc:Agent>
      <dc:title>Matplotlib v3.6.0, https://matplotlib.org/</dc:title>
     </cc:Agent>
    </dc:creator>
   </cc:Work>
  </rdf:RDF>
 </metadata>
 <defs>
  <style type="text/css">*{stroke-linejoin: round; stroke-linecap: butt}</style>
 </defs>
 <g id="figure_1">
  <g id="patch_1">
   <path d="M 0 106.155469 
L 157.30625 106.155469 
L 157.30625 0 
L 0 0 
z
" style="fill: #ffffff"/>
  </g>
  <g id="axes_1">
   <g id="patch_2">
    <path d="M 36.58125 75.799219 
L 144.58125 75.799219 
L 144.58125 3.799219 
L 36.58125 3.799219 
z
" style="fill: #ffffff"/>
   </g>
   <g id="patch_3">
    <path d="M 41.338513 75.799219 
L 45.387248 75.799219 
L 45.387248 12.283659 
L 41.338513 12.283659 
z
" clip-path="url(#p9232d4c0da)" style="opacity: 0.5"/>
   </g>
   <g id="patch_4">
    <path d="M 46.399432 75.799219 
L 50.448167 75.799219 
L 50.448167 39.079381 
L 46.399432 39.079381 
z
" clip-path="url(#p9232d4c0da)" style="opacity: 0.5"/>
   </g>
   <g id="patch_5">
    <path d="M 51.46035 75.799219 
L 55.509085 75.799219 
L 55.509085 48.42716 
L 51.46035 48.42716 
z
" clip-path="url(#p9232d4c0da)" style="opacity: 0.5"/>
   </g>
   <g id="patch_6">
    <path d="M 56.521269 75.799219 
L 60.570004 75.799219 
L 60.570004 53.812856 
L 56.521269 53.812856 
z
" clip-path="url(#p9232d4c0da)" style="opacity: 0.5"/>
   </g>
   <g id="patch_7">
    <path d="M 61.582187 75.799219 
L 65.630922 75.799219 
L 65.630922 55.22779 
L 61.582187 55.22779 
z
" clip-path="url(#p9232d4c0da)" style="opacity: 0.5"/>
   </g>
   <g id="patch_8">
    <path d="M 66.643106 75.799219 
L 70.69184 75.799219 
L 70.69184 58.726229 
L 66.643106 58.726229 
z
" clip-path="url(#p9232d4c0da)" style="opacity: 0.5"/>
   </g>
   <g id="patch_9">
    <path d="M 71.704024 75.799219 
L 75.752759 75.799219 
L 75.752759 56.844293 
L 71.704024 56.844293 
z
" clip-path="url(#p9232d4c0da)" style="opacity: 0.5"/>
   </g>
   <g id="patch_10">
    <path d="M 76.764943 75.799219 
L 80.813677 75.799219 
L 80.813677 57.311824 
L 76.764943 57.311824 
z
" clip-path="url(#p9232d4c0da)" style="opacity: 0.5"/>
   </g>
   <g id="patch_11">
    <path d="M 81.825861 75.799219 
L 85.874596 75.799219 
L 85.874596 54.236464 
L 81.825861 54.236464 
z
" clip-path="url(#p9232d4c0da)" style="opacity: 0.5"/>
   </g>
   <g id="patch_12">
    <path d="M 86.88678 75.799219 
L 90.935514 75.799219 
L 90.935514 57.33768 
L 86.88678 57.33768 
z
" clip-path="url(#p9232d4c0da)" style="opacity: 0.5"/>
   </g>
   <g id="patch_13">
    <path d="M 91.947698 75.799219 
L 95.996433 75.799219 
L 95.996433 55.104608 
L 91.947698 55.104608 
z
" clip-path="url(#p9232d4c0da)" style="opacity: 0.5"/>
   </g>
   <g id="patch_14">
    <path d="M 97.008616 75.799219 
L 101.057351 75.799219 
L 101.057351 56.50025 
L 97.008616 56.50025 
z
" clip-path="url(#p9232d4c0da)" style="opacity: 0.5"/>
   </g>
   <g id="patch_15">
    <path d="M 102.069535 75.799219 
L 106.11827 75.799219 
L 106.11827 58.491526 
L 102.069535 58.491526 
z
" clip-path="url(#p9232d4c0da)" style="opacity: 0.5"/>
   </g>
   <g id="patch_16">
    <path d="M 107.130453 75.799219 
L 111.179188 75.799219 
L 111.179188 51.799219 
L 107.130453 51.799219 
z
" clip-path="url(#p9232d4c0da)" style="opacity: 0.5"/>
   </g>
   <g id="patch_17">
    <path d="M 112.191372 75.799219 
L 116.240107 75.799219 
L 116.240107 51.08783 
L 112.191372 51.08783 
z
" clip-path="url(#p9232d4c0da)" style="opacity: 0.5"/>
   </g>
   <g id="patch_18">
    <path d="M 117.25229 75.799219 
L 121.301025 75.799219 
L 121.301025 57.037004 
L 117.25229 57.037004 
z
" clip-path="url(#p9232d4c0da)" style="opacity: 0.5"/>
   </g>
   <g id="patch_19">
    <path d="M 122.313209 75.799219 
L 126.361944 75.799219 
L 126.361944 39.799219 
L 122.313209 39.799219 
z
" clip-path="url(#p9232d4c0da)" style="opacity: 0.5"/>
   </g>
   <g id="patch_20">
    <path d="M 127.374127 75.799219 
L 131.422862 75.799219 
L 131.422862 75.799219 
L 127.374127 75.799219 
z
" clip-path="url(#p9232d4c0da)" style="opacity: 0.5"/>
   </g>
   <g id="patch_21">
    <path d="M 132.435046 75.799219 
L 136.48378 75.799219 
L 136.48378 75.799219 
L 132.435046 75.799219 
z
" clip-path="url(#p9232d4c0da)" style="opacity: 0.5"/>
   </g>
   <g id="matplotlib.axis_1">
    <g id="xtick_1">
     <g id="line2d_1">
      <defs>
       <path id="m28d9cab544" d="M 0 0 
L 0 3.5 
" style="stroke: #000000; stroke-width: 0.8"/>
      </defs>
      <g>
       <use xlink:href="#m28d9cab544" x="43.362881" y="75.799219" style="stroke: #000000; stroke-width: 0.8"/>
      </g>
     </g>
     <g id="text_1">
      <text style="font: 10px 'sans-serif'; text-anchor: middle" x="43.362881" y="90.397656" transform="rotate(-0 43.362881 90.397656)">0</text>
     </g>
    </g>
    <g id="xtick_2">
     <g id="line2d_2">
      <g>
       <use xlink:href="#m28d9cab544" x="68.667473" y="75.799219" style="stroke: #000000; stroke-width: 0.8"/>
      </g>
     </g>
     <g id="text_2">
      <text style="font: 10px 'sans-serif'; text-anchor: middle" x="68.667473" y="90.397656" transform="rotate(-0 68.667473 90.397656)">500</text>
     </g>
    </g>
    <g id="xtick_3">
     <g id="line2d_3">
      <g>
       <use xlink:href="#m28d9cab544" x="93.972065" y="75.799219" style="stroke: #000000; stroke-width: 0.8"/>
      </g>
     </g>
     <g id="text_3">
      <text style="font: 10px 'sans-serif'; text-anchor: middle" x="93.972065" y="90.397656" transform="rotate(-0 93.972065 90.397656)">1000</text>
     </g>
    </g>
    <g id="xtick_4">
     <g id="line2d_4">
      <g>
       <use xlink:href="#m28d9cab544" x="119.276658" y="75.799219" style="stroke: #000000; stroke-width: 0.8"/>
      </g>
     </g>
     <g id="text_4">
      <text style="font: 10px 'sans-serif'; text-anchor: middle" x="119.276658" y="90.397656" transform="rotate(-0 119.276658 90.397656)">1500</text>
     </g>
    </g>
    <g id="xtick_5">
     <g id="line2d_5">
      <g>
       <use xlink:href="#m28d9cab544" x="144.58125" y="75.799219" style="stroke: #000000; stroke-width: 0.8"/>
      </g>
     </g>
     <g id="text_5">
      <text style="font: 10px 'sans-serif'; text-anchor: middle" x="144.58125" y="90.397656" transform="rotate(-0 144.58125 90.397656)">2000</text>
     </g>
    </g>
    <g id="text_6">
     <text style="font: 10px 'sans-serif'; text-anchor: middle" x="90.58125" y="104.075781" transform="rotate(-0 90.58125 104.075781)">Distance (um)</text>
    </g>
   </g>
   <g id="matplotlib.axis_2">
    <g id="ytick_1">
     <g id="line2d_6">
      <defs>
       <path id="m1662385408" d="M 0 0 
L -3.5 0 
" style="stroke: #000000; stroke-width: 0.8"/>
      </defs>
      <g>
       <use xlink:href="#m1662385408" x="36.58125" y="75.799219" style="stroke: #000000; stroke-width: 0.8"/>
      </g>
     </g>
     <g id="text_7">
      <text style="font: 10px 'sans-serif'; text-anchor: end" x="29.58125" y="79.598437" transform="rotate(-0 29.58125 79.598437)">0.0</text>
     </g>
    </g>
    <g id="ytick_2">
     <g id="line2d_7">
      <g>
       <use xlink:href="#m1662385408" x="36.58125" y="39.799219" style="stroke: #000000; stroke-width: 0.8"/>
      </g>
     </g>
     <g id="text_8">
      <text style="font: 10px 'sans-serif'; text-anchor: end" x="29.58125" y="43.598437" transform="rotate(-0 29.58125 43.598437)">2.5</text>
     </g>
    </g>
    <g id="ytick_3">
     <g id="line2d_8">
      <g>
       <use xlink:href="#m1662385408" x="36.58125" y="3.799219" style="stroke: #000000; stroke-width: 0.8"/>
      </g>
     </g>
     <g id="text_9">
      <text style="font: 10px 'sans-serif'; text-anchor: end" x="29.58125" y="7.598437" transform="rotate(-0 29.58125 7.598437)">5.0</text>
     </g>
    </g>
    <g id="text_10">
     <text style="font: 10px 'sans-serif'; text-anchor: middle" x="7.598438" y="39.799219" transform="rotate(-90 7.598438 39.799219)">Connection probability (%)</text>
    </g>
   </g>
   <g id="line2d_9">
    <path d="M 36.58125 62.767659 
L 144.58125 62.767659 
" clip-path="url(#p9232d4c0da)" style="fill: none; stroke-dasharray: 5.55,2.4; stroke-dashoffset: 0; stroke: #000000; stroke-width: 1.5"/>
   </g>
   <g id="patch_22">
    <path d="M 36.58125 75.799219 
L 36.58125 3.799219 
" style="fill: none; stroke: #000000; stroke-width: 0.8; stroke-linejoin: miter; stroke-linecap: square"/>
   </g>
   <g id="patch_23">
    <path d="M 36.58125 75.799219 
L 144.58125 75.799219 
" style="fill: none; stroke: #000000; stroke-width: 0.8; stroke-linejoin: miter; stroke-linecap: square"/>
   </g>
  </g>
 </g>
 <defs>
  <clipPath id="p9232d4c0da">
   <rect x="36.58125" y="3.799219" width="108" height="72"/>
  </clipPath>
 </defs>
</svg>
