<?xml version="1.0" encoding="utf-8" standalone="no"?>
<!DOCTYPE svg PUBLIC "-//W3C//DTD SVG 1.1//EN"
  "http://www.w3.org/Graphics/SVG/1.1/DTD/svg11.dtd">
<svg xmlns:xlink="http://www.w3.org/1999/xlink" width="345.765625pt" height="172.19625pt" viewBox="0 0 345.765625 172.19625" xmlns="http://www.w3.org/2000/svg" version="1.1">
 <metadata>
  <rdf:RDF xmlns:dc="http://purl.org/dc/elements/1.1/" xmlns:cc="http://creativecommons.org/ns#" xmlns:rdf="http://www.w3.org/1999/02/22-rdf-syntax-ns#">
   <cc:Work>
    <dc:type rdf:resource="http://purl.org/dc/dcmitype/StillImage"/>
    <dc:date>2025-03-27T15:34:19.177424</dc:date>
    <dc:format>image/svg+xml</dc:format>
    <dc:creator>
     <cc:Agent>
      <dc:title>Matplotlib v3.6.0, https://matplotlib.org/</dc:title>
     </cc:Agent>
    </dc:creator>
   </cc:Work>
  </rdf:RDF>
 </metadata>
 <defs>
  <style type="text/css">*{stroke-linejoin: round; stroke-linecap: butt}</style>
 </defs>
 <g id="figure_1">
  <g id="patch_1">
   <path d="M 0 172.19625 
L 345.765625 172.19625 
L 345.765625 -0 
L 0 -0 
z
" style="fill: #ffffff"/>
  </g>
  <g id="axes_1">
   <g id="patch_2">
    <path d="M 39.765625 155.518125 
L 178.856534 155.518125 
L 178.856534 15.118125 
L 39.765625 15.118125 
z
" style="fill: #ffffff"/>
   </g>
   <g id="patch_3">
    <path d="M 46.087939 155.518125 
L 72.708209 155.518125 
L 72.708209 61.948342 
L 46.087939 61.948342 
z
" clip-path="url(#p4e00b52839)" style="fill: #4d98ce"/>
   </g>
   <g id="patch_4">
    <path d="M 79.363276 155.518125 
L 105.983546 155.518125 
L 105.983546 109.965107 
L 79.363276 109.965107 
z
" clip-path="url(#p4e00b52839)" style="fill: #4d98ce"/>
   </g>
   <g id="patch_5">
    <path d="M 112.638613 155.518125 
L 139.258883 155.518125 
L 139.258883 99.424737 
L 112.638613 99.424737 
z
" clip-path="url(#p4e00b52839)" style="fill: #4d98ce"/>
   </g>
   <g id="patch_6">
    <path d="M 145.91395 155.518125 
L 172.53422 155.518125 
L 172.53422 118.36382 
L 145.91395 118.36382 
z
" clip-path="url(#p4e00b52839)" style="fill: #4d98ce"/>
   </g>
   <g id="patch_7">
    <path d="M 46.087939 61.948342 
L 72.708209 61.948342 
L 72.708209 55.734852 
L 46.087939 55.734852 
z
" clip-path="url(#p4e00b52839)" style="fill: #ee8222"/>
   </g>
   <g id="patch_8">
    <path d="M 79.363276 109.965107 
L 105.983546 109.965107 
L 105.983546 93.950502 
L 79.363276 93.950502 
z
" clip-path="url(#p4e00b52839)" style="fill: #ee8222"/>
   </g>
   <g id="patch_9">
    <path d="M 112.638613 99.424737 
L 139.258883 99.424737 
L 139.258883 85.684668 
L 112.638613 85.684668 
z
" clip-path="url(#p4e00b52839)" style="fill: #ee8222"/>
   </g>
   <g id="patch_10">
    <path d="M 145.91395 118.36382 
L 172.53422 118.36382 
L 172.53422 84.739505 
L 145.91395 84.739505 
z
" clip-path="url(#p4e00b52839)" style="fill: #ee8222"/>
   </g>
   <g id="patch_11">
    <path d="M 46.087939 55.734852 
L 72.708209 55.734852 
L 72.708209 41.081487 
L 46.087939 41.081487 
z
" clip-path="url(#p4e00b52839)" style="fill: #008000"/>
   </g>
   <g id="patch_12">
    <path d="M 79.363276 93.950502 
L 105.983546 93.950502 
L 105.983546 62.596938 
L 79.363276 62.596938 
z
" clip-path="url(#p4e00b52839)" style="fill: #008000"/>
   </g>
   <g id="patch_13">
    <path d="M 112.638613 85.684668 
L 139.258883 85.684668 
L 139.258883 66.854901 
L 112.638613 66.854901 
z
" clip-path="url(#p4e00b52839)" style="fill: #008000"/>
   </g>
   <g id="patch_14">
    <path d="M 145.91395 84.739505 
L 172.53422 84.739505 
L 172.53422 50.68664 
L 145.91395 50.68664 
z
" clip-path="url(#p4e00b52839)" style="fill: #008000"/>
   </g>
   <g id="patch_15">
    <path d="M 46.087939 41.081487 
L 72.708209 41.081487 
L 72.708209 15.118125 
L 46.087939 15.118125 
z
" clip-path="url(#p4e00b52839)" style="fill: #af4e9d"/>
   </g>
   <g id="patch_16">
    <path d="M 79.363276 62.596938 
L 105.983546 62.596938 
L 105.983546 15.118125 
L 79.363276 15.118125 
z
" clip-path="url(#p4e00b52839)" style="fill: #af4e9d"/>
   </g>
   <g id="patch_17">
    <path d="M 112.638613 66.854901 
L 139.258883 66.854901 
L 139.258883 15.118125 
L 112.638613 15.118125 
z
" clip-path="url(#p4e00b52839)" style="fill: #af4e9d"/>
   </g>
   <g id="patch_18">
    <path d="M 145.91395 50.68664 
L 172.53422 50.68664 
L 172.53422 15.118125 
L 145.91395 15.118125 
z
" clip-path="url(#p4e00b52839)" style="fill: #af4e9d"/>
   </g>
   <g id="matplotlib.axis_1">
    <g id="xtick_1">
     <g id="line2d_1">
      <defs>
       <path id="m17fcdd80af" d="M 0 0 
L 0 3.5 
" style="stroke: #000000; stroke-width: 0.8"/>
      </defs>
      <g>
       <use xlink:href="#m17fcdd80af" x="59.398074" y="155.518125" style="stroke: #000000; stroke-width: 0.8"/>
      </g>
     </g>
     <g id="text_1">
      <text style="font: 10px 'sans-serif'; text-anchor: middle" x="59.398074" y="170.116562" transform="rotate(-0 59.398074 170.116562)">V</text>
     </g>
    </g>
    <g id="xtick_2">
     <g id="line2d_2">
      <g>
       <use xlink:href="#m17fcdd80af" x="92.673411" y="155.518125" style="stroke: #000000; stroke-width: 0.8"/>
      </g>
     </g>
     <g id="text_2">
      <text style="font: 10px 'sans-serif'; text-anchor: middle" x="92.673411" y="170.116562" transform="rotate(-0 92.673411 170.116562)">D</text>
     </g>
    </g>
    <g id="xtick_3">
     <g id="line2d_3">
      <g>
       <use xlink:href="#m17fcdd80af" x="125.948748" y="155.518125" style="stroke: #000000; stroke-width: 0.8"/>
      </g>
     </g>
     <g id="text_3">
      <text style="font: 10px 'sans-serif'; text-anchor: middle" x="125.948748" y="170.116562" transform="rotate(-0 125.948748 170.116562)">M-D</text>
     </g>
    </g>
    <g id="xtick_4">
     <g id="line2d_4">
      <g>
       <use xlink:href="#m17fcdd80af" x="159.224085" y="155.518125" style="stroke: #000000; stroke-width: 0.8"/>
      </g>
     </g>
     <g id="text_4">
      <text style="font: 10px 'sans-serif'; text-anchor: middle" x="159.224085" y="170.116562" transform="rotate(-0 159.224085 170.116562)">A</text>
     </g>
    </g>
   </g>
   <g id="matplotlib.axis_2">
    <g id="ytick_1">
     <g id="line2d_5">
      <defs>
       <path id="m77316e5226" d="M 0 0 
L -3.5 0 
" style="stroke: #000000; stroke-width: 0.8"/>
      </defs>
      <g>
       <use xlink:href="#m77316e5226" x="39.765625" y="155.518125" style="stroke: #000000; stroke-width: 0.8"/>
      </g>
     </g>
     <g id="text_5">
      <text style="font: 10px 'sans-serif'; text-anchor: end" x="32.765625" y="159.317344" transform="rotate(-0 32.765625 159.317344)">0</text>
     </g>
    </g>
    <g id="ytick_2">
     <g id="line2d_6">
      <g>
       <use xlink:href="#m77316e5226" x="39.765625" y="127.438125" style="stroke: #000000; stroke-width: 0.8"/>
      </g>
     </g>
     <g id="text_6">
      <text style="font: 10px 'sans-serif'; text-anchor: end" x="32.765625" y="131.237344" transform="rotate(-0 32.765625 131.237344)">20</text>
     </g>
    </g>
    <g id="ytick_3">
     <g id="line2d_7">
      <g>
       <use xlink:href="#m77316e5226" x="39.765625" y="99.358125" style="stroke: #000000; stroke-width: 0.8"/>
      </g>
     </g>
     <g id="text_7">
      <text style="font: 10px 'sans-serif'; text-anchor: end" x="32.765625" y="103.157344" transform="rotate(-0 32.765625 103.157344)">40</text>
     </g>
    </g>
    <g id="ytick_4">
     <g id="line2d_8">
      <g>
       <use xlink:href="#m77316e5226" x="39.765625" y="71.278125" style="stroke: #000000; stroke-width: 0.8"/>
      </g>
     </g>
     <g id="text_8">
      <text style="font: 10px 'sans-serif'; text-anchor: end" x="32.765625" y="75.077344" transform="rotate(-0 32.765625 75.077344)">60</text>
     </g>
    </g>
    <g id="ytick_5">
     <g id="line2d_9">
      <g>
       <use xlink:href="#m77316e5226" x="39.765625" y="43.198125" style="stroke: #000000; stroke-width: 0.8"/>
      </g>
     </g>
     <g id="text_9">
      <text style="font: 10px 'sans-serif'; text-anchor: end" x="32.765625" y="46.997344" transform="rotate(-0 32.765625 46.997344)">80</text>
     </g>
    </g>
    <g id="ytick_6">
     <g id="line2d_10">
      <g>
       <use xlink:href="#m77316e5226" x="39.765625" y="15.118125" style="stroke: #000000; stroke-width: 0.8"/>
      </g>
     </g>
     <g id="text_10">
      <text style="font: 10px 'sans-serif'; text-anchor: end" x="32.765625" y="18.917344" transform="rotate(-0 32.765625 18.917344)">100</text>
     </g>
    </g>
    <g id="text_11">
     <text style="font: 10px 'sans-serif'; text-anchor: middle" x="7.598438" y="85.318125" transform="rotate(-90 7.598438 85.318125)">% of connection strength</text>
    </g>
   </g>
   <g id="patch_19">
    <path d="M 39.765625 155.518125 
L 39.765625 15.118125 
" style="fill: none; stroke: #000000; stroke-width: 0.8; stroke-linejoin: miter; stroke-linecap: square"/>
   </g>
   <g id="patch_20">
    <path d="M 39.765625 155.518125 
L 178.856534 155.518125 
" style="fill: none; stroke: #000000; stroke-width: 0.8; stroke-linejoin: miter; stroke-linecap: square"/>
   </g>
   <g id="text_12">
    <text style="font: 12px 'sans-serif'; text-anchor: middle" x="109.31108" y="9.118125" transform="rotate(-0 109.31108 9.118125)">Inputs</text>
   </g>
  </g>
  <g id="axes_2">
   <g id="patch_21">
    <path d="M 206.674716 155.518125 
L 345.765625 155.518125 
L 345.765625 15.118125 
L 206.674716 15.118125 
z
" style="fill: #ffffff"/>
   </g>
   <g id="patch_22">
    <path d="M 212.99703 155.518125 
L 239.6173 155.518125 
L 239.6173 76.498159 
L 212.99703 76.498159 
z
" clip-path="url(#pfddfedf1ac)" style="fill: #4d98ce"/>
   </g>
   <g id="patch_23">
    <path d="M 246.272367 155.518125 
L 272.892637 155.518125 
L 272.892637 116.464514 
L 246.272367 116.464514 
z
" clip-path="url(#pfddfedf1ac)" style="fill: #4d98ce"/>
   </g>
   <g id="patch_24">
    <path d="M 279.547704 155.518125 
L 306.167974 155.518125 
L 306.167974 117.469142 
L 279.547704 117.469142 
z
" clip-path="url(#pfddfedf1ac)" style="fill: #4d98ce"/>
   </g>
   <g id="patch_25">
    <path d="M 312.823041 155.518125 
L 339.443311 155.518125 
L 339.443311 129.550461 
L 312.823041 129.550461 
z
" clip-path="url(#pfddfedf1ac)" style="fill: #4d98ce"/>
   </g>
   <g id="patch_26">
    <path d="M 212.99703 76.498159 
L 239.6173 76.498159 
L 239.6173 66.984431 
L 212.99703 66.984431 
z
" clip-path="url(#pfddfedf1ac)" style="fill: #ee8222"/>
   </g>
   <g id="patch_27">
    <path d="M 246.272367 116.464514 
L 272.892637 116.464514 
L 272.892637 88.946456 
L 246.272367 88.946456 
z
" clip-path="url(#pfddfedf1ac)" style="fill: #ee8222"/>
   </g>
   <g id="patch_28">
    <path d="M 279.547704 117.469142 
L 306.167974 117.469142 
L 306.167974 101.664371 
L 279.547704 101.664371 
z
" clip-path="url(#pfddfedf1ac)" style="fill: #ee8222"/>
   </g>
   <g id="patch_29">
    <path d="M 312.823041 129.550461 
L 339.443311 129.550461 
L 339.443311 86.942471 
L 312.823041 86.942471 
z
" clip-path="url(#pfddfedf1ac)" style="fill: #ee8222"/>
   </g>
   <g id="patch_30">
    <path d="M 212.99703 66.984431 
L 239.6173 66.984431 
L 239.6173 50.016289 
L 212.99703 50.016289 
z
" clip-path="url(#pfddfedf1ac)" style="fill: #008000"/>
   </g>
   <g id="patch_31">
    <path d="M 246.272367 88.946456 
L 272.892637 88.946456 
L 272.892637 52.08889 
L 246.272367 52.08889 
z
" clip-path="url(#pfddfedf1ac)" style="fill: #008000"/>
   </g>
   <g id="patch_32">
    <path d="M 279.547704 101.664371 
L 306.167974 101.664371 
L 306.167974 70.974298 
L 279.547704 70.974298 
z
" clip-path="url(#pfddfedf1ac)" style="fill: #008000"/>
   </g>
   <g id="patch_33">
    <path d="M 312.823041 86.942471 
L 339.443311 86.942471 
L 339.443311 57.421581 
L 312.823041 57.421581 
z
" clip-path="url(#pfddfedf1ac)" style="fill: #008000"/>
   </g>
   <g id="patch_34">
    <path d="M 212.99703 50.016289 
L 239.6173 50.016289 
L 239.6173 15.118125 
L 212.99703 15.118125 
z
" clip-path="url(#pfddfedf1ac)" style="fill: #af4e9d"/>
   </g>
   <g id="patch_35">
    <path d="M 246.272367 52.08889 
L 272.892637 52.08889 
L 272.892637 15.118125 
L 246.272367 15.118125 
z
" clip-path="url(#pfddfedf1ac)" style="fill: #af4e9d"/>
   </g>
   <g id="patch_36">
    <path d="M 279.547704 70.974298 
L 306.167974 70.974298 
L 306.167974 15.118125 
L 279.547704 15.118125 
z
" clip-path="url(#pfddfedf1ac)" style="fill: #af4e9d"/>
   </g>
   <g id="patch_37">
    <path d="M 312.823041 57.421581 
L 339.443311 57.421581 
L 339.443311 15.118125 
L 312.823041 15.118125 
z
" clip-path="url(#pfddfedf1ac)" style="fill: #af4e9d"/>
   </g>
   <g id="matplotlib.axis_3">
    <g id="xtick_5">
     <g id="line2d_11">
      <g>
       <use xlink:href="#m17fcdd80af" x="226.307165" y="155.518125" style="stroke: #000000; stroke-width: 0.8"/>
      </g>
     </g>
     <g id="text_13">
      <text style="font: 10px 'sans-serif'; text-anchor: middle" x="226.307165" y="170.116562" transform="rotate(-0 226.307165 170.116562)">V</text>
     </g>
    </g>
    <g id="xtick_6">
     <g id="line2d_12">
      <g>
       <use xlink:href="#m17fcdd80af" x="259.582502" y="155.518125" style="stroke: #000000; stroke-width: 0.8"/>
      </g>
     </g>
     <g id="text_14">
      <text style="font: 10px 'sans-serif'; text-anchor: middle" x="259.582502" y="170.116562" transform="rotate(-0 259.582502 170.116562)">D</text>
     </g>
    </g>
    <g id="xtick_7">
     <g id="line2d_13">
      <g>
       <use xlink:href="#m17fcdd80af" x="292.857839" y="155.518125" style="stroke: #000000; stroke-width: 0.8"/>
      </g>
     </g>
     <g id="text_15">
      <text style="font: 10px 'sans-serif'; text-anchor: middle" x="292.857839" y="170.116562" transform="rotate(-0 292.857839 170.116562)">M-D</text>
     </g>
    </g>
    <g id="xtick_8">
     <g id="line2d_14">
      <g>
       <use xlink:href="#m17fcdd80af" x="326.133176" y="155.518125" style="stroke: #000000; stroke-width: 0.8"/>
      </g>
     </g>
     <g id="text_16">
      <text style="font: 10px 'sans-serif'; text-anchor: middle" x="326.133176" y="170.116562" transform="rotate(-0 326.133176 170.116562)">A</text>
     </g>
    </g>
   </g>
   <g id="matplotlib.axis_4">
    <g id="ytick_7">
     <g id="line2d_15">
      <g>
       <use xlink:href="#m77316e5226" x="206.674716" y="155.518125" style="stroke: #000000; stroke-width: 0.8"/>
      </g>
     </g>
     <g id="text_17">
      <text style="font: 10px 'sans-serif'; text-anchor: end" x="199.674716" y="159.317344" transform="rotate(-0 199.674716 159.317344)">0</text>
     </g>
    </g>
    <g id="ytick_8">
     <g id="line2d_16">
      <g>
       <use xlink:href="#m77316e5226" x="206.674716" y="127.438125" style="stroke: #000000; stroke-width: 0.8"/>
      </g>
     </g>
     <g id="text_18">
      <text style="font: 10px 'sans-serif'; text-anchor: end" x="199.674716" y="131.237344" transform="rotate(-0 199.674716 131.237344)">20</text>
     </g>
    </g>
    <g id="ytick_9">
     <g id="line2d_17">
      <g>
       <use xlink:href="#m77316e5226" x="206.674716" y="99.358125" style="stroke: #000000; stroke-width: 0.8"/>
      </g>
     </g>
     <g id="text_19">
      <text style="font: 10px 'sans-serif'; text-anchor: end" x="199.674716" y="103.157344" transform="rotate(-0 199.674716 103.157344)">40</text>
     </g>
    </g>
    <g id="ytick_10">
     <g id="line2d_18">
      <g>
       <use xlink:href="#m77316e5226" x="206.674716" y="71.278125" style="stroke: #000000; stroke-width: 0.8"/>
      </g>
     </g>
     <g id="text_20">
      <text style="font: 10px 'sans-serif'; text-anchor: end" x="199.674716" y="75.077344" transform="rotate(-0 199.674716 75.077344)">60</text>
     </g>
    </g>
    <g id="ytick_11">
     <g id="line2d_19">
      <g>
       <use xlink:href="#m77316e5226" x="206.674716" y="43.198125" style="stroke: #000000; stroke-width: 0.8"/>
      </g>
     </g>
     <g id="text_21">
      <text style="font: 10px 'sans-serif'; text-anchor: end" x="199.674716" y="46.997344" transform="rotate(-0 199.674716 46.997344)">80</text>
     </g>
    </g>
    <g id="ytick_12">
     <g id="line2d_20">
      <g>
       <use xlink:href="#m77316e5226" x="206.674716" y="15.118125" style="stroke: #000000; stroke-width: 0.8"/>
      </g>
     </g>
     <g id="text_22">
      <text style="font: 10px 'sans-serif'; text-anchor: end" x="199.674716" y="18.917344" transform="rotate(-0 199.674716 18.917344)">100</text>
     </g>
    </g>
   </g>
   <g id="patch_38">
    <path d="M 206.674716 155.518125 
L 206.674716 15.118125 
" style="fill: none; stroke: #000000; stroke-width: 0.8; stroke-linejoin: miter; stroke-linecap: square"/>
   </g>
   <g id="patch_39">
    <path d="M 206.674716 155.518125 
L 345.765625 155.518125 
" style="fill: none; stroke: #000000; stroke-width: 0.8; stroke-linejoin: miter; stroke-linecap: square"/>
   </g>
   <g id="text_23">
    <text style="font: 12px 'sans-serif'; text-anchor: middle" x="276.22017" y="9.118125" transform="rotate(-0 276.22017 9.118125)">Outputs</text>
   </g>
  </g>
 </g>
 <defs>
  <clipPath id="p4e00b52839">
   <rect x="39.765625" y="15.118125" width="139.090909" height="140.4"/>
  </clipPath>
  <clipPath id="pfddfedf1ac">
   <rect x="206.674716" y="15.118125" width="139.090909" height="140.4"/>
  </clipPath>
 </defs>
</svg>
