<?xml version="1.0" encoding="utf-8" standalone="no"?>
<!DOCTYPE svg PUBLIC "-//W3C//DTD SVG 1.1//EN"
  "http://www.w3.org/Graphics/SVG/1.1/DTD/svg11.dtd">
<svg xmlns:xlink="http://www.w3.org/1999/xlink" width="357.12pt" height="266.112pt" viewBox="0 0 357.12 266.112" xmlns="http://www.w3.org/2000/svg" version="1.1">
 <metadata>
  <rdf:RDF xmlns:dc="http://purl.org/dc/elements/1.1/" xmlns:cc="http://creativecommons.org/ns#" xmlns:rdf="http://www.w3.org/1999/02/22-rdf-syntax-ns#">
   <cc:Work>
    <dc:type rdf:resource="http://purl.org/dc/dcmitype/StillImage"/>
    <dc:date>2025-06-04T15:55:09.446928</dc:date>
    <dc:format>image/svg+xml</dc:format>
    <dc:creator>
     <cc:Agent>
      <dc:title>Matplotlib v3.6.0, https://matplotlib.org/</dc:title>
     </cc:Agent>
    </dc:creator>
   </cc:Work>
  </rdf:RDF>
 </metadata>
 <defs>
  <style type="text/css">*{stroke-linejoin: round; stroke-linecap: butt}</style>
 </defs>
 <g id="figure_1">
  <g id="patch_1">
   <path d="M 0 266.112 
L 357.12 266.112 
L 357.12 0 
L 0 0 
z
" style="fill: #ffffff"/>
  </g>
  <g id="axes_1">
   <g id="PolyCollection_1">
    <defs>
     <path id="m7f20cd9463" d="M 0.041926 -242.417298 
L 0 -242.417298 
L 0 -241.347189 
L 0 -240.277081 
L 0 -239.206973 
L 0 -238.136865 
L 0 -237.066757 
L 0 -235.996648 
L 0 -234.92654 
L 0 -233.856432 
L 0 -232.786324 
L 0 -231.716216 
L 0 -230.646107 
L 0 -229.575999 
L 0 -228.505891 
L 0 -227.435783 
L 0 -226.365674 
L 0 -225.295566 
L 0 -224.225458 
L 0 -223.15535 
L 0 -222.085242 
L 0 -221.015133 
L 0 -219.945025 
L 0 -218.874917 
L 0 -217.804809 
L 0 -216.734701 
L 0 -215.664592 
L 0 -214.594484 
L 0 -213.524376 
L 0 -212.454268 
L 0 -211.384159 
L 0 -210.314051 
L 0 -209.243943 
L 0 -208.173835 
L 0 -207.103727 
L 0 -206.033618 
L 0 -204.96351 
L 0 -203.893402 
L 0 -202.823294 
L 0 -201.753185 
L 0 -200.683077 
L 0 -199.612969 
L 0 -198.542861 
L 0 -197.472753 
L 0 -196.402644 
L 0 -195.332536 
L 0 -194.262428 
L 0 -193.19232 
L 0 -192.122212 
L 0 -191.052103 
L 0 -189.981995 
L 0 -188.911887 
L 0 -187.841779 
L 0 -186.77167 
L 0 -185.701562 
L 0 -184.631454 
L 0 -183.561346 
L 0 -182.491238 
L 0 -181.421129 
L 0 -180.351021 
L 0 -179.280913 
L 0 -178.210805 
L 0 -177.140697 
L 0 -176.070588 
L 0 -175.00048 
L 0 -173.930372 
L 0 -172.860264 
L 0 -171.790155 
L 0 -170.720047 
L 0 -169.649939 
L 0 -168.579831 
L 0 -167.509723 
L 0 -166.439614 
L 0 -165.369506 
L 0 -164.299398 
L 0 -163.22929 
L 0 -162.159181 
L 0 -161.089073 
L 0 -160.018965 
L 0 -158.948857 
L 0 -157.878749 
L 0 -156.80864 
L 0 -155.738532 
L 0 -154.668424 
L 0 -153.598316 
L 0 -152.528208 
L 0 -151.458099 
L 0 -150.387991 
L 0 -149.317883 
L 0 -148.247775 
L 0 -147.177666 
L 0 -146.107558 
L 0 -145.03745 
L 0 -143.967342 
L 0 -142.897234 
L 0 -141.827125 
L 0 -140.757017 
L 0 -139.686909 
L 0 -138.616801 
L 0 -137.546693 
L 0 -136.476584 
L 0 -135.406476 
L 0 -134.336368 
L 0 -133.26626 
L 0 -132.196151 
L 0 -131.126043 
L 0 -130.055935 
L 0 -128.985827 
L 0 -127.915719 
L 0 -126.84561 
L 0 -125.775502 
L 0 -124.705394 
L 0 -123.635286 
L 0 -122.565177 
L 0 -121.495069 
L 0 -120.424961 
L 0 -119.354853 
L 0 -118.284745 
L 0 -117.214636 
L 0 -116.144528 
L 0 -115.07442 
L 0 -114.004312 
L 0 -112.934204 
L 0 -111.864095 
L 0 -110.793987 
L 0 -109.723879 
L 0 -108.653771 
L 0 -107.583662 
L 0 -106.513554 
L 0 -105.443446 
L 0 -104.373338 
L 0 -103.30323 
L 0 -102.233121 
L 0 -101.163013 
L 0 -100.092905 
L 0 -99.022797 
L 0 -97.952689 
L 0 -96.88258 
L 0 -95.812472 
L 0 -94.742364 
L 0 -93.672256 
L 0 -92.602147 
L 0 -91.532039 
L 0 -90.461931 
L 0 -89.391823 
L 0 -88.321715 
L 0 -87.251606 
L 0 -86.181498 
L 0 -85.11139 
L 0 -84.041282 
L 0 -82.971173 
L 0 -81.901065 
L 0 -80.830957 
L 0 -79.760849 
L 0 -78.690741 
L 0 -77.620632 
L 0 -76.550524 
L 0 -75.480416 
L 0 -74.410308 
L 0 -73.3402 
L 0 -72.270091 
L 0 -71.199983 
L 0 -70.129875 
L 0 -69.059767 
L 0 -67.989658 
L 0 -66.91955 
L 0 -65.849442 
L 0 -64.779334 
L 0 -63.709226 
L 0 -62.639117 
L 0 -61.569009 
L 0 -60.498901 
L 0 -59.428793 
L 0 -58.358685 
L 0 -57.288576 
L 0 -56.218468 
L 0 -55.14836 
L 0 -54.078252 
L 0 -53.008143 
L 0 -51.938035 
L 0 -50.867927 
L 0 -49.797819 
L 0 -48.727711 
L 0 -47.657602 
L 0 -46.587494 
L 0 -45.517386 
L 0 -44.447278 
L 0 -43.377169 
L 0 -42.307061 
L 0 -41.236953 
L 0 -40.166845 
L 0 -39.096737 
L 0 -38.026628 
L 0 -36.95652 
L 0 -35.886412 
L 0 -34.816304 
L 0 -33.746196 
L 0 -32.676087 
L 0 -31.605979 
L 0 -30.535871 
L 0 -29.465763 
L 0.015535 -29.465763 
L 0.015535 -29.465763 
L 0.023634 -30.535871 
L 0.035276 -31.605979 
L 0.051664 -32.676087 
L 0.074249 -33.746196 
L 0.104724 -34.816304 
L 0.144979 -35.886412 
L 0.197026 -36.95652 
L 0.262886 -38.026628 
L 0.344433 -39.096737 
L 0.443218 -40.166845 
L 0.560263 -41.236953 
L 0.695874 -42.307061 
L 0.849475 -43.377169 
L 1.019501 -44.447278 
L 1.20338 -45.517386 
L 1.397628 -46.587494 
L 1.598055 -47.657602 
L 1.800102 -48.727711 
L 1.999279 -49.797819 
L 2.191682 -50.867927 
L 2.374522 -51.938035 
L 2.546634 -53.008143 
L 2.708865 -54.078252 
L 2.864301 -55.14836 
L 3.01826 -56.218468 
L 3.178019 -57.288576 
L 3.352265 -58.358685 
L 3.550295 -59.428793 
L 3.78103 -60.498901 
L 4.051946 -61.569009 
L 4.368054 -62.639117 
L 4.731074 -63.709226 
L 5.138936 -64.779334 
L 5.585734 -65.849442 
L 6.062185 -66.91955 
L 6.55659 -67.989658 
L 7.056216 -69.059767 
L 7.54896 -70.129875 
L 8.025079 -71.199983 
L 8.47876 -72.270091 
L 8.909297 -73.3402 
L 9.321698 -74.410308 
L 9.726594 -75.480416 
L 10.139438 -76.550524 
L 10.579067 -77.620632 
L 11.065785 -78.690741 
L 11.619234 -79.760849 
L 12.256301 -80.830957 
L 12.989355 -81.901065 
L 13.825044 -82.971173 
L 14.763805 -84.041282 
L 15.800152 -85.11139 
L 16.923668 -86.181498 
L 18.12057 -87.251606 
L 19.375572 -88.321715 
L 20.673778 -89.391823 
L 22.002309 -90.461931 
L 23.351395 -91.532039 
L 24.71479 -92.602147 
L 26.089423 -93.672256 
L 27.474359 -94.742364 
L 28.869253 -95.812472 
L 30.272545 -96.88258 
L 31.67972 -97.952689 
L 33.081939 -99.022797 
L 34.465323 -100.092905 
L 35.811042 -101.163013 
L 37.096299 -102.233121 
L 38.29613 -103.30323 
L 39.385845 -104.373338 
L 40.343849 -105.443446 
L 41.154513 -106.513554 
L 41.810764 -107.583662 
L 42.316111 -108.653771 
L 42.685879 -109.723879 
L 42.947519 -110.793987 
L 43.139999 -111.864095 
L 43.312327 -112.934204 
L 43.521394 -114.004312 
L 43.829331 -115.07442 
L 44.300609 -116.144528 
L 44.99908 -117.214636 
L 45.985149 -118.284745 
L 47.313171 -119.354853 
L 49.029165 -120.424961 
L 51.168866 -121.495069 
L 53.756157 -122.565177 
L 56.801893 -123.635286 
L 60.303179 -124.705394 
L 64.243172 -125.775502 
L 68.591508 -126.84561 
L 73.30544 -127.915719 
L 78.331742 -128.985827 
L 83.609381 -130.055935 
L 89.072859 -131.126043 
L 94.656028 -132.196151 
L 100.296089 -133.26626 
L 105.937423 -134.336368 
L 111.534866 -135.406476 
L 117.056088 -136.476584 
L 122.482805 -137.546693 
L 127.810714 -138.616801 
L 133.048181 -139.686909 
L 138.213873 -140.757017 
L 143.333676 -141.827125 
L 148.437297 -142.897234 
L 153.554961 -143.967342 
L 158.71458 -145.03745 
L 163.939619 -146.107558 
L 169.247796 -147.177666 
L 174.650549 -148.247775 
L 180.153148 -149.317883 
L 185.755219 -150.387991 
L 191.451446 -151.458099 
L 197.232242 -152.528208 
L 203.084269 -153.598316 
L 208.990711 -154.668424 
L 214.931357 -155.738532 
L 220.882523 -156.80864 
L 226.816921 -157.878749 
L 232.703567 -158.948857 
L 238.507784 -160.018965 
L 244.191336 -161.089073 
L 249.712676 -162.159181 
L 255.027266 -163.22929 
L 260.087885 -164.299398 
L 264.844853 -165.369506 
L 269.246111 -166.439614 
L 273.237152 -167.509723 
L 276.760867 -168.579831 
L 279.757471 -169.649939 
L 282.164737 -170.720047 
L 283.918832 -171.790155 
L 284.956015 -172.860264 
L 285.215378 -173.930372 
L 284.642615 -175.00048 
L 283.19462 -176.070588 
L 280.844422 -177.140697 
L 277.585821 -178.210805 
L 273.436974 -179.280913 
L 268.442221 -180.351021 
L 262.671648 -181.421129 
L 256.218192 -182.491238 
L 249.192459 -183.561346 
L 241.715818 -184.631454 
L 233.91258 -185.701562 
L 225.902239 -186.77167 
L 217.792678 -187.841779 
L 209.675082 -188.911887 
L 201.620965 -189.981995 
L 193.681378 -191.052103 
L 185.888028 -192.122212 
L 178.25583 -193.19232 
L 170.786266 -194.262428 
L 163.470976 -195.332536 
L 156.295107 -196.402644 
L 149.240132 -197.472753 
L 142.286048 -198.542861 
L 135.413019 -199.612969 
L 128.60261 -200.683077 
L 121.838818 -201.753185 
L 115.109025 -202.823294 
L 108.404971 -203.893402 
L 101.723706 -204.96351 
L 95.068446 -206.033618 
L 88.449194 -207.103727 
L 81.882992 -208.173835 
L 75.393702 -209.243943 
L 69.011257 -210.314051 
L 62.77043 -211.384159 
L 56.709188 -212.454268 
L 50.866783 -213.524376 
L 45.281743 -214.594484 
L 39.989932 -215.664592 
L 35.022826 -216.734701 
L 30.406113 -217.804809 
L 26.158697 -218.874917 
L 22.292126 -219.945025 
L 18.81043 -221.015133 
L 15.710335 -222.085242 
L 12.981797 -223.15535 
L 10.608782 -224.225458 
L 8.570225 -225.295566 
L 6.841108 -226.365674 
L 5.393591 -227.435783 
L 4.198134 -228.505891 
L 3.224571 -229.575999 
L 2.443083 -230.646107 
L 1.825043 -231.716216 
L 1.343693 -232.786324 
L 0.974652 -233.856432 
L 0.696241 -234.92654 
L 0.489639 -235.996648 
L 0.338888 -237.066757 
L 0.230761 -238.136865 
L 0.154551 -239.206973 
L 0.10178 -240.277081 
L 0.065892 -241.347189 
L 0.041926 -242.417298 
z
" style="stroke: #4d98ce"/>
    </defs>
    <g clip-path="url(#p1cc37589ae)">
     <use xlink:href="#m7f20cd9463" x="0" y="266.112" style="fill: #4d98ce; fill-opacity: 0.25; stroke: #4d98ce"/>
    </g>
   </g>
   <g id="PolyCollection_2">
    <defs>
     <path id="mf4aefc3103" d="M 0.027045 -243.969813 
L 0 -243.969813 
L 0 -242.804618 
L 0 -241.639423 
L 0 -240.474228 
L 0 -239.309033 
L 0 -238.143838 
L 0 -236.978643 
L 0 -235.813448 
L 0 -234.648253 
L 0 -233.483058 
L 0 -232.317863 
L 0 -231.152668 
L 0 -229.987473 
L 0 -228.822278 
L 0 -227.657083 
L 0 -226.491888 
L 0 -225.326693 
L 0 -224.161498 
L 0 -222.996303 
L 0 -221.831108 
L 0 -220.665912 
L 0 -219.500717 
L 0 -218.335522 
L 0 -217.170327 
L 0 -216.005132 
L 0 -214.839937 
L 0 -213.674742 
L 0 -212.509547 
L 0 -211.344352 
L 0 -210.179157 
L 0 -209.013962 
L 0 -207.848767 
L 0 -206.683572 
L 0 -205.518377 
L 0 -204.353182 
L 0 -203.187987 
L 0 -202.022792 
L 0 -200.857597 
L 0 -199.692402 
L 0 -198.527207 
L 0 -197.362012 
L 0 -196.196817 
L 0 -195.031622 
L 0 -193.866427 
L 0 -192.701231 
L 0 -191.536036 
L 0 -190.370841 
L 0 -189.205646 
L 0 -188.040451 
L 0 -186.875256 
L 0 -185.710061 
L 0 -184.544866 
L 0 -183.379671 
L 0 -182.214476 
L 0 -181.049281 
L 0 -179.884086 
L 0 -178.718891 
L 0 -177.553696 
L 0 -176.388501 
L 0 -175.223306 
L 0 -174.058111 
L 0 -172.892916 
L 0 -171.727721 
L 0 -170.562526 
L 0 -169.397331 
L 0 -168.232136 
L 0 -167.066941 
L 0 -165.901746 
L 0 -164.73655 
L 0 -163.571355 
L 0 -162.40616 
L 0 -161.240965 
L 0 -160.07577 
L 0 -158.910575 
L 0 -157.74538 
L 0 -156.580185 
L 0 -155.41499 
L 0 -154.249795 
L 0 -153.0846 
L 0 -151.919405 
L 0 -150.75421 
L 0 -149.589015 
L 0 -148.42382 
L 0 -147.258625 
L 0 -146.09343 
L 0 -144.928235 
L 0 -143.76304 
L 0 -142.597845 
L 0 -141.43265 
L 0 -140.267455 
L 0 -139.10226 
L 0 -137.937065 
L 0 -136.771869 
L 0 -135.606674 
L 0 -134.441479 
L 0 -133.276284 
L 0 -132.111089 
L 0 -130.945894 
L 0 -129.780699 
L 0 -128.615504 
L 0 -127.450309 
L 0 -126.285114 
L 0 -125.119919 
L 0 -123.954724 
L 0 -122.789529 
L 0 -121.624334 
L 0 -120.459139 
L 0 -119.293944 
L 0 -118.128749 
L 0 -116.963554 
L 0 -115.798359 
L 0 -114.633164 
L 0 -113.467969 
L 0 -112.302774 
L 0 -111.137579 
L 0 -109.972384 
L 0 -108.807188 
L 0 -107.641993 
L 0 -106.476798 
L 0 -105.311603 
L 0 -104.146408 
L 0 -102.981213 
L 0 -101.816018 
L 0 -100.650823 
L 0 -99.485628 
L 0 -98.320433 
L 0 -97.155238 
L 0 -95.990043 
L 0 -94.824848 
L 0 -93.659653 
L 0 -92.494458 
L 0 -91.329263 
L 0 -90.164068 
L 0 -88.998873 
L 0 -87.833678 
L 0 -86.668483 
L 0 -85.503288 
L 0 -84.338093 
L 0 -83.172898 
L 0 -82.007703 
L 0 -80.842507 
L 0 -79.677312 
L 0 -78.512117 
L 0 -77.346922 
L 0 -76.181727 
L 0 -75.016532 
L 0 -73.851337 
L 0 -72.686142 
L 0 -71.520947 
L 0 -70.355752 
L 0 -69.190557 
L 0 -68.025362 
L 0 -66.860167 
L 0 -65.694972 
L 0 -64.529777 
L 0 -63.364582 
L 0 -62.199387 
L 0 -61.034192 
L 0 -59.868997 
L 0 -58.703802 
L 0 -57.538607 
L 0 -56.373412 
L 0 -55.208217 
L 0 -54.043022 
L 0 -52.877826 
L 0 -51.712631 
L 0 -50.547436 
L 0 -49.382241 
L 0 -48.217046 
L 0 -47.051851 
L 0 -45.886656 
L 0 -44.721461 
L 0 -43.556266 
L 0 -42.391071 
L 0 -41.225876 
L 0 -40.060681 
L 0 -38.895486 
L 0 -37.730291 
L 0 -36.565096 
L 0 -35.399901 
L 0 -34.234706 
L 0 -33.069511 
L 0 -31.904316 
L 0 -30.739121 
L 0 -29.573926 
L 0 -28.408731 
L 0 -27.243536 
L 0 -26.078341 
L 0 -24.913145 
L 0 -23.74795 
L 0 -22.582755 
L 0 -21.41756 
L 0 -20.252365 
L 0 -19.08717 
L 0 -17.921975 
L 0 -16.75678 
L 0 -15.591585 
L 0 -14.42639 
L 0 -13.261195 
L 0 -12.096 
L 0.029075 -12.096 
L 0.029075 -12.096 
L 0.042372 -13.261195 
L 0.060871 -14.42639 
L 0.086212 -15.591585 
L 0.120389 -16.75678 
L 0.165777 -17.921975 
L 0.225133 -19.08717 
L 0.301582 -20.252365 
L 0.39857 -21.41756 
L 0.519801 -22.582755 
L 0.66914 -23.74795 
L 0.850513 -24.913145 
L 1.067795 -26.078341 
L 1.32472 -27.243536 
L 1.624823 -28.408731 
L 1.971438 -29.573926 
L 2.367782 -30.739121 
L 2.817125 -31.904316 
L 3.323062 -33.069511 
L 3.889875 -34.234706 
L 4.522976 -35.399901 
L 5.22937 -36.565096 
L 6.018122 -37.730291 
L 6.900729 -38.895486 
L 7.891369 -40.060681 
L 9.00694 -41.225876 
L 10.266852 -42.391071 
L 11.692544 -43.556266 
L 13.306717 -44.721461 
L 15.132312 -45.886656 
L 17.191298 -47.051851 
L 19.50335 -48.217046 
L 22.084512 -49.382241 
L 24.945975 -50.547436 
L 28.093066 -51.712631 
L 31.524549 -52.877826 
L 35.23231 -54.043022 
L 39.201449 -55.208217 
L 43.4108 -56.373412 
L 47.833816 -57.538607 
L 52.43977 -58.703802 
L 57.195158 -59.868997 
L 62.065205 -61.034192 
L 67.015348 -62.199387 
L 72.012593 -63.364582 
L 77.026641 -64.529777 
L 82.030722 -65.694972 
L 87.002074 -66.860167 
L 91.92207 -68.025362 
L 96.775996 -69.190557 
L 101.552539 -70.355752 
L 106.243055 -71.520947 
L 110.840717 -72.686142 
L 115.339655 -73.851337 
L 119.734205 -75.016532 
L 124.018382 -76.181727 
L 128.185645 -77.346922 
L 132.229033 -78.512117 
L 136.141661 -79.677312 
L 139.917548 -80.842507 
L 143.552686 -82.007703 
L 147.046214 -83.172898 
L 150.401546 -84.338093 
L 153.627265 -85.503288 
L 156.737615 -86.668483 
L 159.752466 -87.833678 
L 162.696648 -88.998873 
L 165.598635 -90.164068 
L 168.488612 -91.329263 
L 171.396054 -92.494458 
L 174.346987 -93.659653 
L 177.361158 -94.824848 
L 180.449373 -95.990043 
L 183.611268 -97.155238 
L 186.833752 -98.320433 
L 190.090309 -99.485628 
L 193.341303 -100.650823 
L 196.535317 -101.816018 
L 199.611468 -102.981213 
L 202.502568 -104.146408 
L 205.138881 -105.311603 
L 207.452177 -106.476798 
L 209.379761 -107.641993 
L 210.86812 -108.807188 
L 211.875894 -109.972384 
L 212.37593 -111.137579 
L 212.356281 -112.302774 
L 211.82012 -113.467969 
L 210.784663 -114.633164 
L 209.27927 -115.798359 
L 207.343 -116.963554 
L 205.021899 -118.128749 
L 202.366332 -119.293944 
L 199.428583 -120.459139 
L 196.260913 -121.624334 
L 192.914156 -122.789529 
L 189.436834 -123.954724 
L 185.874691 -125.119919 
L 182.270504 -126.285114 
L 178.663983 -127.450309 
L 175.091582 -128.615504 
L 171.586122 -129.780699 
L 168.176137 -130.945894 
L 164.884979 -132.111089 
L 161.729755 -133.276284 
L 158.720241 -134.441479 
L 155.857935 -135.606674 
L 153.135431 -136.771869 
L 150.536234 -137.937065 
L 148.035127 -139.10226 
L 145.599116 -140.267455 
L 143.188915 -141.43265 
L 140.760906 -142.597845 
L 138.269426 -143.76304 
L 135.669248 -144.928235 
L 132.918095 -146.09343 
L 129.97903 -147.258625 
L 126.822603 -148.42382 
L 123.428631 -149.589015 
L 119.787532 -150.75421 
L 115.901156 -151.919405 
L 111.783066 -153.0846 
L 107.458271 -154.249795 
L 102.962407 -155.41499 
L 98.34042 -156.580185 
L 93.644803 -157.74538 
L 88.933473 -158.910575 
L 84.267391 -160.07577 
L 79.70805 -161.240965 
L 75.314937 -162.40616 
L 71.143106 -163.571355 
L 67.240964 -164.73655 
L 63.648356 -165.901746 
L 60.395046 -167.066941 
L 57.499635 -168.232136 
L 54.968959 -169.397331 
L 52.797995 -170.562526 
L 50.970265 -171.727721 
L 49.458745 -172.892916 
L 48.227219 -174.058111 
L 47.23205 -175.223306 
L 46.424267 -176.388501 
L 45.751875 -177.553696 
L 45.162261 -178.718891 
L 44.604556 -179.884086 
L 44.031818 -181.049281 
L 43.402905 -182.214476 
L 42.683916 -183.379671 
L 41.849157 -184.544866 
L 40.881571 -185.710061 
L 39.772673 -186.875256 
L 38.522026 -188.040451 
L 37.136369 -189.205646 
L 35.628478 -190.370841 
L 34.015892 -191.536036 
L 32.319602 -192.701231 
L 30.562774 -193.866427 
L 28.769574 -195.031622 
L 26.964122 -196.196817 
L 25.169592 -197.362012 
L 23.407438 -198.527207 
L 21.696759 -199.692402 
L 20.053777 -200.857597 
L 18.49145 -202.022792 
L 17.019204 -203.187987 
L 15.642827 -204.353182 
L 14.364518 -205.518377 
L 13.183123 -206.683572 
L 12.094535 -207.848767 
L 11.092265 -209.013962 
L 10.168122 -210.179157 
L 9.312974 -211.344352 
L 8.51751 -212.509547 
L 7.772954 -213.674742 
L 7.071649 -214.839937 
L 6.407495 -216.005132 
L 5.776176 -217.170327 
L 5.175203 -218.335522 
L 4.603771 -219.500717 
L 4.06246 -220.665912 
L 3.552846 -221.831108 
L 3.077055 -222.996303 
L 2.637326 -224.161498 
L 2.235614 -225.326693 
L 1.873287 -226.491888 
L 1.550916 -227.657083 
L 1.268174 -228.822278 
L 1.023838 -229.987473 
L 0.815873 -231.152668 
L 0.641576 -232.317863 
L 0.49776 -233.483058 
L 0.380944 -234.648253 
L 0.287547 -235.813448 
L 0.214047 -236.978643 
L 0.157114 -238.143838 
L 0.113706 -239.309033 
L 0.08113 -240.474228 
L 0.057067 -241.639423 
L 0.039569 -242.804618 
L 0.027045 -243.969813 
z
" style="stroke: #ee8222"/>
    </defs>
    <g clip-path="url(#p1cc37589ae)">
     <use xlink:href="#mf4aefc3103" x="0" y="266.112" style="fill: #ee8222; fill-opacity: 0.25; stroke: #ee8222"/>
    </g>
   </g>
   <g id="PolyCollection_3">
    <defs>
     <path id="m88efe1f691" d="M 0.054773 -254.016 
L 0 -254.016 
L 0 -252.826063 
L 0 -251.636126 
L 0 -250.446189 
L 0 -249.256252 
L 0 -248.066315 
L 0 -246.876379 
L 0 -245.686442 
L 0 -244.496505 
L 0 -243.306568 
L 0 -242.116631 
L 0 -240.926694 
L 0 -239.736757 
L 0 -238.54682 
L 0 -237.356883 
L 0 -236.166946 
L 0 -234.977009 
L 0 -233.787073 
L 0 -232.597136 
L 0 -231.407199 
L 0 -230.217262 
L 0 -229.027325 
L 0 -227.837388 
L 0 -226.647451 
L 0 -225.457514 
L 0 -224.267577 
L 0 -223.07764 
L 0 -221.887703 
L 0 -220.697767 
L 0 -219.50783 
L 0 -218.317893 
L 0 -217.127956 
L 0 -215.938019 
L 0 -214.748082 
L 0 -213.558145 
L 0 -212.368208 
L 0 -211.178271 
L 0 -209.988334 
L 0 -208.798397 
L 0 -207.608461 
L 0 -206.418524 
L 0 -205.228587 
L 0 -204.03865 
L 0 -202.848713 
L 0 -201.658776 
L 0 -200.468839 
L 0 -199.278902 
L 0 -198.088965 
L 0 -196.899028 
L 0 -195.709091 
L 0 -194.519154 
L 0 -193.329218 
L 0 -192.139281 
L 0 -190.949344 
L 0 -189.759407 
L 0 -188.56947 
L 0 -187.379533 
L 0 -186.189596 
L 0 -184.999659 
L 0 -183.809722 
L 0 -182.619785 
L 0 -181.429848 
L 0 -180.239912 
L 0 -179.049975 
L 0 -177.860038 
L 0 -176.670101 
L 0 -175.480164 
L 0 -174.290227 
L 0 -173.10029 
L 0 -171.910353 
L 0 -170.720416 
L 0 -169.530479 
L 0 -168.340542 
L 0 -167.150606 
L 0 -165.960669 
L 0 -164.770732 
L 0 -163.580795 
L 0 -162.390858 
L 0 -161.200921 
L 0 -160.010984 
L 0 -158.821047 
L 0 -157.63111 
L 0 -156.441173 
L 0 -155.251236 
L 0 -154.0613 
L 0 -152.871363 
L 0 -151.681426 
L 0 -150.491489 
L 0 -149.301552 
L 0 -148.111615 
L 0 -146.921678 
L 0 -145.731741 
L 0 -144.541804 
L 0 -143.351867 
L 0 -142.16193 
L 0 -140.971994 
L 0 -139.782057 
L 0 -138.59212 
L 0 -137.402183 
L 0 -136.212246 
L 0 -135.022309 
L 0 -133.832372 
L 0 -132.642435 
L 0 -131.452498 
L 0 -130.262561 
L 0 -129.072624 
L 0 -127.882688 
L 0 -126.692751 
L 0 -125.502814 
L 0 -124.312877 
L 0 -123.12294 
L 0 -121.933003 
L 0 -120.743066 
L 0 -119.553129 
L 0 -118.363192 
L 0 -117.173255 
L 0 -115.983318 
L 0 -114.793382 
L 0 -113.603445 
L 0 -112.413508 
L 0 -111.223571 
L 0 -110.033634 
L 0 -108.843697 
L 0 -107.65376 
L 0 -106.463823 
L 0 -105.273886 
L 0 -104.083949 
L 0 -102.894012 
L 0 -101.704075 
L 0 -100.514139 
L 0 -99.324202 
L 0 -98.134265 
L 0 -96.944328 
L 0 -95.754391 
L 0 -94.564454 
L 0 -93.374517 
L 0 -92.18458 
L 0 -90.994643 
L 0 -89.804706 
L 0 -88.614769 
L 0 -87.424833 
L 0 -86.234896 
L 0 -85.044959 
L 0 -83.855022 
L 0 -82.665085 
L 0 -81.475148 
L 0 -80.285211 
L 0 -79.095274 
L 0 -77.905337 
L 0 -76.7154 
L 0 -75.525463 
L 0 -74.335527 
L 0 -73.14559 
L 0 -71.955653 
L 0 -70.765716 
L 0 -69.575779 
L 0 -68.385842 
L 0 -67.195905 
L 0 -66.005968 
L 0 -64.816031 
L 0 -63.626094 
L 0 -62.436157 
L 0 -61.246221 
L 0 -60.056284 
L 0 -58.866347 
L 0 -57.67641 
L 0 -56.486473 
L 0 -55.296536 
L 0 -54.106599 
L 0 -52.916662 
L 0 -51.726725 
L 0 -50.536788 
L 0 -49.346851 
L 0 -48.156915 
L 0 -46.966978 
L 0 -45.777041 
L 0 -44.587104 
L 0 -43.397167 
L 0 -42.20723 
L 0 -41.017293 
L 0 -39.827356 
L 0 -38.637419 
L 0 -37.447482 
L 0 -36.257545 
L 0 -35.067609 
L 0 -33.877672 
L 0 -32.687735 
L 0 -31.497798 
L 0 -30.307861 
L 0 -29.117924 
L 0 -27.927987 
L 0 -26.73805 
L 0 -25.548113 
L 0 -24.358176 
L 0 -23.168239 
L 0 -21.978303 
L 0 -20.788366 
L 0 -19.598429 
L 0 -18.408492 
L 0 -17.218555 
L 0.043589 -17.218555 
L 0.043589 -17.218555 
L 0.060526 -18.408492 
L 0.083152 -19.598429 
L 0.113032 -20.788366 
L 0.152031 -21.978303 
L 0.202344 -23.168239 
L 0.266495 -24.358176 
L 0.347338 -25.548113 
L 0.448025 -26.73805 
L 0.57196 -27.927987 
L 0.72272 -29.117924 
L 0.903956 -30.307861 
L 1.119264 -31.497798 
L 1.372033 -32.687735 
L 1.665278 -33.877672 
L 2.00146 -35.067609 
L 2.382317 -36.257545 
L 2.808694 -37.447482 
L 3.280414 -38.637419 
L 3.796187 -39.827356 
L 4.35357 -41.017293 
L 4.948989 -42.20723 
L 5.577844 -43.397167 
L 6.234669 -44.587104 
L 6.913376 -45.777041 
L 7.607549 -46.966978 
L 8.310791 -48.156915 
L 9.017095 -49.346851 
L 9.721226 -50.536788 
L 10.419087 -51.726725 
L 11.108038 -52.916662 
L 11.787176 -54.106599 
L 12.457519 -55.296536 
L 13.122115 -56.486473 
L 13.786062 -57.67641 
L 14.45642 -58.866347 
L 15.142056 -60.056284 
L 15.853393 -61.246221 
L 16.602114 -62.436157 
L 17.400809 -63.626094 
L 18.262601 -64.816031 
L 19.200764 -66.005968 
L 20.228338 -67.195905 
L 21.357767 -68.385842 
L 22.600573 -69.575779 
L 23.967047 -70.765716 
L 25.465993 -71.955653 
L 27.104508 -73.14559 
L 28.887802 -74.335527 
L 30.819059 -75.525463 
L 32.899341 -76.7154 
L 35.12754 -77.905337 
L 37.500367 -79.095274 
L 40.012406 -80.285211 
L 42.656206 -81.475148 
L 45.422439 -82.665085 
L 48.300117 -83.855022 
L 51.276859 -85.044959 
L 54.339213 -86.234896 
L 57.473019 -87.424833 
L 60.663798 -88.614769 
L 63.897154 -89.804706 
L 67.159165 -90.994643 
L 70.436746 -92.18458 
L 73.71796 -93.374517 
L 76.992245 -94.564454 
L 80.250571 -95.754391 
L 83.48547 -96.944328 
L 86.690974 -98.134265 
L 89.862436 -99.324202 
L 92.996246 -100.514139 
L 96.089475 -101.704075 
L 99.139452 -102.894012 
L 102.14333 -104.083949 
L 105.097665 -105.273886 
L 107.99806 -106.463823 
L 110.838922 -107.65376 
L 113.613361 -108.843697 
L 116.313276 -110.033634 
L 118.929631 -111.223571 
L 121.452933 -112.413508 
L 123.873884 -113.603445 
L 126.184165 -114.793382 
L 128.377297 -115.983318 
L 130.449491 -117.173255 
L 132.400414 -118.363192 
L 134.233767 -119.553129 
L 135.957613 -120.743066 
L 137.584372 -121.933003 
L 139.130462 -123.12294 
L 140.615573 -124.312877 
L 142.061606 -125.502814 
L 143.491334 -126.692751 
L 144.926889 -127.882688 
L 146.388194 -129.072624 
L 147.891453 -130.262561 
L 149.447849 -131.452498 
L 151.062551 -132.642435 
L 152.734129 -133.832372 
L 154.454421 -135.022309 
L 156.208881 -136.212246 
L 157.977366 -137.402183 
L 159.73529 -138.59212 
L 161.455064 -139.782057 
L 163.107665 -140.971994 
L 164.66423 -142.16193 
L 166.097529 -143.351867 
L 167.383205 -144.541804 
L 168.500718 -145.731741 
L 169.433917 -146.921678 
L 170.171259 -148.111615 
L 170.70569 -149.301552 
L 171.034251 -150.491489 
L 171.157495 -151.681426 
L 171.078808 -152.871363 
L 170.803719 -154.0613 
L 170.339291 -155.251236 
L 169.693647 -156.441173 
L 168.875667 -157.63111 
L 167.894858 -158.821047 
L 166.76139 -160.010984 
L 165.486242 -161.200921 
L 164.081412 -162.390858 
L 162.560127 -163.580795 
L 160.936997 -164.770732 
L 159.228064 -165.960669 
L 157.450706 -167.150606 
L 155.623396 -168.340542 
L 153.765295 -169.530479 
L 151.895732 -170.720416 
L 150.033574 -171.910353 
L 148.196547 -173.10029 
L 146.400539 -174.290227 
L 144.658948 -175.480164 
L 142.982083 -176.670101 
L 141.376673 -177.860038 
L 139.845486 -179.049975 
L 138.38708 -180.239912 
L 136.995679 -181.429848 
L 135.66118 -182.619785 
L 134.36929 -183.809722 
L 133.101782 -184.999659 
L 131.836875 -186.189596 
L 130.549725 -187.379533 
L 129.213042 -188.56947 
L 127.797812 -189.759407 
L 126.274121 -190.949344 
L 124.612073 -192.139281 
L 122.782762 -193.329218 
L 120.759287 -194.519154 
L 118.517753 -195.709091 
L 116.038221 -196.899028 
L 113.305566 -198.088965 
L 110.310184 -199.278902 
L 107.048518 -200.468839 
L 103.523372 -201.658776 
L 99.743995 -202.848713 
L 95.725918 -204.03865 
L 91.49058 -205.228587 
L 87.064739 -206.418524 
L 82.479715 -207.608461 
L 77.770507 -208.798397 
L 72.974814 -209.988334 
L 68.132022 -211.178271 
L 63.282188 -212.368208 
L 58.465055 -213.558145 
L 53.719137 -214.748082 
L 49.080891 -215.938019 
L 44.583994 -217.127956 
L 40.258734 -218.317893 
L 36.131528 -219.50783 
L 32.224562 -220.697767 
L 28.555558 -221.887703 
L 25.137661 -223.07764 
L 21.979447 -224.267577 
L 19.08505 -225.457514 
L 16.45438 -226.647451 
L 14.083447 -227.837388 
L 11.964762 -229.027325 
L 10.0878 -230.217262 
L 8.439512 -231.407199 
L 7.004863 -232.597136 
L 5.767377 -233.787073 
L 4.709673 -234.977009 
L 3.813964 -236.166946 
L 3.062512 -237.356883 
L 2.43803 -238.54682 
L 1.924013 -239.736757 
L 1.504991 -240.926694 
L 1.166728 -242.116631 
L 0.896334 -243.306568 
L 0.682326 -244.496505 
L 0.514631 -245.686442 
L 0.384542 -246.876379 
L 0.284641 -248.066315 
L 0.208702 -249.256252 
L 0.151564 -250.446189 
L 0.109013 -251.636126 
L 0.07765 -252.826063 
L 0.054773 -254.016 
z
" style="stroke: #c884bb"/>
    </defs>
    <g clip-path="url(#p1cc37589ae)">
     <use xlink:href="#m88efe1f691" x="0" y="266.112" style="fill: #c884bb; fill-opacity: 0.25; stroke: #c884bb"/>
    </g>
   </g>
   <g id="PolyCollection_4">
    <defs>
     <path id="m4592b94465" d="M 0.015065 -244.614512 
L 0 -244.614512 
L 0 -243.44724 
L 0 -242.279969 
L 0 -241.112697 
L 0 -239.945425 
L 0 -238.778153 
L 0 -237.610881 
L 0 -236.443609 
L 0 -235.276337 
L 0 -234.109066 
L 0 -232.941794 
L 0 -231.774522 
L 0 -230.60725 
L 0 -229.439978 
L 0 -228.272706 
L 0 -227.105434 
L 0 -225.938163 
L 0 -224.770891 
L 0 -223.603619 
L 0 -222.436347 
L 0 -221.269075 
L 0 -220.101803 
L 0 -218.934531 
L 0 -217.76726 
L 0 -216.599988 
L 0 -215.432716 
L 0 -214.265444 
L 0 -213.098172 
L 0 -211.9309 
L 0 -210.763628 
L 0 -209.596357 
L 0 -208.429085 
L 0 -207.261813 
L 0 -206.094541 
L 0 -204.927269 
L 0 -203.759997 
L 0 -202.592725 
L 0 -201.425454 
L 0 -200.258182 
L 0 -199.09091 
L 0 -197.923638 
L 0 -196.756366 
L 0 -195.589094 
L 0 -194.421822 
L 0 -193.254551 
L 0 -192.087279 
L 0 -190.920007 
L 0 -189.752735 
L 0 -188.585463 
L 0 -187.418191 
L 0 -186.250919 
L 0 -185.083648 
L 0 -183.916376 
L 0 -182.749104 
L 0 -181.581832 
L 0 -180.41456 
L 0 -179.247288 
L 0 -178.080016 
L 0 -176.912745 
L 0 -175.745473 
L 0 -174.578201 
L 0 -173.410929 
L 0 -172.243657 
L 0 -171.076385 
L 0 -169.909114 
L 0 -168.741842 
L 0 -167.57457 
L 0 -166.407298 
L 0 -165.240026 
L 0 -164.072754 
L 0 -162.905482 
L 0 -161.738211 
L 0 -160.570939 
L 0 -159.403667 
L 0 -158.236395 
L 0 -157.069123 
L 0 -155.901851 
L 0 -154.734579 
L 0 -153.567308 
L 0 -152.400036 
L 0 -151.232764 
L 0 -150.065492 
L 0 -148.89822 
L 0 -147.730948 
L 0 -146.563676 
L 0 -145.396405 
L 0 -144.229133 
L 0 -143.061861 
L 0 -141.894589 
L 0 -140.727317 
L 0 -139.560045 
L 0 -138.392773 
L 0 -137.225502 
L 0 -136.05823 
L 0 -134.890958 
L 0 -133.723686 
L 0 -132.556414 
L 0 -131.389142 
L 0 -130.22187 
L 0 -129.054599 
L 0 -127.887327 
L 0 -126.720055 
L 0 -125.552783 
L 0 -124.385511 
L 0 -123.218239 
L 0 -122.050967 
L 0 -120.883696 
L 0 -119.716424 
L 0 -118.549152 
L 0 -117.38188 
L 0 -116.214608 
L 0 -115.047336 
L 0 -113.880064 
L 0 -112.712793 
L 0 -111.545521 
L 0 -110.378249 
L 0 -109.210977 
L 0 -108.043705 
L 0 -106.876433 
L 0 -105.709162 
L 0 -104.54189 
L 0 -103.374618 
L 0 -102.207346 
L 0 -101.040074 
L 0 -99.872802 
L 0 -98.70553 
L 0 -97.538259 
L 0 -96.370987 
L 0 -95.203715 
L 0 -94.036443 
L 0 -92.869171 
L 0 -91.701899 
L 0 -90.534627 
L 0 -89.367356 
L 0 -88.200084 
L 0 -87.032812 
L 0 -85.86554 
L 0 -84.698268 
L 0 -83.530996 
L 0 -82.363724 
L 0 -81.196453 
L 0 -80.029181 
L 0 -78.861909 
L 0 -77.694637 
L 0 -76.527365 
L 0 -75.360093 
L 0 -74.192821 
L 0 -73.02555 
L 0 -71.858278 
L 0 -70.691006 
L 0 -69.523734 
L 0 -68.356462 
L 0 -67.18919 
L 0 -66.021918 
L 0 -64.854647 
L 0 -63.687375 
L 0 -62.520103 
L 0 -61.352831 
L 0 -60.185559 
L 0 -59.018287 
L 0 -57.851015 
L 0 -56.683744 
L 0 -55.516472 
L 0 -54.3492 
L 0 -53.181928 
L 0 -52.014656 
L 0 -50.847384 
L 0 -49.680112 
L 0 -48.512841 
L 0 -47.345569 
L 0 -46.178297 
L 0 -45.011025 
L 0 -43.843753 
L 0 -42.676481 
L 0 -41.50921 
L 0 -40.341938 
L 0 -39.174666 
L 0 -38.007394 
L 0 -36.840122 
L 0 -35.67285 
L 0 -34.505578 
L 0 -33.338307 
L 0 -32.171035 
L 0 -31.003763 
L 0 -29.836491 
L 0 -28.669219 
L 0 -27.501947 
L 0 -26.334675 
L 0 -25.167404 
L 0 -24.000132 
L 0 -22.83286 
L 0 -21.665588 
L 0 -20.498316 
L 0 -19.331044 
L 0 -18.163772 
L 0 -16.996501 
L 0 -15.829229 
L 0 -14.661957 
L 0 -13.494685 
L 0 -12.327413 
L 0.025957 -12.327413 
L 0.025957 -12.327413 
L 0.038228 -13.494685 
L 0.055548 -14.661957 
L 0.079645 -15.829229 
L 0.112695 -16.996501 
L 0.157377 -18.163772 
L 0.216932 -19.331044 
L 0.295193 -20.498316 
L 0.396593 -21.665588 
L 0.526145 -22.83286 
L 0.689375 -24.000132 
L 0.892222 -25.167404 
L 1.140879 -26.334675 
L 1.441614 -27.501947 
L 1.800543 -28.669219 
L 2.223399 -29.836491 
L 2.715304 -31.003763 
L 3.280572 -32.171035 
L 3.922577 -33.338307 
L 4.643696 -34.505578 
L 5.445378 -35.67285 
L 6.328323 -36.840122 
L 7.292806 -38.007394 
L 8.339116 -39.174666 
L 9.468095 -40.341938 
L 10.68174 -41.50921 
L 11.983807 -42.676481 
L 13.380368 -43.843753 
L 14.880232 -45.011025 
L 16.495191 -46.178297 
L 18.240007 -47.345569 
L 20.132125 -48.512841 
L 22.191068 -49.680112 
L 24.437547 -50.847384 
L 26.892293 -52.014656 
L 29.574701 -53.181928 
L 32.501353 -54.3492 
L 35.684525 -55.516472 
L 39.1308 -56.683744 
L 42.839897 -57.851015 
L 46.803814 -59.018287 
L 51.006383 -60.185559 
L 55.423295 -61.352831 
L 60.022621 -62.520103 
L 64.765826 -63.687375 
L 69.609231 -64.854647 
L 74.505842 -66.021918 
L 79.407427 -67.18919 
L 84.266699 -68.356462 
L 89.039464 -69.523734 
L 93.686555 -70.691006 
L 98.175414 -71.858278 
L 102.481211 -73.02555 
L 106.587391 -74.192821 
L 110.485649 -75.360093 
L 114.175331 -76.527365 
L 117.662355 -77.694637 
L 120.957778 -78.861909 
L 124.076171 -80.029181 
L 127.033992 -81.196453 
L 129.848125 -82.363724 
L 132.534743 -83.530996 
L 135.108593 -84.698268 
L 137.582748 -85.86554 
L 139.968802 -87.032812 
L 142.277424 -88.200084 
L 144.519136 -89.367356 
L 146.70516 -90.534627 
L 148.848165 -91.701899 
L 150.962766 -92.869171 
L 153.065661 -94.036443 
L 155.175354 -95.203715 
L 157.311446 -96.370987 
L 159.49355 -97.538259 
L 161.739896 -98.70553 
L 164.065765 -99.872802 
L 166.481855 -101.040074 
L 168.992732 -102.207346 
L 171.595483 -103.374618 
L 174.278679 -104.54189 
L 177.021759 -105.709162 
L 179.794903 -106.876433 
L 182.559444 -108.043705 
L 185.268865 -109.210977 
L 187.870345 -110.378249 
L 190.306829 -111.545521 
L 192.519511 -112.712793 
L 194.450597 -113.880064 
L 196.046175 -115.047336 
L 197.258967 -116.214608 
L 198.05077 -117.38188 
L 198.394368 -118.549152 
L 198.274775 -119.716424 
L 197.689679 -120.883696 
L 196.649101 -122.050967 
L 195.174288 -123.218239 
L 193.295993 -124.385511 
L 191.052327 -125.552783 
L 188.486393 -126.720055 
L 185.643954 -127.887327 
L 182.571318 -129.054599 
L 179.313605 -130.22187 
L 175.913494 -131.389142 
L 172.410453 -132.556414 
L 168.840412 -133.723686 
L 165.235771 -134.890958 
L 161.625615 -136.05823 
L 158.035975 -137.225502 
L 154.49003 -138.392773 
L 151.008153 -139.560045 
L 147.607768 -140.727317 
L 144.30304 -141.894589 
L 141.104461 -143.061861 
L 138.018444 -144.229133 
L 135.047024 -145.396405 
L 132.187796 -146.563676 
L 129.434143 -147.730948 
L 126.775802 -148.89822 
L 124.199742 -150.065492 
L 121.691277 -151.232764 
L 119.235318 -152.400036 
L 116.817601 -153.567308 
L 114.425776 -154.734579 
L 112.050218 -155.901851 
L 109.684483 -157.069123 
L 107.325375 -158.236395 
L 104.97263 -159.403667 
L 102.628297 -160.570939 
L 100.295917 -161.738211 
L 97.979621 -162.905482 
L 95.683278 -164.072754 
L 93.409801 -165.240026 
L 91.160689 -166.407298 
L 88.935834 -167.57457 
L 86.733594 -168.741842 
L 84.551077 -169.909114 
L 82.38456 -171.076385 
L 80.22996 -172.243657 
L 78.083264 -173.410929 
L 75.940849 -174.578201 
L 73.799652 -175.745473 
L 71.657168 -176.912745 
L 69.51131 -178.080016 
L 67.360171 -179.247288 
L 65.201759 -180.41456 
L 63.033775 -181.581832 
L 60.853503 -182.749104 
L 58.657851 -183.916376 
L 56.443561 -185.083648 
L 54.207581 -186.250919 
L 51.947552 -187.418191 
L 49.662341 -188.585463 
L 47.352546 -189.752735 
L 45.020893 -190.920007 
L 42.672466 -192.087279 
L 40.314715 -193.254551 
L 37.957252 -194.421822 
L 35.611425 -195.589094 
L 33.289756 -196.756366 
L 31.005269 -197.923638 
L 28.770814 -199.09091 
L 26.598442 -200.258182 
L 24.4989 -201.425454 
L 22.481276 -202.592725 
L 20.55281 -203.759997 
L 18.718872 -204.927269 
L 16.983067 -206.094541 
L 15.347436 -207.261813 
L 13.812708 -208.429085 
L 12.378564 -209.596357 
L 11.043876 -210.763628 
L 9.80691 -211.9309 
L 8.665466 -213.098172 
L 7.61698 -214.265444 
L 6.658572 -215.432716 
L 5.787069 -216.599988 
L 4.999012 -217.76726 
L 4.290653 -218.934531 
L 3.657967 -220.101803 
L 3.096666 -221.269075 
L 2.602227 -222.436347 
L 2.169942 -223.603619 
L 1.794967 -224.770891 
L 1.472383 -225.938163 
L 1.197264 -227.105434 
L 0.964745 -228.272706 
L 0.770081 -229.439978 
L 0.608709 -230.60725 
L 0.476304 -231.774522 
L 0.36882 -232.941794 
L 0.282525 -234.109066 
L 0.214031 -235.276337 
L 0.160303 -236.443609 
L 0.118667 -237.610881 
L 0.086801 -238.778153 
L 0.062721 -239.945425 
L 0.04476 -241.112697 
L 0.03154 -242.279969 
L 0.021941 -243.44724 
L 0.015065 -244.614512 
z
" style="stroke: #af4e9d"/>
    </defs>
    <g clip-path="url(#p1cc37589ae)">
     <use xlink:href="#m4592b94465" x="0" y="266.112" style="fill: #af4e9d; fill-opacity: 0.25; stroke: #af4e9d"/>
    </g>
   </g>
   <g id="line2d_1">
    <path d="M 340.114286 97.304442 
" clip-path="url(#p1cc37589ae)" style="fill: none; stroke: #4d98ce; stroke-width: 1.5; stroke-linecap: square"/>
    <defs>
     <path id="m008a77edef" d="M -0 5 
L 5 -5 
L -5 -5 
z
" style="stroke: #4d98ce; stroke-linejoin: miter"/>
    </defs>
    <g clip-path="url(#p1cc37589ae)">
     <use xlink:href="#m008a77edef" x="340.114286" y="97.304442" style="fill: #4d98ce; stroke: #4d98ce; stroke-linejoin: miter"/>
    </g>
   </g>
   <g id="LineCollection_1">
    <path d="M 0 97.304442 
L 340.114286 97.304442 
" clip-path="url(#p1cc37589ae)" style="fill: none; stroke-dasharray: 7.4,3.2; stroke-dashoffset: 0; stroke: #4d98ce; stroke-width: 2"/>
   </g>
   <g id="line2d_2">
    <path d="M 340.114286 152.064097 
" clip-path="url(#p1cc37589ae)" style="fill: none; stroke: #ee8222; stroke-width: 1.5; stroke-linecap: square"/>
    <defs>
     <path id="m4100f95e4c" d="M -0 5 
L 5 -5 
L -5 -5 
z
" style="stroke: #ee8222; stroke-linejoin: miter"/>
    </defs>
    <g clip-path="url(#p1cc37589ae)">
     <use xlink:href="#m4100f95e4c" x="340.114286" y="152.064097" style="fill: #ee8222; stroke: #ee8222; stroke-linejoin: miter"/>
    </g>
   </g>
   <g id="LineCollection_2">
    <path d="M 0 152.064097 
L 340.114286 152.064097 
" clip-path="url(#p1cc37589ae)" style="fill: none; stroke-dasharray: 7.4,3.2; stroke-dashoffset: 0; stroke: #ee8222; stroke-width: 2"/>
   </g>
   <g id="line2d_3">
    <path d="M 340.114286 116.606114 
" clip-path="url(#p1cc37589ae)" style="fill: none; stroke: #c884bb; stroke-width: 1.5; stroke-linecap: square"/>
    <defs>
     <path id="mc1de7c0139" d="M -0 5 
L 5 -5 
L -5 -5 
z
" style="stroke: #c884bb; stroke-linejoin: miter"/>
    </defs>
    <g clip-path="url(#p1cc37589ae)">
     <use xlink:href="#mc1de7c0139" x="340.114286" y="116.606114" style="fill: #c884bb; stroke: #c884bb; stroke-linejoin: miter"/>
    </g>
   </g>
   <g id="LineCollection_3">
    <path d="M 0 116.606114 
L 340.114286 116.606114 
" clip-path="url(#p1cc37589ae)" style="fill: none; stroke-dasharray: 7.4,3.2; stroke-dashoffset: 0; stroke: #c884bb; stroke-width: 2"/>
   </g>
   <g id="line2d_4">
    <path d="M 340.114286 146.331354 
" clip-path="url(#p1cc37589ae)" style="fill: none; stroke: #af4e9d; stroke-width: 1.5; stroke-linecap: square"/>
    <defs>
     <path id="mc1686e7105" d="M -0 5 
L 5 -5 
L -5 -5 
z
" style="stroke: #af4e9d; stroke-linejoin: miter"/>
    </defs>
    <g clip-path="url(#p1cc37589ae)">
     <use xlink:href="#mc1686e7105" x="340.114286" y="146.331354" style="fill: #af4e9d; stroke: #af4e9d; stroke-linejoin: miter"/>
    </g>
   </g>
   <g id="LineCollection_4">
    <path d="M 0 146.331354 
L 340.114286 146.331354 
" clip-path="url(#p1cc37589ae)" style="fill: none; stroke-dasharray: 7.4,3.2; stroke-dashoffset: 0; stroke: #af4e9d; stroke-width: 2"/>
   </g>
  </g>
 </g>
 <defs>
  <clipPath id="p1cc37589ae">
   <rect x="0" y="-0" width="357.12" height="266.112"/>
  </clipPath>
 </defs>
</svg>
