<?xml version="1.0" encoding="utf-8" standalone="no"?>
<!DOCTYPE svg PUBLIC "-//W3C//DTD SVG 1.1//EN"
  "http://www.w3.org/Graphics/SVG/1.1/DTD/svg11.dtd">
<svg xmlns:xlink="http://www.w3.org/1999/xlink" width="144.58125pt" height="127.755469pt" viewBox="0 0 144.58125 127.755469" xmlns="http://www.w3.org/2000/svg" version="1.1">
 <metadata>
  <rdf:RDF xmlns:dc="http://purl.org/dc/elements/1.1/" xmlns:cc="http://creativecommons.org/ns#" xmlns:rdf="http://www.w3.org/1999/02/22-rdf-syntax-ns#">
   <cc:Work>
    <dc:type rdf:resource="http://purl.org/dc/dcmitype/StillImage"/>
    <dc:date>2025-06-05T15:53:57.873485</dc:date>
    <dc:format>image/svg+xml</dc:format>
    <dc:creator>
     <cc:Agent>
      <dc:title>Matplotlib v3.6.0, https://matplotlib.org/</dc:title>
     </cc:Agent>
    </dc:creator>
   </cc:Work>
  </rdf:RDF>
 </metadata>
 <defs>
  <style type="text/css">*{stroke-linejoin: round; stroke-linecap: butt}</style>
 </defs>
 <g id="figure_1">
  <g id="patch_1">
   <path d="M 0 127.755469 
L 144.58125 127.755469 
L 144.58125 0 
L 0 0 
z
" style="fill: #ffffff"/>
  </g>
  <g id="axes_1">
   <g id="patch_2">
    <path d="M 36.58125 97.399219 
L 144.58125 97.399219 
L 144.58125 3.799219 
L 36.58125 3.799219 
z
" style="fill: #ffffff"/>
   </g>
   <g id="patch_3">
    <path d="M 38.443319 97.399219 
L 40.926078 97.399219 
L 40.926078 78.679219 
L 38.443319 78.679219 
z
" clip-path="url(#pec8e05b6c5)" style="fill: #008000; opacity: 0.5"/>
   </g>
   <g id="patch_4">
    <path d="M 44.650216 97.399219 
L 47.132974 97.399219 
L 47.132974 64.981658 
L 44.650216 64.981658 
z
" clip-path="url(#pec8e05b6c5)" style="fill: #008000; opacity: 0.5"/>
   </g>
   <g id="patch_5">
    <path d="M 50.857112 97.399219 
L 53.339871 97.399219 
L 53.339871 65.894829 
L 50.857112 65.894829 
z
" clip-path="url(#pec8e05b6c5)" style="fill: #008000; opacity: 0.5"/>
   </g>
   <g id="patch_6">
    <path d="M 57.064009 97.399219 
L 59.546767 97.399219 
L 59.546767 59.274341 
L 57.064009 59.274341 
z
" clip-path="url(#pec8e05b6c5)" style="fill: #008000; opacity: 0.5"/>
   </g>
   <g id="patch_7">
    <path d="M 63.270905 97.399219 
L 65.753664 97.399219 
L 65.753664 62.470438 
L 63.270905 62.470438 
z
" clip-path="url(#pec8e05b6c5)" style="fill: #008000; opacity: 0.5"/>
   </g>
   <g id="patch_8">
    <path d="M 69.477802 97.399219 
L 71.96056 97.399219 
L 71.96056 62.242146 
L 69.477802 62.242146 
z
" clip-path="url(#pec8e05b6c5)" style="fill: #008000; opacity: 0.5"/>
   </g>
   <g id="patch_9">
    <path d="M 75.684698 97.399219 
L 78.167457 97.399219 
L 78.167457 61.100682 
L 75.684698 61.100682 
z
" clip-path="url(#pec8e05b6c5)" style="fill: #008000; opacity: 0.5"/>
   </g>
   <g id="patch_10">
    <path d="M 81.891595 97.399219 
L 84.374353 97.399219 
L 84.374353 59.274341 
L 81.891595 59.274341 
z
" clip-path="url(#pec8e05b6c5)" style="fill: #008000; opacity: 0.5"/>
   </g>
   <g id="patch_11">
    <path d="M 88.098491 97.399219 
L 90.58125 97.399219 
L 90.58125 63.383609 
L 88.098491 63.383609 
z
" clip-path="url(#pec8e05b6c5)" style="fill: #008000; opacity: 0.5"/>
   </g>
   <g id="patch_12">
    <path d="M 94.305388 97.399219 
L 96.788147 97.399219 
L 96.788147 59.046048 
L 94.305388 59.046048 
z
" clip-path="url(#pec8e05b6c5)" style="fill: #008000; opacity: 0.5"/>
   </g>
   <g id="patch_13">
    <path d="M 100.512284 97.399219 
L 102.995043 97.399219 
L 102.995043 57.904585 
L 100.512284 57.904585 
z
" clip-path="url(#pec8e05b6c5)" style="fill: #008000; opacity: 0.5"/>
   </g>
   <g id="patch_14">
    <path d="M 106.719181 97.399219 
L 109.20194 97.399219 
L 109.20194 97.399219 
L 106.719181 97.399219 
z
" clip-path="url(#pec8e05b6c5)" style="fill: #008000; opacity: 0.5"/>
   </g>
   <g id="patch_15">
    <path d="M 112.926078 97.399219 
L 115.408836 97.399219 
L 115.408836 97.399219 
L 112.926078 97.399219 
z
" clip-path="url(#pec8e05b6c5)" style="fill: #008000; opacity: 0.5"/>
   </g>
   <g id="patch_16">
    <path d="M 119.132974 97.399219 
L 121.615733 97.399219 
L 121.615733 43.750438 
L 119.132974 43.750438 
z
" clip-path="url(#pec8e05b6c5)" style="fill: #008000; opacity: 0.5"/>
   </g>
   <g id="patch_17">
    <path d="M 125.339871 97.399219 
L 127.822629 97.399219 
L 127.822629 97.399219 
L 125.339871 97.399219 
z
" clip-path="url(#pec8e05b6c5)" style="fill: #008000; opacity: 0.5"/>
   </g>
   <g id="patch_18">
    <path d="M 131.546767 97.399219 
L 134.029526 97.399219 
L 134.029526 97.399219 
L 131.546767 97.399219 
z
" clip-path="url(#pec8e05b6c5)" style="fill: #008000; opacity: 0.5"/>
   </g>
   <g id="patch_19">
    <path d="M 137.753664 97.399219 
L 140.236422 97.399219 
L 140.236422 63.113809 
L 137.753664 63.113809 
z
" clip-path="url(#pec8e05b6c5)" style="fill: #008000; opacity: 0.5"/>
   </g>
   <g id="patch_20">
    <path d="M 40.926078 97.399219 
L 43.408836 97.399219 
L 43.408836 78.679219 
L 40.926078 78.679219 
z
" clip-path="url(#pec8e05b6c5)" style="fill: #ff0000; opacity: 0.5"/>
   </g>
   <g id="patch_21">
    <path d="M 47.132974 97.399219 
L 49.615733 97.399219 
L 49.615733 88.039219 
L 47.132974 88.039219 
z
" clip-path="url(#pec8e05b6c5)" style="fill: #ff0000; opacity: 0.5"/>
   </g>
   <g id="patch_22">
    <path d="M 53.339871 97.399219 
L 55.822629 97.399219 
L 55.822629 88.039219 
L 53.339871 88.039219 
z
" clip-path="url(#pec8e05b6c5)" style="fill: #ff0000; opacity: 0.5"/>
   </g>
   <g id="patch_23">
    <path d="M 59.546767 97.399219 
L 62.029526 97.399219 
L 62.029526 84.919219 
L 59.546767 84.919219 
z
" clip-path="url(#pec8e05b6c5)" style="fill: #ff0000; opacity: 0.5"/>
   </g>
   <g id="patch_24">
    <path d="M 65.753664 97.399219 
L 68.236422 97.399219 
L 68.236422 83.359219 
L 65.753664 83.359219 
z
" clip-path="url(#pec8e05b6c5)" style="fill: #ff0000; opacity: 0.5"/>
   </g>
   <g id="patch_25">
    <path d="M 71.96056 97.399219 
L 74.443319 97.399219 
L 74.443319 88.039219 
L 71.96056 88.039219 
z
" clip-path="url(#pec8e05b6c5)" style="fill: #ff0000; opacity: 0.5"/>
   </g>
   <g id="patch_26">
    <path d="M 78.167457 97.399219 
L 80.650216 97.399219 
L 80.650216 88.039219 
L 78.167457 88.039219 
z
" clip-path="url(#pec8e05b6c5)" style="fill: #ff0000; opacity: 0.5"/>
   </g>
   <g id="patch_27">
    <path d="M 84.374353 97.399219 
L 86.857112 97.399219 
L 86.857112 84.919219 
L 84.374353 84.919219 
z
" clip-path="url(#pec8e05b6c5)" style="fill: #ff0000; opacity: 0.5"/>
   </g>
   <g id="patch_28">
    <path d="M 90.58125 97.399219 
L 93.064009 97.399219 
L 93.064009 86.479219 
L 90.58125 86.479219 
z
" clip-path="url(#pec8e05b6c5)" style="fill: #ff0000; opacity: 0.5"/>
   </g>
   <g id="patch_29">
    <path d="M 96.788147 97.399219 
L 99.270905 97.399219 
L 99.270905 86.479219 
L 96.788147 86.479219 
z
" clip-path="url(#pec8e05b6c5)" style="fill: #ff0000; opacity: 0.5"/>
   </g>
   <g id="patch_30">
    <path d="M 102.995043 97.399219 
L 105.477802 97.399219 
L 105.477802 86.479219 
L 102.995043 86.479219 
z
" clip-path="url(#pec8e05b6c5)" style="fill: #ff0000; opacity: 0.5"/>
   </g>
   <g id="patch_31">
    <path d="M 109.20194 97.399219 
L 111.684698 97.399219 
L 111.684698 97.399219 
L 109.20194 97.399219 
z
" clip-path="url(#pec8e05b6c5)" style="fill: #ff0000; opacity: 0.5"/>
   </g>
   <g id="patch_32">
    <path d="M 115.408836 97.399219 
L 117.891595 97.399219 
L 117.891595 97.399219 
L 115.408836 97.399219 
z
" clip-path="url(#pec8e05b6c5)" style="fill: #ff0000; opacity: 0.5"/>
   </g>
   <g id="patch_33">
    <path d="M 121.615733 97.399219 
L 124.098491 97.399219 
L 124.098491 86.479219 
L 121.615733 86.479219 
z
" clip-path="url(#pec8e05b6c5)" style="fill: #ff0000; opacity: 0.5"/>
   </g>
   <g id="patch_34">
    <path d="M 127.822629 97.399219 
L 130.305388 97.399219 
L 130.305388 97.399219 
L 127.822629 97.399219 
z
" clip-path="url(#pec8e05b6c5)" style="fill: #ff0000; opacity: 0.5"/>
   </g>
   <g id="patch_35">
    <path d="M 134.029526 97.399219 
L 136.512284 97.399219 
L 136.512284 97.399219 
L 134.029526 97.399219 
z
" clip-path="url(#pec8e05b6c5)" style="fill: #ff0000; opacity: 0.5"/>
   </g>
   <g id="patch_36">
    <path d="M 140.236422 97.399219 
L 142.719181 97.399219 
L 142.719181 85.770128 
L 140.236422 85.770128 
z
" clip-path="url(#pec8e05b6c5)" style="fill: #ff0000; opacity: 0.5"/>
   </g>
   <g id="matplotlib.axis_1">
    <g id="xtick_1">
     <g id="line2d_1">
      <defs>
       <path id="m3996b78eba" d="M 0 0 
L 0 3.5 
" style="stroke: #000000; stroke-width: 0.8"/>
      </defs>
      <g>
       <use xlink:href="#m3996b78eba" x="40.926078" y="97.399219" style="stroke: #000000; stroke-width: 0.8"/>
      </g>
     </g>
     <g id="text_1">
      <text style="font: 10px 'sans-serif'; text-anchor: middle" x="40.926078" y="111.997656" transform="rotate(-0 40.926078 111.997656)">0</text>
     </g>
    </g>
    <g id="xtick_2">
     <g id="line2d_2">
      <g>
       <use xlink:href="#m3996b78eba" x="53.339871" y="97.399219" style="stroke: #000000; stroke-width: 0.8"/>
      </g>
     </g>
     <g id="text_2">
      <text style="font: 10px 'sans-serif'; text-anchor: middle" x="53.339871" y="111.997656" transform="rotate(-0 53.339871 111.997656)">20</text>
     </g>
    </g>
    <g id="xtick_3">
     <g id="line2d_3">
      <g>
       <use xlink:href="#m3996b78eba" x="65.753664" y="97.399219" style="stroke: #000000; stroke-width: 0.8"/>
      </g>
     </g>
     <g id="text_3">
      <text style="font: 10px 'sans-serif'; text-anchor: middle" x="65.753664" y="111.997656" transform="rotate(-0 65.753664 111.997656)">40</text>
     </g>
    </g>
    <g id="xtick_4">
     <g id="line2d_4">
      <g>
       <use xlink:href="#m3996b78eba" x="78.167457" y="97.399219" style="stroke: #000000; stroke-width: 0.8"/>
      </g>
     </g>
     <g id="text_4">
      <text style="font: 10px 'sans-serif'; text-anchor: middle" x="78.167457" y="111.997656" transform="rotate(-0 78.167457 111.997656)">60</text>
     </g>
    </g>
    <g id="xtick_5">
     <g id="line2d_5">
      <g>
       <use xlink:href="#m3996b78eba" x="90.58125" y="97.399219" style="stroke: #000000; stroke-width: 0.8"/>
      </g>
     </g>
     <g id="text_5">
      <text style="font: 10px 'sans-serif'; text-anchor: middle" x="90.58125" y="111.997656" transform="rotate(-0 90.58125 111.997656)">80</text>
     </g>
    </g>
    <g id="xtick_6">
     <g id="line2d_6">
      <g>
       <use xlink:href="#m3996b78eba" x="102.995043" y="97.399219" style="stroke: #000000; stroke-width: 0.8"/>
      </g>
     </g>
     <g id="text_6">
      <text style="font: 10px 'sans-serif'; text-anchor: middle" x="102.995043" y="111.997656" transform="rotate(-0 102.995043 111.997656)">100</text>
     </g>
    </g>
    <g id="text_7">
     <text style="font: 10px 'sans-serif'; text-anchor: middle" x="90.58125" y="125.675781" transform="rotate(-0 90.58125 125.675781)">AV delay (ms)</text>
    </g>
   </g>
   <g id="matplotlib.axis_2">
    <g id="ytick_1">
     <g id="line2d_7">
      <defs>
       <path id="m1120fd8da9" d="M 0 0 
L -3.5 0 
" style="stroke: #000000; stroke-width: 0.8"/>
      </defs>
      <g>
       <use xlink:href="#m1120fd8da9" x="36.58125" y="97.399219" style="stroke: #000000; stroke-width: 0.8"/>
      </g>
     </g>
     <g id="text_8">
      <text style="font: 10px 'sans-serif'; text-anchor: end" x="29.58125" y="101.198438" transform="rotate(-0 29.58125 101.198438)">0.0</text>
     </g>
    </g>
    <g id="ytick_2">
     <g id="line2d_8">
      <g>
       <use xlink:href="#m1120fd8da9" x="36.58125" y="50.599219" style="stroke: #000000; stroke-width: 0.8"/>
      </g>
     </g>
     <g id="text_9">
      <text style="font: 10px 'sans-serif'; text-anchor: end" x="29.58125" y="54.398438" transform="rotate(-0 29.58125 54.398438)">2.5</text>
     </g>
    </g>
    <g id="ytick_3">
     <g id="line2d_9">
      <g>
       <use xlink:href="#m1120fd8da9" x="36.58125" y="3.799219" style="stroke: #000000; stroke-width: 0.8"/>
      </g>
     </g>
     <g id="text_10">
      <text style="font: 10px 'sans-serif'; text-anchor: end" x="29.58125" y="7.598437" transform="rotate(-0 29.58125 7.598437)">5.0</text>
     </g>
    </g>
    <g id="text_11">
     <text style="font: 10px 'sans-serif'; text-anchor: middle" x="7.598438" y="50.599219" transform="rotate(-90 7.598438 50.599219)">Prop. Non-linear neurons</text>
    </g>
   </g>
   <g id="patch_37">
    <path d="M 36.58125 97.399219 
L 36.58125 3.799219 
" style="fill: none; stroke: #000000; stroke-width: 0.8; stroke-linejoin: miter; stroke-linecap: square"/>
   </g>
   <g id="patch_38">
    <path d="M 36.58125 97.399219 
L 144.58125 97.399219 
" style="fill: none; stroke: #000000; stroke-width: 0.8; stroke-linejoin: miter; stroke-linecap: square"/>
   </g>
  </g>
 </g>
 <defs>
  <clipPath id="pec8e05b6c5">
   <rect x="36.58125" y="3.799219" width="108" height="93.6"/>
  </clipPath>
 </defs>
</svg>
