<?xml version="1.0" encoding="utf-8" standalone="no"?>
<!DOCTYPE svg PUBLIC "-//W3C//DTD SVG 1.1//EN"
  "http://www.w3.org/Graphics/SVG/1.1/DTD/svg11.dtd">
<svg xmlns:xlink="http://www.w3.org/1999/xlink" width="132.29233pt" height="127.755469pt" viewBox="0 0 132.29233 127.755469" xmlns="http://www.w3.org/2000/svg" version="1.1">
 <metadata>
  <rdf:RDF xmlns:dc="http://purl.org/dc/elements/1.1/" xmlns:cc="http://creativecommons.org/ns#" xmlns:rdf="http://www.w3.org/1999/02/22-rdf-syntax-ns#">
   <cc:Work>
    <dc:type rdf:resource="http://purl.org/dc/dcmitype/StillImage"/>
    <dc:date>2025-06-05T15:47:24.600858</dc:date>
    <dc:format>image/svg+xml</dc:format>
    <dc:creator>
     <cc:Agent>
      <dc:title>Matplotlib v3.6.0, https://matplotlib.org/</dc:title>
     </cc:Agent>
    </dc:creator>
   </cc:Work>
  </rdf:RDF>
 </metadata>
 <defs>
  <style type="text/css">*{stroke-linejoin: round; stroke-linecap: butt}</style>
 </defs>
 <g id="figure_1">
  <g id="patch_1">
   <path d="M 0 127.755469 
L 132.29233 127.755469 
L 132.29233 0 
L 0 0 
z
" style="fill: #ffffff"/>
  </g>
  <g id="axes_1">
   <g id="patch_2">
    <path d="M 33.403125 97.399219 
L 127.003125 97.399219 
L 127.003125 3.799219 
L 33.403125 3.799219 
z
" style="fill: #ffffff"/>
   </g>
   <g id="patch_3">
    <path d="M 37.65767 97.399219 
L 41.709619 97.399219 
L 41.709619 95.042723 
L 37.65767 95.042723 
z
" clip-path="url(#pdf188e8bc6)" style="fill: #dcdcdc; fill-opacity: 0.5; stroke: #b3b3b3; stroke-linejoin: miter"/>
   </g>
   <g id="patch_4">
    <path d="M 41.709619 97.399219 
L 45.761567 97.399219 
L 45.761567 90.329732 
L 41.709619 90.329732 
z
" clip-path="url(#pdf188e8bc6)" style="fill: #dcdcdc; fill-opacity: 0.5; stroke: #b3b3b3; stroke-linejoin: miter"/>
   </g>
   <g id="patch_5">
    <path d="M 45.761567 97.399219 
L 49.813515 97.399219 
L 49.813515 79.725503 
L 45.761567 79.725503 
z
" clip-path="url(#pdf188e8bc6)" style="fill: #dcdcdc; fill-opacity: 0.5; stroke: #b3b3b3; stroke-linejoin: miter"/>
   </g>
   <g id="patch_6">
    <path d="M 49.813515 97.399219 
L 53.865463 97.399219 
L 53.865463 76.19076 
L 49.813515 76.19076 
z
" clip-path="url(#pdf188e8bc6)" style="fill: #dcdcdc; fill-opacity: 0.5; stroke: #b3b3b3; stroke-linejoin: miter"/>
   </g>
   <g id="patch_7">
    <path d="M 53.865463 97.399219 
L 57.917411 97.399219 
L 57.917411 76.19076 
L 53.865463 76.19076 
z
" clip-path="url(#pdf188e8bc6)" style="fill: #dcdcdc; fill-opacity: 0.5; stroke: #b3b3b3; stroke-linejoin: miter"/>
   </g>
   <g id="patch_8">
    <path d="M 57.917411 97.399219 
L 61.969359 97.399219 
L 61.969359 72.656016 
L 57.917411 72.656016 
z
" clip-path="url(#pdf188e8bc6)" style="fill: #dcdcdc; fill-opacity: 0.5; stroke: #b3b3b3; stroke-linejoin: miter"/>
   </g>
   <g id="patch_9">
    <path d="M 61.969359 97.399219 
L 66.021307 97.399219 
L 66.021307 67.943025 
L 61.969359 67.943025 
z
" clip-path="url(#pdf188e8bc6)" style="fill: #dcdcdc; fill-opacity: 0.5; stroke: #b3b3b3; stroke-linejoin: miter"/>
   </g>
   <g id="patch_10">
    <path d="M 66.021307 97.399219 
L 70.073255 97.399219 
L 70.073255 63.230034 
L 66.021307 63.230034 
z
" clip-path="url(#pdf188e8bc6)" style="fill: #dcdcdc; fill-opacity: 0.5; stroke: #b3b3b3; stroke-linejoin: miter"/>
   </g>
   <g id="patch_11">
    <path d="M 70.073255 97.399219 
L 74.125203 97.399219 
L 74.125203 50.269309 
L 70.073255 50.269309 
z
" clip-path="url(#pdf188e8bc6)" style="fill: #dcdcdc; fill-opacity: 0.5; stroke: #b3b3b3; stroke-linejoin: miter"/>
   </g>
   <g id="patch_12">
    <path d="M 74.125203 97.399219 
L 78.177151 97.399219 
L 78.177151 29.06085 
L 74.125203 29.06085 
z
" clip-path="url(#pdf188e8bc6)" style="fill: #dcdcdc; fill-opacity: 0.5; stroke: #b3b3b3; stroke-linejoin: miter"/>
   </g>
   <g id="patch_13">
    <path d="M 78.177151 97.399219 
L 82.229099 97.399219 
L 82.229099 25.526107 
L 78.177151 25.526107 
z
" clip-path="url(#pdf188e8bc6)" style="fill: #dcdcdc; fill-opacity: 0.5; stroke: #b3b3b3; stroke-linejoin: miter"/>
   </g>
   <g id="patch_14">
    <path d="M 82.229099 97.399219 
L 86.281047 97.399219 
L 86.281047 30.239098 
L 82.229099 30.239098 
z
" clip-path="url(#pdf188e8bc6)" style="fill: #dcdcdc; fill-opacity: 0.5; stroke: #b3b3b3; stroke-linejoin: miter"/>
   </g>
   <g id="patch_15">
    <path d="M 86.281047 97.399219 
L 90.332995 97.399219 
L 90.332995 24.347859 
L 86.281047 24.347859 
z
" clip-path="url(#pdf188e8bc6)" style="fill: #dcdcdc; fill-opacity: 0.5; stroke: #b3b3b3; stroke-linejoin: miter"/>
   </g>
   <g id="patch_16">
    <path d="M 90.332995 97.399219 
L 94.384943 97.399219 
L 94.384943 45.556318 
L 90.332995 45.556318 
z
" clip-path="url(#pdf188e8bc6)" style="fill: #dcdcdc; fill-opacity: 0.5; stroke: #b3b3b3; stroke-linejoin: miter"/>
   </g>
   <g id="patch_17">
    <path d="M 94.384943 97.399219 
L 98.436891 97.399219 
L 98.436891 38.486832 
L 94.384943 38.486832 
z
" clip-path="url(#pdf188e8bc6)" style="fill: #dcdcdc; fill-opacity: 0.5; stroke: #b3b3b3; stroke-linejoin: miter"/>
   </g>
   <g id="patch_18">
    <path d="M 98.436891 97.399219 
L 102.488839 97.399219 
L 102.488839 52.625805 
L 98.436891 52.625805 
z
" clip-path="url(#pdf188e8bc6)" style="fill: #dcdcdc; fill-opacity: 0.5; stroke: #b3b3b3; stroke-linejoin: miter"/>
   </g>
   <g id="patch_19">
    <path d="M 102.488839 97.399219 
L 106.540787 97.399219 
L 106.540787 58.517044 
L 102.488839 58.517044 
z
" clip-path="url(#pdf188e8bc6)" style="fill: #dcdcdc; fill-opacity: 0.5; stroke: #b3b3b3; stroke-linejoin: miter"/>
   </g>
   <g id="patch_20">
    <path d="M 106.540787 97.399219 
L 110.592735 97.399219 
L 110.592735 58.517044 
L 106.540787 58.517044 
z
" clip-path="url(#pdf188e8bc6)" style="fill: #dcdcdc; fill-opacity: 0.5; stroke: #b3b3b3; stroke-linejoin: miter"/>
   </g>
   <g id="patch_21">
    <path d="M 110.592735 97.399219 
L 114.644683 97.399219 
L 114.644683 65.58653 
L 110.592735 65.58653 
z
" clip-path="url(#pdf188e8bc6)" style="fill: #dcdcdc; fill-opacity: 0.5; stroke: #b3b3b3; stroke-linejoin: miter"/>
   </g>
   <g id="patch_22">
    <path d="M 114.644683 97.399219 
L 118.696631 97.399219 
L 118.696631 80.90375 
L 114.644683 80.90375 
z
" clip-path="url(#pdf188e8bc6)" style="fill: #dcdcdc; fill-opacity: 0.5; stroke: #b3b3b3; stroke-linejoin: miter"/>
   </g>
   <g id="patch_23">
    <path d="M 118.696631 97.399219 
L 122.74858 97.399219 
L 122.74858 84.438494 
L 118.696631 84.438494 
z
" clip-path="url(#pdf188e8bc6)" style="fill: #dcdcdc; fill-opacity: 0.5; stroke: #b3b3b3; stroke-linejoin: miter"/>
   </g>
   <g id="matplotlib.axis_1">
    <g id="xtick_1">
     <g id="line2d_1">
      <defs>
       <path id="mbe4bcc2789" d="M 0 0 
L 0 3.5 
" style="stroke: #000000; stroke-width: 0.8"/>
      </defs>
      <g>
       <use xlink:href="#mbe4bcc2789" x="37.65767" y="97.399219" style="stroke: #000000; stroke-width: 0.8"/>
      </g>
     </g>
     <g id="text_1">
      <text style="font: 10px 'sans-serif'; text-anchor: middle" x="37.65767" y="111.997656" transform="rotate(-0 37.65767 111.997656)">−100</text>
     </g>
    </g>
    <g id="xtick_2">
     <g id="line2d_2">
      <g>
       <use xlink:href="#mbe4bcc2789" x="58.930398" y="97.399219" style="stroke: #000000; stroke-width: 0.8"/>
      </g>
     </g>
     <g id="text_2">
      <text style="font: 10px 'sans-serif'; text-anchor: middle" x="58.930398" y="111.997656" transform="rotate(-0 58.930398 111.997656)">−50</text>
     </g>
    </g>
    <g id="xtick_3">
     <g id="line2d_3">
      <g>
       <use xlink:href="#mbe4bcc2789" x="80.203125" y="97.399219" style="stroke: #000000; stroke-width: 0.8"/>
      </g>
     </g>
     <g id="text_3">
      <text style="font: 10px 'sans-serif'; text-anchor: middle" x="80.203125" y="111.997656" transform="rotate(-0 80.203125 111.997656)">0</text>
     </g>
    </g>
    <g id="xtick_4">
     <g id="line2d_4">
      <g>
       <use xlink:href="#mbe4bcc2789" x="101.475852" y="97.399219" style="stroke: #000000; stroke-width: 0.8"/>
      </g>
     </g>
     <g id="text_4">
      <text style="font: 10px 'sans-serif'; text-anchor: middle" x="101.475852" y="111.997656" transform="rotate(-0 101.475852 111.997656)">50</text>
     </g>
    </g>
    <g id="xtick_5">
     <g id="line2d_5">
      <g>
       <use xlink:href="#mbe4bcc2789" x="122.74858" y="97.399219" style="stroke: #000000; stroke-width: 0.8"/>
      </g>
     </g>
     <g id="text_5">
      <text style="font: 10px 'sans-serif'; text-anchor: middle" x="122.74858" y="111.997656" transform="rotate(-0 122.74858 111.997656)">100</text>
     </g>
    </g>
    <g id="text_6">
     <text style="font: 10px 'sans-serif'; text-anchor: middle" x="80.203125" y="125.675781" transform="rotate(-0 80.203125 125.675781)">Obs - Pred AV delay (ms)</text>
    </g>
   </g>
   <g id="matplotlib.axis_2">
    <g id="ytick_1">
     <g id="line2d_6">
      <defs>
       <path id="m978e85dd65" d="M 0 0 
L -3.5 0 
" style="stroke: #000000; stroke-width: 0.8"/>
      </defs>
      <g>
       <use xlink:href="#m978e85dd65" x="33.403125" y="97.399219" style="stroke: #000000; stroke-width: 0.8"/>
      </g>
     </g>
     <g id="text_7">
      <text style="font: 10px 'sans-serif'; text-anchor: end" x="26.403125" y="101.198438" transform="rotate(-0 26.403125 101.198438)">0</text>
     </g>
    </g>
    <g id="ytick_2">
     <g id="line2d_7">
      <g>
       <use xlink:href="#m978e85dd65" x="33.403125" y="50.599219" style="stroke: #000000; stroke-width: 0.8"/>
      </g>
     </g>
     <g id="text_8">
      <text style="font: 10px 'sans-serif'; text-anchor: end" x="26.403125" y="54.398438" transform="rotate(-0 26.403125 54.398438)">6</text>
     </g>
    </g>
    <g id="ytick_3">
     <g id="line2d_8">
      <g>
       <use xlink:href="#m978e85dd65" x="33.403125" y="3.799219" style="stroke: #000000; stroke-width: 0.8"/>
      </g>
     </g>
     <g id="text_9">
      <text style="font: 10px 'sans-serif'; text-anchor: end" x="26.403125" y="7.598437" transform="rotate(-0 26.403125 7.598437)">12</text>
     </g>
    </g>
    <g id="text_10">
     <text style="font: 10px 'sans-serif'; text-anchor: middle" x="7.598438" y="50.599219" transform="rotate(-90 7.598438 50.599219)">% Neurons</text>
    </g>
   </g>
   <g id="line2d_9">
    <path d="M 80.203125 97.399219 
L 80.203125 3.799219 
" clip-path="url(#pdf188e8bc6)" style="fill: none; stroke-dasharray: 5.55,2.4; stroke-dashoffset: 0; stroke: #000000; stroke-width: 1.5"/>
   </g>
   <g id="patch_24">
    <path d="M 33.403125 97.399219 
L 33.403125 3.799219 
" style="fill: none; stroke: #000000; stroke-width: 0.8; stroke-linejoin: miter; stroke-linecap: square"/>
   </g>
   <g id="patch_25">
    <path d="M 33.403125 97.399219 
L 127.003125 97.399219 
" style="fill: none; stroke: #000000; stroke-width: 0.8; stroke-linejoin: miter; stroke-linecap: square"/>
   </g>
  </g>
 </g>
 <defs>
  <clipPath id="pdf188e8bc6">
   <rect x="33.403125" y="3.799219" width="93.6" height="93.6"/>
  </clipPath>
 </defs>
</svg>
