<?xml version="1.0" encoding="utf-8" standalone="no"?>
<!DOCTYPE svg PUBLIC "-//W3C//DTD SVG 1.1//EN"
  "http://www.w3.org/Graphics/SVG/1.1/DTD/svg11.dtd">
<svg xmlns:xlink="http://www.w3.org/1999/xlink" width="144.445597pt" height="127.755469pt" viewBox="0 0 144.445597 127.755469" xmlns="http://www.w3.org/2000/svg" version="1.1">
 <metadata>
  <rdf:RDF xmlns:dc="http://purl.org/dc/elements/1.1/" xmlns:cc="http://creativecommons.org/ns#" xmlns:rdf="http://www.w3.org/1999/02/22-rdf-syntax-ns#">
   <cc:Work>
    <dc:type rdf:resource="http://purl.org/dc/dcmitype/StillImage"/>
    <dc:date>2025-06-09T16:42:08.849426</dc:date>
    <dc:format>image/svg+xml</dc:format>
    <dc:creator>
     <cc:Agent>
      <dc:title>Matplotlib v3.6.0, https://matplotlib.org/</dc:title>
     </cc:Agent>
    </dc:creator>
   </cc:Work>
  </rdf:RDF>
 </metadata>
 <defs>
  <style type="text/css">*{stroke-linejoin: round; stroke-linecap: butt}</style>
 </defs>
 <g id="figure_1">
  <g id="patch_1">
   <path d="M 0 127.755469 
L 144.445597 127.755469 
L 144.445597 0 
L 0 0 
z
" style="fill: #ffffff"/>
  </g>
  <g id="axes_1">
   <g id="patch_2">
    <path d="M 33.403125 97.399219 
L 141.403125 97.399219 
L 141.403125 3.799219 
L 33.403125 3.799219 
z
" style="fill: #ffffff"/>
   </g>
   <g id="matplotlib.axis_1">
    <g id="xtick_1">
     <g id="line2d_1">
      <defs>
       <path id="m1d945bb80f" d="M 0 0 
L 0 3.5 
" style="stroke: #000000; stroke-width: 0.8"/>
      </defs>
      <g>
       <use xlink:href="#m1d945bb80f" x="38.312216" y="97.399219" style="stroke: #000000; stroke-width: 0.8"/>
      </g>
     </g>
     <g id="text_1">
      <text style="font: 10px 'sans-serif'; text-anchor: middle" x="38.312216" y="111.997656" transform="rotate(-0 38.312216 111.997656)">−1.0</text>
     </g>
    </g>
    <g id="xtick_2">
     <g id="line2d_2">
      <g>
       <use xlink:href="#m1d945bb80f" x="62.85767" y="97.399219" style="stroke: #000000; stroke-width: 0.8"/>
      </g>
     </g>
     <g id="text_2">
      <text style="font: 10px 'sans-serif'; text-anchor: middle" x="62.85767" y="111.997656" transform="rotate(-0 62.85767 111.997656)">−0.5</text>
     </g>
    </g>
    <g id="xtick_3">
     <g id="line2d_3">
      <g>
       <use xlink:href="#m1d945bb80f" x="87.403125" y="97.399219" style="stroke: #000000; stroke-width: 0.8"/>
      </g>
     </g>
     <g id="text_3">
      <text style="font: 10px 'sans-serif'; text-anchor: middle" x="87.403125" y="111.997656" transform="rotate(-0 87.403125 111.997656)">0.0</text>
     </g>
    </g>
    <g id="xtick_4">
     <g id="line2d_4">
      <g>
       <use xlink:href="#m1d945bb80f" x="111.94858" y="97.399219" style="stroke: #000000; stroke-width: 0.8"/>
      </g>
     </g>
     <g id="text_4">
      <text style="font: 10px 'sans-serif'; text-anchor: middle" x="111.94858" y="111.997656" transform="rotate(-0 111.94858 111.997656)">0.5</text>
     </g>
    </g>
    <g id="xtick_5">
     <g id="line2d_5">
      <g>
       <use xlink:href="#m1d945bb80f" x="136.494034" y="97.399219" style="stroke: #000000; stroke-width: 0.8"/>
      </g>
     </g>
     <g id="text_5">
      <text style="font: 10px 'sans-serif'; text-anchor: middle" x="136.494034" y="111.997656" transform="rotate(-0 136.494034 111.997656)">1.0</text>
     </g>
    </g>
    <g id="text_6">
     <text style="font: 10px 'sans-serif'; text-anchor: middle" x="87.403125" y="125.675781" transform="rotate(-0 87.403125 125.675781)">Spatial RF correlation</text>
    </g>
   </g>
   <g id="matplotlib.axis_2">
    <g id="ytick_1">
     <g id="line2d_6">
      <defs>
       <path id="m3c99a9fd51" d="M 0 0 
L -3.5 0 
" style="stroke: #000000; stroke-width: 0.8"/>
      </defs>
      <g>
       <use xlink:href="#m3c99a9fd51" x="33.403125" y="97.399219" style="stroke: #000000; stroke-width: 0.8"/>
      </g>
     </g>
     <g id="text_7">
      <text style="font: 10px 'sans-serif'; text-anchor: end" x="26.403125" y="101.198438" transform="rotate(-0 26.403125 101.198438)">0</text>
     </g>
    </g>
    <g id="ytick_2">
     <g id="line2d_7">
      <g>
       <use xlink:href="#m3c99a9fd51" x="33.403125" y="73.999219" style="stroke: #000000; stroke-width: 0.8"/>
      </g>
     </g>
     <g id="text_8">
      <text style="font: 10px 'sans-serif'; text-anchor: end" x="26.403125" y="77.798438" transform="rotate(-0 26.403125 77.798438)">5</text>
     </g>
    </g>
    <g id="ytick_3">
     <g id="line2d_8">
      <g>
       <use xlink:href="#m3c99a9fd51" x="33.403125" y="50.599219" style="stroke: #000000; stroke-width: 0.8"/>
      </g>
     </g>
     <g id="text_9">
      <text style="font: 10px 'sans-serif'; text-anchor: end" x="26.403125" y="54.398438" transform="rotate(-0 26.403125 54.398438)">10</text>
     </g>
    </g>
    <g id="ytick_4">
     <g id="line2d_9">
      <g>
       <use xlink:href="#m3c99a9fd51" x="33.403125" y="27.199219" style="stroke: #000000; stroke-width: 0.8"/>
      </g>
     </g>
     <g id="text_10">
      <text style="font: 10px 'sans-serif'; text-anchor: end" x="26.403125" y="30.998437" transform="rotate(-0 26.403125 30.998437)">15</text>
     </g>
    </g>
    <g id="ytick_5">
     <g id="line2d_10">
      <g>
       <use xlink:href="#m3c99a9fd51" x="33.403125" y="3.799219" style="stroke: #000000; stroke-width: 0.8"/>
      </g>
     </g>
     <g id="text_11">
      <text style="font: 10px 'sans-serif'; text-anchor: end" x="26.403125" y="7.598437" transform="rotate(-0 26.403125 7.598437)">20</text>
     </g>
    </g>
    <g id="text_12">
     <text style="font: 10px 'sans-serif'; text-anchor: middle" x="7.598438" y="50.599219" transform="rotate(-90 7.598438 50.599219)">Connection percentage (%)</text>
    </g>
   </g>
   <g id="patch_3">
    <path d="M 38.312216 97.399219 
L 38.312216 97.399219 
L 43.221307 97.399219 
L 43.221307 97.399219 
L 48.130398 97.399219 
L 48.130398 96.81312 
L 53.039489 96.81312 
L 53.039489 96.080496 
L 57.94858 96.080496 
L 57.94858 95.201348 
L 62.85767 95.201348 
L 62.85767 91.831279 
L 67.766761 91.831279 
L 67.766761 83.479369 
L 72.675852 83.479369 
L 72.675852 73.369162 
L 77.584943 73.369162 
L 77.584943 55.200095 
L 82.494034 55.200095 
L 82.494034 40.254573 
L 87.403125 40.254573 
L 87.403125 33.954009 
L 92.312216 33.954009 
L 92.312216 30.730465 
L 97.221307 30.730465 
L 97.221307 40.840671 
L 102.130398 40.840671 
L 102.130398 47.727334 
L 107.039489 47.727334 
L 107.039489 66.18945 
L 111.94858 66.18945 
L 111.94858 73.955261 
L 116.85767 73.955261 
L 116.85767 79.230152 
L 121.766761 79.230152 
L 121.766761 89.926457 
L 126.675852 89.926457 
L 126.675852 93.443051 
L 131.584943 93.443051 
L 131.584943 96.959645 
L 136.494034 96.959645 
L 136.494034 97.399219 
" clip-path="url(#p67d348ffc8)" style="fill: none; stroke: #d3d3d3; stroke-width: 1.5; stroke-linejoin: miter"/>
   </g>
   <g id="patch_4">
    <path d="M 38.312216 97.399219 
L 38.312216 97.399219 
L 43.221307 97.399219 
L 43.221307 90.807669 
L 48.130398 90.807669 
L 48.130398 97.399219 
L 53.039489 97.399219 
L 53.039489 90.807669 
L 57.94858 90.807669 
L 57.94858 90.807669 
L 62.85767 90.807669 
L 62.85767 97.399219 
L 67.766761 97.399219 
L 67.766761 97.399219 
L 72.675852 97.399219 
L 72.675852 84.21612 
L 77.584943 84.21612 
L 77.584943 71.033022 
L 82.494034 71.033022 
L 82.494034 51.258374 
L 87.403125 51.258374 
L 87.403125 64.441472 
L 92.312216 64.441472 
L 92.312216 64.441472 
L 97.221307 64.441472 
L 97.221307 64.441472 
L 102.130398 64.441472 
L 102.130398 38.075275 
L 107.039489 38.075275 
L 107.039489 44.666824 
L 111.94858 44.666824 
L 111.94858 51.258374 
L 116.85767 51.258374 
L 116.85767 51.258374 
L 121.766761 51.258374 
L 121.766761 51.258374 
L 126.675852 51.258374 
L 126.675852 84.21612 
L 131.584943 84.21612 
L 131.584943 97.399219 
L 136.494034 97.399219 
L 136.494034 97.399219 
" clip-path="url(#p67d348ffc8)" style="fill: none; stroke: #000000; stroke-width: 1.5; stroke-linejoin: miter"/>
   </g>
   <g id="line2d_11">
    <path d="M 94.030498 27.199219 
" clip-path="url(#p67d348ffc8)" style="fill: none; stroke: #d3d3d3; stroke-width: 1.5; stroke-linecap: square"/>
    <defs>
     <path id="mc604ca72a0" d="M -0 3 
L 3 -3 
L -3 -3 
z
" style="stroke: #d3d3d3; stroke-linejoin: miter"/>
    </defs>
    <g clip-path="url(#p67d348ffc8)">
     <use xlink:href="#mc604ca72a0" x="94.030498" y="27.199219" style="fill: #d3d3d3; stroke: #d3d3d3; stroke-linejoin: miter"/>
    </g>
   </g>
   <g id="line2d_12">
    <path d="M 103.930088 27.199219 
" clip-path="url(#p67d348ffc8)" style="fill: none; stroke: #000000; stroke-width: 1.5; stroke-linecap: square"/>
    <defs>
     <path id="m8ecffd656e" d="M -0 3 
L 3 -3 
L -3 -3 
z
" style="stroke: #000000; stroke-linejoin: miter"/>
    </defs>
    <g clip-path="url(#p67d348ffc8)">
     <use xlink:href="#m8ecffd656e" x="103.930088" y="27.199219" style="stroke: #000000; stroke-linejoin: miter"/>
    </g>
   </g>
   <g id="patch_5">
    <path d="M 33.403125 97.399219 
L 33.403125 3.799219 
" style="fill: none; stroke: #000000; stroke-width: 0.8; stroke-linejoin: miter; stroke-linecap: square"/>
   </g>
   <g id="patch_6">
    <path d="M 33.403125 97.399219 
L 141.403125 97.399219 
" style="fill: none; stroke: #000000; stroke-width: 0.8; stroke-linejoin: miter; stroke-linecap: square"/>
   </g>
  </g>
 </g>
 <defs>
  <clipPath id="p67d348ffc8">
   <rect x="33.403125" y="3.799219" width="108" height="93.6"/>
  </clipPath>
 </defs>
</svg>
