<?xml version="1.0" encoding="utf-8" standalone="no"?>
<!DOCTYPE svg PUBLIC "-//W3C//DTD SVG 1.1//EN"
  "http://www.w3.org/Graphics/SVG/1.1/DTD/svg11.dtd">
<svg xmlns:xlink="http://www.w3.org/1999/xlink" width="157.30625pt" height="120.555469pt" viewBox="0 0 157.30625 120.555469" xmlns="http://www.w3.org/2000/svg" version="1.1">
 <metadata>
  <rdf:RDF xmlns:dc="http://purl.org/dc/elements/1.1/" xmlns:cc="http://creativecommons.org/ns#" xmlns:rdf="http://www.w3.org/1999/02/22-rdf-syntax-ns#">
   <cc:Work>
    <dc:type rdf:resource="http://purl.org/dc/dcmitype/StillImage"/>
    <dc:date>2025-06-09T16:59:16.775219</dc:date>
    <dc:format>image/svg+xml</dc:format>
    <dc:creator>
     <cc:Agent>
      <dc:title>Matplotlib v3.6.0, https://matplotlib.org/</dc:title>
     </cc:Agent>
    </dc:creator>
   </cc:Work>
  </rdf:RDF>
 </metadata>
 <defs>
  <style type="text/css">*{stroke-linejoin: round; stroke-linecap: butt}</style>
 </defs>
 <g id="figure_1">
  <g id="patch_1">
   <path d="M 0 120.555469 
L 157.30625 120.555469 
L 157.30625 0 
L 0 0 
z
" style="fill: #ffffff"/>
  </g>
  <g id="axes_1">
   <g id="patch_2">
    <path d="M 42.94375 90.199219 
L 150.94375 90.199219 
L 150.94375 3.799219 
L 42.94375 3.799219 
z
" style="fill: #ffffff"/>
   </g>
   <g id="matplotlib.axis_1">
    <g id="xtick_1">
     <g id="line2d_1">
      <defs>
       <path id="mc513433d34" d="M 0 0 
L 0 3.5 
" style="stroke: #000000; stroke-width: 0.8"/>
      </defs>
      <g>
       <use xlink:href="#mc513433d34" x="42.94375" y="90.199219" style="stroke: #000000; stroke-width: 0.8"/>
      </g>
     </g>
     <g id="text_1">
      <text style="font: 10px 'sans-serif'; text-anchor: middle" x="42.94375" y="104.797656" transform="rotate(-0 42.94375 104.797656)">-15</text>
     </g>
    </g>
    <g id="xtick_2">
     <g id="line2d_2">
      <g>
       <use xlink:href="#mc513433d34" x="60.94375" y="90.199219" style="stroke: #000000; stroke-width: 0.8"/>
      </g>
     </g>
     <g id="text_2">
      <text style="font: 10px 'sans-serif'; text-anchor: middle" x="60.94375" y="104.797656" transform="rotate(-0 60.94375 104.797656)">-10</text>
     </g>
    </g>
    <g id="xtick_3">
     <g id="line2d_3">
      <g>
       <use xlink:href="#mc513433d34" x="96.94375" y="90.199219" style="stroke: #000000; stroke-width: 0.8"/>
      </g>
     </g>
     <g id="text_3">
      <text style="font: 10px 'sans-serif'; text-anchor: middle" x="96.94375" y="104.797656" transform="rotate(-0 96.94375 104.797656)">0</text>
     </g>
    </g>
    <g id="xtick_4">
     <g id="line2d_4">
      <g>
       <use xlink:href="#mc513433d34" x="132.94375" y="90.199219" style="stroke: #000000; stroke-width: 0.8"/>
      </g>
     </g>
     <g id="text_4">
      <text style="font: 10px 'sans-serif'; text-anchor: middle" x="132.94375" y="104.797656" transform="rotate(-0 132.94375 104.797656)">10</text>
     </g>
    </g>
    <g id="xtick_5">
     <g id="line2d_5">
      <g>
       <use xlink:href="#mc513433d34" x="150.94375" y="90.199219" style="stroke: #000000; stroke-width: 0.8"/>
      </g>
     </g>
     <g id="text_5">
      <text style="font: 10px 'sans-serif'; text-anchor: middle" x="150.94375" y="104.797656" transform="rotate(-0 150.94375 104.797656)">15</text>
     </g>
    </g>
    <g id="text_6">
     <text style="font: 10px 'sans-serif'; text-anchor: middle" x="96.94375" y="118.475781" transform="rotate(-0 96.94375 118.475781)">Time lag (ms)</text>
    </g>
   </g>
   <g id="matplotlib.axis_2">
    <g id="ytick_1">
     <g id="line2d_6">
      <defs>
       <path id="m8006483c72" d="M 0 0 
L -3.5 0 
" style="stroke: #000000; stroke-width: 0.8"/>
      </defs>
      <g>
       <use xlink:href="#m8006483c72" x="42.94375" y="78.929654" style="stroke: #000000; stroke-width: 0.8"/>
      </g>
     </g>
     <g id="text_7">
      <text style="font: 10px 'sans-serif'; text-anchor: end" x="35.94375" y="82.728872" transform="rotate(-0 35.94375 82.728872)">0.00</text>
     </g>
    </g>
    <g id="ytick_2">
     <g id="line2d_7">
      <g>
       <use xlink:href="#m8006483c72" x="42.94375" y="41.364436" style="stroke: #000000; stroke-width: 0.8"/>
      </g>
     </g>
     <g id="text_8">
      <text style="font: 10px 'sans-serif'; text-anchor: end" x="35.94375" y="45.163655" transform="rotate(-0 35.94375 45.163655)">0.01</text>
     </g>
    </g>
    <g id="ytick_3">
     <g id="line2d_8">
      <g>
       <use xlink:href="#m8006483c72" x="42.94375" y="3.799219" style="stroke: #000000; stroke-width: 0.8"/>
      </g>
     </g>
     <g id="text_9">
      <text style="font: 10px 'sans-serif'; text-anchor: end" x="35.94375" y="7.598437" transform="rotate(-0 35.94375 7.598437)">0.02</text>
     </g>
    </g>
    <g id="text_10">
     <text style="font: 10px 'sans-serif'; text-anchor: middle" x="7.598438" y="46.999219" transform="rotate(-90 7.598438 46.999219)">Peak efficacy</text>
    </g>
   </g>
   <g id="line2d_9">
    <path d="M 42.94375 71.917041 
L 43.30375 73.048994 
L 43.66375 72.144818 
L 44.02375 74.181228 
L 44.74375 71.694718 
L 45.10375 70.112603 
L 45.46375 70.565901 
L 45.82375 72.827016 
L 46.18375 71.244851 
L 46.54375 73.505334 
L 46.90375 69.437472 
L 47.26375 71.697659 
L 47.62375 71.24627 
L 47.98375 70.569205 
L 48.34375 71.699755 
L 48.70375 71.47382 
L 49.42375 73.734493 
L 49.78375 69.443592 
L 50.14375 72.154204 
L 50.50375 71.92923 
L 50.86375 70.574475 
L 51.22375 70.801515 
L 51.58375 71.254277 
L 51.94375 71.480468 
L 52.30375 70.577535 
L 53.02375 72.157801 
L 53.38375 70.352533 
L 53.74375 70.128269 
L 54.10375 71.708619 
L 54.46375 71.482962 
L 54.82375 67.873386 
L 55.54375 71.033149 
L 55.90375 70.808064 
L 56.26375 69.004759 
L 56.62375 71.486279 
L 56.98375 73.065675 
L 57.34375 70.359613 
L 57.70375 72.615012 
L 58.06375 70.360123 
L 58.42375 71.262679 
L 58.78375 71.713964 
L 59.14375 71.488959 
L 59.50375 69.234588 
L 59.86375 70.813337 
L 60.22375 70.362601 
L 60.58375 70.588216 
L 60.94375 72.166901 
L 61.30375 72.167955 
L 61.66375 69.688666 
L 62.02375 69.688849 
L 62.38375 69.014632 
L 62.74375 70.141738 
L 63.46375 70.593652 
L 63.82375 70.368913 
L 64.18375 70.595447 
L 64.54375 69.244723 
L 64.90375 69.020334 
L 65.26375 69.696571 
L 65.62375 69.922304 
L 65.98375 71.724386 
L 66.34375 70.149601 
L 66.70375 69.475257 
L 67.06375 71.052372 
L 67.42375 68.577271 
L 67.78375 68.12738 
L 68.14375 69.028355 
L 68.50375 68.579702 
L 68.86375 66.780191 
L 69.58375 68.808997 
L 69.94375 68.809598 
L 70.30375 69.260198 
L 70.66375 68.136332 
L 71.02375 70.61013 
L 71.74375 64.989659 
L 72.10375 68.362657 
L 72.46375 67.91415 
L 72.82375 68.363971 
L 73.18375 67.239962 
L 73.54375 69.039019 
L 74.26375 64.768985 
L 74.62375 69.265255 
L 74.98375 66.569262 
L 75.34375 68.593946 
L 75.70375 67.920811 
L 76.06375 69.269788 
L 76.42375 66.799927 
L 76.78375 66.126307 
L 77.14375 63.882443 
L 77.50375 64.782703 
L 77.86375 67.252806 
L 78.22375 66.355154 
L 78.58375 66.131369 
L 78.94375 67.928831 
L 79.30375 64.112218 
L 79.66375 64.562814 
L 80.02375 63.44071 
L 80.38375 65.237613 
L 80.74375 63.667084 
L 81.10375 62.773253 
L 81.46375 65.466518 
L 81.82375 62.776307 
L 82.18375 63.674704 
L 82.54375 59.189236 
L 82.90375 60.761034 
L 83.26375 58.519319 
L 83.62375 64.802171 
L 84.34375 59.64615 
L 84.70375 61.889091 
L 85.06375 53.370468 
L 85.42375 57.407524 
L 85.78375 57.183765 
L 86.14375 53.820999 
L 86.50375 54.495135 
L 86.86375 52.703994 
L 87.22375 48.223574 
L 87.58375 51.138386 
L 87.94375 46.207677 
L 88.30375 43.069955 
L 88.66375 43.968021 
L 89.02375 43.745493 
L 89.38375 28.733853 
L 89.74375 32.547275 
L 90.10375 28.96611 
L 90.46375 17.543447 
L 90.82375 23.597131 
L 91.18375 7.467811 
L 91.54375 7.023014 
L 91.90375 11.507546 
L 92.26375 7.034146 
L 92.62375 14.205496 
L 93.34375 37.726298 
L 94.06375 59.004034 
L 94.42375 66.168876 
L 94.78375 69.526976 
L 95.14375 69.079867 
L 95.50375 69.304348 
L 95.86375 68.409178 
L 96.22375 70.200807 
L 96.58375 70.872982 
L 96.94375 69.083248 
L 97.30375 71.320917 
L 97.66375 70.200732 
L 98.02375 69.975754 
L 98.38375 72.6618 
L 98.74375 71.094175 
L 99.10375 73.556194 
L 99.46375 73.779625 
L 99.82375 72.211355 
L 100.18375 72.659242 
L 100.54375 73.330519 
L 101.26375 69.074593 
L 101.62375 71.985728 
L 102.34375 73.553181 
L 102.70375 72.208798 
L 103.06375 70.415176 
L 103.42375 70.414625 
L 103.78375 71.75882 
L 104.14375 71.982184 
L 104.50375 71.533814 
L 104.86375 70.636693 
L 105.22375 72.429766 
L 105.58375 68.170308 
L 105.94375 72.428373 
L 106.30375 72.203356 
L 106.66375 72.651528 
L 107.02375 72.874995 
L 107.38375 71.304817 
L 107.74375 72.874124 
L 108.10375 71.752445 
L 108.46375 74.66791 
L 108.82375 72.649065 
L 109.18375 71.30273 
L 109.54375 71.077434 
L 109.90375 71.30133 
L 110.26375 73.095505 
L 110.62375 71.749021 
L 110.98375 73.095158 
L 111.34375 72.645944 
L 111.70375 72.420974 
L 112.06375 72.868582 
L 112.42375 71.970233 
L 112.78375 70.62238 
L 113.14375 70.846901 
L 113.50375 73.764695 
L 113.86375 73.539568 
L 114.22375 71.069113 
L 114.58375 73.08929 
L 114.94375 72.190067 
L 115.30375 72.414426 
L 115.66375 69.717507 
L 116.02375 71.514852 
L 116.38375 72.188791 
L 116.74375 71.738751 
L 117.46375 71.287266 
L 117.82375 71.961004 
L 118.18375 71.061468 
L 118.54375 73.308821 
L 118.90375 71.958815 
L 119.26375 72.181964 
L 119.62375 71.955819 
L 119.98375 70.155723 
L 120.34375 72.180343 
L 121.06375 71.279828 
L 121.42375 72.404248 
L 121.78375 71.053339 
L 122.14375 72.628192 
L 122.50375 73.303237 
L 122.86375 75.103311 
L 123.22375 72.626816 
L 123.58375 72.851522 
L 123.94375 72.176039 
L 124.30375 72.400476 
L 124.66375 71.949317 
L 125.02375 71.722778 
L 125.38375 71.722062 
L 125.74375 70.595876 
L 126.10375 73.522767 
L 126.46375 72.846664 
L 126.82375 73.29641 
L 127.18375 72.845079 
L 127.54375 69.914523 
L 127.90375 71.040744 
L 128.26375 73.068674 
L 128.62375 72.84313 
L 128.98375 72.391887 
L 129.34375 70.362195 
L 129.70375 72.165871 
L 130.06375 70.812424 
L 130.42375 72.389662 
L 131.14375 70.358086 
L 131.50375 73.064366 
L 131.86375 70.356068 
L 132.22375 73.063399 
L 132.58375 71.709217 
L 132.94375 72.611073 
L 133.66375 71.028808 
L 134.02375 72.608851 
L 134.38375 71.028135 
L 134.74375 70.800786 
L 135.10375 72.381138 
L 135.46375 71.0256 
L 135.82375 71.476625 
L 136.18375 70.572728 
L 136.54375 71.023579 
L 136.90375 73.282345 
L 137.26375 68.988949 
L 137.98375 72.602637 
L 138.34375 70.794387 
L 138.70375 73.731811 
L 139.06375 70.115394 
L 139.42375 73.053246 
L 139.78375 70.341058 
L 140.14375 70.792765 
L 140.50375 71.922011 
L 140.86375 72.147449 
L 141.58375 70.56372 
L 141.94375 72.14548 
L 142.30375 71.692873 
L 143.02375 71.692295 
L 143.38375 73.274759 
L 143.74375 72.595793 
L 144.46375 70.107314 
L 144.82375 71.011335 
L 145.18375 69.427103 
L 145.54375 71.462768 
L 145.90375 71.688563 
L 146.26375 72.141131 
L 146.62375 70.556975 
L 146.98375 72.140589 
L 147.34375 68.971762 
L 147.70375 69.877025 
L 148.06375 70.329485 
L 148.42375 70.555258 
L 148.78375 71.686459 
L 149.14375 71.007092 
L 149.50375 71.232598 
L 149.86375 70.55235 
L 150.22375 71.457856 
L 150.94375 71.456238 
L 150.94375 71.456238 
" clip-path="url(#p14088e6bba)" style="fill: none; stroke: #000000; stroke-opacity: 0.5; stroke-width: 1.5; stroke-linecap: square"/>
   </g>
   <g id="line2d_10">
    <path d="M 42.94375 81.093887 
L 43.30375 82.145626 
L 43.66375 81.376969 
L 44.02375 83.373493 
L 44.74375 81.031394 
L 45.10375 79.530243 
L 45.46375 79.937477 
L 45.82375 82.313877 
L 46.18375 80.704303 
L 46.54375 82.835335 
L 46.90375 78.967414 
L 47.26375 81.181426 
L 47.62375 80.83583 
L 47.98375 80.197948 
L 48.34375 81.307707 
L 48.70375 81.237731 
L 49.42375 83.349053 
L 49.78375 79.245589 
L 50.14375 81.925369 
L 50.50375 81.743798 
L 50.86375 80.508401 
L 51.94375 81.584233 
L 52.30375 80.634959 
L 53.02375 82.172725 
L 53.38375 80.459701 
L 53.74375 80.256715 
L 54.10375 81.937483 
L 54.46375 81.641973 
L 54.82375 78.153517 
L 55.54375 81.441613 
L 55.90375 81.233516 
L 56.26375 79.458033 
L 56.62375 81.857941 
L 56.98375 83.465315 
L 57.34375 80.782827 
L 57.70375 83.246915 
L 58.06375 81.076329 
L 58.42375 81.90597 
L 58.78375 82.315135 
L 59.14375 82.07799 
L 59.50375 79.84269 
L 59.86375 81.565697 
L 60.22375 81.197503 
L 60.58375 81.222871 
L 60.94375 82.975576 
L 61.30375 83.197148 
L 61.66375 80.687979 
L 62.02375 80.712021 
L 62.38375 80.208451 
L 62.74375 81.401519 
L 63.46375 81.889868 
L 63.82375 81.66787 
L 64.18375 81.906341 
L 64.54375 80.74468 
L 64.90375 80.353393 
L 65.26375 81.422696 
L 65.62375 81.657142 
L 65.98375 83.352272 
L 66.34375 81.811487 
L 66.70375 81.140452 
L 67.06375 82.826122 
L 67.42375 80.365034 
L 67.78375 80.099949 
L 68.14375 80.963674 
L 68.50375 80.535319 
L 68.86375 78.767029 
L 69.58375 80.933305 
L 69.94375 81.033756 
L 70.30375 81.845073 
L 70.66375 80.460099 
L 71.02375 83.156331 
L 71.74375 77.458755 
L 72.10375 80.763903 
L 72.46375 80.421113 
L 72.82375 81.040565 
L 73.18375 79.956212 
L 73.54375 81.839521 
L 74.26375 77.643648 
L 74.62375 82.010593 
L 74.98375 79.507952 
L 75.34375 81.519354 
L 75.70375 81.022547 
L 76.06375 82.434848 
L 76.42375 79.964351 
L 76.78375 79.212625 
L 77.14375 77.119085 
L 77.50375 78.138128 
L 77.86375 80.586155 
L 78.22375 79.854123 
L 78.58375 79.637132 
L 78.94375 81.46915 
L 79.30375 77.772066 
L 79.66375 78.126272 
L 80.02375 77.255999 
L 80.38375 79.030706 
L 80.74375 77.567216 
L 81.10375 76.620462 
L 81.46375 79.387957 
L 81.82375 76.777419 
L 82.18375 77.527482 
L 82.54375 73.289918 
L 82.90375 74.781489 
L 83.26375 72.804585 
L 83.62375 78.72736 
L 83.98375 76.787657 
L 84.34375 73.832334 
L 84.70375 76.308489 
L 85.06375 67.847338 
L 85.42375 72.055508 
L 85.78375 71.936543 
L 86.14375 68.310253 
L 86.50375 69.135081 
L 86.86375 67.488532 
L 87.22375 63.047739 
L 87.58375 65.789625 
L 87.94375 61.150042 
L 88.30375 58.00644 
L 88.66375 59.028744 
L 89.02375 58.669964 
L 89.38375 43.851763 
L 89.74375 47.746052 
L 90.10375 44.119432 
L 90.46375 33.031728 
L 90.82375 39.013316 
L 91.18375 22.905368 
L 91.54375 22.563154 
L 91.90375 27.144156 
L 92.26375 22.512775 
L 92.62375 29.839676 
L 92.98375 40.027014 
L 93.70375 65.220837 
L 94.42375 81.894912 
L 94.78375 85.045846 
L 95.50375 84.853157 
L 95.86375 84.362638 
L 96.22375 86.248355 
L 96.58375 86.889505 
L 96.94375 85.000081 
L 97.30375 87.082069 
L 97.66375 85.991242 
L 98.02375 85.801325 
L 98.38375 88.399437 
L 98.74375 86.583976 
L 99.10375 89.006128 
L 99.46375 88.934541 
L 99.82375 87.426941 
L 100.54375 88.26978 
L 101.26375 83.959138 
L 101.62375 86.610416 
L 102.34375 88.360558 
L 102.70375 87.03538 
L 103.06375 84.896701 
L 103.42375 84.828802 
L 103.78375 86.151641 
L 104.14375 86.250891 
L 104.50375 85.694422 
L 104.86375 84.589297 
L 105.22375 86.272914 
L 105.58375 82.143039 
L 105.94375 85.989352 
L 106.30375 85.666665 
L 106.66375 86.14744 
L 107.02375 86.245054 
L 107.38375 84.696969 
L 107.74375 86.134108 
L 108.10375 84.84759 
L 108.46375 87.887975 
L 108.82375 85.715122 
L 109.18375 84.295689 
L 109.54375 83.891752 
L 109.90375 84.101637 
L 110.26375 85.820386 
L 110.62375 84.738307 
L 110.98375 85.650481 
L 111.70375 85.00915 
L 112.06375 85.266399 
L 112.78375 82.697372 
L 113.14375 82.908935 
L 113.50375 85.716917 
L 113.86375 85.505398 
L 114.22375 82.860008 
L 114.58375 84.880911 
L 114.94375 83.893161 
L 115.30375 83.992077 
L 115.66375 81.233712 
L 116.02375 82.826358 
L 116.38375 83.63839 
L 116.74375 82.846436 
L 117.10375 82.674573 
L 117.46375 82.255455 
L 117.82375 82.874771 
L 118.18375 81.868956 
L 118.54375 83.997664 
L 118.90375 82.665001 
L 119.62375 82.505061 
L 119.98375 80.387915 
L 120.34375 82.469475 
L 121.06375 81.399509 
L 121.42375 82.282544 
L 121.78375 81.033369 
L 122.14375 82.569266 
L 122.50375 83.139522 
L 122.86375 84.982928 
L 123.22375 82.193022 
L 123.58375 82.397204 
L 123.94375 81.538894 
L 124.30375 81.681878 
L 124.66375 81.184322 
L 125.38375 80.745779 
L 125.74375 79.646602 
L 126.10375 82.374127 
L 126.46375 81.654455 
L 126.82375 82.097322 
L 127.18375 81.578304 
L 127.54375 78.578574 
L 127.90375 79.491412 
L 128.26375 81.475749 
L 128.62375 81.232022 
L 128.98375 80.673568 
L 129.34375 78.646287 
L 129.70375 80.333438 
L 130.06375 78.797417 
L 130.42375 80.302697 
L 131.14375 78.104289 
L 131.50375 80.744834 
L 131.86375 78.072389 
L 132.22375 80.480877 
L 132.58375 79.10267 
L 132.94375 79.948928 
L 133.66375 78.295375 
L 134.02375 79.939702 
L 134.38375 78.465003 
L 134.74375 78.12959 
L 135.10375 79.846658 
L 135.46375 78.412025 
L 135.82375 78.831423 
L 136.18375 78.106479 
L 136.54375 78.494689 
L 136.90375 80.760182 
L 137.26375 76.444486 
L 137.98375 79.990626 
L 138.34375 78.270619 
L 138.70375 81.214902 
L 139.06375 77.516938 
L 139.42375 80.583048 
L 139.78375 77.815092 
L 140.14375 78.310899 
L 140.50375 79.493583 
L 140.86375 79.589079 
L 141.22375 78.951504 
L 141.58375 78.086655 
L 141.94375 79.756159 
L 142.30375 79.267868 
L 142.66375 79.264784 
L 143.02375 79.389392 
L 143.38375 80.832605 
L 143.74375 80.161518 
L 144.46375 77.750091 
L 144.82375 78.580958 
L 145.18375 77.055698 
L 145.54375 79.122864 
L 145.90375 79.367741 
L 146.26375 79.896835 
L 146.62375 78.301438 
L 146.98375 79.858682 
L 147.34375 76.789207 
L 147.70375 77.599943 
L 148.42375 78.247738 
L 148.78375 79.461314 
L 149.14375 78.761018 
L 149.50375 78.909934 
L 149.86375 78.219121 
L 150.22375 79.113178 
L 150.58375 79.124828 
L 150.94375 79.266678 
L 150.94375 79.266678 
" clip-path="url(#p14088e6bba)" style="fill: none; stroke: #000000; stroke-width: 1.5; stroke-linecap: square"/>
   </g>
   <g id="line2d_11">
    <path d="M 42.94375 69.752808 
L 43.30375 69.833022 
L 43.66375 69.697502 
L 44.02375 69.737388 
L 44.74375 69.592977 
L 45.10375 69.512013 
L 45.46375 69.558078 
L 45.82375 69.442793 
L 46.54375 69.599652 
L 46.90375 69.399711 
L 47.26375 69.445887 
L 47.98375 69.30091 
L 48.34375 69.321702 
L 48.70375 69.165743 
L 49.06375 69.171169 
L 49.42375 69.315093 
L 49.78375 69.127657 
L 50.50375 69.115085 
L 51.58375 68.856511 
L 52.66375 68.815963 
L 53.02375 68.91473 
L 54.10375 68.70079 
L 54.46375 68.770643 
L 55.54375 68.521189 
L 57.34375 68.506439 
L 58.06375 68.213448 
L 59.14375 68.340623 
L 59.50375 68.321552 
L 60.22375 68.094752 
L 60.58375 68.294999 
L 61.30375 67.900461 
L 62.02375 67.906482 
L 62.74375 67.669873 
L 63.46375 67.633438 
L 64.18375 67.618759 
L 64.54375 67.429697 
L 64.90375 67.596594 
L 65.26375 67.203528 
L 65.62375 67.194816 
L 65.98375 67.301768 
L 67.42375 67.141891 
L 67.78375 66.957085 
L 68.50375 66.974037 
L 68.86375 66.942815 
L 69.22375 66.75568 
L 69.58375 66.805346 
L 69.94375 66.705496 
L 70.30375 66.344779 
L 70.66375 66.605886 
L 71.02375 66.383453 
L 72.10375 66.528407 
L 73.54375 66.129152 
L 73.90375 66.304736 
L 74.26375 66.054991 
L 74.62375 66.184315 
L 74.98375 65.990963 
L 75.34375 66.004245 
L 76.06375 65.764593 
L 77.14375 65.693012 
L 77.50375 65.574228 
L 77.86375 65.596304 
L 78.22375 65.430685 
L 78.94375 65.389334 
L 79.30375 65.269806 
L 79.66375 65.366195 
L 80.02375 65.114365 
L 80.38375 65.13656 
L 80.74375 65.029522 
L 81.10375 65.082444 
L 81.82375 64.928542 
L 82.18375 65.076876 
L 82.54375 64.828972 
L 82.90375 64.909199 
L 83.26375 64.644388 
L 83.62375 65.004464 
L 83.98375 64.702447 
L 84.34375 64.743469 
L 84.70375 64.510255 
L 85.06375 64.452784 
L 85.78375 64.176875 
L 86.14375 64.440399 
L 87.22375 64.105489 
L 87.58375 64.278414 
L 87.94375 63.987289 
L 88.30375 63.993169 
L 88.66375 63.86893 
L 89.02375 64.005183 
L 89.74375 63.730876 
L 90.10375 63.776331 
L 90.46375 63.441373 
L 91.18375 63.492096 
L 91.90375 63.293044 
L 92.26375 63.451025 
L 92.62375 63.295474 
L 92.98375 63.412394 
L 93.70375 63.08337 
L 94.06375 63.682679 
L 94.42375 63.203618 
L 94.78375 63.410783 
L 95.14375 63.109068 
L 95.50375 63.380845 
L 95.86375 62.976194 
L 96.22375 62.882106 
L 96.94375 63.01282 
L 97.30375 63.168501 
L 98.02375 63.104083 
L 98.38375 63.192017 
L 98.74375 63.439853 
L 99.10375 63.47972 
L 99.46375 63.774738 
L 100.18375 63.654941 
L 100.54375 63.990392 
L 100.90375 64.094386 
L 101.26375 64.045108 
L 101.62375 64.304966 
L 101.98375 64.374922 
L 102.34375 64.122277 
L 102.70375 64.103071 
L 103.06375 64.448129 
L 104.50375 64.769045 
L 105.22375 65.086505 
L 105.58375 64.956923 
L 105.94375 65.368675 
L 106.30375 65.466345 
L 106.66375 65.433741 
L 107.02375 65.559595 
L 107.38375 65.537502 
L 108.10375 65.834509 
L 108.46375 65.709588 
L 109.54375 66.115335 
L 110.26375 66.204773 
L 110.62375 65.940367 
L 110.98375 66.374331 
L 111.70375 66.341478 
L 112.78375 66.854661 
L 113.86375 66.963824 
L 114.22375 67.138759 
L 114.94375 67.22656 
L 116.02375 67.618148 
L 116.38375 67.480055 
L 116.74375 67.821969 
L 117.10375 67.767711 
L 117.46375 67.961465 
L 118.18375 68.122166 
L 118.54375 68.240811 
L 118.90375 68.223468 
L 119.26375 68.495655 
L 119.62375 68.380412 
L 119.98375 68.697462 
L 120.34375 68.640521 
L 121.42375 69.051358 
L 121.78375 68.949624 
L 122.86375 69.050036 
L 123.22375 69.363447 
L 123.58375 69.383971 
L 124.30375 69.648251 
L 125.02375 69.739015 
L 125.38375 69.905936 
L 125.74375 69.878927 
L 126.10375 70.078293 
L 127.54375 70.265603 
L 127.90375 70.478985 
L 129.70375 70.762087 
L 130.42375 71.016618 
L 131.86375 71.213333 
L 132.22375 71.512176 
L 134.02375 71.598802 
L 134.38375 71.492786 
L 134.74375 71.60085 
L 135.10375 71.464134 
L 135.82375 71.574856 
L 136.18375 71.395903 
L 137.62375 71.55111 
L 140.14375 71.41152 
L 140.50375 71.358082 
L 140.86375 71.488024 
L 143.02375 71.232556 
L 143.38375 71.371807 
L 145.90375 71.250476 
L 146.62375 71.18519 
L 146.98375 71.211561 
L 147.34375 71.112208 
L 148.06375 71.284973 
L 149.14375 71.175728 
L 149.86375 71.262882 
L 150.58375 71.261363 
L 150.94375 71.119214 
L 150.94375 71.119214 
" clip-path="url(#p14088e6bba)" style="fill: none; stroke: #008000; stroke-width: 1.5; stroke-linecap: square"/>
   </g>
   <g id="line2d_12">
    <path d="M 96.94375 90.199219 
L 96.94375 3.799219 
" clip-path="url(#p14088e6bba)" style="fill: none; stroke-dasharray: 5.55,2.4; stroke-dashoffset: 0; stroke: #000000; stroke-opacity: 0.3; stroke-width: 1.5"/>
   </g>
   <g id="patch_3">
    <path d="M 42.94375 90.199219 
L 42.94375 3.799219 
" style="fill: none; stroke: #000000; stroke-width: 0.8; stroke-linejoin: miter; stroke-linecap: square"/>
   </g>
   <g id="patch_4">
    <path d="M 42.94375 90.199219 
L 150.94375 90.199219 
" style="fill: none; stroke: #000000; stroke-width: 0.8; stroke-linejoin: miter; stroke-linecap: square"/>
   </g>
  </g>
 </g>
 <defs>
  <clipPath id="p14088e6bba">
   <rect x="42.94375" y="3.799219" width="108" height="86.4"/>
  </clipPath>
 </defs>
</svg>
