<?xml version="1.0" encoding="utf-8" standalone="no"?>
<!DOCTYPE svg PUBLIC "-//W3C//DTD SVG 1.1//EN"
  "http://www.w3.org/Graphics/SVG/1.1/DTD/svg11.dtd">
<svg xmlns:xlink="http://www.w3.org/1999/xlink" width="339.226101pt" height="100.914375pt" viewBox="0 0 339.226101 100.914375" xmlns="http://www.w3.org/2000/svg" version="1.1">
 <metadata>
  <rdf:RDF xmlns:dc="http://purl.org/dc/elements/1.1/" xmlns:cc="http://creativecommons.org/ns#" xmlns:rdf="http://www.w3.org/1999/02/22-rdf-syntax-ns#">
   <cc:Work>
    <dc:type rdf:resource="http://purl.org/dc/dcmitype/StillImage"/>
    <dc:date>2025-06-10T10:39:00.590954</dc:date>
    <dc:format>image/svg+xml</dc:format>
    <dc:creator>
     <cc:Agent>
      <dc:title>Matplotlib v3.6.0, https://matplotlib.org/</dc:title>
     </cc:Agent>
    </dc:creator>
   </cc:Work>
  </rdf:RDF>
 </metadata>
 <defs>
  <style type="text/css">*{stroke-linejoin: round; stroke-linecap: butt}</style>
 </defs>
 <g id="figure_1">
  <g id="patch_1">
   <path d="M 0 100.914375 
L 339.226101 100.914375 
L 339.226101 0 
L 0 0 
z
" style="fill: #ffffff"/>
  </g>
  <g id="axes_1">
   <g id="patch_2">
    <path d="M 33.403125 70.558125 
L 94.055299 70.558125 
L 94.055299 15.118125 
L 33.403125 15.118125 
z
" style="fill: #ffffff"/>
   </g>
   <g id="PolyCollection_1">
    <defs>
     <path id="mf355c51878" d="M 36.160042 -39.294163 
L 36.160042 -31.87598 
L 36.722678 -32.962266 
L 37.285314 -34.096279 
L 37.84795 -33.766801 
L 38.410586 -34.712496 
L 38.973223 -34.936307 
L 39.535859 -35.422465 
L 40.098495 -35.157972 
L 40.661131 -36.164501 
L 41.223767 -36.349079 
L 41.786403 -36.373841 
L 42.349039 -35.890561 
L 42.911675 -35.598282 
L 43.474312 -36.849301 
L 44.036948 -36.675196 
L 44.599584 -37.38493 
L 45.16222 -37.170248 
L 45.724856 -37.664722 
L 46.287492 -38.440885 
L 46.850128 -37.271509 
L 47.412764 -38.48546 
L 47.975401 -38.214904 
L 48.538037 -37.719008 
L 49.100673 -39.07182 
L 49.663309 -39.081241 
L 50.225945 -38.986556 
L 50.788581 -39.787035 
L 51.351217 -39.17499 
L 51.913853 -39.063206 
L 52.47649 -39.260622 
L 53.039126 -40.299066 
L 53.601762 -39.720427 
L 54.164398 -40.326206 
L 54.727034 -40.774077 
L 55.28967 -41.344335 
L 55.852306 -41.63652 
L 56.414942 -41.197532 
L 56.977578 -41.533797 
L 57.540215 -42.026583 
L 58.102851 -39.983537 
L 58.665487 -41.656335 
L 59.228123 -42.334629 
L 59.790759 -41.043908 
L 60.353395 -41.021161 
L 60.916031 -42.000503 
L 61.478667 -41.718936 
L 62.041304 -42.276314 
L 62.60394 -42.050449 
L 63.166576 -43.022324 
L 63.729212 -40.92541 
L 64.291848 -42.656013 
L 64.854484 -42.84319 
L 65.41712 -43.535129 
L 65.979756 -43.426846 
L 66.542393 -43.718398 
L 67.105029 -42.786111 
L 67.667665 -42.43506 
L 68.230301 -42.24993 
L 68.792937 -43.588981 
L 69.355573 -42.648942 
L 69.918209 -44.446057 
L 70.480845 -43.88315 
L 71.043482 -44.464062 
L 71.606118 -43.587017 
L 72.168754 -43.703996 
L 72.73139 -43.875203 
L 73.294026 -44.504252 
L 73.856662 -44.172987 
L 74.419298 -43.816458 
L 74.981934 -44.535049 
L 75.544571 -45.127236 
L 76.107207 -45.137763 
L 76.669843 -45.739869 
L 77.232479 -44.594129 
L 77.795115 -44.942047 
L 78.357751 -45.642576 
L 78.920387 -44.245032 
L 79.483023 -45.210597 
L 80.045659 -46.289587 
L 80.608296 -45.221915 
L 81.170932 -45.82599 
L 81.733568 -45.142531 
L 82.296204 -45.164679 
L 82.85884 -46.385841 
L 83.421476 -45.26601 
L 83.984112 -46.542715 
L 84.546748 -45.892995 
L 85.109385 -46.172791 
L 85.672021 -45.317989 
L 86.234657 -46.074854 
L 86.797293 -47.007542 
L 87.359929 -48.08141 
L 87.922565 -44.531507 
L 88.485201 -46.359308 
L 89.047837 -46.745338 
L 89.610474 -48.202011 
L 90.17311 -47.290716 
L 90.735746 -47.553281 
L 91.298382 -47.767709 
L 91.298382 -61.661737 
L 91.298382 -61.661737 
L 90.735746 -62.196518 
L 90.17311 -61.738134 
L 89.610474 -60.863247 
L 89.047837 -61.241277 
L 88.485201 -62.469 
L 87.922565 -62.65141 
L 87.359929 -62.598412 
L 86.797293 -62.386585 
L 86.234657 -61.381851 
L 85.672021 -60.153435 
L 85.109385 -60.33271 
L 84.546748 -60.565952 
L 83.984112 -59.438247 
L 83.421476 -59.587363 
L 82.85884 -60.108367 
L 82.296204 -60.458066 
L 81.733568 -59.882482 
L 81.170932 -60.873749 
L 80.608296 -60.67506 
L 80.045659 -60.301499 
L 79.483023 -59.802549 
L 78.920387 -62.1823 
L 78.357751 -60.713703 
L 77.795115 -59.488353 
L 77.232479 -60.12973 
L 76.669843 -60.051328 
L 76.107207 -57.823676 
L 75.544571 -61.65376 
L 74.981934 -58.902264 
L 74.419298 -57.648157 
L 73.856662 -59.774022 
L 73.294026 -60.200649 
L 72.73139 -57.149902 
L 72.168754 -59.46693 
L 71.606118 -55.416213 
L 71.043482 -58.246898 
L 70.480845 -58.229016 
L 69.918209 -60.684571 
L 69.355573 -55.560758 
L 68.792937 -56.256242 
L 68.230301 -57.115309 
L 67.667665 -59.179555 
L 67.105029 -58.679788 
L 66.542393 -57.979994 
L 65.979756 -55.752472 
L 65.41712 -57.69348 
L 64.854484 -56.653943 
L 64.291848 -57.167475 
L 63.729212 -54.41188 
L 63.166576 -56.761438 
L 62.60394 -57.022543 
L 62.041304 -56.708831 
L 61.478667 -55.933037 
L 60.916031 -55.218753 
L 60.353395 -53.809484 
L 59.790759 -53.079157 
L 59.228123 -54.46023 
L 58.665487 -55.121675 
L 58.102851 -55.359628 
L 57.540215 -54.764831 
L 56.977578 -54.64961 
L 56.414942 -52.165461 
L 55.852306 -54.05679 
L 55.28967 -55.555352 
L 54.727034 -54.381583 
L 54.164398 -53.00394 
L 53.601762 -52.812614 
L 53.039126 -53.360215 
L 52.47649 -52.044989 
L 51.913853 -53.451936 
L 51.351217 -51.562567 
L 50.788581 -50.347884 
L 50.225945 -51.082215 
L 49.663309 -49.741576 
L 49.100673 -49.827919 
L 48.538037 -50.167069 
L 47.975401 -48.911951 
L 47.412764 -49.979586 
L 46.850128 -49.413473 
L 46.287492 -50.353422 
L 45.724856 -48.830115 
L 45.16222 -47.118844 
L 44.599584 -47.873946 
L 44.036948 -46.03843 
L 43.474312 -45.981826 
L 42.911675 -46.0957 
L 42.349039 -44.771744 
L 41.786403 -44.856106 
L 41.223767 -45.763167 
L 40.661131 -44.045661 
L 40.098495 -42.620794 
L 39.535859 -40.705201 
L 38.973223 -42.74101 
L 38.410586 -40.759802 
L 37.84795 -40.220456 
L 37.285314 -39.291318 
L 36.722678 -39.926011 
L 36.160042 -39.294163 
z
" style="stroke: #808080; stroke-opacity: 0.6"/>
    </defs>
    <g clip-path="url(#p3c98112b4f)">
     <use xlink:href="#mf355c51878" x="0" y="100.914375" style="fill: #808080; fill-opacity: 0.6; stroke: #808080; stroke-opacity: 0.6"/>
    </g>
   </g>
   <g id="matplotlib.axis_1">
    <g id="xtick_1">
     <g id="line2d_1">
      <defs>
       <path id="m5d2a4f7a73" d="M 0 0 
L 0 3.5 
" style="stroke: #000000; stroke-width: 0.8"/>
      </defs>
      <g>
       <use xlink:href="#m5d2a4f7a73" x="35.597406" y="70.558125" style="stroke: #000000; stroke-width: 0.8"/>
      </g>
     </g>
     <g id="text_1">
      <text style="font: 10px 'sans-serif'; text-anchor: middle" x="35.597406" y="85.156563" transform="rotate(-0 35.597406 85.156563)">0</text>
     </g>
    </g>
    <g id="xtick_2">
     <g id="line2d_2">
      <g>
       <use xlink:href="#m5d2a4f7a73" x="91.861018" y="70.558125" style="stroke: #000000; stroke-width: 0.8"/>
      </g>
     </g>
     <g id="text_2">
      <text style="font: 10px 'sans-serif'; text-anchor: middle" x="91.861018" y="85.156563" transform="rotate(-0 91.861018 85.156563)">100</text>
     </g>
    </g>
    <g id="text_3">
     <text style="font: 10px 'sans-serif'; text-anchor: middle" x="63.729212" y="98.834688" transform="rotate(-0 63.729212 98.834688)"># neurons</text>
    </g>
   </g>
   <g id="matplotlib.axis_2">
    <g id="ytick_1">
     <g id="line2d_3">
      <defs>
       <path id="m8edc858d59" d="M 0 0 
L -3.5 0 
" style="stroke: #000000; stroke-width: 0.8"/>
      </defs>
      <g>
       <use xlink:href="#m8edc858d59" x="33.403125" y="70.558125" style="stroke: #000000; stroke-width: 0.8"/>
      </g>
     </g>
     <g id="text_4">
      <text style="font: 10px 'sans-serif'; text-anchor: end" x="26.403125" y="74.357344" transform="rotate(-0 26.403125 74.357344)">0</text>
     </g>
    </g>
    <g id="ytick_2">
     <g id="line2d_4">
      <g>
       <use xlink:href="#m8edc858d59" x="33.403125" y="52.078125" style="stroke: #000000; stroke-width: 0.8"/>
      </g>
     </g>
     <g id="text_5">
      <text style="font: 10px 'sans-serif'; text-anchor: end" x="26.403125" y="55.877344" transform="rotate(-0 26.403125 55.877344)">20</text>
     </g>
    </g>
    <g id="ytick_3">
     <g id="line2d_5">
      <g>
       <use xlink:href="#m8edc858d59" x="33.403125" y="33.598125" style="stroke: #000000; stroke-width: 0.8"/>
      </g>
     </g>
     <g id="text_6">
      <text style="font: 10px 'sans-serif'; text-anchor: end" x="26.403125" y="37.397344" transform="rotate(-0 26.403125 37.397344)">40</text>
     </g>
    </g>
    <g id="ytick_4">
     <g id="line2d_6">
      <g>
       <use xlink:href="#m8edc858d59" x="33.403125" y="15.118125" style="stroke: #000000; stroke-width: 0.8"/>
      </g>
     </g>
     <g id="text_7">
      <text style="font: 10px 'sans-serif'; text-anchor: end" x="26.403125" y="18.917344" transform="rotate(-0 26.403125 18.917344)">60</text>
     </g>
    </g>
    <g id="text_8">
     <text style="font: 10px 'sans-serif'; text-anchor: middle" x="7.598438" y="42.838125" transform="rotate(-90 7.598438 42.838125)">Decoding accuracy (%)</text>
    </g>
   </g>
   <g id="line2d_7">
    <path d="M 36.160042 65.329303 
L 36.722678 64.470237 
L 37.285314 64.220576 
L 37.84795 63.920746 
L 38.410586 63.178226 
L 38.973223 62.075716 
L 39.535859 62.850542 
L 40.098495 62.024992 
L 40.661131 60.809294 
L 41.223767 59.858252 
L 41.786403 60.299401 
L 42.349039 60.583223 
L 42.911675 60.067384 
L 43.474312 59.498812 
L 44.036948 59.557562 
L 44.599584 58.284937 
L 45.16222 58.769829 
L 45.724856 57.666956 
L 46.287492 56.517222 
L 46.850128 57.571884 
L 47.412764 56.681852 
L 47.975401 57.350947 
L 48.538037 56.971336 
L 49.100673 56.464505 
L 49.663309 56.502966 
L 50.225945 55.87999 
L 50.788581 55.846916 
L 51.351217 55.545597 
L 51.913853 54.656804 
L 52.47649 55.26157 
L 53.039126 54.084735 
L 53.601762 54.647855 
L 54.164398 54.249302 
L 54.727034 53.336545 
L 55.28967 52.464531 
L 55.852306 53.06772 
L 56.414942 54.232879 
L 56.977578 52.822671 
L 57.540215 52.518668 
L 58.102851 53.242793 
L 58.665487 52.52537 
L 59.228123 52.516945 
L 59.790759 53.852842 
L 60.353395 53.499053 
L 60.916031 52.304747 
L 61.478667 52.088388 
L 62.041304 51.421803 
L 62.60394 51.377879 
L 63.166576 51.022494 
L 63.729212 53.24573 
L 64.291848 51.002631 
L 64.854484 51.165808 
L 65.41712 50.300071 
L 65.979756 51.324716 
L 66.542393 50.065179 
L 67.105029 50.181425 
L 67.667665 50.107067 
L 68.230301 51.231755 
L 68.792937 50.991764 
L 69.355573 51.809525 
L 69.918209 48.349061 
L 70.480845 49.858292 
L 71.043482 49.558895 
L 71.606118 51.41276 
L 72.168754 49.328912 
L 72.73139 50.401823 
L 73.294026 48.561924 
L 73.856662 48.940871 
L 74.419298 50.182068 
L 74.981934 49.195719 
L 75.544571 47.523877 
L 76.107207 49.433656 
L 76.669843 48.018777 
L 77.232479 48.552445 
L 77.795115 48.699175 
L 78.357751 47.736236 
L 78.920387 47.700709 
L 79.483023 48.407802 
L 80.045659 47.618832 
L 80.608296 47.965888 
L 81.170932 47.564505 
L 81.733568 48.401868 
L 82.296204 48.103003 
L 82.85884 47.667271 
L 83.421476 48.487689 
L 83.984112 47.923894 
L 84.546748 47.684902 
L 85.109385 47.661625 
L 85.672021 48.178663 
L 86.234657 47.186022 
L 86.797293 46.217311 
L 87.359929 45.574464 
L 87.922565 47.322917 
L 88.485201 46.500221 
L 89.047837 46.921068 
L 89.610474 46.381746 
L 90.17311 46.39995 
L 90.735746 46.039475 
L 91.298382 46.199652 
" clip-path="url(#p3c98112b4f)" style="fill: none; stroke: #000000; stroke-width: 1.5; stroke-linecap: square"/>
   </g>
   <g id="line2d_8">
    <path d="M 40.661131 70.558125 
L 40.661131 15.118125 
" clip-path="url(#p3c98112b4f)" style="fill: none; stroke-dasharray: 1.85,0.8; stroke-dashoffset: 0; stroke: #000000; stroke-width: 0.5"/>
   </g>
   <g id="patch_3">
    <path d="M 33.403125 70.558125 
L 33.403125 15.118125 
" style="fill: none; stroke: #000000; stroke-width: 0.8; stroke-linejoin: miter; stroke-linecap: square"/>
   </g>
   <g id="patch_4">
    <path d="M 33.403125 70.558125 
L 94.055299 70.558125 
" style="fill: none; stroke: #000000; stroke-width: 0.8; stroke-linejoin: miter; stroke-linecap: square"/>
   </g>
   <g id="text_9">
    <text style="font: 12px 'sans-serif'; text-anchor: middle" x="63.729212" y="9.118125" transform="rotate(-0 63.729212 9.118125)">['Anterior-Medial']</text>
   </g>
  </g>
  <g id="axes_2">
   <g id="patch_5">
    <path d="M 106.185734 70.558125 
L 166.837908 70.558125 
L 166.837908 15.118125 
L 106.185734 15.118125 
z
" style="fill: #ffffff"/>
   </g>
   <g id="PolyCollection_2">
    <defs>
     <path id="mab71878b22" d="M 108.942651 -36.242031 
L 108.942651 -32.698881 
L 109.505287 -32.95468 
L 110.067923 -33.337398 
L 110.630559 -34.039288 
L 111.193195 -32.947308 
L 111.755831 -33.362406 
L 112.318467 -33.899938 
L 112.881104 -34.294659 
L 113.44374 -34.408293 
L 114.006376 -34.741677 
L 114.569012 -34.83969 
L 115.131648 -34.882331 
L 115.694284 -34.248263 
L 116.25692 -35.008969 
L 116.819556 -35.620659 
L 117.382193 -34.873956 
L 117.944829 -36.092514 
L 118.507465 -36.324722 
L 119.070101 -36.092042 
L 119.632737 -36.390666 
L 120.195373 -36.366402 
L 120.758009 -37.320329 
L 121.320645 -36.498898 
L 121.883281 -37.528527 
L 122.445918 -36.789959 
L 123.008554 -38.04454 
L 123.57119 -38.480793 
L 124.133826 -37.722202 
L 124.696462 -37.706308 
L 125.259098 -37.763529 
L 125.821734 -38.13617 
L 126.38437 -38.372157 
L 126.947007 -38.407281 
L 127.509643 -38.721426 
L 128.072279 -38.185305 
L 128.634915 -38.233132 
L 129.197551 -39.614415 
L 129.760187 -39.446119 
L 130.322823 -39.757298 
L 130.885459 -39.788065 
L 131.448096 -39.360554 
L 132.010732 -39.701712 
L 132.573368 -39.855854 
L 133.136004 -40.692465 
L 133.69864 -39.618103 
L 134.261276 -40.742482 
L 134.823912 -40.816698 
L 135.386548 -40.788977 
L 135.949185 -41.122621 
L 136.511821 -40.533157 
L 137.074457 -40.953455 
L 137.637093 -42.124591 
L 138.199729 -42.192247 
L 138.762365 -41.486781 
L 139.325001 -41.701729 
L 139.887637 -42.342807 
L 140.450274 -42.100676 
L 141.01291 -42.292985 
L 141.575546 -42.431434 
L 142.138182 -42.306708 
L 142.700818 -43.158899 
L 143.263454 -42.65235 
L 143.82609 -41.814758 
L 144.388726 -43.412976 
L 144.951362 -42.580762 
L 145.513999 -43.656186 
L 146.076635 -42.557378 
L 146.639271 -42.30086 
L 147.201907 -43.537045 
L 147.764543 -43.226987 
L 148.327179 -43.366624 
L 148.889815 -43.724778 
L 149.452451 -43.631121 
L 150.015088 -43.198087 
L 150.577724 -43.254202 
L 151.14036 -44.61235 
L 151.702996 -44.150676 
L 152.265632 -44.761622 
L 152.828268 -43.42809 
L 153.390904 -43.402926 
L 153.95354 -45.059163 
L 154.516177 -44.184023 
L 155.078813 -45.087739 
L 155.641449 -44.383002 
L 156.204085 -45.215721 
L 156.766721 -44.990276 
L 157.329357 -45.612857 
L 157.891993 -45.39403 
L 158.454629 -45.570284 
L 159.017266 -45.512927 
L 159.579902 -44.427381 
L 160.142538 -44.80859 
L 160.705174 -45.369334 
L 161.26781 -45.679068 
L 161.830446 -46.498541 
L 162.393082 -46.190657 
L 162.955718 -45.778427 
L 163.518354 -45.75658 
L 164.080991 -46.755182 
L 164.080991 -57.125792 
L 164.080991 -57.125792 
L 163.518354 -57.223756 
L 162.955718 -57.654701 
L 162.393082 -55.07424 
L 161.830446 -57.346575 
L 161.26781 -57.885086 
L 160.705174 -57.224668 
L 160.142538 -56.305522 
L 159.579902 -57.903407 
L 159.017266 -56.481802 
L 158.454629 -58.39685 
L 157.891993 -56.903526 
L 157.329357 -55.975076 
L 156.766721 -55.964543 
L 156.204085 -55.736175 
L 155.641449 -56.524349 
L 155.078813 -56.826073 
L 154.516177 -55.40006 
L 153.95354 -57.348776 
L 153.390904 -56.030895 
L 152.828268 -54.021099 
L 152.265632 -55.410028 
L 151.702996 -56.119359 
L 151.14036 -55.18906 
L 150.577724 -54.934546 
L 150.015088 -54.60132 
L 149.452451 -54.509196 
L 148.889815 -54.073247 
L 148.327179 -56.240002 
L 147.764543 -57.035132 
L 147.201907 -55.691582 
L 146.639271 -54.892245 
L 146.076635 -53.837894 
L 145.513999 -54.613956 
L 144.951362 -52.2665 
L 144.388726 -55.953766 
L 143.82609 -55.167607 
L 143.263454 -52.74719 
L 142.700818 -54.500462 
L 142.138182 -54.15296 
L 141.575546 -53.615118 
L 141.01291 -52.913922 
L 140.450274 -53.342395 
L 139.887637 -53.916835 
L 139.325001 -54.855296 
L 138.762365 -52.408964 
L 138.199729 -53.318438 
L 137.637093 -54.086457 
L 137.074457 -52.927365 
L 136.511821 -52.425982 
L 135.949185 -52.716679 
L 135.386548 -50.299248 
L 134.823912 -51.699549 
L 134.261276 -51.518564 
L 133.69864 -49.996227 
L 133.136004 -50.430977 
L 132.573368 -52.298771 
L 132.010732 -52.338019 
L 131.448096 -50.062949 
L 130.885459 -50.930344 
L 130.322823 -51.421357 
L 129.760187 -49.445463 
L 129.197551 -50.169652 
L 128.634915 -50.00129 
L 128.072279 -49.524434 
L 127.509643 -49.073382 
L 126.947007 -49.455047 
L 126.38437 -51.535856 
L 125.821734 -48.907303 
L 125.259098 -49.67908 
L 124.696462 -48.172602 
L 124.133826 -48.351239 
L 123.57119 -48.603216 
L 123.008554 -46.981569 
L 122.445918 -46.579868 
L 121.883281 -46.431779 
L 121.320645 -49.602511 
L 120.758009 -45.415481 
L 120.195373 -46.11488 
L 119.632737 -45.355676 
L 119.070101 -46.438185 
L 118.507465 -44.644462 
L 117.944829 -42.866001 
L 117.382193 -44.961194 
L 116.819556 -45.167542 
L 116.25692 -46.030432 
L 115.694284 -42.27857 
L 115.131648 -42.676841 
L 114.569012 -42.080936 
L 114.006376 -42.530053 
L 113.44374 -42.38879 
L 112.881104 -40.384238 
L 112.318467 -41.131257 
L 111.755831 -40.952866 
L 111.193195 -39.618651 
L 110.630559 -39.132727 
L 110.067923 -39.501642 
L 109.505287 -39.010722 
L 108.942651 -36.242031 
z
" style="stroke: #808080; stroke-opacity: 0.6"/>
    </defs>
    <g clip-path="url(#pb6d887c84e)">
     <use xlink:href="#mab71878b22" x="0" y="100.914375" style="fill: #808080; fill-opacity: 0.6; stroke: #808080; stroke-opacity: 0.6"/>
    </g>
   </g>
   <g id="matplotlib.axis_3">
    <g id="xtick_3">
     <g id="line2d_9">
      <g>
       <use xlink:href="#m5d2a4f7a73" x="108.380015" y="70.558125" style="stroke: #000000; stroke-width: 0.8"/>
      </g>
     </g>
     <g id="text_10">
      <text style="font: 10px 'sans-serif'; text-anchor: middle" x="108.380015" y="85.156563" transform="rotate(-0 108.380015 85.156563)">0</text>
     </g>
    </g>
    <g id="xtick_4">
     <g id="line2d_10">
      <g>
       <use xlink:href="#m5d2a4f7a73" x="164.643627" y="70.558125" style="stroke: #000000; stroke-width: 0.8"/>
      </g>
     </g>
     <g id="text_11">
      <text style="font: 10px 'sans-serif'; text-anchor: middle" x="164.643627" y="85.156563" transform="rotate(-0 164.643627 85.156563)">100</text>
     </g>
    </g>
    <g id="text_12">
     <text style="font: 10px 'sans-serif'; text-anchor: middle" x="136.511821" y="98.834688" transform="rotate(-0 136.511821 98.834688)"># neurons</text>
    </g>
   </g>
   <g id="matplotlib.axis_4"/>
   <g id="line2d_11">
    <path d="M 108.942651 66.443919 
L 109.505287 64.931674 
L 110.067923 64.494855 
L 110.630559 64.328367 
L 111.193195 64.631395 
L 111.755831 63.756739 
L 112.318467 63.398778 
L 112.881104 63.574927 
L 113.44374 62.515834 
L 114.006376 62.27851 
L 114.569012 62.454062 
L 115.131648 62.134789 
L 115.694284 62.650959 
L 116.25692 60.394674 
L 116.819556 60.520274 
L 117.382193 60.9968 
L 117.944829 61.435117 
L 118.507465 60.429783 
L 119.070101 59.649261 
L 119.632737 60.041204 
L 120.195373 59.673734 
L 120.758009 59.54647 
L 121.320645 57.863671 
L 121.883281 58.934222 
L 122.445918 59.229461 
L 123.008554 58.401321 
L 123.57119 57.37237 
L 124.133826 57.877654 
L 124.696462 57.97492 
L 125.259098 57.193071 
L 125.821734 57.392639 
L 126.38437 55.960369 
L 126.947007 56.983211 
L 127.509643 57.016971 
L 128.072279 57.059506 
L 128.634915 56.797164 
L 129.197551 56.022342 
L 129.760187 56.468584 
L 130.322823 55.325047 
L 130.885459 55.55517 
L 131.448096 56.202624 
L 132.010732 54.894509 
L 132.573368 54.837062 
L 133.136004 55.352654 
L 133.69864 56.10721 
L 134.261276 54.783852 
L 134.823912 54.656251 
L 135.386548 55.370263 
L 135.949185 53.994725 
L 136.511821 54.434805 
L 137.074457 53.973965 
L 137.637093 52.808851 
L 138.199729 53.159032 
L 138.762365 53.966502 
L 139.325001 52.635863 
L 139.887637 52.784554 
L 140.450274 53.19284 
L 141.01291 53.310922 
L 141.575546 52.891099 
L 142.138182 52.684541 
L 142.700818 52.084694 
L 143.263454 53.214605 
L 143.82609 52.423193 
L 144.388726 51.231004 
L 144.951362 53.490744 
L 145.513999 51.779304 
L 146.076635 52.716739 
L 146.639271 52.317823 
L 147.201907 51.300061 
L 147.764543 50.783316 
L 148.327179 51.111062 
L 148.889815 52.015362 
L 149.452451 51.844217 
L 150.015088 52.014672 
L 150.577724 51.820001 
L 151.14036 51.01367 
L 151.702996 50.779358 
L 152.265632 50.82855 
L 152.828268 52.18978 
L 153.390904 51.197464 
L 153.95354 49.710406 
L 154.516177 51.122334 
L 155.078813 49.957469 
L 155.641449 50.4607 
L 156.204085 50.438427 
L 156.766721 50.436966 
L 157.329357 50.120409 
L 157.891993 49.765597 
L 158.454629 48.930808 
L 159.017266 49.917011 
L 159.579902 49.748981 
L 160.142538 50.357319 
L 160.705174 49.617374 
L 161.26781 49.132298 
L 161.830446 48.991817 
L 162.393082 50.281926 
L 162.955718 49.197811 
L 163.518354 49.424207 
L 164.080991 48.973888 
" clip-path="url(#pb6d887c84e)" style="fill: none; stroke: #000000; stroke-width: 1.5; stroke-linecap: square"/>
   </g>
   <g id="line2d_12">
    <path d="M 117.944829 70.558125 
L 117.944829 15.118125 
" clip-path="url(#pb6d887c84e)" style="fill: none; stroke-dasharray: 1.85,0.8; stroke-dashoffset: 0; stroke: #000000; stroke-width: 0.5"/>
   </g>
   <g id="patch_6">
    <path d="M 106.185734 70.558125 
L 106.185734 15.118125 
" style="fill: none; stroke: #000000; stroke-width: 0.8; stroke-linejoin: miter; stroke-linecap: square"/>
   </g>
   <g id="patch_7">
    <path d="M 106.185734 70.558125 
L 166.837908 70.558125 
" style="fill: none; stroke: #000000; stroke-width: 0.8; stroke-linejoin: miter; stroke-linecap: square"/>
   </g>
   <g id="text_13">
    <text style="font: 12px 'sans-serif'; text-anchor: middle" x="136.511821" y="9.118125" transform="rotate(-0 136.511821 9.118125)">['Posterior-Medial']</text>
   </g>
  </g>
  <g id="axes_3">
   <g id="patch_8">
    <path d="M 178.968342 70.558125 
L 239.620516 70.558125 
L 239.620516 15.118125 
L 178.968342 15.118125 
z
" style="fill: #ffffff"/>
   </g>
   <g id="PolyCollection_3">
    <defs>
     <path id="m2f9a5f79b1" d="M 181.725259 -41.169763 
L 181.725259 -31.326202 
L 182.287896 -33.643386 
L 182.850532 -34.841474 
L 183.413168 -34.856391 
L 183.975804 -35.349713 
L 184.53844 -35.649066 
L 185.101076 -35.739915 
L 185.663712 -36.088578 
L 186.226348 -37.356524 
L 186.788984 -37.716363 
L 187.351621 -37.922268 
L 187.914257 -38.589748 
L 188.476893 -38.30411 
L 189.039529 -39.224254 
L 189.602165 -39.372297 
L 190.164801 -39.695409 
L 190.727437 -41.199949 
L 191.290073 -41.345866 
L 191.85271 -42.143321 
L 192.415346 -41.661198 
L 192.977982 -43.839507 
L 193.540618 -43.710418 
L 194.103254 -42.847228 
L 194.66589 -43.721118 
L 195.228526 -45.346977 
L 195.791162 -45.172596 
L 196.353799 -46.439012 
L 196.916435 -45.940142 
L 197.479071 -47.523767 
L 198.041707 -46.431869 
L 198.604343 -47.901879 
L 199.166979 -47.248841 
L 199.729615 -48.357831 
L 200.292251 -48.386491 
L 200.854888 -46.971427 
L 201.417524 -48.922385 
L 201.98016 -49.561151 
L 202.542796 -50.681388 
L 203.105432 -50.45543 
L 203.668068 -52.20377 
L 204.230704 -50.640423 
L 204.79334 -51.412637 
L 205.355976 -52.325646 
L 205.918613 -51.383427 
L 206.481249 -53.711185 
L 207.043885 -52.485924 
L 207.606521 -53.413168 
L 208.169157 -52.530651 
L 208.731793 -52.600366 
L 209.294429 -55.011763 
L 209.857065 -54.422743 
L 210.419702 -54.743052 
L 210.982338 -54.298619 
L 211.544974 -55.889655 
L 212.10761 -56.535446 
L 212.670246 -55.121899 
L 213.232882 -55.894108 
L 213.795518 -57.528959 
L 214.358154 -56.105674 
L 214.920791 -56.416173 
L 215.483427 -57.953251 
L 216.046063 -58.028081 
L 216.608699 -58.738639 
L 217.171335 -59.362414 
L 217.733971 -58.208551 
L 218.296607 -59.013297 
L 218.859243 -59.310566 
L 219.42188 -60.144471 
L 219.984516 -59.729392 
L 220.547152 -62.238422 
L 221.109788 -61.613212 
L 221.672424 -61.815461 
L 222.23506 -60.599436 
L 222.797696 -60.916529 
L 223.360332 -60.795189 
L 223.922969 -62.65912 
L 224.485605 -61.219223 
L 225.048241 -62.826967 
L 225.610877 -62.414182 
L 226.173513 -63.201666 
L 226.736149 -63.560103 
L 227.298785 -63.744756 
L 227.861421 -63.515133 
L 228.424057 -63.32623 
L 228.986694 -61.706653 
L 229.54933 -64.793313 
L 230.111966 -65.322506 
L 230.674602 -63.770504 
L 231.237238 -65.154906 
L 231.799874 -65.664772 
L 232.36251 -65.866575 
L 232.925146 -64.481757 
L 233.487783 -64.863657 
L 234.050419 -66.004438 
L 234.613055 -66.162432 
L 235.175691 -66.454173 
L 235.738327 -66.406378 
L 236.300963 -69.033717 
L 236.863599 -66.224073 
L 236.863599 -85.530517 
L 236.863599 -85.530517 
L 236.300963 -85.768045 
L 235.738327 -84.084761 
L 235.175691 -84.635562 
L 234.613055 -83.660279 
L 234.050419 -84.153094 
L 233.487783 -81.954335 
L 232.925146 -83.326607 
L 232.36251 -82.586451 
L 231.799874 -82.764431 
L 231.237238 -83.661436 
L 230.674602 -82.076474 
L 230.111966 -83.066774 
L 229.54933 -82.119409 
L 228.986694 -81.331827 
L 228.424057 -81.843548 
L 227.861421 -81.959424 
L 227.298785 -81.115452 
L 226.736149 -81.128796 
L 226.173513 -81.948239 
L 225.610877 -81.048865 
L 225.048241 -83.297418 
L 224.485605 -80.649989 
L 223.922969 -80.595306 
L 223.360332 -80.270037 
L 222.797696 -79.664344 
L 222.23506 -77.971568 
L 221.672424 -81.907653 
L 221.109788 -78.715199 
L 220.547152 -82.278492 
L 219.984516 -79.702603 
L 219.42188 -79.654434 
L 218.859243 -79.35369 
L 218.296607 -77.249035 
L 217.733971 -77.760287 
L 217.171335 -77.07554 
L 216.608699 -78.085084 
L 216.046063 -75.137889 
L 215.483427 -75.302071 
L 214.920791 -76.382795 
L 214.358154 -78.150177 
L 213.795518 -74.724553 
L 213.232882 -73.808184 
L 212.670246 -76.669251 
L 212.10761 -74.112854 
L 211.544974 -75.05054 
L 210.982338 -73.352465 
L 210.419702 -73.987567 
L 209.857065 -73.208413 
L 209.294429 -74.622768 
L 208.731793 -72.036026 
L 208.169157 -74.972987 
L 207.606521 -73.343916 
L 207.043885 -71.701508 
L 206.481249 -71.986228 
L 205.918613 -70.011277 
L 205.355976 -69.459831 
L 204.79334 -71.049119 
L 204.230704 -69.278679 
L 203.668068 -70.50877 
L 203.105432 -69.067829 
L 202.542796 -68.770711 
L 201.98016 -70.180624 
L 201.417524 -66.617418 
L 200.854888 -68.115338 
L 200.292251 -67.451189 
L 199.729615 -67.062923 
L 199.166979 -67.422847 
L 198.604343 -65.976939 
L 198.041707 -65.530233 
L 197.479071 -64.271297 
L 196.916435 -63.581285 
L 196.353799 -64.195358 
L 195.791162 -63.065038 
L 195.228526 -63.786831 
L 194.66589 -61.68832 
L 194.103254 -61.758868 
L 193.540618 -58.841697 
L 192.977982 -58.938085 
L 192.415346 -55.822971 
L 191.85271 -55.909793 
L 191.290073 -57.225232 
L 190.727437 -56.972706 
L 190.164801 -54.510125 
L 189.602165 -56.502599 
L 189.039529 -53.667662 
L 188.476893 -52.796847 
L 187.914257 -53.448402 
L 187.351621 -51.563803 
L 186.788984 -51.910982 
L 186.226348 -46.294106 
L 185.663712 -46.831209 
L 185.101076 -47.385569 
L 184.53844 -45.116366 
L 183.975804 -43.645429 
L 183.413168 -42.924659 
L 182.850532 -41.625345 
L 182.287896 -40.857964 
L 181.725259 -41.169763 
z
" style="stroke: #808080; stroke-opacity: 0.6"/>
    </defs>
    <g clip-path="url(#p9d53a03155)">
     <use xlink:href="#m2f9a5f79b1" x="0" y="100.914375" style="fill: #808080; fill-opacity: 0.6; stroke: #808080; stroke-opacity: 0.6"/>
    </g>
   </g>
   <g id="matplotlib.axis_5">
    <g id="xtick_5">
     <g id="line2d_13">
      <g>
       <use xlink:href="#m5d2a4f7a73" x="181.162623" y="70.558125" style="stroke: #000000; stroke-width: 0.8"/>
      </g>
     </g>
     <g id="text_14">
      <text style="font: 10px 'sans-serif'; text-anchor: middle" x="181.162623" y="85.156563" transform="rotate(-0 181.162623 85.156563)">0</text>
     </g>
    </g>
    <g id="xtick_6">
     <g id="line2d_14">
      <g>
       <use xlink:href="#m5d2a4f7a73" x="237.426235" y="70.558125" style="stroke: #000000; stroke-width: 0.8"/>
      </g>
     </g>
     <g id="text_15">
      <text style="font: 10px 'sans-serif'; text-anchor: middle" x="237.426235" y="85.156563" transform="rotate(-0 237.426235 85.156563)">100</text>
     </g>
    </g>
    <g id="text_16">
     <text style="font: 10px 'sans-serif'; text-anchor: middle" x="209.294429" y="98.834688" transform="rotate(-0 209.294429 98.834688)"># neurons</text>
    </g>
   </g>
   <g id="matplotlib.axis_6"/>
   <g id="line2d_15">
    <path d="M 181.725259 64.666392 
L 182.287896 63.6637 
L 182.850532 62.680966 
L 183.413168 62.02385 
L 183.975804 61.416804 
L 184.53844 60.531659 
L 185.101076 59.351633 
L 185.663712 59.454481 
L 186.226348 59.08906 
L 186.788984 56.100702 
L 187.351621 56.171339 
L 187.914257 54.8953 
L 188.476893 55.363897 
L 189.039529 54.468417 
L 189.602165 52.976927 
L 190.164801 53.811608 
L 190.727437 51.828048 
L 191.290073 51.628826 
L 191.85271 51.887818 
L 192.415346 52.17229 
L 192.977982 49.525579 
L 193.540618 49.638318 
L 194.103254 48.611327 
L 194.66589 48.209656 
L 195.228526 46.347471 
L 195.791162 46.795558 
L 196.353799 45.59719 
L 196.916435 46.153661 
L 197.479071 45.016843 
L 198.041707 44.933324 
L 198.604343 43.974966 
L 199.166979 43.578531 
L 199.729615 43.203998 
L 200.292251 42.995535 
L 200.854888 43.370993 
L 201.417524 43.144474 
L 201.98016 41.043488 
L 202.542796 41.188325 
L 203.105432 41.152746 
L 203.668068 39.558105 
L 204.230704 40.954824 
L 204.79334 39.683497 
L 205.355976 40.021637 
L 205.918613 40.217023 
L 206.481249 38.065668 
L 207.043885 38.820659 
L 207.606521 37.535833 
L 208.169157 37.162556 
L 208.731793 38.596179 
L 209.294429 36.09711 
L 209.857065 37.098797 
L 210.419702 36.549066 
L 210.982338 37.088833 
L 211.544974 35.444277 
L 212.10761 35.590225 
L 212.670246 35.0188 
L 213.232882 36.063229 
L 213.795518 34.787619 
L 214.358154 33.78645 
L 214.920791 34.514891 
L 215.483427 34.286714 
L 216.046063 34.33139 
L 216.608699 32.502513 
L 217.171335 32.695398 
L 217.733971 32.929956 
L 218.296607 32.783209 
L 218.859243 31.582247 
L 219.42188 31.014922 
L 219.984516 31.198377 
L 220.547152 28.655918 
L 221.109788 30.750169 
L 221.672424 29.052818 
L 222.23506 31.628873 
L 222.797696 30.623939 
L 223.360332 30.381762 
L 223.922969 29.287162 
L 224.485605 29.979769 
L 225.048241 27.852182 
L 225.610877 29.182851 
L 226.173513 28.339423 
L 226.736149 28.569925 
L 227.298785 28.484271 
L 227.861421 28.177096 
L 228.424057 28.329486 
L 228.986694 29.395135 
L 229.54933 27.458014 
L 230.111966 26.719735 
L 230.674602 27.990886 
L 231.237238 26.506204 
L 231.799874 26.699773 
L 232.36251 26.687862 
L 232.925146 27.010193 
L 233.487783 27.505379 
L 234.050419 25.835609 
L 234.613055 26.003019 
L 235.175691 25.369507 
L 235.738327 25.668806 
L 236.300963 23.513494 
L 236.863599 25.03708 
" clip-path="url(#p9d53a03155)" style="fill: none; stroke: #000000; stroke-width: 1.5; stroke-linecap: square"/>
   </g>
   <g id="line2d_16">
    <path d="M 184.53844 70.558125 
L 184.53844 15.118125 
" clip-path="url(#p9d53a03155)" style="fill: none; stroke-dasharray: 1.85,0.8; stroke-dashoffset: 0; stroke: #000000; stroke-width: 0.5"/>
   </g>
   <g id="patch_9">
    <path d="M 178.968342 70.558125 
L 178.968342 15.118125 
" style="fill: none; stroke: #000000; stroke-width: 0.8; stroke-linejoin: miter; stroke-linecap: square"/>
   </g>
   <g id="patch_10">
    <path d="M 178.968342 70.558125 
L 239.620516 70.558125 
" style="fill: none; stroke: #000000; stroke-width: 0.8; stroke-linejoin: miter; stroke-linecap: square"/>
   </g>
   <g id="text_17">
    <text style="font: 12px 'sans-serif'; text-anchor: middle" x="209.294429" y="9.118125" transform="rotate(-0 209.294429 9.118125)">['Anterio-Lateral']</text>
   </g>
  </g>
  <g id="axes_4">
   <g id="patch_11">
    <path d="M 251.750951 70.558125 
L 312.403125 70.558125 
L 312.403125 15.118125 
L 251.750951 15.118125 
z
" style="fill: #ffffff"/>
   </g>
   <g id="PolyCollection_4">
    <defs>
     <path id="m45ec1e5b1e" d="M 254.507868 -38.528997 
L 254.507868 -31.967418 
L 255.070504 -31.757885 
L 255.63314 -33.925889 
L 256.195776 -33.935422 
L 256.758413 -34.475653 
L 257.321049 -34.789943 
L 257.883685 -34.915583 
L 258.446321 -34.925848 
L 259.008957 -35.276804 
L 259.571593 -35.864689 
L 260.134229 -35.105212 
L 260.696865 -35.941808 
L 261.259502 -36.852936 
L 261.822138 -36.718639 
L 262.384774 -36.625986 
L 262.94741 -37.372078 
L 263.510046 -37.38136 
L 264.072682 -37.314559 
L 264.635318 -37.4569 
L 265.197954 -38.046156 
L 265.760591 -37.826091 
L 266.323227 -38.104548 
L 266.885863 -38.986047 
L 267.448499 -38.191511 
L 268.011135 -39.375424 
L 268.573771 -38.339814 
L 269.136407 -39.745573 
L 269.699043 -39.397477 
L 270.261679 -39.598444 
L 270.824316 -40.22369 
L 271.386952 -40.247 
L 271.949588 -40.830353 
L 272.512224 -39.627428 
L 273.07486 -40.863389 
L 273.637496 -40.277554 
L 274.200132 -41.137144 
L 274.762768 -41.221668 
L 275.325405 -41.01494 
L 275.888041 -41.365664 
L 276.450677 -41.973757 
L 277.013313 -40.942478 
L 277.575949 -41.807676 
L 278.138585 -41.399505 
L 278.701221 -41.944938 
L 279.263857 -41.422843 
L 279.826494 -41.626509 
L 280.38913 -41.914521 
L 280.951766 -41.355381 
L 281.514402 -42.415377 
L 282.077038 -42.603705 
L 282.639674 -42.367803 
L 283.20231 -42.361055 
L 283.764946 -43.565545 
L 284.327583 -42.206569 
L 284.890219 -43.558015 
L 285.452855 -43.008581 
L 286.015491 -43.414858 
L 286.578127 -43.846063 
L 287.140763 -44.328908 
L 287.703399 -43.717817 
L 288.266035 -44.156065 
L 288.828672 -43.42562 
L 289.391308 -44.031824 
L 289.953944 -44.1099 
L 290.51658 -44.588181 
L 291.079216 -45.153114 
L 291.641852 -44.292945 
L 292.204488 -44.188688 
L 292.767124 -45.944816 
L 293.32976 -43.754126 
L 293.892397 -45.113395 
L 294.455033 -43.939773 
L 295.017669 -45.446004 
L 295.580305 -45.079192 
L 296.142941 -44.855536 
L 296.705577 -44.980602 
L 297.268213 -45.034676 
L 297.830849 -44.597678 
L 298.393486 -44.934844 
L 298.956122 -44.996211 
L 299.518758 -45.64929 
L 300.081394 -46.241042 
L 300.64403 -46.290948 
L 301.206666 -45.789163 
L 301.769302 -45.246568 
L 302.331938 -46.302436 
L 302.894575 -46.681409 
L 303.457211 -47.420628 
L 304.019847 -47.114108 
L 304.582483 -47.148895 
L 305.145119 -46.946859 
L 305.707755 -46.969701 
L 306.270391 -46.886706 
L 306.833027 -47.188656 
L 307.395664 -46.45759 
L 307.9583 -46.425772 
L 308.520936 -47.114367 
L 309.083572 -47.006102 
L 309.646208 -47.378696 
L 309.646208 -58.301831 
L 309.646208 -58.301831 
L 309.083572 -58.784147 
L 308.520936 -59.099419 
L 307.9583 -59.292166 
L 307.395664 -58.278391 
L 306.833027 -59.02611 
L 306.270391 -58.104922 
L 305.707755 -59.330118 
L 305.145119 -57.161453 
L 304.582483 -58.166032 
L 304.019847 -60.582637 
L 303.457211 -59.158815 
L 302.894575 -56.639421 
L 302.331938 -57.46772 
L 301.769302 -57.064825 
L 301.206666 -57.189483 
L 300.64403 -57.574673 
L 300.081394 -57.640067 
L 299.518758 -58.11107 
L 298.956122 -57.315151 
L 298.393486 -56.790334 
L 297.830849 -57.268762 
L 297.268213 -57.030537 
L 296.705577 -57.976693 
L 296.142941 -58.472748 
L 295.580305 -55.919618 
L 295.017669 -56.7106 
L 294.455033 -57.067682 
L 293.892397 -56.330104 
L 293.32976 -54.876387 
L 292.767124 -55.882232 
L 292.204488 -56.401103 
L 291.641852 -56.095636 
L 291.079216 -56.488196 
L 290.51658 -55.490357 
L 289.953944 -55.665683 
L 289.391308 -55.319414 
L 288.828672 -56.128585 
L 288.266035 -56.213858 
L 287.703399 -54.739328 
L 287.140763 -53.902104 
L 286.578127 -55.881181 
L 286.015491 -55.401726 
L 285.452855 -53.874491 
L 284.890219 -52.804094 
L 284.327583 -54.077816 
L 283.764946 -55.254979 
L 283.20231 -53.596144 
L 282.639674 -52.907423 
L 282.077038 -54.370219 
L 281.514402 -53.109397 
L 280.951766 -52.714228 
L 280.38913 -52.075341 
L 279.826494 -52.871329 
L 279.263857 -52.066596 
L 278.701221 -53.929869 
L 278.138585 -52.927531 
L 277.575949 -52.522895 
L 277.013313 -52.694171 
L 276.450677 -51.45334 
L 275.888041 -50.213261 
L 275.325405 -51.91563 
L 274.762768 -50.741222 
L 274.200132 -52.279529 
L 273.637496 -50.545054 
L 273.07486 -51.549157 
L 272.512224 -49.673158 
L 271.949588 -51.370875 
L 271.386952 -51.088148 
L 270.824316 -50.269442 
L 270.261679 -49.854582 
L 269.699043 -48.367739 
L 269.136407 -47.055563 
L 268.573771 -47.61583 
L 268.011135 -48.394228 
L 267.448499 -46.960237 
L 266.885863 -48.619279 
L 266.323227 -48.614752 
L 265.760591 -45.813981 
L 265.197954 -45.399925 
L 264.635318 -45.204441 
L 264.072682 -46.279434 
L 263.510046 -44.649792 
L 262.94741 -45.334462 
L 262.384774 -44.779651 
L 261.822138 -45.22151 
L 261.259502 -44.216887 
L 260.696865 -43.10922 
L 260.134229 -43.934439 
L 259.571593 -42.912658 
L 259.008957 -43.566118 
L 258.446321 -42.655463 
L 257.883685 -41.670939 
L 257.321049 -39.2927 
L 256.758413 -39.96363 
L 256.195776 -40.121994 
L 255.63314 -39.627183 
L 255.070504 -40.425982 
L 254.507868 -38.528997 
z
" style="stroke: #808080; stroke-opacity: 0.6"/>
    </defs>
    <g clip-path="url(#p0dea56e09e)">
     <use xlink:href="#m45ec1e5b1e" x="0" y="100.914375" style="fill: #808080; fill-opacity: 0.6; stroke: #808080; stroke-opacity: 0.6"/>
    </g>
   </g>
   <g id="matplotlib.axis_7">
    <g id="xtick_7">
     <g id="line2d_17">
      <g>
       <use xlink:href="#m5d2a4f7a73" x="253.945232" y="70.558125" style="stroke: #000000; stroke-width: 0.8"/>
      </g>
     </g>
     <g id="text_18">
      <text style="font: 10px 'sans-serif'; text-anchor: middle" x="253.945232" y="85.156563" transform="rotate(-0 253.945232 85.156563)">0</text>
     </g>
    </g>
    <g id="xtick_8">
     <g id="line2d_18">
      <g>
       <use xlink:href="#m5d2a4f7a73" x="310.208844" y="70.558125" style="stroke: #000000; stroke-width: 0.8"/>
      </g>
     </g>
     <g id="text_19">
      <text style="font: 10px 'sans-serif'; text-anchor: middle" x="310.208844" y="85.156563" transform="rotate(-0 310.208844 85.156563)">100</text>
     </g>
    </g>
    <g id="text_20">
     <text style="font: 10px 'sans-serif'; text-anchor: middle" x="282.077038" y="98.834688" transform="rotate(-0 282.077038 98.834688)"># neurons</text>
    </g>
   </g>
   <g id="matplotlib.axis_8"/>
   <g id="line2d_19">
    <path d="M 254.507868 65.666167 
L 255.070504 64.822441 
L 255.63314 64.137839 
L 256.195776 63.885667 
L 256.758413 63.694734 
L 257.321049 63.873053 
L 257.883685 62.621114 
L 258.446321 62.12372 
L 259.008957 61.492914 
L 259.571593 61.525702 
L 260.134229 61.39455 
L 260.696865 61.388861 
L 261.259502 60.379463 
L 261.822138 59.9443 
L 262.384774 60.211556 
L 262.94741 59.561105 
L 263.510046 59.898799 
L 264.072682 59.117378 
L 264.635318 59.583705 
L 265.197954 59.191334 
L 265.760591 59.094339 
L 266.323227 57.554725 
L 266.885863 57.111712 
L 267.448499 58.338501 
L 268.011135 57.029549 
L 268.573771 57.936553 
L 269.136407 57.513807 
L 269.699043 57.031767 
L 270.261679 56.187862 
L 270.824316 55.667809 
L 271.386952 55.246801 
L 271.949588 54.813761 
L 272.512224 56.264082 
L 273.07486 54.708102 
L 273.637496 55.503071 
L 274.200132 54.206038 
L 274.762768 54.93293 
L 275.325405 54.44909 
L 275.888041 55.124913 
L 276.450677 54.200827 
L 277.013313 54.09605 
L 277.575949 53.74909 
L 278.138585 53.750857 
L 278.701221 52.976972 
L 279.263857 54.169656 
L 279.826494 53.665456 
L 280.38913 53.919444 
L 280.951766 53.87957 
L 281.514402 53.151988 
L 282.077038 52.427413 
L 282.639674 53.276762 
L 283.20231 52.935776 
L 283.764946 51.504113 
L 284.327583 52.772183 
L 284.890219 52.733321 
L 285.452855 52.472839 
L 286.015491 51.506083 
L 286.578127 51.050753 
L 287.140763 51.798869 
L 287.703399 51.685802 
L 288.266035 50.729414 
L 288.828672 51.137272 
L 289.391308 51.238756 
L 289.953944 51.026584 
L 290.51658 50.875106 
L 291.079216 50.09372 
L 291.641852 50.720084 
L 292.204488 50.61948 
L 292.767124 50.000851 
L 293.32976 51.599118 
L 293.892397 50.192625 
L 294.455033 50.410647 
L 295.017669 49.836073 
L 295.580305 50.41497 
L 296.142941 49.250233 
L 296.705577 49.435727 
L 297.268213 49.881769 
L 297.830849 49.981155 
L 298.393486 50.051786 
L 298.956122 49.758694 
L 299.518758 49.034195 
L 300.081394 48.973821 
L 300.64403 48.981564 
L 301.206666 49.425052 
L 301.769302 49.758678 
L 302.331938 49.029297 
L 302.894575 49.25396 
L 303.457211 47.624653 
L 304.019847 47.066003 
L 304.582483 48.256912 
L 305.145119 48.860219 
L 305.707755 47.764466 
L 306.270391 48.418561 
L 306.833027 47.806992 
L 307.395664 48.546385 
L 307.9583 48.055406 
L 308.520936 47.807482 
L 309.083572 48.019251 
L 309.646208 48.074111 
" clip-path="url(#p0dea56e09e)" style="fill: none; stroke: #000000; stroke-width: 1.5; stroke-linecap: square"/>
   </g>
   <g id="line2d_20">
    <path d="M 261.259502 70.558125 
L 261.259502 15.118125 
" clip-path="url(#p0dea56e09e)" style="fill: none; stroke-dasharray: 1.85,0.8; stroke-dashoffset: 0; stroke: #000000; stroke-width: 0.5"/>
   </g>
   <g id="patch_12">
    <path d="M 251.750951 70.558125 
L 251.750951 15.118125 
" style="fill: none; stroke: #000000; stroke-width: 0.8; stroke-linejoin: miter; stroke-linecap: square"/>
   </g>
   <g id="patch_13">
    <path d="M 251.750951 70.558125 
L 312.403125 70.558125 
" style="fill: none; stroke: #000000; stroke-width: 0.8; stroke-linejoin: miter; stroke-linecap: square"/>
   </g>
   <g id="text_21">
    <text style="font: 12px 'sans-serif'; text-anchor: middle" x="282.077038" y="9.118125" transform="rotate(-0 282.077038 9.118125)">['Posterior-Lateral']</text>
   </g>
  </g>
 </g>
 <defs>
  <clipPath id="p3c98112b4f">
   <rect x="33.403125" y="15.118125" width="60.652174" height="55.44"/>
  </clipPath>
  <clipPath id="pb6d887c84e">
   <rect x="106.185734" y="15.118125" width="60.652174" height="55.44"/>
  </clipPath>
  <clipPath id="p9d53a03155">
   <rect x="178.968342" y="15.118125" width="60.652174" height="55.44"/>
  </clipPath>
  <clipPath id="p0dea56e09e">
   <rect x="251.750951" y="15.118125" width="60.652174" height="55.44"/>
  </clipPath>
 </defs>
</svg>
