<?xml version="1.0" encoding="utf-8" standalone="no"?>
<!DOCTYPE svg PUBLIC "-//W3C//DTD SVG 1.1//EN"
  "http://www.w3.org/Graphics/SVG/1.1/DTD/svg11.dtd">
<svg xmlns:xlink="http://www.w3.org/1999/xlink" width="133.365625pt" height="139.074375pt" viewBox="0 0 133.365625 139.074375" xmlns="http://www.w3.org/2000/svg" version="1.1">
 <metadata>
  <rdf:RDF xmlns:dc="http://purl.org/dc/elements/1.1/" xmlns:cc="http://creativecommons.org/ns#" xmlns:rdf="http://www.w3.org/1999/02/22-rdf-syntax-ns#">
   <cc:Work>
    <dc:type rdf:resource="http://purl.org/dc/dcmitype/StillImage"/>
    <dc:date>2025-05-13T14:36:13.571019</dc:date>
    <dc:format>image/svg+xml</dc:format>
    <dc:creator>
     <cc:Agent>
      <dc:title>Matplotlib v3.6.0, https://matplotlib.org/</dc:title>
     </cc:Agent>
    </dc:creator>
   </cc:Work>
  </rdf:RDF>
 </metadata>
 <defs>
  <style type="text/css">*{stroke-linejoin: round; stroke-linecap: butt}</style>
 </defs>
 <g id="figure_1">
  <g id="patch_1">
   <path d="M -0 139.074375 
L 133.365625 139.074375 
L 133.365625 0 
L -0 0 
z
" style="fill: #ffffff"/>
  </g>
  <g id="axes_1">
   <g id="patch_2">
    <path d="M 39.765625 108.718125 
L 133.365625 108.718125 
L 133.365625 15.118125 
L 39.765625 15.118125 
z
" style="fill: #ffffff"/>
   </g>
   <g id="PolyCollection_1">
    <defs>
     <path id="m950fb51f72" d="M 44.02017 -67.738197 
L 44.02017 -49.009581 
L 47.887939 -78.396494 
L 51.755708 -111.501691 
L 55.623476 -99.866897 
L 59.491245 -109.233384 
L 63.359013 -109.219652 
L 67.226782 -105.732596 
L 71.094551 -109.230332 
L 74.962319 -109.228753 
L 78.830088 -123.029517 
L 82.697856 -113.630297 
L 86.565625 -102.927341 
L 90.433394 -109.303021 
L 94.301162 -113.678921 
L 98.168931 -113.693719 
L 102.036699 -113.65778 
L 105.904468 -109.888515 
L 109.772237 -123.029517 
L 113.640005 -123.029517 
L 117.507774 -113.977007 
L 121.375542 -123.029517 
L 125.243311 -123.029517 
L 129.11108 -114.228583 
L 129.11108 -123.029517 
L 129.11108 -123.029517 
L 125.243311 -123.029517 
L 121.375542 -123.029517 
L 117.507774 -123.029517 
L 113.640005 -123.029517 
L 109.772237 -123.029517 
L 105.904468 -123.029517 
L 102.036699 -123.029517 
L 98.168931 -123.029517 
L 94.301162 -123.029517 
L 90.433394 -123.029517 
L 86.565625 -123.029517 
L 82.697856 -123.029517 
L 78.830088 -123.029517 
L 74.962319 -123.029517 
L 71.094551 -123.029517 
L 67.226782 -123.029517 
L 63.359013 -123.029517 
L 59.491245 -123.029517 
L 55.623476 -123.029517 
L 51.755708 -123.029517 
L 47.887939 -123.029517 
L 44.02017 -67.738197 
z
" style="stroke: #0000ff; stroke-opacity: 0.3"/>
    </defs>
    <g clip-path="url(#p5f0b3d7ca4)">
     <use xlink:href="#m950fb51f72" x="0" y="139.074375" style="fill: #0000ff; fill-opacity: 0.3; stroke: #0000ff; stroke-opacity: 0.3"/>
    </g>
   </g>
   <g id="PolyCollection_2">
    <defs>
     <path id="mf48d956354" d="M 44.02017 -39.040223 
L 44.02017 -34.780911 
L 47.887939 -37.102384 
L 51.755708 -39.770573 
L 55.623476 -39.327257 
L 59.491245 -40.452972 
L 63.359013 -40.786402 
L 67.226782 -40.605588 
L 71.094551 -41.219836 
L 74.962319 -41.32506 
L 78.830088 -42.42784 
L 82.697856 -42.360621 
L 86.565625 -42.042163 
L 90.433394 -43.151378 
L 94.301162 -44.209654 
L 98.168931 -44.765683 
L 102.036699 -45.730383 
L 105.904468 -46.272855 
L 109.772237 -47.95944 
L 113.640005 -48.74709 
L 117.507774 -49.359938 
L 121.375542 -50.553102 
L 125.243311 -51.215738 
L 129.11108 -51.29485 
L 129.11108 -69.743313 
L 129.11108 -69.743313 
L 125.243311 -68.948207 
L 121.375542 -68.27326 
L 117.507774 -67.523374 
L 113.640005 -66.21943 
L 109.772237 -65.272545 
L 105.904468 -64.259248 
L 102.036699 -62.942077 
L 98.168931 -61.140481 
L 94.301162 -60.026846 
L 90.433394 -58.562865 
L 86.565625 -57.361426 
L 82.697856 -55.878374 
L 78.830088 -54.859709 
L 74.962319 -54.112113 
L 71.094551 -52.986328 
L 67.226782 -52.012774 
L 63.359013 -50.908316 
L 59.491245 -49.98139 
L 55.623476 -49.244371 
L 51.755708 -47.301293 
L 47.887939 -44.107898 
L 44.02017 -39.040223 
z
" style="stroke: #000000; stroke-opacity: 0.3"/>
    </defs>
    <g clip-path="url(#p5f0b3d7ca4)">
     <use xlink:href="#mf48d956354" x="0" y="139.074375" style="fill-opacity: 0.3; stroke: #000000; stroke-opacity: 0.3"/>
    </g>
   </g>
   <g id="matplotlib.axis_1">
    <g id="xtick_1">
     <g id="line2d_1">
      <defs>
       <path id="m39c756d5d4" d="M 0 0 
L 0 3.5 
" style="stroke: #000000; stroke-width: 0.8"/>
      </defs>
      <g>
       <use xlink:href="#m39c756d5d4" x="40.152402" y="108.718125" style="stroke: #000000; stroke-width: 0.8"/>
      </g>
     </g>
     <g id="text_1">
      <text style="font: 10px 'sans-serif'; text-anchor: middle" x="40.152402" y="123.316563" transform="rotate(-0 40.152402 123.316563)">0</text>
     </g>
    </g>
    <g id="xtick_2">
     <g id="line2d_2">
      <g>
       <use xlink:href="#m39c756d5d4" x="78.830088" y="108.718125" style="stroke: #000000; stroke-width: 0.8"/>
      </g>
     </g>
     <g id="text_2">
      <text style="font: 10px 'sans-serif'; text-anchor: middle" x="78.830088" y="123.316563" transform="rotate(-0 78.830088 123.316563)">10</text>
     </g>
    </g>
    <g id="xtick_3">
     <g id="line2d_3">
      <g>
       <use xlink:href="#m39c756d5d4" x="117.507774" y="108.718125" style="stroke: #000000; stroke-width: 0.8"/>
      </g>
     </g>
     <g id="text_3">
      <text style="font: 10px 'sans-serif'; text-anchor: middle" x="117.507774" y="123.316563" transform="rotate(-0 117.507774 123.316563)">20</text>
     </g>
    </g>
    <g id="text_4">
     <text style="font: 10px 'sans-serif'; text-anchor: middle" x="86.565625" y="136.994687" transform="rotate(-0 86.565625 136.994687)"># PCs</text>
    </g>
   </g>
   <g id="matplotlib.axis_2">
    <g id="ytick_1">
     <g id="line2d_4">
      <defs>
       <path id="m81c4864fd7" d="M 0 0 
L -3.5 0 
" style="stroke: #000000; stroke-width: 0.8"/>
      </defs>
      <g>
       <use xlink:href="#m81c4864fd7" x="39.765625" y="108.718125" style="stroke: #000000; stroke-width: 0.8"/>
      </g>
     </g>
     <g id="text_5">
      <text style="font: 10px 'sans-serif'; text-anchor: end" x="32.765625" y="112.517344" transform="rotate(-0 32.765625 112.517344)">0</text>
     </g>
    </g>
    <g id="ytick_2">
     <g id="line2d_5">
      <g>
       <use xlink:href="#m81c4864fd7" x="39.765625" y="62.381491" style="stroke: #000000; stroke-width: 0.8"/>
      </g>
     </g>
     <g id="text_6">
      <text style="font: 10px 'sans-serif'; text-anchor: end" x="32.765625" y="66.18071" transform="rotate(-0 32.765625 66.18071)">50</text>
     </g>
    </g>
    <g id="ytick_3">
     <g id="line2d_6">
      <g>
       <use xlink:href="#m81c4864fd7" x="39.765625" y="16.044858" style="stroke: #000000; stroke-width: 0.8"/>
      </g>
     </g>
     <g id="text_7">
      <text style="font: 10px 'sans-serif'; text-anchor: end" x="32.765625" y="19.844076" transform="rotate(-0 32.765625 19.844076)">100</text>
     </g>
    </g>
    <g id="text_8">
     <text style="font: 10px 'sans-serif'; text-anchor: middle" x="7.598438" y="61.918125" transform="rotate(-90 7.598438 61.918125)">Decoding accuracy (%)</text>
    </g>
   </g>
   <g id="line2d_7">
    <path d="M 44.02017 80.700486 
L 47.887939 38.190679 
L 51.755708 18.889155 
L 55.623476 20.447224 
L 59.491245 17.769546 
L 63.359013 17.77109 
L 67.226782 18.631793 
L 71.094551 17.769739 
L 74.962319 17.769932 
L 78.830088 16.044858 
L 82.697856 16.903244 
L 86.565625 19.452531 
L 90.433394 17.760665 
L 94.301162 16.898803 
L 98.168931 16.897452 
L 102.036699 16.900734 
L 105.904468 17.687298 
L 109.772237 16.044858 
L 113.640005 16.044858 
L 117.507774 16.87158 
L 121.375542 16.044858 
L 125.243311 16.044858 
L 129.11108 16.848605 
" clip-path="url(#p5f0b3d7ca4)" style="fill: none; stroke: #0000ff; stroke-width: 1.5; stroke-linecap: square"/>
   </g>
   <g id="line2d_8">
    <path d="M 44.02017 102.163808 
L 47.887939 98.469234 
L 51.755708 95.538442 
L 55.623476 94.788561 
L 59.491245 93.857194 
L 63.359013 93.227016 
L 67.226782 92.765194 
L 71.094551 91.971293 
L 74.962319 91.355788 
L 78.830088 90.4306 
L 82.697856 89.954877 
L 86.565625 89.37258 
L 90.433394 88.217254 
L 94.301162 86.956125 
L 98.168931 86.121293 
L 102.036699 84.738145 
L 105.904468 83.808323 
L 109.772237 82.458382 
L 113.640005 81.591115 
L 117.507774 80.632719 
L 121.375542 79.661194 
L 125.243311 78.992402 
L 129.11108 78.555293 
" clip-path="url(#p5f0b3d7ca4)" style="fill: none; stroke: #000000; stroke-width: 1.5; stroke-linecap: square"/>
   </g>
   <g id="patch_3">
    <path d="M 39.765625 108.718125 
L 39.765625 15.118125 
" style="fill: none; stroke: #000000; stroke-width: 0.8; stroke-linejoin: miter; stroke-linecap: square"/>
   </g>
   <g id="patch_4">
    <path d="M 39.765625 108.718125 
L 133.365625 108.718125 
" style="fill: none; stroke: #000000; stroke-width: 0.8; stroke-linejoin: miter; stroke-linecap: square"/>
   </g>
   <g id="text_9">
    <text style="font: 12px 'sans-serif'; text-anchor: middle" x="86.565625" y="9.118125" transform="rotate(-0 86.565625 9.118125)"># 25 neurons</text>
   </g>
  </g>
 </g>
 <defs>
  <clipPath id="p5f0b3d7ca4">
   <rect x="39.765625" y="15.118125" width="93.6" height="93.6"/>
  </clipPath>
 </defs>
</svg>
