<?xml version="1.0" encoding="utf-8" standalone="no"?>
<!DOCTYPE svg PUBLIC "-//W3C//DTD SVG 1.1//EN"
  "http://www.w3.org/Graphics/SVG/1.1/DTD/svg11.dtd">
<svg xmlns:xlink="http://www.w3.org/1999/xlink" width="207.59405pt" height="211.794375pt" viewBox="0 0 207.59405 211.794375" xmlns="http://www.w3.org/2000/svg" version="1.1">
 <metadata>
  <rdf:RDF xmlns:dc="http://purl.org/dc/elements/1.1/" xmlns:cc="http://creativecommons.org/ns#" xmlns:rdf="http://www.w3.org/1999/02/22-rdf-syntax-ns#">
   <cc:Work>
    <dc:type rdf:resource="http://purl.org/dc/dcmitype/StillImage"/>
    <dc:date>2025-05-02T17:08:38.595843</dc:date>
    <dc:format>image/svg+xml</dc:format>
    <dc:creator>
     <cc:Agent>
      <dc:title>Matplotlib v3.6.0, https://matplotlib.org/</dc:title>
     </cc:Agent>
    </dc:creator>
   </cc:Work>
  </rdf:RDF>
 </metadata>
 <defs>
  <style type="text/css">*{stroke-linejoin: round; stroke-linecap: butt}</style>
 </defs>
 <g id="figure_1">
  <g id="patch_1">
   <path d="M 0 211.794375 
L 207.59405 211.794375 
L 207.59405 0 
L 0 0 
z
" style="fill: #ffffff"/>
  </g>
  <g id="axes_1">
   <g id="patch_2">
    <path d="M 33.403125 90.718125 
L 109.494034 90.718125 
L 109.494034 15.118125 
L 33.403125 15.118125 
z
" style="fill: #ffffff"/>
   </g>
   <g id="PolyCollection_1">
    <defs>
     <path id="ma2b82fb1c4" d="M 36.861803 -133.264314 
L 36.861803 -123.148609 
L 37.567655 -124.629908 
L 38.273508 -126.17629 
L 38.97936 -125.727002 
L 39.685213 -127.016586 
L 40.391066 -127.321783 
L 41.096918 -127.984725 
L 41.802771 -127.624052 
L 42.508623 -128.996592 
L 43.214476 -129.24829 
L 43.920329 -129.282056 
L 44.626181 -128.623037 
L 45.332034 -128.224475 
L 46.037886 -129.93041 
L 46.743739 -129.692994 
L 47.449592 -130.660814 
L 48.155444 -130.368066 
L 48.861297 -131.042348 
L 49.567149 -132.100752 
L 50.273002 -130.506148 
L 50.978854 -132.161536 
L 51.684707 -131.792597 
L 52.39056 -131.116375 
L 53.096412 -132.961118 
L 53.802265 -132.973965 
L 54.508117 -132.844849 
L 55.21397 -133.936411 
L 55.919823 -133.101804 
L 56.625675 -132.949372 
L 57.331528 -133.218575 
L 58.03738 -134.634635 
L 58.743233 -133.845583 
L 59.449086 -134.671645 
L 60.154938 -135.282378 
L 60.860791 -136.060002 
L 61.566643 -136.458437 
L 62.272496 -135.859816 
L 62.978348 -136.31836 
L 63.684201 -136.990341 
L 64.390054 -134.204368 
L 65.095906 -136.485457 
L 65.801759 -137.410404 
L 66.507611 -135.65033 
L 67.213464 -135.61931 
L 67.919317 -136.954777 
L 68.625169 -136.570822 
L 69.331022 -137.330883 
L 70.036874 -137.022884 
L 70.742727 -138.348169 
L 71.44858 -135.488741 
L 72.154432 -137.848654 
L 72.860285 -138.103896 
L 73.566137 -139.047449 
L 74.27199 -138.89979 
L 74.977842 -139.297361 
L 75.683695 -138.026061 
L 76.389548 -137.547354 
L 77.0954 -137.294905 
L 77.801253 -139.120883 
L 78.507105 -137.839011 
L 79.212958 -140.289624 
L 79.918811 -139.522023 
L 80.624663 -140.314176 
L 81.330516 -139.118205 
L 82.036368 -139.277722 
L 82.742221 -139.511185 
L 83.448074 -140.36898 
L 84.153926 -139.917255 
L 84.859779 -139.43108 
L 85.565631 -140.410976 
L 86.271484 -141.218503 
L 86.977337 -141.232859 
L 87.683189 -142.053912 
L 88.389042 -140.49154 
L 89.094894 -140.965973 
L 89.800747 -141.92124 
L 90.506599 -140.015498 
L 91.212452 -141.332178 
L 91.918305 -142.803527 
L 92.624157 -141.347611 
L 93.33001 -142.171351 
L 94.035862 -141.239361 
L 94.741715 -141.269562 
L 95.447568 -142.934783 
L 96.15342 -141.40774 
L 96.859273 -143.148702 
L 97.565125 -142.26272 
L 98.270978 -142.64426 
L 98.976831 -141.478622 
L 99.682683 -142.51071 
L 100.388536 -143.782558 
L 101.094388 -145.246923 
L 101.800241 -140.406145 
L 102.506093 -142.898602 
L 103.211946 -143.425006 
L 103.917799 -145.411379 
L 104.623651 -144.168704 
L 105.329504 -144.526747 
L 106.035356 -144.819148 
L 106.035356 -163.765551 
L 106.035356 -163.765551 
L 105.329504 -164.494797 
L 104.623651 -163.869728 
L 103.917799 -162.676701 
L 103.211946 -163.192195 
L 102.506093 -164.866363 
L 101.800241 -165.115104 
L 101.094388 -165.042834 
L 100.388536 -164.75398 
L 99.682683 -163.383888 
L 98.976831 -161.708775 
L 98.270978 -161.953241 
L 97.565125 -162.271298 
L 96.859273 -160.733518 
L 96.15342 -160.936858 
L 95.447568 -161.647318 
L 94.741715 -162.124181 
L 94.035862 -161.339294 
L 93.33001 -162.691021 
L 92.624157 -162.420082 
L 91.918305 -161.910681 
L 91.212452 -161.230294 
L 90.506599 -164.47541 
L 89.800747 -162.472777 
L 89.094894 -160.801845 
L 88.389042 -161.676451 
L 87.683189 -161.569538 
L 86.977337 -158.53183 
L 86.271484 -163.754673 
L 85.565631 -160.002632 
L 84.859779 -158.292486 
L 84.153926 -161.191393 
L 83.448074 -161.773158 
L 82.742221 -157.613048 
L 82.036368 -160.772632 
L 81.330516 -155.248926 
L 80.624663 -159.108952 
L 79.918811 -159.084568 
L 79.212958 -162.433051 
L 78.507105 -155.446034 
L 77.801253 -156.394421 
L 77.0954 -157.565876 
L 76.389548 -160.380757 
L 75.683695 -159.699257 
L 74.977842 -158.744992 
L 74.27199 -155.707462 
L 73.566137 -158.354291 
L 72.860285 -156.936741 
L 72.154432 -157.637012 
L 71.44858 -153.879382 
L 70.742727 -157.083325 
L 70.036874 -157.439376 
L 69.331022 -157.011588 
L 68.625169 -155.953687 
L 67.919317 -154.979663 
L 67.213464 -153.057932 
L 66.507611 -152.062032 
L 65.801759 -153.945314 
L 65.095906 -154.847284 
L 64.390054 -155.171766 
L 63.684201 -154.360679 
L 62.978348 -154.203559 
L 62.272496 -150.816083 
L 61.566643 -153.395168 
L 60.860791 -155.438662 
L 60.154938 -153.838067 
L 59.449086 -151.959464 
L 58.743233 -151.698564 
L 58.03738 -152.445293 
L 57.331528 -150.651803 
L 56.625675 -152.570367 
L 55.919823 -149.993955 
L 55.21397 -148.337569 
L 54.508117 -149.33893 
L 53.802265 -147.510786 
L 53.096412 -147.628526 
L 52.39056 -148.091003 
L 51.684707 -146.379479 
L 50.978854 -147.835344 
L 50.273002 -147.063373 
L 49.567149 -148.345121 
L 48.861297 -146.267885 
L 48.155444 -143.934333 
L 47.449592 -144.964018 
L 46.743739 -142.46104 
L 46.037886 -142.383854 
L 45.332034 -142.539136 
L 44.626181 -140.733741 
L 43.920329 -140.848781 
L 43.214476 -142.085683 
L 42.508623 -139.743628 
L 41.802771 -137.800628 
L 41.096918 -135.188456 
L 40.391066 -137.964559 
L 39.685213 -135.262911 
L 38.97936 -134.527441 
L 38.273508 -133.260434 
L 37.567655 -134.125924 
L 36.861803 -133.264314 
z
" style="stroke: #808080; stroke-opacity: 0.6"/>
    </defs>
    <g clip-path="url(#p70e808a28b)">
     <use xlink:href="#ma2b82fb1c4" x="0" y="211.794375" style="fill: #808080; fill-opacity: 0.6; stroke: #808080; stroke-opacity: 0.6"/>
    </g>
   </g>
   <g id="matplotlib.axis_1">
    <g id="xtick_1">
     <g id="line2d_1">
      <defs>
       <path id="md094187a3b" d="M 0 0 
L 0 3.5 
" style="stroke: #000000; stroke-width: 0.8"/>
      </defs>
      <g>
       <use xlink:href="#md094187a3b" x="36.15595" y="90.718125" style="stroke: #000000; stroke-width: 0.8"/>
      </g>
     </g>
     <g id="text_1">
      <text style="font: 10px 'sans-serif'; text-anchor: middle" x="36.15595" y="105.316563" transform="rotate(-0 36.15595 105.316563)">0</text>
     </g>
    </g>
    <g id="xtick_2">
     <g id="line2d_2">
      <g>
       <use xlink:href="#md094187a3b" x="106.741209" y="90.718125" style="stroke: #000000; stroke-width: 0.8"/>
      </g>
     </g>
     <g id="text_2">
      <text style="font: 10px 'sans-serif'; text-anchor: middle" x="106.741209" y="105.316563" transform="rotate(-0 106.741209 105.316563)">100</text>
     </g>
    </g>
    <g id="text_3">
     <text style="font: 10px 'sans-serif'; text-anchor: middle" x="71.44858" y="118.994688" transform="rotate(-0 71.44858 118.994688)"># neurons</text>
    </g>
   </g>
   <g id="matplotlib.axis_2">
    <g id="ytick_1">
     <g id="line2d_3">
      <defs>
       <path id="m17af8859b4" d="M 0 0 
L -3.5 0 
" style="stroke: #000000; stroke-width: 0.8"/>
      </defs>
      <g>
       <use xlink:href="#m17af8859b4" x="33.403125" y="90.718125" style="stroke: #000000; stroke-width: 0.8"/>
      </g>
     </g>
     <g id="text_4">
      <text style="font: 10px 'sans-serif'; text-anchor: end" x="26.403125" y="94.517344" transform="rotate(-0 26.403125 94.517344)">0</text>
     </g>
    </g>
    <g id="ytick_2">
     <g id="line2d_4">
      <g>
       <use xlink:href="#m17af8859b4" x="33.403125" y="65.518125" style="stroke: #000000; stroke-width: 0.8"/>
      </g>
     </g>
     <g id="text_5">
      <text style="font: 10px 'sans-serif'; text-anchor: end" x="26.403125" y="69.317344" transform="rotate(-0 26.403125 69.317344)">20</text>
     </g>
    </g>
    <g id="ytick_3">
     <g id="line2d_5">
      <g>
       <use xlink:href="#m17af8859b4" x="33.403125" y="40.318125" style="stroke: #000000; stroke-width: 0.8"/>
      </g>
     </g>
     <g id="text_6">
      <text style="font: 10px 'sans-serif'; text-anchor: end" x="26.403125" y="44.117344" transform="rotate(-0 26.403125 44.117344)">40</text>
     </g>
    </g>
    <g id="ytick_4">
     <g id="line2d_6">
      <g>
       <use xlink:href="#m17af8859b4" x="33.403125" y="15.118125" style="stroke: #000000; stroke-width: 0.8"/>
      </g>
     </g>
     <g id="text_7">
      <text style="font: 10px 'sans-serif'; text-anchor: end" x="26.403125" y="18.917344" transform="rotate(-0 26.403125 18.917344)">60</text>
     </g>
    </g>
    <g id="text_8">
     <text style="font: 10px 'sans-serif'; text-anchor: middle" x="7.598438" y="52.918125" transform="rotate(-90 7.598438 52.918125)">Decoding accuracy (%)</text>
    </g>
   </g>
   <g id="line2d_7">
    <path d="M 36.861803 83.587914 
L 37.567655 82.416459 
L 38.273508 82.076013 
L 38.97936 81.667154 
L 39.685213 80.654626 
L 40.391066 79.151204 
L 41.096918 80.207785 
L 41.802771 79.082035 
L 42.508623 77.424265 
L 43.214476 76.127389 
L 43.920329 76.728957 
L 44.626181 77.115986 
L 45.332034 76.412569 
L 46.037886 75.637243 
L 46.743739 75.717358 
L 47.449592 73.981959 
L 48.155444 74.643175 
L 48.861297 73.139259 
L 49.567149 71.571439 
L 50.273002 73.009614 
L 50.978854 71.795935 
L 51.684707 72.708337 
L 52.39056 72.190686 
L 53.096412 71.499553 
L 53.802265 71.552 
L 54.508117 70.702486 
L 55.21397 70.657385 
L 55.919823 70.246495 
L 56.625675 69.034505 
L 57.331528 69.859186 
L 58.03738 68.254411 
L 58.743233 69.022302 
L 59.449086 68.478821 
L 60.154938 67.234152 
L 60.860791 66.045043 
L 61.566643 66.867573 
L 62.272496 68.456425 
L 62.978348 66.533416 
L 63.684201 66.118865 
L 64.390054 67.106308 
L 65.095906 66.128005 
L 65.801759 66.116516 
L 66.507611 67.938194 
L 67.213464 67.455754 
L 67.919317 65.827155 
L 68.625169 65.53212 
L 69.331022 64.62314 
L 70.036874 64.563245 
L 70.742727 64.078628 
L 71.44858 67.110314 
L 72.154432 64.051542 
L 72.860285 64.274057 
L 73.566137 63.093505 
L 74.27199 64.490749 
L 74.977842 62.773198 
L 75.683695 62.931716 
L 76.389548 62.830319 
L 77.0954 64.363984 
L 77.801253 64.036723 
L 78.507105 65.151852 
L 79.212958 60.433038 
L 79.918811 62.49108 
L 80.624663 62.082811 
L 81.330516 64.610809 
L 82.036368 61.769198 
L 82.742221 63.232258 
L 83.448074 60.723306 
L 84.153926 61.240051 
L 84.859779 62.932592 
L 85.565631 61.587571 
L 86.271484 59.307787 
L 86.977337 61.91203 
L 87.683189 59.98265 
L 88.389042 60.71038 
L 89.094894 60.910466 
L 89.800747 59.597367 
L 90.506599 59.548921 
L 91.212452 60.513139 
L 91.918305 59.437271 
L 92.624157 59.910529 
L 93.33001 59.363189 
L 94.035862 60.505048 
L 94.741715 60.097503 
L 95.447568 59.503324 
L 96.15342 60.622076 
L 96.859273 59.853265 
L 97.565125 59.527366 
L 98.270978 59.495624 
L 98.976831 60.200677 
L 99.682683 58.847076 
L 100.388536 57.526106 
L 101.094388 56.649497 
L 101.800241 59.03375 
L 102.506093 57.911892 
L 103.211946 58.485774 
L 103.917799 57.750335 
L 104.623651 57.775159 
L 105.329504 57.283603 
L 106.035356 57.502025 
" clip-path="url(#p70e808a28b)" style="fill: none; stroke: #000000; stroke-width: 1.5; stroke-linecap: square"/>
   </g>
   <g id="line2d_8">
    <path d="M 42.508623 90.718125 
L 42.508623 15.118125 
" clip-path="url(#p70e808a28b)" style="fill: none; stroke-dasharray: 1.85,0.8; stroke-dashoffset: 0; stroke: #000000; stroke-width: 0.5"/>
   </g>
   <g id="patch_3">
    <path d="M 33.403125 90.718125 
L 33.403125 15.118125 
" style="fill: none; stroke: #000000; stroke-width: 0.8; stroke-linejoin: miter; stroke-linecap: square"/>
   </g>
   <g id="patch_4">
    <path d="M 33.403125 90.718125 
L 109.494034 90.718125 
" style="fill: none; stroke: #000000; stroke-width: 0.8; stroke-linejoin: miter; stroke-linecap: square"/>
   </g>
   <g id="text_9">
    <text style="font: 12px 'sans-serif'; text-anchor: middle" x="71.44858" y="9.118125" transform="rotate(-0 71.44858 9.118125)">['AM']</text>
   </g>
  </g>
  <g id="axes_2">
   <g id="patch_5">
    <path d="M 124.712216 90.718125 
L 200.803125 90.718125 
L 200.803125 15.118125 
L 124.712216 15.118125 
z
" style="fill: #ffffff"/>
   </g>
   <g id="PolyCollection_2">
    <defs>
     <path id="m08f4ab3fe3" d="M 128.170894 -129.102315 
L 128.170894 -124.270746 
L 128.876746 -124.619564 
L 129.582599 -125.141452 
L 130.288451 -126.098575 
L 130.994304 -124.609511 
L 131.700157 -125.175553 
L 132.406009 -125.908551 
L 133.111862 -126.446808 
L 133.817714 -126.601763 
L 134.523567 -127.056378 
L 135.229419 -127.190031 
L 135.935272 -127.248179 
L 136.641125 -126.38354 
L 137.346977 -127.420867 
L 138.05283 -128.25499 
L 138.758682 -127.236759 
L 139.464535 -128.898428 
L 140.170388 -129.215075 
L 140.87624 -128.897785 
L 141.582093 -129.304999 
L 142.287945 -129.271912 
L 142.993798 -130.572721 
L 143.699651 -129.452588 
L 144.405503 -130.856627 
L 145.111356 -129.84949 
L 145.817208 -131.560282 
L 146.523061 -132.155173 
L 147.228913 -131.12073 
L 147.934766 -131.099056 
L 148.640619 -131.177084 
L 149.346471 -131.685232 
L 150.052324 -132.007032 
L 150.758176 -132.054928 
L 151.464029 -132.483308 
L 152.169882 -131.752234 
L 152.875734 -131.817453 
L 153.581587 -133.70102 
L 154.287439 -133.471526 
L 154.993292 -133.895861 
L 155.699145 -133.937816 
L 156.404997 -133.354846 
L 157.11085 -133.820062 
L 157.816702 -134.030256 
L 158.522555 -135.171089 
L 159.228408 -133.706049 
L 159.93426 -135.239293 
L 160.640113 -135.340497 
L 161.345965 -135.302696 
L 162.051818 -135.757665 
L 162.75767 -134.953851 
L 163.463523 -135.526984 
L 164.169376 -137.123988 
L 164.875228 -137.216246 
L 165.581081 -136.254247 
L 166.286933 -136.547357 
L 166.992786 -137.421556 
L 167.698639 -137.091377 
L 168.404491 -137.353615 
L 169.110344 -137.54241 
L 169.816196 -137.37233 
L 170.522049 -138.534408 
L 171.227902 -137.843659 
L 171.933754 -136.701488 
L 172.639607 -138.880877 
L 173.345459 -137.746039 
L 174.051312 -139.212527 
L 174.757164 -137.714151 
L 175.463017 -137.364354 
L 176.16887 -139.050061 
L 176.874722 -138.627255 
L 177.580575 -138.817669 
L 178.286427 -139.306061 
L 178.99228 -139.178347 
L 179.698133 -138.587846 
L 180.403985 -138.664366 
L 181.109838 -140.516386 
L 181.81569 -139.88683 
L 182.521543 -140.719939 
L 183.227396 -138.901486 
L 183.933248 -138.867172 
L 184.639101 -141.125676 
L 185.344953 -139.932304 
L 186.050806 -141.164644 
L 186.756658 -140.203639 
L 187.462511 -141.339165 
L 188.168364 -141.03174 
L 188.874216 -141.880714 
L 189.580069 -141.582314 
L 190.285921 -141.82266 
L 190.991774 -141.744446 
L 191.697627 -140.264155 
L 192.403479 -140.783986 
L 193.109332 -141.548637 
L 193.815184 -141.971001 
L 194.521037 -143.088465 
L 195.22689 -142.668624 
L 195.932742 -142.106492 
L 196.638595 -142.0767 
L 197.344447 -143.438431 
L 197.344447 -157.580171 
L 197.344447 -157.580171 
L 196.638595 -157.713758 
L 195.932742 -158.301411 
L 195.22689 -154.7826 
L 194.521037 -157.881238 
L 193.815184 -158.615571 
L 193.109332 -157.715002 
L 192.403479 -156.461621 
L 191.697627 -158.640555 
L 190.991774 -156.702002 
L 190.285921 -159.313432 
L 189.580069 -157.277082 
L 188.874216 -156.011013 
L 188.168364 -155.996649 
L 187.462511 -155.685239 
L 186.756658 -156.760021 
L 186.050806 -157.171463 
L 185.344953 -155.226899 
L 184.639101 -157.88424 
L 183.933248 -156.087129 
L 183.227396 -153.346499 
L 182.521543 -155.240492 
L 181.81569 -156.207763 
L 181.109838 -154.939173 
L 180.403985 -154.592108 
L 179.698133 -154.137709 
L 178.99228 -154.012085 
L 178.286427 -153.41761 
L 177.580575 -156.372276 
L 176.874722 -157.456544 
L 176.16887 -155.62443 
L 175.463017 -154.534425 
L 174.757164 -153.096673 
L 174.051312 -154.154941 
L 173.345459 -150.953863 
L 172.639607 -155.981953 
L 171.933754 -154.909918 
L 171.227902 -151.60935 
L 170.522049 -154.000176 
L 169.816196 -153.526309 
L 169.110344 -152.792888 
L 168.404491 -151.836712 
L 167.698639 -152.420993 
L 166.992786 -153.20432 
L 166.286933 -154.48404 
L 165.581081 -151.148132 
L 164.875228 -152.388325 
L 164.169376 -153.435623 
L 163.463523 -151.855044 
L 162.75767 -151.171339 
L 162.051818 -151.567744 
L 161.345965 -148.271247 
L 160.640113 -150.180749 
L 159.93426 -149.933951 
L 159.228408 -147.858037 
L 158.522555 -148.450877 
L 157.816702 -150.997869 
L 157.11085 -151.051389 
L 156.404997 -147.949021 
L 155.699145 -149.131833 
L 154.993292 -149.801396 
L 154.287439 -147.106995 
L 153.581587 -148.094525 
L 152.875734 -147.864941 
L 152.169882 -147.214683 
L 151.464029 -146.599612 
L 150.758176 -147.120064 
L 150.052324 -149.957531 
L 149.346471 -146.37314 
L 148.640619 -147.425563 
L 147.934766 -145.371275 
L 147.228913 -145.614872 
L 146.523061 -145.958477 
L 145.817208 -143.747139 
L 145.111356 -143.199365 
L 144.405503 -142.997426 
L 143.699651 -147.321151 
L 142.993798 -141.611565 
L 142.287945 -142.56529 
L 141.582093 -141.530013 
L 140.87624 -143.006162 
L 140.170388 -140.560176 
L 139.464535 -138.135002 
L 138.758682 -140.992083 
L 138.05283 -141.273466 
L 137.346977 -142.450135 
L 136.641125 -137.333959 
L 135.935272 -137.877056 
L 135.229419 -137.064458 
L 134.523567 -137.67689 
L 133.817714 -137.484259 
L 133.111862 -134.750779 
L 132.406009 -135.769442 
L 131.700157 -135.52618 
L 130.994304 -133.706797 
L 130.288451 -133.044173 
L 129.582599 -133.547239 
L 128.876746 -132.877802 
L 128.170894 -129.102315 
z
" style="stroke: #808080; stroke-opacity: 0.6"/>
    </defs>
    <g clip-path="url(#p62dc88e3eb)">
     <use xlink:href="#m08f4ab3fe3" x="0" y="211.794375" style="fill: #808080; fill-opacity: 0.6; stroke: #808080; stroke-opacity: 0.6"/>
    </g>
   </g>
   <g id="matplotlib.axis_3">
    <g id="xtick_3">
     <g id="line2d_9">
      <g>
       <use xlink:href="#md094187a3b" x="127.465041" y="90.718125" style="stroke: #000000; stroke-width: 0.8"/>
      </g>
     </g>
     <g id="text_10">
      <text style="font: 10px 'sans-serif'; text-anchor: middle" x="127.465041" y="105.316563" transform="rotate(-0 127.465041 105.316563)">0</text>
     </g>
    </g>
    <g id="xtick_4">
     <g id="line2d_10">
      <g>
       <use xlink:href="#md094187a3b" x="198.0503" y="90.718125" style="stroke: #000000; stroke-width: 0.8"/>
      </g>
     </g>
     <g id="text_11">
      <text style="font: 10px 'sans-serif'; text-anchor: middle" x="198.0503" y="105.316563" transform="rotate(-0 198.0503 105.316563)">100</text>
     </g>
    </g>
    <g id="text_12">
     <text style="font: 10px 'sans-serif'; text-anchor: middle" x="162.75767" y="118.994688" transform="rotate(-0 162.75767 118.994688)"># neurons</text>
    </g>
   </g>
   <g id="matplotlib.axis_4">
    <g id="ytick_5">
     <g id="line2d_11">
      <g>
       <use xlink:href="#m17af8859b4" x="124.712216" y="90.718125" style="stroke: #000000; stroke-width: 0.8"/>
      </g>
     </g>
     <g id="text_13">
      <text style="font: 10px 'sans-serif'; text-anchor: end" x="117.712216" y="94.517344" transform="rotate(-0 117.712216 94.517344)">0</text>
     </g>
    </g>
    <g id="ytick_6">
     <g id="line2d_12">
      <g>
       <use xlink:href="#m17af8859b4" x="124.712216" y="65.518125" style="stroke: #000000; stroke-width: 0.8"/>
      </g>
     </g>
     <g id="text_14">
      <text style="font: 10px 'sans-serif'; text-anchor: end" x="117.712216" y="69.317344" transform="rotate(-0 117.712216 69.317344)">20</text>
     </g>
    </g>
    <g id="ytick_7">
     <g id="line2d_13">
      <g>
       <use xlink:href="#m17af8859b4" x="124.712216" y="40.318125" style="stroke: #000000; stroke-width: 0.8"/>
      </g>
     </g>
     <g id="text_15">
      <text style="font: 10px 'sans-serif'; text-anchor: end" x="117.712216" y="44.117344" transform="rotate(-0 117.712216 44.117344)">40</text>
     </g>
    </g>
    <g id="ytick_8">
     <g id="line2d_14">
      <g>
       <use xlink:href="#m17af8859b4" x="124.712216" y="15.118125" style="stroke: #000000; stroke-width: 0.8"/>
      </g>
     </g>
     <g id="text_16">
      <text style="font: 10px 'sans-serif'; text-anchor: end" x="117.712216" y="18.917344" transform="rotate(-0 117.712216 18.917344)">60</text>
     </g>
    </g>
    <g id="text_17">
     <text style="font: 10px 'sans-serif'; text-anchor: middle" x="98.907528" y="52.918125" transform="rotate(-90 98.907528 52.918125)">Decoding accuracy (%)</text>
    </g>
   </g>
   <g id="line2d_15">
    <path d="M 128.170894 85.107844 
L 128.876746 83.045692 
L 129.582599 82.450029 
L 130.288451 82.223001 
L 130.994304 82.636221 
L 131.700157 81.443508 
L 132.406009 80.955379 
L 133.111862 81.195582 
L 133.817714 79.751364 
L 134.523567 79.427741 
L 135.229419 79.66713 
L 135.935272 79.231757 
L 136.641125 79.935626 
L 137.346977 76.858874 
L 138.05283 77.030147 
L 138.758682 77.679954 
L 139.464535 78.27766 
L 140.170388 76.90675 
L 140.87624 75.842402 
L 141.582093 76.376869 
L 142.287945 75.875774 
L 142.993798 75.702232 
L 143.699651 73.407506 
L 144.405503 74.867348 
L 145.111356 75.269947 
L 145.817208 74.140664 
L 146.523061 72.73755 
L 147.228913 73.426574 
L 147.934766 73.559209 
L 148.640619 72.493051 
L 149.346471 72.765189 
L 150.052324 70.812093 
L 150.758176 72.206879 
L 151.464029 72.252915 
L 152.169882 72.310917 
L 152.875734 71.953178 
L 153.581587 70.896602 
L 154.287439 71.505115 
L 154.993292 69.945746 
L 155.699145 70.25955 
L 156.404997 71.142441 
L 157.11085 69.358649 
L 157.816702 69.280312 
L 158.522555 69.983392 
L 159.228408 71.012332 
L 159.93426 69.207753 
L 160.640113 69.033752 
L 161.345965 70.007404 
L 162.051818 68.131671 
L 162.75767 68.73178 
L 163.463523 68.103361 
L 164.169376 66.514569 
L 164.875228 66.99209 
L 165.581081 68.093185 
L 166.286933 66.278676 
L 166.992786 66.481437 
L 167.698639 67.03819 
L 168.404491 67.199211 
L 169.110344 66.626726 
L 169.816196 66.345056 
L 170.522049 65.527083 
L 171.227902 67.06787 
L 171.933754 65.988672 
L 172.639607 64.36296 
L 173.345459 67.444424 
L 174.051312 65.110641 
L 174.757164 66.388963 
L 175.463017 65.844985 
L 176.16887 64.457129 
L 176.874722 63.752476 
L 177.580575 64.199402 
L 178.286427 65.43254 
L 178.99228 65.199159 
L 179.698133 65.431598 
L 180.403985 65.166138 
L 181.109838 64.066595 
L 181.81569 63.747078 
L 182.521543 63.81416 
L 183.227396 65.670382 
L 183.933248 64.317224 
L 184.639101 62.289417 
L 185.344953 64.214774 
L 186.050806 62.626322 
L 186.756658 63.312545 
L 187.462511 63.282173 
L 188.168364 63.28018 
L 188.874216 62.848512 
L 189.580069 62.364677 
L 190.285921 61.226329 
L 190.991774 62.571151 
L 191.697627 62.34202 
L 192.403479 63.171572 
L 193.109332 62.162555 
L 193.815184 61.501089 
L 194.521037 61.309523 
L 195.22689 63.068763 
L 195.932742 61.590424 
L 196.638595 61.899146 
L 197.344447 61.285074 
" clip-path="url(#p62dc88e3eb)" style="fill: none; stroke: #000000; stroke-width: 1.5; stroke-linecap: square"/>
   </g>
   <g id="line2d_16">
    <path d="M 139.464535 90.718125 
L 139.464535 15.118125 
" clip-path="url(#p62dc88e3eb)" style="fill: none; stroke-dasharray: 1.85,0.8; stroke-dashoffset: 0; stroke: #000000; stroke-width: 0.5"/>
   </g>
   <g id="patch_6">
    <path d="M 124.712216 90.718125 
L 124.712216 15.118125 
" style="fill: none; stroke: #000000; stroke-width: 0.8; stroke-linejoin: miter; stroke-linecap: square"/>
   </g>
   <g id="patch_7">
    <path d="M 124.712216 90.718125 
L 200.803125 90.718125 
" style="fill: none; stroke: #000000; stroke-width: 0.8; stroke-linejoin: miter; stroke-linecap: square"/>
   </g>
   <g id="text_18">
    <text style="font: 12px 'sans-serif'; text-anchor: middle" x="162.75767" y="9.118125" transform="rotate(-0 162.75767 9.118125)">['AL']</text>
   </g>
  </g>
  <g id="axes_3">
   <g id="patch_8">
    <path d="M 33.403125 181.438125 
L 109.494034 181.438125 
L 109.494034 105.838125 
L 33.403125 105.838125 
z
" style="fill: #ffffff"/>
   </g>
   <g id="PolyCollection_3">
    <defs>
     <path id="m6f119146b6" d="M 36.861803 -45.10195 
L 36.861803 -31.678912 
L 37.567655 -34.838708 
L 38.273508 -36.472465 
L 38.97936 -36.492805 
L 39.685213 -37.165517 
L 40.391066 -37.573727 
L 41.096918 -37.697611 
L 41.802771 -38.173061 
L 42.508623 -39.902078 
L 43.214476 -40.392768 
L 43.920329 -40.673548 
L 44.626181 -41.583747 
L 45.332034 -41.19424 
L 46.037886 -42.448983 
L 46.743739 -42.65086 
L 47.449592 -43.091466 
L 48.155444 -45.143112 
L 48.861297 -45.34209 
L 49.567149 -46.429529 
L 50.273002 -45.772089 
L 50.978854 -48.74251 
L 51.684707 -48.566479 
L 52.39056 -47.389401 
L 53.096412 -48.581071 
L 53.802265 -50.79815 
L 54.508117 -50.560358 
L 55.21397 -52.287289 
L 55.919823 -51.607012 
L 56.625675 -53.7665 
L 57.331528 -52.277549 
L 58.03738 -54.282108 
L 58.743233 -53.391602 
L 59.449086 -54.90386 
L 60.154938 -54.942942 
L 60.860791 -53.013309 
L 61.566643 -55.673706 
L 62.272496 -56.544751 
L 62.978348 -58.072348 
L 63.684201 -57.764223 
L 64.390054 -60.148323 
L 65.095906 -58.016485 
L 65.801759 -59.069505 
L 66.507611 -60.314517 
L 67.213464 -59.029673 
L 67.919317 -62.203889 
L 68.625169 -60.533078 
L 69.331022 -61.797501 
L 70.036874 -60.594069 
L 70.742727 -60.689135 
L 71.44858 -63.977405 
L 72.154432 -63.174195 
L 72.860285 -63.61098 
L 73.566137 -63.004934 
L 74.27199 -65.17453 
L 74.977842 -66.055154 
L 75.683695 -64.12759 
L 76.389548 -65.180602 
L 77.0954 -67.409944 
L 77.801253 -65.469101 
L 78.507105 -65.892508 
L 79.212958 -67.988524 
L 79.918811 -68.090565 
L 80.624663 -69.059508 
L 81.330516 -69.91011 
L 82.036368 -68.336661 
L 82.742221 -69.434042 
L 83.448074 -69.839408 
L 84.153926 -70.976551 
L 84.859779 -70.410535 
L 85.565631 -73.83194 
L 86.271484 -72.97938 
L 86.977337 -73.255174 
L 87.683189 -71.596958 
L 88.389042 -72.029357 
L 89.094894 -71.863894 
L 89.800747 -74.405619 
L 90.506599 -72.442122 
L 91.212452 -74.634501 
L 91.918305 -74.071612 
L 92.624157 -75.145453 
L 93.33001 -75.634232 
L 94.035862 -75.886031 
L 94.741715 -75.572909 
L 95.447568 -75.315313 
L 96.15342 -73.106799 
L 96.859273 -77.315881 
L 97.565125 -78.037508 
L 98.270978 -75.921141 
L 98.976831 -77.808963 
L 99.682683 -78.504235 
L 100.388536 -78.779421 
L 101.094388 -76.891033 
L 101.800241 -77.411805 
L 102.506093 -78.967415 
L 103.211946 -79.182862 
L 103.917799 -79.58069 
L 104.623651 -79.515515 
L 105.329504 -83.09825 
L 106.035356 -79.266917 
L 106.035356 -105.593886 
L 106.035356 -105.593886 
L 105.329504 -105.917788 
L 104.623651 -103.622401 
L 103.917799 -104.373494 
L 103.211946 -103.043563 
L 102.506093 -103.715583 
L 101.800241 -100.717275 
L 101.094388 -102.588555 
L 100.388536 -101.579251 
L 99.682683 -101.821951 
L 98.976831 -103.04514 
L 98.270978 -100.883828 
L 97.565125 -102.234237 
L 96.859273 -100.942375 
L 96.15342 -99.8684 
L 95.447568 -100.566201 
L 94.741715 -100.724215 
L 94.035862 -99.573344 
L 93.33001 -99.59154 
L 92.624157 -100.708962 
L 91.918305 -99.482543 
L 91.212452 -102.548752 
L 90.506599 -98.938621 
L 89.800747 -98.864054 
L 89.094894 -98.420505 
L 88.389042 -97.59456 
L 87.683189 -95.286229 
L 86.977337 -100.653618 
L 86.271484 -96.300272 
L 85.565631 -101.159307 
L 84.859779 -97.646732 
L 84.153926 -97.581047 
L 83.448074 -97.17094 
L 82.742221 -94.300957 
L 82.036368 -94.998118 
L 81.330516 -94.064373 
L 80.624663 -95.441024 
L 79.918811 -91.422122 
L 79.212958 -91.646006 
L 78.507105 -93.119721 
L 77.801253 -95.529786 
L 77.0954 -90.858481 
L 76.389548 -89.608887 
L 75.683695 -93.510342 
L 74.977842 -90.024346 
L 74.27199 -91.303009 
L 73.566137 -88.987453 
L 72.860285 -89.8535 
L 72.154432 -88.791018 
L 71.44858 -90.719683 
L 70.742727 -87.192308 
L 70.036874 -91.197255 
L 69.331022 -88.975795 
L 68.625169 -86.736147 
L 67.919317 -87.124401 
L 67.213464 -84.431287 
L 66.507611 -83.679315 
L 65.801759 -85.846525 
L 65.095906 -83.43229 
L 64.390054 -85.109687 
L 63.684201 -83.144766 
L 62.978348 -82.739606 
L 62.272496 -84.662215 
L 61.566643 -79.803298 
L 60.860791 -81.845915 
L 60.154938 -80.940258 
L 59.449086 -80.410804 
L 58.743233 -80.90161 
L 58.03738 -78.929917 
L 57.331528 -78.320773 
L 56.625675 -76.604042 
L 55.919823 -75.663115 
L 55.21397 -76.500488 
L 54.508117 -74.959142 
L 53.802265 -75.943406 
L 53.096412 -73.0818 
L 52.39056 -73.178002 
L 51.684707 -69.200041 
L 50.978854 -69.33148 
L 50.273002 -65.083597 
L 49.567149 -65.20199 
L 48.861297 -66.995772 
L 48.155444 -66.651417 
L 47.449592 -63.293352 
L 46.743739 -66.010362 
L 46.037886 -62.144539 
L 45.332034 -60.957064 
L 44.626181 -61.845548 
L 43.920329 -59.275641 
L 43.214476 -59.749066 
L 42.508623 -52.089691 
L 41.802771 -52.822103 
L 41.096918 -53.578048 
L 40.391066 -50.483681 
L 39.685213 -48.477857 
L 38.97936 -47.49499 
L 38.273508 -45.723197 
L 37.567655 -44.676769 
L 36.861803 -45.10195 
z
" style="stroke: #808080; stroke-opacity: 0.6"/>
    </defs>
    <g clip-path="url(#p8b155e7030)">
     <use xlink:href="#m6f119146b6" x="0" y="211.794375" style="fill: #808080; fill-opacity: 0.6; stroke: #808080; stroke-opacity: 0.6"/>
    </g>
   </g>
   <g id="matplotlib.axis_5">
    <g id="xtick_5">
     <g id="line2d_17">
      <g>
       <use xlink:href="#md094187a3b" x="36.15595" y="181.438125" style="stroke: #000000; stroke-width: 0.8"/>
      </g>
     </g>
     <g id="text_19">
      <text style="font: 10px 'sans-serif'; text-anchor: middle" x="36.15595" y="196.036563" transform="rotate(-0 36.15595 196.036563)">0</text>
     </g>
    </g>
    <g id="xtick_6">
     <g id="line2d_18">
      <g>
       <use xlink:href="#md094187a3b" x="106.741209" y="181.438125" style="stroke: #000000; stroke-width: 0.8"/>
      </g>
     </g>
     <g id="text_20">
      <text style="font: 10px 'sans-serif'; text-anchor: middle" x="106.741209" y="196.036563" transform="rotate(-0 106.741209 196.036563)">100</text>
     </g>
    </g>
    <g id="text_21">
     <text style="font: 10px 'sans-serif'; text-anchor: middle" x="71.44858" y="209.714688" transform="rotate(-0 71.44858 209.714688)"># neurons</text>
    </g>
   </g>
   <g id="matplotlib.axis_6">
    <g id="ytick_9">
     <g id="line2d_19">
      <g>
       <use xlink:href="#m17af8859b4" x="33.403125" y="181.438125" style="stroke: #000000; stroke-width: 0.8"/>
      </g>
     </g>
     <g id="text_22">
      <text style="font: 10px 'sans-serif'; text-anchor: end" x="26.403125" y="185.237344" transform="rotate(-0 26.403125 185.237344)">0</text>
     </g>
    </g>
    <g id="ytick_10">
     <g id="line2d_20">
      <g>
       <use xlink:href="#m17af8859b4" x="33.403125" y="156.238125" style="stroke: #000000; stroke-width: 0.8"/>
      </g>
     </g>
     <g id="text_23">
      <text style="font: 10px 'sans-serif'; text-anchor: end" x="26.403125" y="160.037344" transform="rotate(-0 26.403125 160.037344)">20</text>
     </g>
    </g>
    <g id="ytick_11">
     <g id="line2d_21">
      <g>
       <use xlink:href="#m17af8859b4" x="33.403125" y="131.038125" style="stroke: #000000; stroke-width: 0.8"/>
      </g>
     </g>
     <g id="text_24">
      <text style="font: 10px 'sans-serif'; text-anchor: end" x="26.403125" y="134.837344" transform="rotate(-0 26.403125 134.837344)">40</text>
     </g>
    </g>
    <g id="ytick_12">
     <g id="line2d_22">
      <g>
       <use xlink:href="#m17af8859b4" x="33.403125" y="105.838125" style="stroke: #000000; stroke-width: 0.8"/>
      </g>
     </g>
     <g id="text_25">
      <text style="font: 10px 'sans-serif'; text-anchor: end" x="26.403125" y="109.637344" transform="rotate(-0 26.403125 109.637344)">60</text>
     </g>
    </g>
    <g id="text_26">
     <text style="font: 10px 'sans-serif'; text-anchor: middle" x="7.598438" y="143.638125" transform="rotate(-90 7.598438 143.638125)">Decoding accuracy (%)</text>
    </g>
   </g>
   <g id="line2d_23">
    <path d="M 36.861803 173.403944 
L 37.567655 172.036637 
L 38.273508 170.696544 
L 38.97936 169.800478 
L 39.685213 168.972688 
L 40.391066 167.765671 
L 41.096918 166.156546 
L 41.802771 166.296793 
L 42.508623 165.798491 
L 43.214476 161.723458 
L 43.920329 161.819781 
L 44.626181 160.079727 
L 45.332034 160.718723 
L 46.037886 159.497614 
L 46.743739 157.463764 
L 47.449592 158.601966 
L 48.155444 155.897111 
L 48.861297 155.625444 
L 49.567149 155.978615 
L 50.273002 156.366532 
L 50.978854 152.75738 
L 51.684707 152.911115 
L 52.39056 151.510673 
L 53.096412 150.96294 
L 53.802265 148.423597 
L 54.508117 149.034625 
L 55.21397 147.400486 
L 55.919823 148.159311 
L 56.625675 146.609104 
L 57.331528 146.495214 
L 58.03738 145.188363 
L 58.743233 144.647769 
L 59.449086 144.137043 
L 60.154938 143.852775 
L 60.860791 144.364763 
L 61.566643 144.055873 
L 62.272496 141.190892 
L 62.978348 141.388398 
L 63.684201 141.33988 
L 64.390054 139.16537 
L 65.095906 141.069987 
L 65.801759 139.33636 
L 66.507611 139.797459 
L 67.213464 140.063895 
L 67.919317 137.13023 
L 68.625169 138.159762 
L 69.331022 136.407727 
L 70.036874 135.898713 
L 70.742727 137.853653 
L 71.44858 134.445831 
L 72.154432 135.811768 
L 72.860285 135.062135 
L 73.566137 135.798182 
L 74.27199 133.555605 
L 74.977842 133.754625 
L 75.683695 132.975409 
L 76.389548 134.399631 
L 77.0954 132.660163 
L 77.801253 131.294931 
L 78.507105 132.28826 
L 79.212958 131.97711 
L 79.918811 132.038032 
L 80.624663 129.544109 
L 81.330516 129.807133 
L 82.036368 130.126985 
L 82.742221 129.926876 
L 83.448074 128.289201 
L 84.153926 127.515576 
L 84.859779 127.765742 
L 85.565631 124.298752 
L 86.271484 127.154549 
L 86.977337 124.839979 
L 87.683189 128.352782 
L 88.389042 126.982417 
L 89.094894 126.652175 
L 89.800747 125.159539 
L 90.506599 126.104003 
L 91.212452 123.202748 
L 91.918305 125.017297 
L 92.624157 123.867167 
L 93.33001 124.181489 
L 94.035862 124.064688 
L 94.741715 123.645813 
L 95.447568 123.853618 
L 96.15342 125.306775 
L 96.859273 122.665247 
L 97.565125 121.658502 
L 98.270978 123.39189 
L 98.976831 121.367324 
L 99.682683 121.631282 
L 100.388536 121.615039 
L 101.094388 122.054581 
L 101.800241 122.729835 
L 102.506093 120.452876 
L 103.211946 120.681163 
L 103.917799 119.817283 
L 104.623651 120.225417 
L 105.329504 117.286356 
L 106.035356 119.363973 
" clip-path="url(#p8b155e7030)" style="fill: none; stroke: #000000; stroke-width: 1.5; stroke-linecap: square"/>
   </g>
   <g id="line2d_24">
    <path d="M 40.391066 181.438125 
L 40.391066 105.838125 
" clip-path="url(#p8b155e7030)" style="fill: none; stroke-dasharray: 1.85,0.8; stroke-dashoffset: 0; stroke: #000000; stroke-width: 0.5"/>
   </g>
   <g id="patch_9">
    <path d="M 33.403125 181.438125 
L 33.403125 105.838125 
" style="fill: none; stroke: #000000; stroke-width: 0.8; stroke-linejoin: miter; stroke-linecap: square"/>
   </g>
   <g id="patch_10">
    <path d="M 33.403125 181.438125 
L 109.494034 181.438125 
" style="fill: none; stroke: #000000; stroke-width: 0.8; stroke-linejoin: miter; stroke-linecap: square"/>
   </g>
   <g id="text_27">
    <text style="font: 12px 'sans-serif'; text-anchor: middle" x="71.44858" y="99.838125" transform="rotate(-0 71.44858 99.838125)">['PM']</text>
   </g>
  </g>
  <g id="axes_4">
   <g id="patch_11">
    <path d="M 124.712216 181.438125 
L 200.803125 181.438125 
L 200.803125 105.838125 
L 124.712216 105.838125 
z
" style="fill: #ffffff"/>
   </g>
   <g id="PolyCollection_4">
    <defs>
     <path id="mee56671342" d="M 128.170894 -41.500905 
L 128.170894 -32.553298 
L 128.876746 -32.26757 
L 129.582599 -35.223939 
L 130.288451 -35.236939 
L 130.994304 -35.973618 
L 131.700157 -36.402195 
L 132.406009 -36.573522 
L 133.111862 -36.58752 
L 133.817714 -37.066097 
L 134.523567 -37.867757 
L 135.229419 -36.832107 
L 135.935272 -37.972919 
L 136.641125 -39.215368 
L 137.346977 -39.032235 
L 138.05283 -38.905891 
L 138.758682 -39.923288 
L 139.464535 -39.935945 
L 140.170388 -39.844853 
L 140.87624 -40.038954 
L 141.582093 -40.842485 
L 142.287945 -40.542397 
L 142.993798 -40.922111 
L 143.699651 -42.124155 
L 144.405503 -41.040696 
L 145.111356 -42.655123 
L 145.817208 -41.242928 
L 146.523061 -43.159872 
L 147.228913 -42.685196 
L 147.934766 -42.959242 
L 148.640619 -43.811849 
L 149.346471 -43.843636 
L 150.052324 -44.639118 
L 150.758176 -42.998765 
L 151.464029 -44.684167 
L 152.169882 -43.8853 
L 152.875734 -45.057469 
L 153.581587 -45.172729 
L 154.287439 -44.890827 
L 154.993292 -45.369087 
L 155.699145 -46.198305 
L 156.404997 -44.792015 
L 157.11085 -45.971831 
L 157.816702 -45.415235 
L 158.522555 -46.159006 
L 159.228408 -45.447058 
L 159.93426 -45.724785 
L 160.640113 -46.117529 
L 161.345965 -45.355065 
L 162.051818 -46.800514 
L 162.75767 -47.057325 
L 163.463523 -46.735641 
L 164.169376 -46.726439 
L 164.875228 -48.368925 
L 165.581081 -46.515776 
L 166.286933 -48.358657 
L 166.992786 -47.609429 
L 167.698639 -48.163443 
L 168.404491 -48.75145 
L 169.110344 -49.409875 
L 169.816196 -48.576569 
L 170.522049 -49.174179 
L 171.227902 -48.178118 
L 171.933754 -49.00476 
L 172.639607 -49.111227 
L 173.345459 -49.763428 
L 174.051312 -50.533792 
L 174.757164 -49.360834 
L 175.463017 -49.218665 
L 176.16887 -51.613386 
L 176.874722 -48.626081 
L 177.580575 -50.479629 
L 178.286427 -48.879236 
L 178.99228 -50.933187 
L 179.698133 -50.432989 
L 180.403985 -50.128004 
L 181.109838 -50.298548 
L 181.81569 -50.372285 
L 182.521543 -49.776378 
L 183.227396 -50.236151 
L 183.933248 -50.319833 
L 184.639101 -51.210396 
L 185.344953 -52.01733 
L 186.050806 -52.085384 
L 186.756658 -51.401132 
L 187.462511 -50.66123 
L 188.168364 -52.101049 
L 188.874216 -52.61783 
L 189.580069 -53.625857 
L 190.285921 -53.207874 
L 190.991774 -53.255311 
L 191.697627 -52.979807 
L 192.403479 -53.010955 
L 193.109332 -52.897781 
L 193.815184 -53.309531 
L 194.521037 -52.312622 
L 195.22689 -52.269235 
L 195.932742 -53.208227 
L 196.638595 -53.060593 
L 197.344447 -53.568677 
L 197.344447 -68.46386 
L 197.344447 -68.46386 
L 196.638595 -69.121564 
L 195.932742 -69.551481 
L 195.22689 -69.814317 
L 194.521037 -68.431897 
L 193.815184 -69.451513 
L 193.109332 -68.195348 
L 192.403479 -69.86607 
L 191.697627 -66.908799 
L 190.991774 -68.27868 
L 190.285921 -71.57405 
L 189.580069 -69.632475 
L 188.874216 -66.196938 
L 188.168364 -67.326436 
L 187.462511 -66.777034 
L 186.756658 -66.947023 
L 186.050806 -67.472281 
L 185.344953 -67.561455 
L 184.639101 -68.203732 
L 183.933248 -67.118387 
L 183.227396 -66.402728 
L 182.521543 -67.05513 
L 181.81569 -66.730278 
L 181.109838 -68.020491 
L 180.403985 -68.696929 
L 179.698133 -65.215388 
L 178.99228 -66.294 
L 178.286427 -66.780931 
L 177.580575 -65.775142 
L 176.874722 -63.792801 
L 176.16887 -65.164407 
L 175.463017 -65.871959 
L 174.757164 -65.455413 
L 174.051312 -65.990721 
L 173.345459 -64.630032 
L 172.639607 -64.869113 
L 171.933754 -64.396928 
L 171.227902 -65.500344 
L 170.522049 -65.616625 
L 169.816196 -63.605902 
L 169.110344 -62.464233 
L 168.404491 -65.162975 
L 167.698639 -64.509171 
L 166.992786 -62.426579 
L 166.286933 -60.966946 
L 165.581081 -62.703839 
L 164.875228 -64.309062 
L 164.169376 -62.047014 
L 163.463523 -61.107849 
L 162.75767 -63.102572 
L 162.051818 -61.383268 
L 161.345965 -60.844402 
L 160.640113 -59.973193 
L 159.93426 -61.05863 
L 159.228408 -59.961267 
L 158.522555 -62.502094 
L 157.816702 -61.13527 
L 157.11085 -60.583493 
L 156.404997 -60.817052 
L 155.699145 -59.125009 
L 154.993292 -57.433992 
L 154.287439 -59.755405 
L 153.581587 -58.15394 
L 152.875734 -60.251631 
L 152.169882 -57.886437 
L 151.464029 -59.255668 
L 150.758176 -56.697488 
L 150.052324 -59.012557 
L 149.346471 -58.62702 
L 148.640619 -57.510602 
L 147.934766 -56.944885 
L 147.228913 -54.917372 
L 146.523061 -53.12804 
L 145.817208 -53.892041 
L 145.111356 -54.953493 
L 144.405503 -52.998051 
L 143.699651 -55.26038 
L 142.993798 -55.254207 
L 142.287945 -51.434974 
L 141.582093 -50.870352 
L 140.87624 -50.603783 
L 140.170388 -52.069683 
L 139.464535 -49.847444 
L 138.758682 -50.781084 
L 138.05283 -50.024523 
L 137.346977 -50.627059 
L 136.641125 -49.257118 
L 135.935272 -47.746664 
L 135.229419 -48.871962 
L 134.523567 -47.478625 
L 133.817714 -48.369707 
L 133.111862 -47.127904 
L 132.406009 -45.785371 
L 131.700157 -42.542319 
L 130.994304 -43.457222 
L 130.288451 -43.673173 
L 129.582599 -42.998432 
L 128.876746 -44.087703 
L 128.170894 -41.500905 
z
" style="stroke: #808080; stroke-opacity: 0.6"/>
    </defs>
    <g clip-path="url(#p7decd43250)">
     <use xlink:href="#mee56671342" x="0" y="211.794375" style="fill: #808080; fill-opacity: 0.6; stroke: #808080; stroke-opacity: 0.6"/>
    </g>
   </g>
   <g id="matplotlib.axis_7">
    <g id="xtick_7">
     <g id="line2d_25">
      <g>
       <use xlink:href="#md094187a3b" x="127.465041" y="181.438125" style="stroke: #000000; stroke-width: 0.8"/>
      </g>
     </g>
     <g id="text_28">
      <text style="font: 10px 'sans-serif'; text-anchor: middle" x="127.465041" y="196.036563" transform="rotate(-0 127.465041 196.036563)">0</text>
     </g>
    </g>
    <g id="xtick_8">
     <g id="line2d_26">
      <g>
       <use xlink:href="#md094187a3b" x="198.0503" y="181.438125" style="stroke: #000000; stroke-width: 0.8"/>
      </g>
     </g>
     <g id="text_29">
      <text style="font: 10px 'sans-serif'; text-anchor: middle" x="198.0503" y="196.036563" transform="rotate(-0 198.0503 196.036563)">100</text>
     </g>
    </g>
    <g id="text_30">
     <text style="font: 10px 'sans-serif'; text-anchor: middle" x="162.75767" y="209.714688" transform="rotate(-0 162.75767 209.714688)"># neurons</text>
    </g>
   </g>
   <g id="matplotlib.axis_8">
    <g id="ytick_13">
     <g id="line2d_27">
      <g>
       <use xlink:href="#m17af8859b4" x="124.712216" y="181.438125" style="stroke: #000000; stroke-width: 0.8"/>
      </g>
     </g>
     <g id="text_31">
      <text style="font: 10px 'sans-serif'; text-anchor: end" x="117.712216" y="185.237344" transform="rotate(-0 117.712216 185.237344)">0</text>
     </g>
    </g>
    <g id="ytick_14">
     <g id="line2d_28">
      <g>
       <use xlink:href="#m17af8859b4" x="124.712216" y="156.238125" style="stroke: #000000; stroke-width: 0.8"/>
      </g>
     </g>
     <g id="text_32">
      <text style="font: 10px 'sans-serif'; text-anchor: end" x="117.712216" y="160.037344" transform="rotate(-0 117.712216 160.037344)">20</text>
     </g>
    </g>
    <g id="ytick_15">
     <g id="line2d_29">
      <g>
       <use xlink:href="#m17af8859b4" x="124.712216" y="131.038125" style="stroke: #000000; stroke-width: 0.8"/>
      </g>
     </g>
     <g id="text_33">
      <text style="font: 10px 'sans-serif'; text-anchor: end" x="117.712216" y="134.837344" transform="rotate(-0 117.712216 134.837344)">40</text>
     </g>
    </g>
    <g id="ytick_16">
     <g id="line2d_30">
      <g>
       <use xlink:href="#m17af8859b4" x="124.712216" y="105.838125" style="stroke: #000000; stroke-width: 0.8"/>
      </g>
     </g>
     <g id="text_34">
      <text style="font: 10px 'sans-serif'; text-anchor: end" x="117.712216" y="109.637344" transform="rotate(-0 117.712216 109.637344)">60</text>
     </g>
    </g>
    <g id="text_35">
     <text style="font: 10px 'sans-serif'; text-anchor: middle" x="98.907528" y="143.638125" transform="rotate(-90 98.907528 143.638125)">Decoding accuracy (%)</text>
    </g>
   </g>
   <g id="line2d_31">
    <path d="M 128.170894 174.767274 
L 128.876746 173.616738 
L 129.582599 172.68319 
L 130.288451 172.339319 
L 130.994304 172.078955 
L 131.700157 172.322118 
L 132.406009 170.614928 
L 133.111862 169.936663 
L 133.817714 169.076473 
L 134.523567 169.121184 
L 135.229419 168.94234 
L 135.935272 168.934583 
L 136.641125 167.558132 
L 137.346977 166.964728 
L 138.05283 167.329168 
L 138.758682 166.442189 
L 139.464535 166.90268 
L 140.170388 165.837107 
L 140.87624 166.473006 
L 141.582093 165.937956 
L 142.287945 165.80569 
L 142.993798 163.706216 
L 143.699651 163.102107 
L 144.405503 164.775002 
L 145.111356 162.990067 
L 145.817208 164.22689 
L 146.523061 163.650419 
L 147.228913 162.993091 
L 147.934766 161.842311 
L 148.640619 161.133149 
L 149.346471 160.559047 
L 150.052324 159.968537 
L 150.758176 161.946249 
L 151.464029 159.824457 
L 152.169882 160.908506 
L 152.875734 159.139825 
L 153.581587 160.131041 
L 154.287439 159.471259 
L 154.993292 160.392836 
L 155.699145 159.132718 
L 156.404997 158.989842 
L 157.11085 158.516713 
L 157.816702 158.519123 
L 158.522555 157.463825 
L 159.228408 159.090212 
L 159.93426 158.402667 
L 160.640113 158.749014 
L 161.345965 158.694642 
L 162.051818 157.702484 
L 162.75767 156.714427 
L 163.463523 157.87263 
L 164.169376 157.407649 
L 164.875228 155.455381 
L 165.581081 157.184567 
L 166.286933 157.131574 
L 166.992786 156.776371 
L 167.698639 155.458068 
L 168.404491 154.837163 
L 169.110344 155.857321 
L 169.816196 155.70314 
L 170.522049 154.398973 
L 171.227902 154.955144 
L 171.933754 155.093531 
L 172.639607 154.804205 
L 173.345459 154.597645 
L 174.051312 153.532118 
L 174.757164 154.386252 
L 175.463017 154.249063 
L 176.16887 153.405478 
L 176.874722 155.584934 
L 177.580575 153.666989 
L 178.286427 153.964292 
L 178.99228 153.180781 
L 179.698133 153.970186 
L 180.403985 152.381909 
L 181.109838 152.634855 
L 181.81569 153.243094 
L 182.521543 153.378621 
L 183.227396 153.474935 
L 183.933248 153.075265 
L 184.639101 152.087311 
L 185.344953 152.004983 
L 186.050806 152.015542 
L 186.756658 152.620298 
L 187.462511 153.075243 
L 188.168364 152.080633 
L 188.874216 152.386991 
L 189.580069 150.165209 
L 190.285921 149.403413 
L 190.991774 151.027379 
L 191.697627 151.850072 
L 192.403479 150.355862 
L 193.109332 151.247811 
L 193.815184 150.413853 
L 194.521037 151.422116 
L 195.22689 150.752599 
L 195.932742 150.414521 
L 196.638595 150.703297 
L 197.344447 150.778106 
" clip-path="url(#p7decd43250)" style="fill: none; stroke: #000000; stroke-width: 1.5; stroke-linecap: square"/>
   </g>
   <g id="line2d_32">
    <path d="M 136.641125 181.438125 
L 136.641125 105.838125 
" clip-path="url(#p7decd43250)" style="fill: none; stroke-dasharray: 1.85,0.8; stroke-dashoffset: 0; stroke: #000000; stroke-width: 0.5"/>
   </g>
   <g id="patch_12">
    <path d="M 124.712216 181.438125 
L 124.712216 105.838125 
" style="fill: none; stroke: #000000; stroke-width: 0.8; stroke-linejoin: miter; stroke-linecap: square"/>
   </g>
   <g id="patch_13">
    <path d="M 124.712216 181.438125 
L 200.803125 181.438125 
" style="fill: none; stroke: #000000; stroke-width: 0.8; stroke-linejoin: miter; stroke-linecap: square"/>
   </g>
   <g id="text_36">
    <text style="font: 12px 'sans-serif'; text-anchor: middle" x="162.75767" y="99.838125" transform="rotate(-0 162.75767 99.838125)">['PL']</text>
   </g>
  </g>
 </g>
 <defs>
  <clipPath id="p70e808a28b">
   <rect x="33.403125" y="15.118125" width="76.090909" height="75.6"/>
  </clipPath>
  <clipPath id="p62dc88e3eb">
   <rect x="124.712216" y="15.118125" width="76.090909" height="75.6"/>
  </clipPath>
  <clipPath id="p8b155e7030">
   <rect x="33.403125" y="105.838125" width="76.090909" height="75.6"/>
  </clipPath>
  <clipPath id="p7decd43250">
   <rect x="124.712216" y="105.838125" width="76.090909" height="75.6"/>
  </clipPath>
 </defs>
</svg>
